<svg width="356" height="72" viewBox="0 0 356 72" fill="none" xmlns="http://www.w3.org/2000/svg">
<path d="M85.4 58.42L92.64 57.75C92.66 57.75 92.69 57.75 92.74 57.75C93.19 57.75 93.41 57.97 93.41 58.41C93.41 58.8 93.2 59.02 92.78 59.05L88.83 59.37V63.27L95.27 62.88C95.76 62.85 96.01 63.06 96.01 63.5C96.01 63.93 95.79 64.15 95.36 64.18L88.83 64.57V70.65C88.83 70.77 88.8 70.87 88.74 70.96C88.62 71.16 88.42 71.26 88.14 71.26C87.86 71.26 87.66 71.16 87.53 70.96C87.48 70.87 87.45 70.76 87.45 70.65V64.65L81.11 65.02C81.07 65.02 81.04 65.02 81.01 65.02C80.58 65.02 80.37 64.82 80.37 64.41C80.37 63.99 80.59 63.76 81.02 63.73L87.44 63.35V59.47L84.69 59.69C84.14 60.65 83.44 61.59 82.61 62.52C82.45 62.7 82.3 62.78 82.16 62.78C82.05 62.78 81.94 62.74 81.84 62.66C81.71 62.57 81.65 62.45 81.65 62.3C81.65 62.19 81.78 61.97 82.04 61.61C82.51 60.97 82.98 60.16 83.46 59.18C83.98 58.12 84.4 57.04 84.73 55.93C84.86 55.48 85.12 55.26 85.49 55.26C85.61 55.26 85.72 55.28 85.83 55.31C86.14 55.42 86.3 55.62 86.3 55.93C86.3 56.05 86.24 56.29 86.12 56.64C85.92 57.28 85.67 57.87 85.4 58.42Z" fill="black"/>
<path d="M105.28 65.65L108.96 65.47C109.09 65.21 109.3 65.07 109.58 65.07C109.88 65.07 110.08 65.18 110.2 65.41L113.65 65.24H113.68C113.8 65.23 113.91 65.27 114.01 65.35C114.1 65.44 114.15 65.56 114.15 65.73C114.15 66.09 113.99 66.27 113.66 66.28L109.91 66.45C109.37 67.45 108.68 68.28 107.83 68.95C109.63 69.36 111.1 69.74 112.22 70.08C112.62 70.2 112.83 70.41 112.83 70.73C112.83 71.12 112.63 71.31 112.22 71.31C112.09 71.31 111.93 71.28 111.75 71.22C110.4 70.74 108.7 70.24 106.64 69.72C105.78 70.17 104.81 70.5 103.74 70.72C102.3 71.02 100.96 71.18 99.71 71.18C99.35 71.18 99.17 71.03 99.17 70.73C99.17 70.48 99.28 70.32 99.5 70.26C99.55 70.25 99.8 70.23 100.25 70.21C102.13 70.09 103.7 69.79 104.94 69.3L104.03 69.08L103.63 68.98C102.69 68.75 102.18 68.61 102.08 68.57C101.83 68.45 101.71 68.29 101.71 68.1C101.71 67.88 101.88 67.63 102.21 67.36C102.37 67.23 102.58 67.03 102.83 66.76L98.66 66.94C98.64 66.94 98.63 66.94 98.62 66.94C98.53 66.94 98.44 66.92 98.37 66.87C98.22 66.78 98.15 66.63 98.15 66.43C98.15 66.11 98.31 65.95 98.62 65.93L103.69 65.69C103.86 65.47 104.04 65.24 104.23 65C104.45 64.71 104.58 64.54 104.61 64.51C104.77 64.33 104.94 64.25 105.13 64.25C105.26 64.25 105.38 64.29 105.49 64.36C105.68 64.48 105.77 64.64 105.77 64.82C105.77 64.96 105.65 65.18 105.42 65.48L105.28 65.65ZM106.54 57.12L112.41 56.74C112.47 56.73 112.51 56.73 112.53 56.73C113.1 56.73 113.38 56.92 113.38 57.31C113.38 57.49 113.31 57.71 113.17 57.96C112.81 58.6 112.43 59.12 112.04 59.52C111.88 59.68 111.72 59.77 111.57 59.77C111.48 59.77 111.39 59.74 111.3 59.68C111.18 59.6 111.12 59.5 111.12 59.35C111.12 59.24 111.17 59.11 111.26 58.97C111.56 58.5 111.71 58.15 111.71 57.92C111.71 57.8 111.62 57.74 111.44 57.74C111.41 57.74 111.38 57.74 111.36 57.74L100.47 58.47C100.46 59.92 100.19 60.64 99.66 60.64C99.55 60.64 99.44 60.62 99.32 60.57C99.07 60.47 98.95 60.29 98.95 60.02C98.95 59.93 98.99 59.77 99.07 59.55C99.3 58.92 99.45 58.24 99.49 57.52C99.51 57.17 99.65 57 99.91 57C100.2 57 100.36 57.17 100.4 57.52L105.22 57.2V55.71C105.22 55.56 105.26 55.44 105.33 55.34C105.45 55.16 105.64 55.08 105.88 55.08C106.04 55.08 106.18 55.13 106.3 55.22C106.45 55.34 106.53 55.5 106.53 55.71V57.12H106.54ZM109.05 64.02L103.42 64.35C103.43 64.77 103.21 64.97 102.77 64.97C102.39 64.97 102.19 64.77 102.16 64.37L101.8 59.89L101.79 59.82C101.78 59.62 101.85 59.47 102.01 59.36C102.12 59.29 102.26 59.25 102.42 59.25C102.7 59.25 102.89 59.37 103 59.62L109.19 59.11L109.3 59.1C109.79 59.1 110.14 59.29 110.35 59.66C110.43 59.8 110.47 59.95 110.47 60.1C110.47 60.12 110.47 60.14 110.47 60.15L110.29 63.89C110.26 64.32 110.02 64.54 109.58 64.54C109.24 64.56 109.06 64.38 109.05 64.02ZM109.14 61.11L109.17 60.4C109.17 60.22 109.09 60.12 108.92 60.11L103.12 60.59L103.19 61.54L109.14 61.11ZM109.12 62.05L103.27 62.45L103.34 63.37L109.09 63.04L109.12 62.05ZM104.44 66.71C104.16 67.06 103.9 67.34 103.67 67.55C103.51 67.7 103.42 67.81 103.42 67.88C103.42 67.96 103.7 68.05 104.26 68.16C104.39 68.19 104.73 68.27 105.29 68.4C105.52 68.45 105.86 68.53 106.32 68.63C107.05 68.13 107.72 67.43 108.34 66.54L104.44 66.71Z" fill="black"/>
<path d="M139.83 57.47V68.88C139.83 69.09 139.76 69.26 139.63 69.39C139.48 69.53 139.29 69.6 139.06 69.6C138.71 69.6 138.48 69.46 138.35 69.19C138.31 69.1 138.29 69 138.29 68.88V57.47C138.29 57.23 138.38 57.04 138.56 56.91C138.7 56.8 138.87 56.75 139.06 56.75C139.35 56.75 139.56 56.85 139.71 57.06C139.78 57.16 139.83 57.3 139.83 57.47Z" fill="black"/>
<path d="M148.21 68.1H154.98C155.46 68.1 155.7 68.33 155.7 68.79C155.7 69.25 155.46 69.48 154.98 69.48H147.57C146.87 69.48 146.52 69.16 146.52 68.53C146.52 68.15 146.7 67.77 147.05 67.38C147.8 66.55 149.1 65.3 150.95 63.63C151.92 62.75 152.55 62.14 152.86 61.78C153.39 61.16 153.65 60.58 153.65 60.04C153.65 59.37 153.41 58.84 152.94 58.47C152.48 58.09 151.85 57.91 151.07 57.91C149.83 57.91 148.92 58.47 148.34 59.6C148.16 59.95 147.92 60.12 147.61 60.12C147.47 60.12 147.33 60.08 147.19 60.01C146.96 59.9 146.85 59.7 146.85 59.4C146.85 59.15 146.97 58.84 147.21 58.49C147.57 57.94 148.08 57.49 148.73 57.15C149.44 56.77 150.23 56.59 151.09 56.59C152.16 56.59 153.06 56.83 153.81 57.31C154.81 57.94 155.3 58.86 155.3 60.07C155.3 60.84 155 61.59 154.39 62.31C154.1 62.66 153.38 63.33 152.23 64.32C150.35 65.94 149.01 67.2 148.21 68.1Z" fill="black"/>
<path d="M159.77 60.84C160 60.84 160.23 60.91 160.45 61.05C160.84 61.3 161.04 61.66 161.04 62.12C161.04 62.46 160.92 62.75 160.69 63C160.44 63.26 160.12 63.4 159.75 63.4C159.54 63.4 159.35 63.35 159.17 63.25C158.71 63.01 158.48 62.63 158.48 62.11C158.48 61.72 158.63 61.4 158.94 61.14C159.17 60.94 159.45 60.84 159.77 60.84ZM159.77 67.04C160 67.04 160.23 67.11 160.45 67.25C160.84 67.5 161.04 67.86 161.04 68.32C161.04 68.66 160.92 68.95 160.69 69.2C160.44 69.46 160.12 69.6 159.75 69.6C159.54 69.6 159.35 69.55 159.17 69.46C158.71 69.21 158.48 68.83 158.48 68.31C158.48 67.92 158.63 67.6 158.94 67.34C159.17 67.14 159.45 67.04 159.77 67.04Z" fill="black"/>
<path d="M168.59 56.58C170.05 56.58 171.24 57.2 172.17 58.44C173.07 59.65 173.52 61.19 173.52 63.05C173.52 64.53 173.28 65.81 172.8 66.88C172.48 67.58 172.06 68.17 171.54 68.64C170.71 69.4 169.71 69.77 168.55 69.77C166.91 69.77 165.63 69.04 164.71 67.57C163.98 66.4 163.62 64.89 163.62 63.03C163.62 61.17 164.07 59.63 164.98 58.42C165.91 57.19 167.11 56.58 168.59 56.58ZM168.56 57.95C167.53 57.95 166.71 58.45 166.08 59.44C165.49 60.38 165.19 61.62 165.19 63.16C165.19 64.58 165.43 65.74 165.92 66.65C166.54 67.81 167.43 68.39 168.58 68.39C169.68 68.39 170.54 67.85 171.16 66.76C171.69 65.85 171.95 64.65 171.95 63.17C171.95 61.73 171.69 60.54 171.16 59.61C170.54 58.5 169.67 57.95 168.56 57.95Z" fill="black"/>
<path d="M180.47 56.58C181.93 56.58 183.12 57.2 184.05 58.44C184.95 59.65 185.4 61.19 185.4 63.05C185.4 64.53 185.16 65.81 184.68 66.88C184.36 67.58 183.94 68.17 183.42 68.64C182.59 69.4 181.59 69.77 180.43 69.77C178.79 69.77 177.51 69.04 176.59 67.57C175.86 66.4 175.5 64.89 175.5 63.03C175.5 61.17 175.95 59.63 176.86 58.42C177.8 57.19 179 56.58 180.47 56.58ZM180.44 57.95C179.41 57.95 178.59 58.45 177.96 59.44C177.37 60.38 177.07 61.62 177.07 63.16C177.07 64.58 177.31 65.74 177.8 66.65C178.42 67.81 179.31 68.39 180.46 68.39C181.56 68.39 182.42 67.85 183.04 66.76C183.57 65.85 183.83 64.65 183.83 63.17C183.83 61.73 183.57 60.54 183.04 59.61C182.42 58.5 181.55 57.95 180.44 57.95Z" fill="black"/>
<path d="M214.03 67.36V70.6C214.03 71.04 213.8 71.26 213.35 71.26C212.89 71.26 212.66 71.04 212.66 70.6V67.41L206.15 67.66H206.1C205.68 67.66 205.48 67.46 205.48 67.07C205.48 66.72 205.67 66.54 206.06 66.53L212.67 66.26V65.42C212.67 64.97 212.9 64.75 213.35 64.75C213.81 64.75 214.04 64.97 214.04 65.42V66.21L220.63 65.94H220.66C221.09 65.94 221.31 66.12 221.31 66.49C221.31 66.89 221.11 67.09 220.7 67.11L214.03 67.36ZM206.25 58.41C206.61 58.41 207.24 58.64 208.15 59.09C208.85 59.44 209.2 59.77 209.2 60.1C209.2 60.23 209.15 60.35 209.06 60.48C208.93 60.67 208.74 60.76 208.52 60.76C208.38 60.76 208.2 60.67 207.99 60.5C207.49 60.08 206.87 59.68 206.12 59.3C205.89 59.18 205.78 59.02 205.78 58.83C205.78 58.54 205.94 58.41 206.25 58.41ZM209.97 61.51C210.08 61.51 210.19 61.57 210.3 61.68C210.39 61.77 210.44 61.89 210.44 62.01C210.44 62.16 210.37 62.31 210.24 62.47C209.65 63.13 208.79 63.9 207.65 64.78C207.26 65.08 206.98 65.23 206.82 65.23C206.42 65.23 206.21 65.01 206.21 64.57C206.21 64.29 206.4 64.04 206.79 63.81C207.28 63.52 208.21 62.81 209.6 61.67C209.73 61.57 209.85 61.51 209.97 61.51ZM207.39 55.89C207.78 55.89 208.45 56.1 209.41 56.51C209.65 56.61 209.83 56.7 209.95 56.77C210.19 56.92 210.31 57.12 210.31 57.36C210.31 57.49 210.27 57.63 210.18 57.76C210.03 57.97 209.86 58.07 209.65 58.07C209.52 58.07 209.33 57.98 209.11 57.81C208.61 57.42 208 57.07 207.28 56.76C207.03 56.64 206.9 56.5 206.9 56.32C206.89 56.04 207.06 55.89 207.39 55.89ZM215.64 57.33C215.86 56.91 216.06 56.37 216.26 55.71C216.37 55.33 216.59 55.14 216.9 55.14C217.09 55.14 217.25 55.18 217.4 55.27C217.55 55.36 217.63 55.48 217.63 55.65C217.63 55.94 217.37 56.45 216.85 57.19L219.45 56.88C219.5 56.87 219.53 56.87 219.56 56.87C219.89 56.87 220.06 57.04 220.06 57.37C220.06 57.7 219.88 57.88 219.51 57.92L216.9 58.2V59.1L219.11 58.87C219.13 58.87 219.15 58.87 219.18 58.87C219.53 58.87 219.7 59.02 219.7 59.33C219.7 59.64 219.53 59.81 219.18 59.85L216.89 60.07V61.05L219.1 60.86C219.14 60.85 219.16 60.85 219.18 60.85C219.39 60.84 219.54 60.91 219.64 61.08C219.68 61.15 219.69 61.23 219.69 61.31C219.69 61.63 219.52 61.8 219.17 61.83L216.88 62.01V63.1L219.96 62.89C220.38 62.86 220.59 63.02 220.59 63.38C220.59 63.73 220.4 63.91 220.03 63.93L213.3 64.36C213.21 64.66 213.01 64.81 212.68 64.81C212.23 64.81 212.01 64.59 212.02 64.14L212.09 59.31C211.49 59.98 211.07 60.32 210.82 60.32C210.7 60.32 210.59 60.26 210.49 60.15C210.4 60.04 210.35 59.94 210.35 59.85C210.35 59.69 210.46 59.5 210.67 59.28C211.61 58.31 212.42 57.06 213.1 55.54C213.24 55.23 213.45 55.07 213.73 55.07C213.85 55.07 213.97 55.1 214.09 55.15C214.34 55.27 214.47 55.45 214.47 55.69C214.47 56.01 214.14 56.63 213.47 57.57L215.64 57.33ZM213.32 58.59V59.48L215.67 59.24V58.34L213.32 58.59ZM213.32 60.42V61.37L215.67 61.17V60.19L213.32 60.42ZM215.67 62.12L213.32 62.31V63.36L215.67 63.19V62.12Z" fill="black"/>
<path d="M227.62 67.99L225.19 68.17V68.27C225.19 68.66 224.98 68.85 224.56 68.85C224.31 68.85 224.13 68.76 224.02 68.58C223.97 68.49 223.94 68.39 223.94 68.27V57.79C223.94 57.61 224.01 57.46 224.14 57.36C224.26 57.27 224.4 57.22 224.57 57.22C224.9 57.22 225.11 57.37 225.18 57.67L227.63 57.33C227.72 57.32 227.82 57.31 227.91 57.31C228.56 57.31 228.89 57.72 228.89 58.55V68.35C228.89 68.73 228.68 68.92 228.26 68.92C228.01 68.92 227.83 68.83 227.72 68.65C227.67 68.56 227.64 68.46 227.64 68.35V67.99H227.62ZM227.62 62.04V58.83C227.62 58.6 227.52 58.48 227.33 58.47C227.31 58.47 227.28 58.47 227.26 58.47L225.19 58.74V62.23L227.62 62.04ZM227.62 63.08L225.19 63.27V67.04L227.62 66.87V63.08ZM234.6 58.81V60.77L238.91 60.37C238.93 60.37 238.95 60.37 238.98 60.37C239.35 60.37 239.53 60.56 239.53 60.93C239.53 61.27 239.36 61.45 239.03 61.48L229.94 62.31C229.9 62.31 229.88 62.31 229.87 62.31C229.71 62.31 229.57 62.25 229.45 62.13C229.34 62.02 229.29 61.89 229.29 61.72C229.29 61.4 229.47 61.22 229.82 61.19L233.31 60.86V58.9L230.75 59.13C230.54 59.15 230.37 59.09 230.21 58.96C230.08 58.84 230.01 58.71 230.01 58.56C230.01 58.23 230.19 58.04 230.54 58.02L233.31 57.78V55.87C233.31 55.69 233.38 55.54 233.51 55.43C233.63 55.33 233.77 55.28 233.95 55.28C234.17 55.28 234.35 55.36 234.48 55.51C234.56 55.61 234.6 55.73 234.6 55.87V57.66L237.33 57.41C237.36 57.41 237.38 57.41 237.39 57.41C237.63 57.39 237.8 57.49 237.9 57.71C237.94 57.79 237.96 57.88 237.96 57.98C237.96 58.31 237.79 58.5 237.46 58.52L234.6 58.81ZM236.65 64.99V69.75C236.65 70.59 236.3 71.02 235.59 71.02C235.25 71.02 234.79 70.91 234.22 70.69C233.26 70.31 232.78 69.99 232.78 69.71C232.78 69.42 232.92 69.27 233.21 69.27C233.3 69.27 233.44 69.3 233.64 69.36C234.17 69.53 234.61 69.61 234.94 69.61C235.19 69.61 235.32 69.45 235.32 69.14V65.11L230.26 65.54C229.83 65.53 229.62 65.34 229.62 64.97C229.62 64.64 229.79 64.45 230.14 64.43L235.33 63.99V62.52C235.33 62.3 235.42 62.13 235.59 62.02C235.71 61.94 235.85 61.91 235.99 61.91C236.18 61.91 236.34 61.97 236.47 62.09C236.59 62.2 236.65 62.34 236.65 62.52V63.87L238.43 63.72C238.45 63.72 238.48 63.72 238.51 63.72C238.87 63.74 239.05 63.93 239.05 64.28C239.05 64.62 238.88 64.8 238.55 64.83L236.65 64.99ZM231.23 65.78C231.36 65.78 231.53 65.84 231.73 65.97C232.97 66.73 233.58 67.35 233.58 67.83C233.58 68 233.52 68.15 233.4 68.28C233.26 68.42 233.09 68.49 232.9 68.49C232.66 68.49 232.42 68.33 232.18 68.01C231.9 67.64 231.52 67.21 231.04 66.71C230.87 66.54 230.79 66.38 230.79 66.22C230.79 66.1 230.83 66 230.92 65.91C231.01 65.82 231.11 65.78 231.23 65.78Z" fill="black"/>
<path d="M246.8 61.18L243.64 61.42V70.1C243.64 70.27 243.58 70.41 243.46 70.52C243.34 70.63 243.18 70.68 242.99 70.68C242.56 70.68 242.35 70.49 242.35 70.1V56.73C242.35 56.54 242.42 56.39 242.55 56.28C242.68 56.18 242.83 56.13 242.99 56.13C243.27 56.13 243.47 56.24 243.59 56.47L246.9 56.16C246.96 56.15 247.05 56.15 247.15 56.15C247.82 56.15 248.14 56.55 248.11 57.35L247.97 61.18C247.94 61.54 247.74 61.72 247.37 61.72C246.98 61.73 246.8 61.54 246.8 61.18ZM246.89 58.2L246.91 57.54C246.92 57.31 246.82 57.19 246.61 57.18C246.59 57.18 246.58 57.18 246.57 57.18H246.54L243.62 57.44V58.42L246.89 58.2ZM246.86 59.15L243.63 59.38V60.44L246.83 60.2L246.86 59.15ZM251.59 65.06L253.6 64.95C253.99 64.95 254.18 65.13 254.18 65.49C254.18 65.82 254.02 66 253.7 66.02L251.59 66.13V69.78C251.59 69.92 251.55 70.04 251.46 70.13C251.34 70.26 251.18 70.32 250.98 70.32C250.75 70.32 250.58 70.24 250.46 70.08C250.4 70 250.37 69.9 250.37 69.77V66.19L248.37 66.3C248.16 67.67 247.68 68.78 246.91 69.64C246.62 69.96 246.39 70.11 246.22 70.11C246.09 70.11 245.97 70.06 245.85 69.95C245.76 69.86 245.71 69.76 245.71 69.63C245.71 69.5 245.85 69.26 246.12 68.93C246.66 68.27 247.01 67.41 247.15 66.35L245.22 66.46C245.18 66.46 245.16 66.46 245.15 66.46C244.93 66.46 244.78 66.36 244.69 66.15C244.66 66.08 244.65 66 244.65 65.92C244.65 65.57 244.81 65.39 245.13 65.38L247.24 65.27L247.25 65.16C247.26 64.98 247.26 64.8 247.26 64.6V63.5L245.92 63.59C245.91 63.59 245.88 63.59 245.85 63.59C245.53 63.59 245.37 63.42 245.37 63.07C245.37 62.74 245.53 62.57 245.84 62.54L252.66 62.09H252.7C253.05 62.1 253.22 62.28 253.22 62.62C253.22 62.94 253.06 63.12 252.75 63.14L251.6 63.21V65.06H251.59ZM250.37 65.12V63.3L248.48 63.43V64.57C248.48 64.8 248.47 65.02 248.46 65.22L250.37 65.12ZM255.16 60.83L251.46 61.05C251.44 61.39 251.24 61.56 250.87 61.56C250.47 61.56 250.27 61.38 250.27 61.02V56.34C250.27 55.98 250.47 55.8 250.87 55.8C251.13 55.8 251.32 55.91 251.41 56.12L255.14 55.8C255.22 55.79 255.31 55.79 255.42 55.79C255.91 55.79 256.22 55.98 256.35 56.35C256.41 56.53 256.45 56.78 256.45 57.1V69.83C256.45 70.59 256.15 70.96 255.54 70.96C255.15 70.96 254.59 70.81 253.86 70.52C253.52 70.38 253.25 70.25 253.05 70.13C252.89 70.03 252.8 69.9 252.8 69.73C252.8 69.45 252.93 69.31 253.2 69.31C253.3 69.31 253.45 69.35 253.67 69.42C254.1 69.55 254.45 69.62 254.73 69.62C255.01 69.62 255.14 69.45 255.14 69.12V60.83H255.16ZM255.16 57.83V57.18C255.16 56.92 255.03 56.8 254.78 56.82L251.46 57.09V58.07L255.16 57.83ZM255.16 58.78L251.46 59.02V60.07L255.16 59.85V58.78Z" fill="black"/>
<path d="M268 57.01L273.77 56.61C273.9 56.61 274.01 56.64 274.1 56.7C274.28 56.81 274.36 56.96 274.36 57.17C274.36 57.38 274.28 57.53 274.11 57.64C274.04 57.68 273.96 57.7 273.86 57.71L262.32 58.48C262.31 62.79 262.01 65.94 261.41 67.95C261.12 68.93 260.79 69.73 260.44 70.32C260.31 70.54 260.15 70.65 259.97 70.65C259.88 70.65 259.79 70.63 259.71 70.58C259.53 70.49 259.45 70.34 259.45 70.14C259.45 70.05 259.51 69.87 259.63 69.61C260.13 68.53 260.51 67.02 260.76 65.08C260.96 63.56 261.06 61.38 261.07 58.54C260.79 58.48 260.66 58.29 260.66 58C260.66 57.66 260.86 57.48 261.27 57.46L266.75 57.08V55.62C266.75 55.43 266.81 55.27 266.94 55.16C267.06 55.05 267.2 55 267.38 55C267.6 55 267.78 55.08 267.91 55.24C267.99 55.35 268.02 55.47 268.02 55.62V57.01H268ZM269.07 64.3L272.2 64.05C272.28 64.04 272.34 64.04 272.38 64.04C273.23 64.04 273.65 64.48 273.65 65.37C273.65 66.37 273.54 67.38 273.32 68.42C273.17 69.12 272.8 69.47 272.19 69.47C271.66 69.47 271.05 69.29 270.37 68.92C270.14 68.79 270.03 68.64 270.03 68.46C270.03 68.2 270.14 68.07 270.36 68.07C270.44 68.07 270.54 68.09 270.66 68.12C271.04 68.23 271.35 68.28 271.61 68.28C271.87 68.28 272.04 68.15 272.12 67.88C272.27 67.31 272.35 66.56 272.35 65.61C272.35 65.31 272.23 65.16 272 65.16C271.99 65.16 271.99 65.16 271.97 65.16L269.05 65.38V70.64C269.05 71.06 268.84 71.26 268.42 71.26C268 71.26 267.8 71.05 267.8 70.64V65.49L264.86 65.71L265.13 69C265.13 69.01 265.13 69.03 265.13 69.05C265.13 69.46 264.92 69.67 264.5 69.67C264.11 69.67 263.91 69.46 263.88 69.05L263.57 64.99C263.56 64.94 263.56 64.91 263.56 64.9C263.56 64.68 263.65 64.52 263.82 64.4C263.92 64.34 264.04 64.3 264.18 64.3C264.46 64.3 264.64 64.41 264.73 64.63L267.79 64.39V63.17L266.77 63.25C266.66 63.41 266.49 63.49 266.24 63.49C265.88 63.49 265.68 63.29 265.64 62.89L265.48 61.05L263.34 61.2C263.3 61.2 263.27 61.2 263.23 61.2C262.88 61.2 262.7 61.03 262.7 60.7C262.7 60.36 262.89 60.18 263.26 60.16L265.38 60L265.29 59.06C265.29 59.03 265.29 59 265.29 58.98C265.29 58.62 265.5 58.44 265.91 58.44C266.29 58.44 266.49 58.65 266.53 59.06L266.59 59.91L269.91 59.67L269.95 58.76C269.97 58.35 270.18 58.14 270.57 58.14C270.98 58.14 271.19 58.32 271.19 58.68C271.19 58.7 271.19 58.73 271.19 58.75L271.14 59.56L273.39 59.4L273.48 59.39C273.69 59.38 273.84 59.45 273.95 59.59C274.03 59.69 274.06 59.81 274.06 59.95C274.06 60.27 273.87 60.45 273.5 60.48L271.07 60.65L270.99 61.96C271.21 62.03 271.32 62.19 271.32 62.43C271.32 62.73 271.14 62.89 270.77 62.92L269.06 63.05V64.3H269.07ZM266.81 62.27L269.82 62.04L269.89 60.76L266.71 60.98L266.81 62.27Z" fill="black"/>
<path d="M29.44 31.42H47.49C48.77 31.42 49.41 32.03 49.41 33.25C49.41 34.47 48.77 35.08 47.49 35.08H27.72C25.86 35.08 24.93 34.24 24.93 32.55C24.93 31.55 25.4 30.53 26.34 29.48C28.34 27.26 31.81 23.93 36.75 19.47C39.33 17.13 41.02 15.49 41.84 14.55C43.25 12.89 43.95 11.35 43.95 9.91C43.95 8.11 43.32 6.70999 42.05 5.70999C40.82 4.70999 39.15 4.20999 37.06 4.20999C33.75 4.20999 31.32 5.70999 29.77 8.70999C29.3 9.62999 28.65 10.09 27.82 10.09C27.44 10.09 27.07 10 26.69 9.81C26.08 9.51 25.78 8.97 25.78 8.19C25.78 7.52 26.1 6.71 26.74 5.75C27.71 4.28 29.06 3.09 30.79 2.19C32.68 1.19 34.78 0.690002 37.09 0.690002C39.93 0.690002 42.36 1.32999 44.36 2.60999C47.02 4.27999 48.34 6.74 48.34 9.97C48.34 12.03 47.54 14.02 45.93 15.95C45.15 16.87 43.23 18.66 40.16 21.32C35.15 25.67 31.58 29.03 29.44 31.42Z" fill="black"/>
<path d="M68.44 0.700012C72.33 0.700012 75.51 2.36001 77.98 5.67001C80.39 8.90001 81.59 13 81.59 17.95C81.59 21.9 80.95 25.31 79.67 28.17C78.83 30.05 77.71 31.61 76.32 32.86C74.1 34.88 71.44 35.88 68.35 35.88C63.97 35.88 60.56 33.93 58.11 30.02C56.17 26.91 55.2 22.88 55.2 17.93C55.2 12.96 56.41 8.86 58.83 5.63C61.29 2.34 64.5 0.700012 68.44 0.700012ZM68.34 4.35001C65.61 4.35001 63.4 5.67 61.73 8.31C60.15 10.83 59.36 14.13 59.36 18.22C59.36 22 60.01 25.1 61.31 27.52C62.97 30.61 65.33 32.16 68.41 32.16C71.33 32.16 73.63 30.71 75.3 27.8C76.71 25.36 77.41 22.17 77.41 18.24C77.41 14.4 76.71 11.23 75.3 8.75C73.63 5.82 71.31 4.35001 68.34 4.35001Z" fill="black"/>
<path d="M92.81 31.42H110.86C112.14 31.42 112.78 32.03 112.78 33.25C112.78 34.47 112.14 35.08 110.86 35.08H91.1C89.24 35.08 88.31 34.24 88.31 32.55C88.31 31.55 88.78 30.53 89.72 29.48C91.72 27.26 95.19 23.93 100.13 19.47C102.71 17.13 104.4 15.49 105.22 14.55C106.63 12.89 107.33 11.35 107.33 9.91C107.33 8.11 106.7 6.70999 105.43 5.70999C104.2 4.70999 102.53 4.20999 100.44 4.20999C97.13 4.20999 94.7 5.70999 93.15 8.70999C92.68 9.62999 92.03 10.09 91.2 10.09C90.82 10.09 90.45 10 90.07 9.81C89.46 9.51 89.16 8.97 89.16 8.19C89.16 7.52 89.48 6.71 90.12 5.75C91.09 4.28 92.44 3.09 94.17 2.19C96.06 1.19 98.16 0.690002 100.47 0.690002C103.31 0.690002 105.74 1.32999 107.74 2.60999C110.4 4.27999 111.72 6.74 111.72 9.97C111.72 12.03 110.92 14.02 109.31 15.95C108.53 16.87 106.61 18.66 103.54 21.32C98.53 25.67 94.95 29.03 92.81 31.42Z" fill="black"/>
<path d="M123.51 19.05C124.03 18.17 124.58 17.45 125.17 16.87C127.26 14.82 129.82 13.8 132.83 13.8C135.66 13.8 138.07 14.6 140.07 16.19C142.62 18.21 143.89 20.93 143.89 24.37C143.89 26.68 143.32 28.76 142.18 30.6C140.99 32.52 139.35 33.94 137.26 34.87C135.74 35.54 134.09 35.88 132.29 35.88C128.1 35.88 124.79 34.24 122.35 30.96C120.58 28.58 119.7 25.72 119.7 22.36C119.7 15.92 122.35 10.19 127.65 5.16C129.42 3.49 131.31 2.07001 133.35 0.890015C133.85 0.590015 134.33 0.440002 134.78 0.440002C135.39 0.440002 135.87 0.680013 136.23 1.17001C136.5 1.56001 136.63 1.95 136.63 2.34C136.63 2.97 136.08 3.59 134.97 4.22C131.02 6.47 127.92 9.57999 125.69 13.55C124.76 15.2 124.03 17.03 123.51 19.05ZM132.35 17.2C129.9 17.2 127.79 18.21 126.02 20.22C124.83 21.6 124.24 23.07 124.24 24.65C124.24 26.92 125.02 28.77 126.58 30.2C128.08 31.58 129.93 32.26 132.13 32.26C134.6 32.26 136.55 31.42 137.99 29.75C139.24 28.31 139.87 26.51 139.87 24.34C139.87 21.5 138.74 19.45 136.47 18.2C135.27 17.53 133.9 17.2 132.35 17.2Z" fill="black"/>
<path d="M155.48 28.02C156.12 28.02 156.73 28.19 157.31 28.54C158.54 29.26 159.16 30.31 159.16 31.7C159.16 32.37 158.98 33.01 158.62 33.62C157.89 34.81 156.82 35.4 155.43 35.4C154.51 35.4 153.69 35.07 152.97 34.42C152.17 33.69 151.77 32.78 151.77 31.7C151.77 30.53 152.24 29.57 153.18 28.82C153.86 28.29 154.62 28.02 155.48 28.02Z" fill="black"/>
<path d="M179.25 0.700012C183.14 0.700012 186.32 2.36001 188.79 5.67001C191.2 8.90001 192.4 13 192.4 17.95C192.4 21.9 191.76 25.31 190.48 28.17C189.64 30.05 188.52 31.61 187.13 32.86C184.91 34.88 182.25 35.88 179.16 35.88C174.78 35.88 171.37 33.93 168.92 30.02C166.98 26.91 166.01 22.88 166.01 17.93C166.01 12.96 167.22 8.86 169.64 5.63C172.11 2.34 175.31 0.700012 179.25 0.700012ZM179.15 4.35001C176.42 4.35001 174.21 5.67 172.54 8.31C170.96 10.83 170.17 14.13 170.17 18.22C170.17 22 170.82 25.1 172.12 27.52C173.78 30.61 176.14 32.16 179.22 32.16C182.14 32.16 184.44 30.71 186.11 27.8C187.52 25.36 188.22 22.17 188.22 18.24C188.22 14.4 187.52 11.23 186.11 8.75C184.44 5.82 182.12 4.35001 179.15 4.35001Z" fill="black"/>
<path d="M214.78 17.08C216.62 17.36 218.14 17.91 219.33 18.72C221.74 20.38 222.94 22.72 222.94 25.75C222.94 29.08 221.64 31.67 219.03 33.53C216.83 35.09 214.04 35.87 210.66 35.87C206.3 35.87 202.81 34.59 200.18 32.03C199.23 31.11 198.75 30.29 198.75 29.57C198.75 29.07 198.98 28.64 199.43 28.28C199.84 27.94 200.27 27.76 200.74 27.76C201.27 27.76 201.87 28.15 202.52 28.93C203.43 30.04 204.7 30.91 206.34 31.56C207.65 32.06 209.08 32.31 210.63 32.31C212.57 32.31 214.24 31.9 215.65 31.09C217.73 29.87 218.77 28.1 218.77 25.77C218.77 23.79 218.16 22.19 216.94 20.99C216.05 20.11 214.93 19.55 213.59 19.3C212.54 19.11 211.07 19.02 209.18 19.02L208.31 19.04C206.89 19.04 206.18 18.46 206.18 17.31C206.18 16.47 206.54 15.95 207.26 15.76C207.49 15.7 207.92 15.67 208.53 15.67C214.44 15.67 217.39 13.63 217.39 9.54999C217.39 7.82999 216.75 6.48 215.47 5.5C214.24 4.56 212.59 4.09 210.52 4.09C207.3 4.09 204.95 5.22 203.47 7.47C203.08 8.03 202.58 8.31 201.97 8.31C201.53 8.31 201.12 8.17001 200.73 7.89001C200.23 7.53001 199.98 7.08 199.98 6.53C199.98 5.97 200.33 5.30001 201.03 4.54001C201.98 3.52001 203.16 2.68001 204.57 2.01001C206.46 1.13001 208.47 0.700012 210.59 0.700012C213.01 0.700012 215.11 1.17999 216.89 2.14999C219.91 3.78999 221.41 6.28 221.41 9.63C221.41 12.96 219.78 15.27 216.51 16.57C216.11 16.72 215.53 16.89 214.78 17.08Z" fill="black"/>
<path d="M234.61 28.02C235.25 28.02 235.86 28.19 236.44 28.54C237.67 29.26 238.29 30.31 238.29 31.7C238.29 32.37 238.11 33.01 237.75 33.62C237.02 34.81 235.95 35.4 234.56 35.4C233.64 35.4 232.82 35.07 232.1 34.42C231.3 33.69 230.9 32.78 230.9 31.7C230.9 30.53 231.37 29.57 232.31 28.82C232.98 28.29 233.75 28.02 234.61 28.02Z" fill="black"/>
<path d="M251.06 31.42H269.11C270.39 31.42 271.03 32.03 271.03 33.25C271.03 34.47 270.39 35.08 269.11 35.08H249.35C247.49 35.08 246.56 34.24 246.56 32.55C246.56 31.55 247.03 30.53 247.97 29.48C249.97 27.26 253.44 23.93 258.38 19.47C260.96 17.13 262.65 15.49 263.47 14.55C264.88 12.89 265.58 11.35 265.58 9.91C265.58 8.11 264.95 6.70999 263.68 5.70999C262.45 4.70999 260.78 4.20999 258.69 4.20999C255.38 4.20999 252.95 5.70999 251.4 8.70999C250.93 9.62999 250.28 10.09 249.45 10.09C249.07 10.09 248.7 10 248.32 9.81C247.71 9.51 247.41 8.97 247.41 8.19C247.41 7.52 247.73 6.71 248.37 5.75C249.34 4.28 250.69 3.09 252.42 2.19C254.31 1.19 256.41 0.690002 258.72 0.690002C261.56 0.690002 263.99 1.32999 265.99 2.60999C268.65 4.27999 269.97 6.74 269.97 9.97C269.97 12.03 269.17 14.02 267.56 15.95C266.78 16.87 264.86 18.66 261.79 21.32C256.78 25.67 253.2 29.03 251.06 31.42Z" fill="black"/>
<path d="M292.08 3.06V33.48C292.08 34.03 291.9 34.48 291.54 34.84C291.15 35.22 290.64 35.4 290.02 35.4C289.1 35.4 288.47 35.03 288.12 34.3C288.01 34.07 287.96 33.79 287.96 33.48V3.06C287.96 2.42 288.2 1.92 288.69 1.56C289.07 1.28 289.51 1.14001 290.03 1.14001C290.8 1.14001 291.37 1.40999 291.76 1.95999C291.97 2.25999 292.08 2.63 292.08 3.06Z" fill="black"/>
<path d="M320.48 34.05C328.306 34.05 334.65 27.7059 334.65 19.88C334.65 12.0541 328.306 5.70999 320.48 5.70999C312.654 5.70999 306.31 12.0541 306.31 19.88C306.31 27.7059 312.654 34.05 320.48 34.05Z" fill="black"/>
<path d="M321.2 14.96L327.94 14.51C328.46 14.51 328.72 14.73 328.72 15.18C328.72 15.62 328.5 15.86 328.07 15.88L313.02 16.89C312.99 16.89 312.97 16.89 312.94 16.89C312.71 16.89 312.53 16.81 312.4 16.64C312.29 16.51 312.23 16.36 312.23 16.18C312.23 15.76 312.45 15.54 312.89 15.51L319.63 15.07V11.59C319.63 11.36 319.7 11.18 319.84 11.04C319.99 10.9 320.17 10.83 320.4 10.83C320.69 10.83 320.9 10.93 321.05 11.14C321.14 11.26 321.19 11.41 321.19 11.59V14.96H321.2ZM317.29 19.48C317.45 19.48 317.59 19.53 317.73 19.62C317.94 19.76 318.05 19.96 318.05 20.21C318.05 20.42 317.92 20.77 317.66 21.24C316.61 23.13 315.26 24.65 313.63 25.81C313.35 26.01 313.12 26.1 312.95 26.1C312.81 26.1 312.69 26.05 312.58 25.94C312.47 25.83 312.41 25.71 312.41 25.57C312.41 25.41 312.46 25.28 312.57 25.16C312.6 25.13 312.73 25.01 312.96 24.8C314.05 23.82 315.01 22.65 315.85 21.28C316.08 20.89 316.3 20.49 316.49 20.09C316.68 19.69 316.96 19.48 317.29 19.48ZM323.34 19.17C323.74 19.17 324.74 20.09 326.34 21.94C327.13 22.85 327.78 23.67 328.27 24.38C328.43 24.61 328.5 24.84 328.5 25.06C328.5 25.3 328.41 25.49 328.24 25.63C328.06 25.77 327.86 25.84 327.64 25.84C327.41 25.84 327.22 25.76 327.06 25.61C326.97 25.53 326.83 25.33 326.65 25.01C325.61 23.28 324.42 21.7 323.07 20.26C322.89 20.07 322.8 19.89 322.8 19.71C322.8 19.57 322.86 19.45 322.97 19.33C323.07 19.23 323.2 19.17 323.34 19.17Z" fill="#EFEFEF"/>
</svg>
