<svg width="310" height="71" viewBox="0 0 310 71" fill="none" xmlns="http://www.w3.org/2000/svg">
<path d="M60.47 57.98L67.71 57.31C67.73 57.31 67.76 57.31 67.81 57.31C68.26 57.31 68.48 57.53 68.48 57.97C68.48 58.36 68.27 58.58 67.85 58.61L63.9 58.93V62.83L70.34 62.44C70.83 62.41 71.08 62.62 71.08 63.06C71.08 63.49 70.86 63.71 70.43 63.74L63.9 64.13V70.21C63.9 70.33 63.87 70.43 63.81 70.52C63.69 70.72 63.49 70.82 63.21 70.82C62.93 70.82 62.73 70.72 62.6 70.52C62.55 70.43 62.52 70.32 62.52 70.21V64.21L56.18 64.58C56.14 64.58 56.11 64.58 56.08 64.58C55.65 64.58 55.44 64.38 55.44 63.97C55.44 63.55 55.66 63.32 56.09 63.29L62.51 62.91V59.03L59.76 59.25C59.21 60.21 58.51 61.15 57.68 62.08C57.52 62.26 57.37 62.34 57.23 62.34C57.12 62.34 57.01 62.3 56.91 62.22C56.78 62.13 56.72 62.01 56.72 61.86C56.72 61.75 56.85 61.53 57.11 61.17C57.58 60.53 58.05 59.72 58.53 58.74C59.05 57.68 59.47 56.6 59.8 55.49C59.93 55.04 60.19 54.82 60.56 54.82C60.68 54.82 60.79 54.84 60.9 54.87C61.21 54.98 61.37 55.18 61.37 55.49C61.37 55.61 61.31 55.85 61.19 56.2C60.99 56.84 60.74 57.43 60.47 57.98Z" fill="black"/>
<path d="M80.35 65.21L84.03 65.03C84.16 64.77 84.37 64.63 84.65 64.63C84.95 64.63 85.15 64.74 85.27 64.97L88.72 64.8H88.75C88.87 64.79 88.98 64.83 89.08 64.91C89.17 65 89.22 65.12 89.22 65.29C89.22 65.65 89.06 65.83 88.73 65.84L84.98 66.01C84.44 67.01 83.75 67.84 82.9 68.51C84.7 68.92 86.17 69.3 87.29 69.64C87.69 69.76 87.9 69.97 87.9 70.29C87.9 70.68 87.7 70.87 87.29 70.87C87.16 70.87 87 70.84 86.82 70.78C85.47 70.3 83.77 69.8 81.71 69.28C80.85 69.73 79.88 70.06 78.81 70.28C77.37 70.58 76.03 70.74 74.78 70.74C74.42 70.74 74.24 70.59 74.24 70.29C74.24 70.04 74.35 69.88 74.57 69.82C74.62 69.81 74.87 69.79 75.32 69.77C77.2 69.65 78.77 69.35 80.01 68.86L79.1 68.64L78.7 68.54C77.76 68.31 77.25 68.17 77.15 68.13C76.9 68.01 76.78 67.85 76.78 67.66C76.78 67.44 76.95 67.19 77.28 66.92C77.44 66.79 77.65 66.59 77.9 66.32L73.73 66.5C73.71 66.5 73.7 66.5 73.69 66.5C73.6 66.5 73.51 66.48 73.44 66.43C73.29 66.34 73.22 66.19 73.22 65.99C73.22 65.67 73.38 65.51 73.69 65.49L78.76 65.25C78.93 65.03 79.11 64.8 79.3 64.56C79.52 64.27 79.65 64.1 79.68 64.07C79.84 63.89 80.01 63.81 80.2 63.81C80.33 63.81 80.45 63.85 80.56 63.92C80.75 64.04 80.84 64.2 80.84 64.38C80.84 64.52 80.72 64.74 80.49 65.04L80.35 65.21ZM81.61 56.68L87.48 56.3C87.54 56.29 87.58 56.29 87.6 56.29C88.17 56.29 88.45 56.48 88.45 56.87C88.45 57.05 88.38 57.27 88.24 57.52C87.88 58.16 87.5 58.68 87.11 59.08C86.95 59.24 86.79 59.33 86.64 59.33C86.55 59.33 86.46 59.3 86.37 59.24C86.25 59.16 86.19 59.06 86.19 58.91C86.19 58.8 86.24 58.67 86.33 58.53C86.63 58.06 86.78 57.71 86.78 57.48C86.78 57.36 86.69 57.3 86.51 57.3C86.48 57.3 86.45 57.3 86.43 57.3L75.54 58.03C75.53 59.48 75.26 60.2 74.73 60.2C74.62 60.2 74.51 60.18 74.39 60.13C74.14 60.03 74.02 59.85 74.02 59.58C74.02 59.49 74.06 59.33 74.14 59.11C74.37 58.48 74.52 57.8 74.56 57.08C74.58 56.73 74.72 56.56 74.98 56.56C75.27 56.56 75.43 56.73 75.47 57.08L80.29 56.76V55.27C80.29 55.12 80.33 55 80.4 54.9C80.52 54.72 80.71 54.64 80.95 54.64C81.11 54.64 81.25 54.69 81.37 54.78C81.52 54.9 81.6 55.06 81.6 55.27V56.68H81.61ZM84.12 63.58L78.49 63.91C78.5 64.33 78.28 64.53 77.84 64.53C77.46 64.53 77.26 64.33 77.23 63.93L76.87 59.45L76.86 59.38C76.85 59.18 76.92 59.03 77.08 58.92C77.19 58.85 77.33 58.81 77.49 58.81C77.77 58.81 77.96 58.93 78.07 59.18L84.26 58.67L84.37 58.66C84.86 58.66 85.21 58.85 85.42 59.22C85.5 59.36 85.54 59.51 85.54 59.66C85.54 59.68 85.54 59.7 85.54 59.71L85.36 63.45C85.33 63.88 85.09 64.1 84.65 64.1C84.31 64.12 84.13 63.94 84.12 63.58ZM84.21 60.67L84.24 59.96C84.24 59.78 84.16 59.68 83.99 59.67L78.19 60.15L78.26 61.1L84.21 60.67ZM84.19 61.61L78.34 62.01L78.41 62.93L84.16 62.6L84.19 61.61ZM79.51 66.27C79.23 66.62 78.97 66.9 78.74 67.11C78.58 67.26 78.49 67.37 78.49 67.44C78.49 67.52 78.77 67.61 79.33 67.72C79.46 67.75 79.8 67.83 80.36 67.96C80.59 68.01 80.93 68.09 81.39 68.19C82.12 67.69 82.79 66.99 83.41 66.1L79.51 66.27Z" fill="black"/>
<path d="M114.9 57.03V68.44C114.9 68.65 114.83 68.82 114.7 68.95C114.55 69.09 114.36 69.16 114.13 69.16C113.78 69.16 113.55 69.02 113.42 68.75C113.38 68.66 113.36 68.56 113.36 68.44V57.03C113.36 56.79 113.45 56.6 113.63 56.47C113.77 56.36 113.94 56.31 114.13 56.31C114.42 56.31 114.63 56.41 114.78 56.62C114.85 56.72 114.9 56.86 114.9 57.03Z" fill="black"/>
<path d="M123.28 67.66H130.05C130.53 67.66 130.77 67.89 130.77 68.35C130.77 68.81 130.53 69.04 130.05 69.04H122.64C121.94 69.04 121.59 68.72 121.59 68.09C121.59 67.71 121.77 67.33 122.12 66.94C122.87 66.11 124.17 64.86 126.02 63.19C126.99 62.31 127.62 61.7 127.93 61.34C128.46 60.72 128.72 60.14 128.72 59.6C128.72 58.93 128.48 58.4 128.01 58.03C127.55 57.65 126.92 57.47 126.14 57.47C124.9 57.47 123.99 58.03 123.41 59.16C123.23 59.51 122.99 59.68 122.68 59.68C122.54 59.68 122.4 59.64 122.26 59.57C122.03 59.46 121.92 59.26 121.92 58.96C121.92 58.71 122.04 58.4 122.28 58.05C122.64 57.5 123.15 57.05 123.8 56.71C124.51 56.33 125.3 56.15 126.16 56.15C127.23 56.15 128.13 56.39 128.88 56.87C129.88 57.5 130.37 58.42 130.37 59.63C130.37 60.4 130.07 61.15 129.46 61.87C129.17 62.22 128.45 62.89 127.3 63.88C125.42 65.5 124.08 66.76 123.28 67.66Z" fill="black"/>
<path d="M134.84 60.4C135.07 60.4 135.3 60.47 135.52 60.61C135.91 60.86 136.11 61.22 136.11 61.68C136.11 62.02 135.99 62.31 135.76 62.56C135.51 62.82 135.19 62.96 134.82 62.96C134.61 62.96 134.42 62.91 134.24 62.81C133.78 62.57 133.55 62.19 133.55 61.67C133.55 61.28 133.7 60.96 134.01 60.7C134.24 60.5 134.52 60.4 134.84 60.4ZM134.84 66.6C135.07 66.6 135.3 66.67 135.52 66.81C135.91 67.06 136.11 67.42 136.11 67.88C136.11 68.22 135.99 68.51 135.76 68.76C135.51 69.02 135.19 69.16 134.82 69.16C134.61 69.16 134.42 69.11 134.24 69.02C133.78 68.77 133.55 68.39 133.55 67.87C133.55 67.48 133.7 67.16 134.01 66.9C134.24 66.7 134.52 66.6 134.84 66.6Z" fill="black"/>
<path d="M143.66 56.14C145.12 56.14 146.31 56.76 147.24 58C148.14 59.21 148.59 60.75 148.59 62.61C148.59 64.09 148.35 65.37 147.87 66.44C147.55 67.14 147.13 67.73 146.61 68.2C145.78 68.96 144.78 69.33 143.62 69.33C141.98 69.33 140.7 68.6 139.78 67.13C139.05 65.96 138.69 64.45 138.69 62.59C138.69 60.73 139.14 59.19 140.05 57.98C140.98 56.75 142.18 56.14 143.66 56.14ZM143.63 57.51C142.6 57.51 141.78 58.01 141.15 59C140.56 59.94 140.26 61.18 140.26 62.72C140.26 64.14 140.5 65.3 140.99 66.21C141.61 67.37 142.5 67.95 143.65 67.95C144.75 67.95 145.61 67.41 146.23 66.32C146.76 65.41 147.02 64.21 147.02 62.73C147.02 61.29 146.76 60.1 146.23 59.17C145.61 58.06 144.74 57.51 143.63 57.51Z" fill="black"/>
<path d="M155.54 56.14C157 56.14 158.19 56.76 159.12 58C160.02 59.21 160.47 60.75 160.47 62.61C160.47 64.09 160.23 65.37 159.75 66.44C159.43 67.14 159.01 67.73 158.49 68.2C157.66 68.96 156.66 69.33 155.5 69.33C153.86 69.33 152.58 68.6 151.66 67.13C150.93 65.96 150.57 64.45 150.57 62.59C150.57 60.73 151.02 59.19 151.93 57.98C152.87 56.75 154.07 56.14 155.54 56.14ZM155.51 57.51C154.48 57.51 153.66 58.01 153.03 59C152.44 59.94 152.14 61.18 152.14 62.72C152.14 64.14 152.38 65.3 152.87 66.21C153.49 67.37 154.38 67.95 155.53 67.95C156.63 67.95 157.49 67.41 158.11 66.32C158.64 65.41 158.9 64.21 158.9 62.73C158.9 61.29 158.64 60.1 158.11 59.17C157.49 58.06 156.62 57.51 155.51 57.51Z" fill="black"/>
<path d="M189.1 66.92V70.16C189.1 70.6 188.87 70.82 188.42 70.82C187.96 70.82 187.73 70.6 187.73 70.16V66.97L181.22 67.22H181.17C180.75 67.22 180.55 67.02 180.55 66.63C180.55 66.28 180.74 66.1 181.13 66.09L187.74 65.82V64.98C187.74 64.53 187.97 64.31 188.42 64.31C188.88 64.31 189.11 64.53 189.11 64.98V65.77L195.7 65.5H195.73C196.16 65.5 196.38 65.68 196.38 66.05C196.38 66.45 196.18 66.65 195.77 66.67L189.1 66.92ZM181.32 57.97C181.68 57.97 182.31 58.2 183.22 58.65C183.92 59 184.27 59.33 184.27 59.66C184.27 59.79 184.22 59.91 184.13 60.04C184 60.23 183.81 60.32 183.59 60.32C183.45 60.32 183.27 60.23 183.06 60.06C182.56 59.64 181.94 59.24 181.19 58.86C180.96 58.74 180.85 58.58 180.85 58.39C180.85 58.1 181.01 57.97 181.32 57.97ZM185.04 61.07C185.15 61.07 185.26 61.13 185.37 61.24C185.46 61.33 185.51 61.45 185.51 61.57C185.51 61.72 185.44 61.87 185.31 62.03C184.72 62.69 183.86 63.46 182.72 64.34C182.33 64.64 182.05 64.79 181.89 64.79C181.49 64.79 181.28 64.57 181.28 64.13C181.28 63.85 181.47 63.6 181.86 63.37C182.35 63.08 183.28 62.37 184.67 61.23C184.8 61.13 184.92 61.07 185.04 61.07ZM182.46 55.45C182.85 55.45 183.52 55.66 184.48 56.07C184.72 56.17 184.9 56.26 185.02 56.33C185.26 56.48 185.38 56.68 185.38 56.92C185.38 57.05 185.34 57.19 185.25 57.32C185.1 57.53 184.93 57.63 184.72 57.63C184.59 57.63 184.4 57.54 184.18 57.37C183.68 56.98 183.07 56.63 182.35 56.32C182.1 56.2 181.97 56.06 181.97 55.88C181.96 55.6 182.13 55.45 182.46 55.45ZM190.71 56.89C190.93 56.47 191.13 55.93 191.33 55.27C191.44 54.89 191.66 54.7 191.97 54.7C192.16 54.7 192.32 54.74 192.47 54.83C192.62 54.92 192.7 55.04 192.7 55.21C192.7 55.5 192.44 56.01 191.92 56.75L194.52 56.44C194.57 56.43 194.6 56.43 194.63 56.43C194.96 56.43 195.13 56.6 195.13 56.93C195.13 57.26 194.95 57.44 194.58 57.48L191.97 57.76V58.66L194.18 58.43C194.2 58.43 194.22 58.43 194.25 58.43C194.6 58.43 194.77 58.58 194.77 58.89C194.77 59.2 194.6 59.37 194.25 59.41L191.96 59.63V60.61L194.17 60.42C194.21 60.41 194.23 60.41 194.25 60.41C194.46 60.4 194.61 60.47 194.71 60.64C194.75 60.71 194.76 60.79 194.76 60.87C194.76 61.19 194.59 61.36 194.24 61.39L191.95 61.57V62.66L195.03 62.45C195.45 62.42 195.66 62.58 195.66 62.94C195.66 63.29 195.47 63.47 195.1 63.49L188.37 63.92C188.28 64.22 188.08 64.37 187.75 64.37C187.3 64.37 187.08 64.15 187.09 63.7L187.16 58.87C186.56 59.54 186.14 59.88 185.89 59.88C185.77 59.88 185.66 59.82 185.56 59.71C185.47 59.6 185.42 59.5 185.42 59.41C185.42 59.25 185.53 59.06 185.74 58.84C186.68 57.87 187.49 56.62 188.17 55.1C188.31 54.79 188.52 54.63 188.8 54.63C188.92 54.63 189.04 54.66 189.16 54.71C189.41 54.83 189.54 55.01 189.54 55.25C189.54 55.57 189.21 56.19 188.54 57.13L190.71 56.89ZM188.39 58.15V59.04L190.74 58.8V57.9L188.39 58.15ZM188.39 59.98V60.93L190.74 60.73V59.75L188.39 59.98ZM190.74 61.68L188.39 61.87V62.92L190.74 62.75V61.68Z" fill="black"/>
<path d="M202.69 67.55L200.26 67.73V67.83C200.26 68.22 200.05 68.41 199.63 68.41C199.38 68.41 199.2 68.32 199.09 68.14C199.04 68.05 199.01 67.95 199.01 67.83V57.35C199.01 57.17 199.08 57.02 199.21 56.92C199.33 56.83 199.47 56.78 199.64 56.78C199.97 56.78 200.18 56.93 200.25 57.23L202.7 56.89C202.79 56.88 202.89 56.87 202.98 56.87C203.63 56.87 203.96 57.28 203.96 58.11V67.91C203.96 68.29 203.75 68.48 203.33 68.48C203.08 68.48 202.9 68.39 202.79 68.21C202.74 68.12 202.71 68.02 202.71 67.91V67.55H202.69ZM202.69 61.6V58.39C202.69 58.16 202.59 58.04 202.4 58.03C202.38 58.03 202.35 58.03 202.33 58.03L200.26 58.3V61.79L202.69 61.6ZM202.69 62.64L200.26 62.83V66.6L202.69 66.43V62.64ZM209.67 58.37V60.33L213.98 59.93C214 59.93 214.02 59.93 214.05 59.93C214.42 59.93 214.6 60.12 214.6 60.49C214.6 60.83 214.43 61.01 214.1 61.04L205.01 61.87C204.97 61.87 204.95 61.87 204.94 61.87C204.78 61.87 204.64 61.81 204.52 61.69C204.41 61.58 204.36 61.45 204.36 61.28C204.36 60.96 204.54 60.78 204.89 60.75L208.38 60.42V58.46L205.82 58.69C205.61 58.71 205.44 58.65 205.28 58.52C205.15 58.4 205.08 58.27 205.08 58.12C205.08 57.79 205.26 57.6 205.61 57.58L208.38 57.34V55.43C208.38 55.25 208.45 55.1 208.58 54.99C208.7 54.89 208.84 54.84 209.02 54.84C209.24 54.84 209.42 54.92 209.55 55.07C209.63 55.17 209.67 55.29 209.67 55.43V57.22L212.4 56.97C212.43 56.97 212.45 56.97 212.46 56.97C212.7 56.95 212.87 57.05 212.97 57.27C213.01 57.35 213.03 57.44 213.03 57.54C213.03 57.87 212.86 58.06 212.53 58.08L209.67 58.37ZM211.72 64.55V69.31C211.72 70.15 211.37 70.58 210.66 70.58C210.32 70.58 209.86 70.47 209.29 70.25C208.33 69.87 207.85 69.55 207.85 69.27C207.85 68.98 207.99 68.83 208.28 68.83C208.37 68.83 208.51 68.86 208.71 68.92C209.24 69.09 209.68 69.17 210.01 69.17C210.26 69.17 210.39 69.01 210.39 68.7V64.67L205.33 65.1C204.9 65.09 204.69 64.9 204.69 64.53C204.69 64.2 204.86 64.01 205.21 63.99L210.4 63.55V62.08C210.4 61.86 210.49 61.69 210.66 61.58C210.78 61.5 210.92 61.47 211.06 61.47C211.25 61.47 211.41 61.53 211.54 61.65C211.66 61.76 211.72 61.9 211.72 62.08V63.43L213.5 63.28C213.52 63.28 213.55 63.28 213.58 63.28C213.94 63.3 214.12 63.49 214.12 63.84C214.12 64.18 213.95 64.36 213.62 64.39L211.72 64.55ZM206.3 65.34C206.43 65.34 206.6 65.4 206.8 65.53C208.04 66.29 208.65 66.91 208.65 67.39C208.65 67.56 208.59 67.71 208.47 67.84C208.33 67.98 208.16 68.05 207.97 68.05C207.73 68.05 207.49 67.89 207.25 67.57C206.97 67.2 206.59 66.77 206.11 66.27C205.94 66.1 205.86 65.94 205.86 65.78C205.86 65.66 205.9 65.56 205.99 65.47C206.08 65.38 206.18 65.34 206.3 65.34Z" fill="black"/>
<path d="M221.87 60.74L218.71 60.98V69.66C218.71 69.83 218.65 69.97 218.53 70.08C218.41 70.19 218.25 70.24 218.06 70.24C217.63 70.24 217.42 70.05 217.42 69.66V56.29C217.42 56.1 217.49 55.95 217.62 55.84C217.75 55.74 217.9 55.69 218.06 55.69C218.34 55.69 218.54 55.8 218.66 56.03L221.97 55.72C222.03 55.71 222.12 55.71 222.22 55.71C222.89 55.71 223.21 56.11 223.18 56.91L223.04 60.74C223.01 61.1 222.81 61.28 222.44 61.28C222.05 61.29 221.87 61.1 221.87 60.74ZM221.96 57.76L221.98 57.1C221.99 56.87 221.89 56.75 221.68 56.74C221.66 56.74 221.65 56.74 221.64 56.74H221.61L218.69 57V57.98L221.96 57.76ZM221.93 58.71L218.7 58.94V60L221.9 59.76L221.93 58.71ZM226.66 64.62L228.67 64.51C229.06 64.51 229.25 64.69 229.25 65.05C229.25 65.38 229.09 65.56 228.77 65.58L226.66 65.69V69.34C226.66 69.48 226.62 69.6 226.53 69.69C226.41 69.82 226.25 69.88 226.05 69.88C225.82 69.88 225.65 69.8 225.53 69.64C225.47 69.56 225.44 69.46 225.44 69.33V65.75L223.44 65.86C223.23 67.23 222.75 68.34 221.98 69.2C221.69 69.52 221.46 69.67 221.29 69.67C221.16 69.67 221.04 69.62 220.92 69.51C220.83 69.42 220.78 69.32 220.78 69.19C220.78 69.06 220.92 68.82 221.19 68.49C221.73 67.83 222.08 66.97 222.22 65.91L220.29 66.02C220.25 66.02 220.23 66.02 220.22 66.02C220 66.02 219.85 65.92 219.76 65.71C219.73 65.64 219.72 65.56 219.72 65.48C219.72 65.13 219.88 64.95 220.2 64.94L222.31 64.83L222.32 64.72C222.33 64.54 222.33 64.36 222.33 64.16V63.06L220.99 63.15C220.98 63.15 220.95 63.15 220.92 63.15C220.6 63.15 220.44 62.98 220.44 62.63C220.44 62.3 220.6 62.13 220.91 62.1L227.73 61.65H227.77C228.12 61.66 228.29 61.84 228.29 62.18C228.29 62.5 228.13 62.68 227.82 62.7L226.67 62.77V64.62H226.66ZM225.44 64.68V62.86L223.55 62.99V64.13C223.55 64.36 223.54 64.58 223.53 64.78L225.44 64.68ZM230.23 60.39L226.53 60.61C226.51 60.95 226.31 61.12 225.94 61.12C225.54 61.12 225.34 60.94 225.34 60.58V55.9C225.34 55.54 225.54 55.36 225.94 55.36C226.2 55.36 226.39 55.47 226.48 55.68L230.21 55.36C230.29 55.35 230.38 55.35 230.49 55.35C230.98 55.35 231.29 55.54 231.42 55.91C231.48 56.09 231.52 56.34 231.52 56.66V69.39C231.52 70.15 231.22 70.52 230.61 70.52C230.22 70.52 229.66 70.37 228.93 70.08C228.59 69.94 228.32 69.81 228.12 69.69C227.96 69.59 227.87 69.46 227.87 69.29C227.87 69.01 228 68.87 228.27 68.87C228.37 68.87 228.52 68.91 228.74 68.98C229.17 69.11 229.52 69.18 229.8 69.18C230.08 69.18 230.21 69.01 230.21 68.68V60.39H230.23ZM230.23 57.39V56.74C230.23 56.48 230.1 56.36 229.85 56.38L226.53 56.65V57.63L230.23 57.39ZM230.23 58.34L226.53 58.58V59.63L230.23 59.41V58.34Z" fill="black"/>
<path d="M243.07 56.57L248.84 56.17C248.97 56.17 249.08 56.2 249.17 56.26C249.35 56.37 249.43 56.52 249.43 56.73C249.43 56.94 249.35 57.09 249.18 57.2C249.11 57.24 249.03 57.26 248.93 57.27L237.39 58.04C237.38 62.35 237.08 65.5 236.48 67.51C236.19 68.49 235.86 69.29 235.51 69.88C235.38 70.1 235.22 70.21 235.04 70.21C234.95 70.21 234.86 70.19 234.78 70.14C234.6 70.05 234.52 69.9 234.52 69.7C234.52 69.61 234.58 69.43 234.7 69.17C235.2 68.09 235.58 66.58 235.83 64.64C236.03 63.12 236.13 60.94 236.14 58.1C235.86 58.04 235.73 57.85 235.73 57.56C235.73 57.22 235.93 57.04 236.34 57.02L241.82 56.64V55.18C241.82 54.99 241.88 54.83 242.01 54.72C242.13 54.61 242.27 54.56 242.45 54.56C242.67 54.56 242.85 54.64 242.98 54.8C243.06 54.91 243.09 55.03 243.09 55.18V56.57H243.07ZM244.14 63.86L247.27 63.61C247.35 63.6 247.41 63.6 247.45 63.6C248.3 63.6 248.72 64.04 248.72 64.93C248.72 65.93 248.61 66.94 248.39 67.98C248.24 68.68 247.87 69.03 247.26 69.03C246.73 69.03 246.12 68.85 245.44 68.48C245.21 68.35 245.1 68.2 245.1 68.02C245.1 67.76 245.21 67.63 245.43 67.63C245.51 67.63 245.61 67.65 245.73 67.68C246.11 67.79 246.42 67.84 246.68 67.84C246.94 67.84 247.11 67.71 247.19 67.44C247.34 66.87 247.42 66.12 247.42 65.17C247.42 64.87 247.3 64.72 247.07 64.72C247.06 64.72 247.06 64.72 247.04 64.72L244.12 64.94V70.2C244.12 70.62 243.91 70.82 243.49 70.82C243.07 70.82 242.87 70.61 242.87 70.2V65.05L239.93 65.27L240.2 68.56C240.2 68.57 240.2 68.59 240.2 68.61C240.2 69.02 239.99 69.23 239.57 69.23C239.18 69.23 238.98 69.02 238.95 68.61L238.64 64.55C238.63 64.5 238.63 64.47 238.63 64.46C238.63 64.24 238.72 64.08 238.89 63.96C238.99 63.9 239.11 63.86 239.25 63.86C239.53 63.86 239.71 63.97 239.8 64.19L242.86 63.95V62.73L241.84 62.81C241.73 62.97 241.56 63.05 241.31 63.05C240.95 63.05 240.75 62.85 240.71 62.45L240.55 60.61L238.41 60.76C238.37 60.76 238.34 60.76 238.3 60.76C237.95 60.76 237.77 60.59 237.77 60.26C237.77 59.92 237.96 59.74 238.33 59.72L240.45 59.56L240.36 58.62C240.36 58.59 240.36 58.56 240.36 58.54C240.36 58.18 240.57 58 240.98 58C241.36 58 241.56 58.21 241.6 58.62L241.66 59.47L244.98 59.23L245.02 58.32C245.04 57.91 245.25 57.7 245.64 57.7C246.05 57.7 246.26 57.88 246.26 58.24C246.26 58.26 246.26 58.29 246.26 58.31L246.21 59.12L248.46 58.96L248.55 58.95C248.76 58.94 248.91 59.01 249.02 59.15C249.1 59.25 249.13 59.37 249.13 59.51C249.13 59.83 248.94 60.01 248.57 60.04L246.14 60.21L246.06 61.52C246.28 61.59 246.39 61.75 246.39 61.99C246.39 62.29 246.21 62.45 245.84 62.48L244.13 62.61V63.86H244.14ZM241.88 61.83L244.89 61.6L244.96 60.32L241.78 60.54L241.88 61.83Z" fill="black"/>
<path d="M4.51 30.98H22.56C23.84 30.98 24.48 31.59 24.48 32.81C24.48 34.03 23.84 34.64 22.56 34.64H2.79C0.929999 34.64 0 33.8 0 32.11C0 31.11 0.47 30.09 1.41 29.04C3.41 26.82 6.88 23.49 11.82 19.03C14.4 16.69 16.09 15.05 16.91 14.11C18.32 12.45 19.02 10.91 19.02 9.47C19.02 7.67 18.39 6.26999 17.12 5.26999C15.89 4.26999 14.22 3.76999 12.13 3.76999C8.82 3.76999 6.39 5.26999 4.84 8.26999C4.37 9.18999 3.72 9.64999 2.89 9.64999C2.51 9.64999 2.14 9.55999 1.76 9.37C1.15 9.06999 0.85 8.53 0.85 7.75C0.85 7.08 1.17 6.27 1.81 5.31C2.78 3.84 4.13 2.65 5.86 1.75C7.75 0.75 9.85 0.25 12.16 0.25C15 0.25 17.43 0.889983 19.43 2.16998C22.09 3.83998 23.41 6.3 23.41 9.53C23.41 11.59 22.61 13.58 21 15.51C20.22 16.43 18.3 18.22 15.23 20.88C10.22 25.23 6.65 28.59 4.51 30.98Z" fill="black"/>
<path d="M43.51 0.26001C47.4 0.26001 50.58 1.92001 53.05 5.23001C55.46 8.46001 56.66 12.56 56.66 17.51C56.66 21.46 56.02 24.87 54.74 27.73C53.9 29.61 52.78 31.17 51.39 32.42C49.17 34.44 46.51 35.44 43.42 35.44C39.04 35.44 35.63 33.49 33.18 29.58C31.24 26.47 30.27 22.44 30.27 17.49C30.27 12.52 31.48 8.42 33.9 5.19C36.36 1.9 39.57 0.26001 43.51 0.26001ZM43.41 3.91C40.68 3.91 38.47 5.22999 36.8 7.87C35.22 10.39 34.43 13.69 34.43 17.78C34.43 21.56 35.08 24.66 36.38 27.08C38.04 30.17 40.4 31.72 43.48 31.72C46.4 31.72 48.7 30.27 50.37 27.36C51.78 24.92 52.48 21.73 52.48 17.8C52.48 13.96 51.78 10.79 50.37 8.31C48.7 5.38 46.38 3.91 43.41 3.91Z" fill="black"/>
<path d="M67.88 30.98H85.93C87.21 30.98 87.85 31.59 87.85 32.81C87.85 34.03 87.21 34.64 85.93 34.64H66.17C64.31 34.64 63.38 33.8 63.38 32.11C63.38 31.11 63.85 30.09 64.79 29.04C66.79 26.82 70.26 23.49 75.2 19.03C77.78 16.69 79.47 15.05 80.29 14.11C81.7 12.45 82.4 10.91 82.4 9.47C82.4 7.67 81.77 6.26999 80.5 5.26999C79.27 4.26999 77.6 3.76999 75.51 3.76999C72.2 3.76999 69.77 5.26999 68.22 8.26999C67.75 9.18999 67.1 9.64999 66.27 9.64999C65.89 9.64999 65.52 9.55999 65.14 9.37C64.53 9.06999 64.23 8.53 64.23 7.75C64.23 7.08 64.55 6.27 65.19 5.31C66.16 3.84 67.51 2.65 69.24 1.75C71.13 0.75 73.23 0.25 75.54 0.25C78.38 0.25 80.81 0.889983 82.81 2.16998C85.47 3.83998 86.79 6.3 86.79 9.53C86.79 11.59 85.99 13.58 84.38 15.51C83.6 16.43 81.68 18.22 78.61 20.88C73.6 25.23 70.02 28.59 67.88 30.98Z" fill="black"/>
<path d="M98.58 18.61C99.1 17.73 99.65 17.01 100.24 16.43C102.33 14.38 104.89 13.36 107.9 13.36C110.73 13.36 113.14 14.16 115.14 15.75C117.69 17.77 118.96 20.49 118.96 23.93C118.96 26.24 118.39 28.32 117.25 30.16C116.06 32.08 114.42 33.5 112.33 34.43C110.81 35.1 109.16 35.44 107.36 35.44C103.17 35.44 99.86 33.8 97.42 30.52C95.65 28.14 94.77 25.28 94.77 21.92C94.77 15.48 97.42 9.75 102.72 4.72C104.49 3.05 106.38 1.63001 108.42 0.450012C108.92 0.150012 109.4 0 109.85 0C110.46 0 110.94 0.240011 111.3 0.730011C111.57 1.12001 111.7 1.50999 111.7 1.89999C111.7 2.52999 111.15 3.15 110.04 3.78C106.09 6.03 102.99 9.13999 100.76 13.11C99.83 14.76 99.1 16.59 98.58 18.61ZM107.42 16.76C104.97 16.76 102.86 17.77 101.09 19.78C99.9 21.16 99.31 22.63 99.31 24.21C99.31 26.48 100.09 28.33 101.65 29.76C103.15 31.14 105 31.82 107.2 31.82C109.67 31.82 111.62 30.98 113.06 29.31C114.31 27.87 114.94 26.07 114.94 23.9C114.94 21.06 113.81 19.01 111.54 17.76C110.34 17.09 108.97 16.76 107.42 16.76Z" fill="black"/>
<path d="M130.55 27.58C131.19 27.58 131.8 27.75 132.38 28.1C133.61 28.82 134.23 29.87 134.23 31.26C134.23 31.93 134.05 32.57 133.69 33.18C132.96 34.37 131.89 34.96 130.5 34.96C129.58 34.96 128.76 34.63 128.04 33.98C127.24 33.25 126.84 32.34 126.84 31.26C126.84 30.09 127.31 29.13 128.25 28.38C128.93 27.85 129.69 27.58 130.55 27.58Z" fill="black"/>
<path d="M154.32 0.26001C158.21 0.26001 161.39 1.92001 163.86 5.23001C166.27 8.46001 167.47 12.56 167.47 17.51C167.47 21.46 166.83 24.87 165.55 27.73C164.71 29.61 163.59 31.17 162.2 32.42C159.98 34.44 157.32 35.44 154.23 35.44C149.85 35.44 146.44 33.49 143.99 29.58C142.05 26.47 141.08 22.44 141.08 17.49C141.08 12.52 142.29 8.42 144.71 5.19C147.18 1.9 150.38 0.26001 154.32 0.26001ZM154.22 3.91C151.49 3.91 149.28 5.22999 147.61 7.87C146.03 10.39 145.24 13.69 145.24 17.78C145.24 21.56 145.89 24.66 147.19 27.08C148.85 30.17 151.21 31.72 154.29 31.72C157.21 31.72 159.51 30.27 161.18 27.36C162.59 24.92 163.29 21.73 163.29 17.8C163.29 13.96 162.59 10.79 161.18 8.31C159.51 5.38 157.19 3.91 154.22 3.91Z" fill="black"/>
<path d="M189.85 16.64C191.69 16.92 193.21 17.47 194.4 18.28C196.81 19.94 198.01 22.28 198.01 25.31C198.01 28.64 196.71 31.23 194.1 33.09C191.9 34.65 189.11 35.43 185.73 35.43C181.37 35.43 177.88 34.15 175.25 31.59C174.3 30.67 173.82 29.85 173.82 29.13C173.82 28.63 174.05 28.2 174.5 27.84C174.91 27.5 175.34 27.32 175.81 27.32C176.34 27.32 176.94 27.71 177.59 28.49C178.5 29.6 179.77 30.47 181.41 31.12C182.72 31.62 184.15 31.87 185.7 31.87C187.64 31.87 189.31 31.46 190.72 30.65C192.8 29.43 193.84 27.66 193.84 25.33C193.84 23.35 193.23 21.75 192.01 20.55C191.12 19.67 190 19.11 188.66 18.86C187.61 18.67 186.14 18.58 184.25 18.58L183.38 18.6C181.96 18.6 181.25 18.02 181.25 16.87C181.25 16.03 181.61 15.51 182.33 15.32C182.56 15.26 182.99 15.23 183.6 15.23C189.51 15.23 192.46 13.19 192.46 9.10999C192.46 7.38999 191.82 6.04 190.54 5.06C189.31 4.12 187.66 3.64999 185.59 3.64999C182.37 3.64999 180.02 4.78 178.54 7.03C178.15 7.59 177.65 7.87 177.04 7.87C176.6 7.87 176.19 7.73001 175.8 7.45001C175.3 7.09001 175.05 6.64 175.05 6.09C175.05 5.53 175.4 4.86001 176.1 4.10001C177.05 3.08001 178.23 2.24001 179.64 1.57001C181.53 0.690007 183.54 0.26001 185.66 0.26001C188.08 0.26001 190.18 0.739991 191.96 1.70999C194.98 3.34999 196.48 5.84 196.48 9.19C196.48 12.52 194.85 14.83 191.58 16.13C191.18 16.28 190.6 16.45 189.85 16.64Z" fill="black"/>
<path d="M209.68 27.58C210.32 27.58 210.93 27.75 211.51 28.1C212.74 28.82 213.36 29.87 213.36 31.26C213.36 31.93 213.18 32.57 212.82 33.18C212.09 34.37 211.02 34.96 209.63 34.96C208.71 34.96 207.89 34.63 207.17 33.98C206.37 33.25 205.97 32.34 205.97 31.26C205.97 30.09 206.44 29.13 207.38 28.38C208.05 27.85 208.82 27.58 209.68 27.58Z" fill="black"/>
<path d="M226.13 30.98H244.18C245.46 30.98 246.1 31.59 246.1 32.81C246.1 34.03 245.46 34.64 244.18 34.64H224.42C222.56 34.64 221.63 33.8 221.63 32.11C221.63 31.11 222.1 30.09 223.04 29.04C225.04 26.82 228.51 23.49 233.45 19.03C236.03 16.69 237.72 15.05 238.54 14.11C239.95 12.45 240.65 10.91 240.65 9.47C240.65 7.67 240.02 6.26999 238.75 5.26999C237.52 4.26999 235.85 3.76999 233.76 3.76999C230.45 3.76999 228.02 5.26999 226.47 8.26999C226 9.18999 225.35 9.64999 224.52 9.64999C224.14 9.64999 223.77 9.55999 223.39 9.37C222.78 9.06999 222.48 8.53 222.48 7.75C222.48 7.08 222.8 6.27 223.44 5.31C224.41 3.84 225.76 2.65 227.49 1.75C229.38 0.75 231.48 0.25 233.79 0.25C236.63 0.25 239.06 0.889983 241.06 2.16998C243.72 3.83998 245.04 6.3 245.04 9.53C245.04 11.59 244.24 13.58 242.63 15.51C241.85 16.43 239.93 18.22 236.86 20.88C231.85 25.23 228.27 28.59 226.13 30.98Z" fill="black"/>
<path d="M267.15 2.62V33.04C267.15 33.59 266.97 34.04 266.61 34.4C266.22 34.78 265.71 34.96 265.09 34.96C264.17 34.96 263.54 34.59 263.19 33.86C263.08 33.63 263.03 33.35 263.03 33.04V2.62C263.03 1.98 263.27 1.48 263.76 1.12C264.14 0.839995 264.58 0.700012 265.1 0.700012C265.87 0.700012 266.44 0.969989 266.83 1.51999C267.04 1.81999 267.15 2.19 267.15 2.62Z" fill="black"/>
<path d="M295.55 33.61C303.376 33.61 309.72 27.2659 309.72 19.44C309.72 11.6141 303.376 5.26999 295.55 5.26999C287.724 5.26999 281.38 11.6141 281.38 19.44C281.38 27.2659 287.724 33.61 295.55 33.61Z" fill="black"/>
<path d="M296.27 14.52L303.01 14.07C303.53 14.07 303.79 14.29 303.79 14.74C303.79 15.18 303.57 15.42 303.14 15.44L288.09 16.45C288.06 16.45 288.04 16.45 288.01 16.45C287.78 16.45 287.6 16.37 287.47 16.2C287.36 16.07 287.3 15.92 287.3 15.74C287.3 15.32 287.52 15.1 287.96 15.07L294.7 14.63V11.15C294.7 10.92 294.77 10.74 294.91 10.6C295.06 10.46 295.24 10.39 295.47 10.39C295.76 10.39 295.97 10.49 296.12 10.7C296.21 10.82 296.26 10.97 296.26 11.15V14.52H296.27ZM292.36 19.04C292.52 19.04 292.66 19.09 292.8 19.18C293.01 19.32 293.12 19.52 293.12 19.77C293.12 19.98 292.99 20.33 292.73 20.8C291.68 22.69 290.33 24.21 288.7 25.37C288.42 25.57 288.19 25.66 288.02 25.66C287.88 25.66 287.76 25.61 287.65 25.5C287.54 25.39 287.48 25.27 287.48 25.13C287.48 24.97 287.53 24.84 287.64 24.72C287.67 24.69 287.8 24.57 288.03 24.36C289.12 23.38 290.08 22.21 290.92 20.84C291.15 20.45 291.37 20.05 291.56 19.65C291.75 19.25 292.03 19.04 292.36 19.04ZM298.41 18.73C298.81 18.73 299.81 19.65 301.41 21.5C302.2 22.41 302.85 23.23 303.34 23.94C303.5 24.17 303.57 24.4 303.57 24.62C303.57 24.86 303.48 25.05 303.31 25.19C303.13 25.33 302.93 25.4 302.71 25.4C302.48 25.4 302.29 25.32 302.13 25.17C302.04 25.09 301.9 24.89 301.72 24.57C300.68 22.84 299.49 21.26 298.14 19.82C297.96 19.63 297.87 19.45 297.87 19.27C297.87 19.13 297.93 19.01 298.04 18.89C298.14 18.79 298.27 18.73 298.41 18.73Z" fill="#EFEFEF"/>
</svg>
