<svg width="356" height="106" viewBox="0 0 356 106" fill="none" xmlns="http://www.w3.org/2000/svg">
<path d="M84.96 83.33C89.53 80.97 94.21 77.73 99.02 73.6C103.83 69.48 108.76 64.47 113.82 58.57C115.23 56.92 116.89 54.93 118.79 52.58C120.78 50.14 121.92 48.92 122.22 48.92C122.4 48.92 122.56 48.98 122.7 49.11C122.84 49.24 122.91 49.38 122.91 49.54C122.91 49.6 122.33 50.94 121.17 53.56C120.01 56.18 118.86 58.88 117.73 61.66C117.19 62.99 116.42 64.87 115.41 67.29C111.8 75.91 109.85 81.54 109.57 84.18C111.56 79.93 113.61 76.14 115.72 72.82C117.83 69.49 120.11 66.47 122.56 63.75C124.33 61.72 126.16 59.98 128.06 58.51C129.96 57.04 131.17 56.31 131.71 56.31C131.81 56.31 131.89 56.33 131.96 56.38C132.03 56.43 132.06 56.48 132.06 56.54C132.06 56.72 131.58 57.16 130.63 57.85C125.76 61.33 121.57 65.77 118.03 71.19C116.32 73.79 114.5 77.04 112.56 80.94C110.62 84.84 109.17 86.79 108.2 86.79C107.33 86.79 106.55 86.12 105.88 84.78C105.2 83.44 104.87 81.84 104.87 79.97C104.87 75.26 108.5 68.08 115.77 58.41C117.06 56.7 118.04 55.39 118.72 54.48C117.97 55.23 116.69 56.65 114.91 58.74C108.22 66.52 101.78 72.81 95.61 77.59C92.29 80.15 89.05 82.39 85.89 84.29C82.72 86.2 80.9 87.15 80.42 87.15C80.08 87.15 79.84 87.1 79.71 87C79.57 86.9 79.5 86.73 79.5 86.49C79.5 86.19 80.26 85.26 81.78 83.7C83.3 82.14 84.67 80.65 85.91 79.22C90.54 73.84 93.91 69.19 96.02 65.28C98.13 61.37 99.19 57.86 99.19 54.77C99.19 53.22 98.77 52.03 97.94 51.2C97.11 50.37 95.92 49.95 94.4 49.95C92.49 49.95 90.24 50.65 87.64 52.05C85.04 53.45 82.53 55.35 80.1 57.75C78.19 59.64 76.74 61.44 75.75 63.16C74.76 64.88 74.26 66.45 74.26 67.88C74.26 69.17 74.62 70.24 75.33 71.08C76.04 71.92 76.95 72.35 78.04 72.35C79.27 72.35 80.78 71.56 82.55 69.98C84.33 68.4 85.95 66.36 87.42 63.86C88.17 62.59 88.73 61.35 89.09 60.14C89.45 58.93 89.63 57.71 89.63 56.48C89.63 56.24 89.6 55.94 89.54 55.59C89.48 55.24 89.45 55 89.45 54.9C89.45 54.66 89.48 54.48 89.55 54.36C89.62 54.24 89.72 54.17 89.86 54.15C90.32 54.15 90.7 54.75 91.02 55.94C91.34 57.13 91.5 58.61 91.5 60.38C91.5 64.03 90.28 67.18 87.84 69.81C85.4 72.44 82.6 73.76 79.44 73.76C77.53 73.76 76.02 73.23 74.9 72.17C73.78 71.11 73.22 69.68 73.22 67.9C73.22 66.15 73.84 64.23 75.08 62.12C76.32 60.02 78.1 57.9 80.43 55.78C82.81 53.56 85.34 51.81 88.03 50.54C90.71 49.27 93.15 48.63 95.36 48.63C98.2 48.63 100.51 49.51 102.29 51.28C104.07 53.05 104.96 55.33 104.96 58.13C104.96 61.55 103.47 65.16 100.48 68.99C97.44 72.81 92.28 77.59 84.96 83.33Z" fill="black"/>
<path d="M127.55 80.53C127.09 81.82 126.78 82.78 126.6 83.4C126.42 84.03 126.33 84.51 126.33 84.84C126.33 85.26 126.48 85.55 126.78 85.73C127.08 85.91 127.54 86 128.18 86C129.75 86 131.41 85.54 133.15 84.61C134.9 83.69 137.36 81.84 140.54 79.06C141.59 78.15 142.98 76.91 144.71 75.34C148.32 72.04 150.54 70.4 151.35 70.4C151.39 70.4 151.48 70.42 151.62 70.44C151.76 70.47 151.87 70.5 151.95 70.51C150.64 71.22 148.63 72.9 145.93 75.54C144.58 76.89 143.52 77.92 142.74 78.64C138.85 82.17 135.9 84.49 133.89 85.58C131.88 86.67 129.92 87.22 127.99 87.22C125.94 87.22 124.3 86.64 123.06 85.48C121.82 84.32 121.2 82.8 121.2 80.94C121.2 79.37 121.67 77.84 122.6 76.34C123.53 74.84 124.94 73.37 126.83 71.92C128.44 70.69 130.06 69.73 131.7 69.05C133.34 68.36 134.82 68.02 136.15 68.02C137.36 68.02 138.31 68.36 139.01 69.05C139.7 69.73 140.05 70.67 140.05 71.86C140.05 73.77 138.89 75.53 136.57 77.16C134.25 78.79 131.24 79.92 127.55 80.53ZM127.91 79.55C130.41 79.17 132.64 78.08 134.58 76.27C136.53 74.46 137.5 72.72 137.5 71.03C137.5 70.55 137.37 70.15 137.1 69.81C136.83 69.47 136.52 69.3 136.16 69.3C135.15 69.3 133.8 70.29 132.12 72.26C130.44 74.24 129.04 76.67 127.91 79.55Z" fill="black"/>
<path d="M179.34 51.07L164.09 78.5C163.12 80.27 162.34 81.79 161.77 83.07C161.19 84.35 160.91 85.19 160.91 85.59C160.91 85.73 160.98 85.83 161.12 85.9C161.26 85.97 161.48 86 161.78 86C162.51 86 163.39 85.65 164.42 84.96C165.44 84.27 166.8 83.07 168.49 81.39L170.63 79.28C176.61 73.32 180.1 70.34 181.11 70.34C181.17 70.34 181.25 70.35 181.35 70.37C181.45 70.39 181.59 70.42 181.77 70.46C180.12 71.37 177.52 73.67 173.97 77.34C173.18 78.15 172.57 78.77 172.15 79.19L171.38 79.99C166.67 84.82 163.15 87.23 160.81 87.23C159.54 87.23 158.55 86.92 157.85 86.31C157.14 85.69 156.79 84.83 156.79 83.72C156.79 83.08 156.85 82.49 156.98 81.93C157.11 81.37 157.31 80.81 157.59 80.23C155.64 82.69 153.93 84.46 152.44 85.55C150.95 86.63 149.49 87.17 148.06 87.17C146.51 87.17 145.25 86.67 144.28 85.68C143.31 84.69 142.82 83.38 142.82 81.75C142.82 79.96 143.26 78.3 144.13 76.76C145 75.22 146.35 73.74 148.18 72.31C150.01 70.9 151.73 69.83 153.36 69.11C154.99 68.38 156.48 68.02 157.83 68.02C159.14 68.02 160.19 68.3 160.97 68.87C161.75 69.44 162.26 70.27 162.47 71.39L173.31 51.73L179.34 51.07ZM161.41 71.8C161.41 71.09 161.19 70.5 160.75 70.04C160.31 69.58 159.76 69.35 159.08 69.35C158.33 69.35 157.37 69.9 156.21 70.99C155.05 72.08 153.66 73.73 152.05 75.93C150.36 78.25 149.13 80.14 148.36 81.6C147.59 83.06 147.2 84.23 147.2 85.1C147.2 85.52 147.29 85.83 147.48 86.02C147.67 86.22 147.97 86.32 148.39 86.32C149.3 86.32 150.4 85.86 151.67 84.95C152.94 84.04 154.27 82.77 155.66 81.14C157.41 79.08 158.8 77.19 159.85 75.5C160.89 73.82 161.41 72.58 161.41 71.8Z" fill="black"/>
<path d="M209.25 51.07L194 78.51C193.03 80.28 192.25 81.8 191.68 83.08C191.1 84.36 190.82 85.2 190.82 85.6C190.82 85.74 190.89 85.84 191.03 85.91C191.17 85.98 191.39 86.01 191.69 86.01C192.42 86.01 193.3 85.66 194.33 84.97C195.35 84.28 196.71 83.08 198.4 81.4L200.54 79.29C206.52 73.33 210.01 70.35 211.02 70.35C211.08 70.35 211.16 70.36 211.26 70.38C211.36 70.4 211.5 70.43 211.68 70.47C210.03 71.38 207.43 73.68 203.88 77.35C203.09 78.16 202.48 78.78 202.06 79.2L201.29 80C196.58 84.83 193.06 87.24 190.72 87.24C189.45 87.24 188.46 86.93 187.76 86.32C187.05 85.7 186.7 84.84 186.7 83.73C186.7 83.09 186.76 82.5 186.89 81.94C187.02 81.38 187.22 80.82 187.5 80.24C185.55 82.7 183.84 84.47 182.35 85.56C180.86 86.64 179.4 87.18 177.97 87.18C176.42 87.18 175.16 86.68 174.19 85.69C173.22 84.7 172.73 83.39 172.73 81.76C172.73 79.97 173.17 78.31 174.04 76.77C174.91 75.23 176.26 73.75 178.09 72.32C179.92 70.91 181.64 69.84 183.27 69.12C184.9 68.39 186.39 68.03 187.74 68.03C189.05 68.03 190.1 68.31 190.88 68.88C191.66 69.45 192.17 70.28 192.38 71.4L203.22 51.74L209.25 51.07ZM191.32 71.8C191.32 71.09 191.1 70.5 190.66 70.04C190.22 69.58 189.67 69.35 188.99 69.35C188.24 69.35 187.28 69.9 186.12 70.99C184.96 72.08 183.57 73.73 181.96 75.93C180.27 78.25 179.04 80.14 178.27 81.6C177.5 83.06 177.11 84.23 177.11 85.1C177.11 85.52 177.2 85.83 177.39 86.02C177.58 86.22 177.88 86.32 178.3 86.32C179.21 86.32 180.31 85.86 181.58 84.95C182.85 84.04 184.18 82.77 185.57 81.14C187.32 79.08 188.71 77.19 189.76 75.5C190.8 73.82 191.32 72.58 191.32 71.8Z" fill="black"/>
<path d="M209.07 72.49L207.25 74.25C206.97 74.51 206.62 74.86 206.18 75.29C205.33 76.14 204.81 76.57 204.63 76.57C204.45 76.57 204.31 76.55 204.21 76.5C204.11 76.45 204.06 76.38 204.06 76.28C204.06 76.04 204.44 75.59 205.19 74.94C205.73 74.44 206.16 74.04 206.5 73.72L208.47 71.75C208.53 71.69 208.64 71.58 208.8 71.42C209.93 70.29 210.84 69.31 211.51 68.47L217.85 68.02L211.68 79.31C210.75 81.02 210.04 82.38 209.55 83.39C209.06 84.4 208.82 85.04 208.82 85.3C208.82 85.46 208.87 85.59 208.97 85.69C209.07 85.79 209.2 85.84 209.36 85.84C209.92 85.84 210.89 85.28 212.29 84.16C213.69 83.04 215.44 81.41 217.55 79.26C221.2 75.57 223.7 73.17 225.03 72.07C226.36 70.97 227.32 70.42 227.92 70.42C227.96 70.42 228.11 70.45 228.37 70.51C228.47 70.53 228.55 70.54 228.61 70.54C227.04 71.37 224.51 73.64 221.02 77.33C219.87 78.54 218.97 79.47 218.34 80.13C215.64 82.89 213.54 84.77 212.04 85.76C210.54 86.75 209.15 87.25 207.85 87.25C206.7 87.25 205.8 86.91 205.15 86.22C204.5 85.53 204.18 84.58 204.18 83.35C204.18 81.74 205.48 78.69 208.08 74.21C208.52 73.45 208.85 72.89 209.07 72.49ZM214.64 61.86C214.64 61.07 214.98 60.35 215.67 59.72C216.35 59.08 217.12 58.77 217.98 58.77C218.72 58.77 219.31 58.99 219.75 59.43C220.2 59.87 220.42 60.44 220.42 61.16C220.42 62.01 220.1 62.75 219.47 63.38C218.83 64.01 218.08 64.32 217.21 64.32C216.4 64.32 215.76 64.11 215.32 63.68C214.86 63.23 214.64 62.63 214.64 61.86Z" fill="black"/>
<path d="M231.65 77.17C234.33 74.07 236.65 71.77 238.62 70.27C240.58 68.77 242.24 68.02 243.59 68.02C244.78 68.02 245.71 68.45 246.38 69.32C247.05 70.18 247.38 71.38 247.38 72.91C247.38 74.04 247.08 75.23 246.49 76.47C245.89 77.71 244.69 79.49 242.89 81.82C242.65 82.12 242.35 82.49 242 82.92C241.17 83.93 240.75 84.63 240.75 85C240.75 85.16 240.81 85.29 240.93 85.39C241.05 85.49 241.21 85.54 241.41 85.54C241.91 85.54 242.77 85.09 243.99 84.19C245.21 83.29 246.68 82.01 248.38 80.36L249.54 79.23C255.58 73.35 259.09 70.41 260.08 70.41C260.14 70.41 260.29 70.44 260.53 70.5C260.63 70.52 260.71 70.53 260.77 70.53C259.28 71.3 256.24 74.01 251.66 78.63L250.89 79.43L250.56 79.76C245.68 84.7 242.2 87.18 240.13 87.18C239 87.18 238.07 86.72 237.33 85.81C236.59 84.9 236.23 83.71 236.23 82.24C236.23 81.17 236.48 80.09 236.99 78.99C237.5 77.9 238.48 76.44 239.95 74.61C240.41 74.07 240.99 73.38 241.71 72.53C242.94 71.1 243.56 70.26 243.56 70C243.56 69.82 243.52 69.69 243.43 69.6C243.34 69.51 243.19 69.46 242.97 69.44C241.44 69.44 239.15 71 236.1 74.12C233.05 77.24 229.68 81.48 225.99 86.84L217.95 87.26L222.72 80.26C224.25 78.02 225.36 76.3 226.06 75.11C226.76 73.92 227.1 73.13 227.1 72.76C227.1 72.56 227.06 72.41 227 72.31C226.93 72.21 226.83 72.15 226.69 72.13C226.33 72.13 225.59 72.69 224.46 73.81C223.33 74.93 222.58 75.49 222.23 75.49C222.15 75.49 222.08 75.47 222.02 75.43C221.96 75.39 221.93 75.35 221.93 75.31C221.93 75.11 222.02 74.88 222.21 74.61C222.4 74.34 222.71 73.99 223.15 73.55C224.94 71.66 226.41 70.28 227.56 69.41C228.71 68.54 229.64 68.1 230.36 68.1C231.09 68.1 231.69 68.46 232.16 69.17C232.63 69.88 232.86 70.83 232.86 72C232.86 72.81 232.76 73.65 232.56 74.52C232.31 75.36 232.02 76.25 231.65 77.17Z" fill="black"/>
<path d="M262 87.68L266.17 80.23C264.26 82.73 262.57 84.51 261.09 85.58C259.61 86.64 258.13 87.17 256.64 87.17C255.07 87.17 253.8 86.66 252.81 85.65C251.83 84.64 251.34 83.32 251.34 81.69C251.34 79.94 251.79 78.3 252.69 76.78C253.59 75.25 255.01 73.71 256.94 72.16C258.69 70.81 260.36 69.78 261.97 69.08C263.58 68.38 265.06 68.02 266.41 68.02C267.72 68.02 268.77 68.3 269.55 68.87C270.33 69.44 270.83 70.27 271.02 71.39L272.69 68.53L278.71 68.02L269.03 85.59C270.26 85.17 271.74 84.38 273.45 83.22C275.17 82.06 277.07 80.55 279.15 78.71C280.22 77.76 281.65 76.42 283.44 74.69C286.4 71.83 288.31 70.4 289.16 70.4C289.2 70.4 289.35 70.43 289.61 70.49C289.71 70.51 289.78 70.52 289.82 70.52C288.41 71.37 285.47 74 280.99 78.38C276.51 82.77 272.2 85.66 268.05 87.05C264.79 93.34 261.73 97.94 258.86 100.83C255.99 103.72 253.1 105.16 250.18 105.16C248.51 105.16 247.15 104.73 246.1 103.88C245.05 103.03 244.52 101.95 244.52 100.66C244.52 98.22 245.96 95.92 248.84 93.78C251.71 91.64 256.1 89.61 262 87.68ZM261.58 88.9C257.19 90.39 253.61 92.29 250.84 94.6C248.07 96.91 246.69 99.07 246.69 101.08C246.69 101.99 246.96 102.7 247.49 103.19C248.03 103.69 248.78 103.93 249.75 103.93C251.28 103.93 252.93 102.81 254.71 100.58C256.49 98.36 258.78 94.46 261.58 88.9ZM269.95 71.8C269.95 71.09 269.73 70.5 269.29 70.04C268.85 69.58 268.3 69.35 267.62 69.35C266.87 69.35 265.92 69.89 264.79 70.96C263.66 72.03 262.28 73.69 260.65 75.93C259.1 78.07 257.89 79.93 257.02 81.5C256.15 83.07 255.71 84.21 255.71 84.93C255.71 85.39 255.82 85.73 256.04 85.97C256.26 86.21 256.58 86.33 256.99 86.33C257.88 86.33 258.98 85.87 260.27 84.95C261.56 84.03 262.89 82.76 264.26 81.15C265.99 79.11 267.37 77.23 268.4 75.54C269.43 73.84 269.95 72.6 269.95 71.8Z" fill="black"/>
<path d="M146.69 3.79C145.37 4.24 145.2 4.42 144.99 5.98C144.73 7.87 144.22 12.67 143.98 16.04C143.74 16.1 143.62 16.13 143.37 16.18C141.79 13.67 139.71 10.61 138.06 8.29C137.75 11.57 137.49 14.84 137.32 17.77C137.09 17.84 136.97 17.87 136.74 17.94C135 15.22 132.99 12.3 131.04 9.61C130.12 8.37 129.85 8.24 128.58 8.52C128.52 8.33 128.49 8.23 128.42 8.04C130.3 7.43 131.24 7.14 133.13 6.59C133.19 6.78 133.21 6.88 133.27 7.07C131.9 7.62 131.92 7.83 132.45 8.61C133.88 10.72 135.29 12.8 136.73 15.03C136.94 11.99 137.24 8.67 137.47 5.55C137.72 5.49 137.84 5.45 138.09 5.39C139.93 8.08 141.65 10.58 143.41 13.32C143.63 10.81 144 7.44 144.09 5.82C144.15 4.74 143.95 4.53 142.27 4.73C142.23 4.53 142.2 4.43 142.16 4.24C143.93 3.84 144.82 3.65 146.6 3.29C146.63 3.49 146.65 3.59 146.69 3.79Z" fill="black"/>
<path d="M158.71 10.28C158.66 10.76 158.4 12.66 158.29 13.22C154.76 13.69 153 13.97 149.5 14.65C149.46 14.45 149.44 14.35 149.4 14.15C151.06 13.7 151.16 13.53 150.89 12.07C150.38 9.27 150.13 7.87 149.62 5.07C149.33 3.49 149.11 3.44 147.63 3.59C147.59 3.39 147.57 3.29 147.53 3.09C149.91 2.63 151.1 2.43 153.5 2.06C155.34 1.78 156.1 1.67 156.33 1.62C156.41 2.06 156.67 3.39 156.87 4.33C156.64 4.4 156.53 4.43 156.31 4.5C156.05 3.92 155.81 3.57 155.54 3.22C155.15 2.68 154.68 2.61 153.51 2.79C152.77 2.9 152.4 2.96 151.66 3.08C151.06 3.18 151.03 3.24 151.12 3.76C151.39 5.33 151.52 6.11 151.79 7.68C152.63 7.54 153.05 7.47 153.88 7.34C155.3 7.12 155.35 6.85 155.41 5.6C155.65 5.57 155.77 5.55 156 5.52C156.21 6.99 156.31 7.72 156.51 9.19C156.28 9.22 156.16 9.24 155.93 9.27C155.5 8.02 155.32 7.86 153.97 8.07C153.14 8.2 152.73 8.27 151.9 8.41C152.14 9.82 152.26 10.53 152.5 11.94C152.71 13.18 153.13 13.22 154.04 13.09C154.72 12.98 155.05 12.93 155.73 12.83C156.84 12.66 157 12.47 157.34 11.96C157.62 11.54 157.93 10.75 158.11 10.19C158.36 10.23 158.48 10.25 158.71 10.28Z" fill="black"/>
<path d="M169.31 9.19C169.23 9.75 168.78 11.65 168.63 12.22C165.24 12.43 163.54 12.58 160.16 12.98C160.14 12.78 160.12 12.68 160.1 12.48C161.74 12.12 161.88 12.03 161.72 10.5C161.42 7.66 161.27 6.23 160.96 3.39C160.8 1.87 160.59 1.79 159.01 1.83C158.99 1.63 158.97 1.53 158.95 1.33C161.05 1.08 162.11 0.979999 164.21 0.799999C164.23 0.999999 164.24 1.1 164.25 1.3C162.69 1.58 162.49 1.67 162.63 3.22C162.91 6.14 163.05 7.6 163.33 10.52C163.43 11.61 163.6 11.85 164.65 11.77C164.67 11.77 165.99 11.68 166.1 11.67C167.03 11.6 167.3 11.46 167.69 11C168.11 10.5 168.46 9.76 168.7 9.08C168.96 9.12 169.08 9.15 169.31 9.19Z" fill="black"/>
<path d="M181.9 9.14C181.61 10 181.1 11.28 180.82 11.83C180.29 11.93 178.86 12.22 177.47 12.23C173.11 12.23 170.76 9.52 170.62 6.37C170.45 2.7 173.4 -0.00999912 177.82 8.81591e-07C179.52 8.81591e-07 181.39 0.300001 181.54 0.460001C181.75 0.690001 181.71 2.36 181.84 3.26C181.6 3.3 181.48 3.33 181.24 3.37C180.88 2.15 180.43 1.4 179.43 1.01C178.92 0.790001 178.12 0.660001 177.37 0.660001C174.12 0.660001 172.49 2.94 172.58 5.91C172.69 9.38 174.6 11.54 177.56 11.54C179.43 11.54 180.35 10.72 181.35 8.94C181.57 9.02 181.68 9.06 181.9 9.14Z" fill="black"/>
<path d="M190.76 0.550002C194.13 0.830002 196.84 3.55 196.4 7.11C195.92 10.95 192.98 13 189.63 12.73C186.14 12.44 183.69 9.73 183.83 6.35C183.97 3.12 186.6 0.200002 190.76 0.550002ZM190.31 1.18C188.11 1 186.02 2.59 185.83 5.95C185.65 9.29 187.38 11.85 189.98 12.07C192.19 12.26 194.03 10.84 194.41 7.38C194.83 3.62 192.88 1.39 190.31 1.18Z" fill="black"/>
<path d="M207.45 15.03C207.49 14.83 207.51 14.73 207.55 14.54C209.06 14.71 209.14 14.62 209.53 12.73C210.16 9.86 210.48 8.43 211.12 5.56C208.84 8.44 205.42 13.01 204.5 14.45C204.31 14.42 204.22 14.4 204.03 14.36C203.71 12.64 202.47 7.39 201.5 3.95C200.21 10.13 199.99 11.54 199.94 11.87C199.8 12.86 200.24 13.08 201.45 13.4C201.42 13.6 201.4 13.7 201.37 13.9C199.66 13.62 198.8 13.49 197.08 13.26C197.11 13.06 197.12 12.96 197.15 12.76C198.22 12.79 198.7 12.64 198.97 11.71C199.2 10.95 199.29 10.3 200.76 3.87C200.98 2.96 200.83 2.61 199.13 2.24C199.16 2.04 199.17 1.94 199.2 1.74C200.56 1.93 201.24 2.03 202.6 2.25C203.75 6.13 204.27 8.08 205.22 11.97C207.63 8.71 208.89 7.1 211.51 3.93C212.87 4.23 213.54 4.38 214.89 4.71C214.84 4.91 214.82 5 214.77 5.2C213.07 4.97 212.83 5.09 212.58 6.33C211.99 9.03 211.7 10.38 211.11 13.09C210.75 14.98 210.79 15.08 212.33 15.62C212.28 15.82 212.26 15.91 212.21 16.11C210.32 15.64 209.37 15.43 207.45 15.03Z" fill="black"/>
<path d="M223.9 16.44C223.65 16.85 222.6 18.46 222.26 18.92C218.84 17.83 217.11 17.34 213.64 16.46C213.69 16.26 213.71 16.17 213.76 15.97C215.46 16.27 215.62 16.16 216 14.73C216.73 11.98 217.1 10.61 217.83 7.86C218.24 6.31 218.06 6.16 216.65 5.67C216.7 5.47 216.72 5.38 216.77 5.18C219.13 5.78 220.3 6.1 222.64 6.8C224.44 7.33 225.18 7.56 225.42 7.61C225.3 8.05 224.97 9.36 224.76 10.29C224.52 10.25 224.41 10.24 224.17 10.2C224.18 9.56 224.11 9.14 224.01 8.72C223.88 8.06 223.48 7.8 222.34 7.46C221.62 7.25 221.26 7.14 220.53 6.94C219.94 6.77 219.89 6.82 219.75 7.32C219.32 8.85 219.11 9.62 218.68 11.15C219.5 11.38 219.91 11.5 220.73 11.74C222.12 12.15 222.28 11.92 222.86 10.82C223.09 10.89 223.21 10.93 223.44 11C223 12.42 222.78 13.13 222.34 14.54C222.11 14.47 222 14.44 221.78 14.37C221.92 13.06 221.83 12.83 220.5 12.45C219.69 12.21 219.29 12.1 218.47 11.87C218.09 13.25 217.89 13.94 217.51 15.32C217.17 16.53 217.54 16.75 218.42 17.02C219.08 17.21 219.41 17.31 220.07 17.51C221.15 17.84 221.38 17.73 221.91 17.41C222.35 17.15 222.96 16.57 223.38 16.14C223.61 16.25 223.71 16.31 223.9 16.44Z" fill="black"/>
<path d="M163.33 26.69C163.23 26.34 163.1 25.98 162.98 25.78C162.8 25.48 162.69 25.41 162.09 25.41H160.99V30.77C160.99 31.63 161.08 31.75 162.12 31.81V32.12H158.92V31.8C159.94 31.73 160.03 31.62 160.03 30.76V25.4H159.03C158.43 25.4 158.25 25.47 158.06 25.8C157.93 26.02 157.84 26.28 157.7 26.69H157.37C157.44 26.02 157.5 25.33 157.54 24.71H157.79C157.96 24.97 158.08 24.96 158.38 24.96H162.74C163.05 24.96 163.14 24.92 163.3 24.71H163.56C163.56 25.23 163.6 26.02 163.66 26.66L163.33 26.69Z" fill="black"/>
<path d="M168.28 24.81C170.16 24.81 171.84 26.25 171.84 28.44C171.84 30.81 170.23 32.28 168.21 32.28C166.1 32.28 164.56 30.67 164.56 28.61C164.57 26.63 165.96 24.81 168.28 24.81ZM168.06 25.21C166.83 25.21 165.71 26.24 165.71 28.3C165.71 30.35 166.83 31.85 168.39 31.85C169.72 31.85 170.72 30.86 170.72 28.74C170.73 26.43 169.51 25.21 168.06 25.21Z" fill="black"/>
<path d="M179.15 24.81C181.03 24.81 182.71 26.25 182.71 28.44C182.71 30.81 181.1 32.28 179.08 32.28C176.97 32.28 175.43 30.67 175.43 28.61C175.43 26.63 176.83 24.81 179.15 24.81ZM178.93 25.21C177.7 25.21 176.58 26.24 176.58 28.3C176.58 30.35 177.7 31.85 179.26 31.85C180.59 31.85 181.59 30.86 181.59 28.74C181.59 26.43 180.37 25.21 178.93 25.21Z" fill="black"/>
<path d="M191.29 25.27C190.6 25.31 190.34 25.49 190.32 26C190.31 26.25 190.29 26.71 190.29 27.73V28.92C190.29 30.04 190.16 30.9 189.52 31.57C189 32.11 188.25 32.27 187.5 32.27C186.86 32.27 186.18 32.14 185.7 31.76C185.04 31.25 184.72 30.49 184.72 29.21V26.4C184.72 25.41 184.63 25.34 183.75 25.27V24.96H186.64V25.27C185.76 25.32 185.67 25.41 185.67 26.4V29.15C185.67 30.76 186.43 31.64 187.75 31.64C189.31 31.64 189.81 30.67 189.81 28.85V27.73C189.81 26.72 189.78 26.3 189.75 26C189.72 25.5 189.46 25.32 188.65 25.27V24.96H191.29V25.27Z" fill="black"/>
<path d="M198.42 32.2C198.28 32.2 198.16 32.19 198.01 32.18C197.21 32.13 196.78 31.92 196.29 31.23C195.88 30.67 195.49 29.98 195.14 29.42C194.92 29.07 194.78 29 194.22 29H193.83V30.73C193.83 31.67 193.95 31.72 194.83 31.81V32.12H191.89V31.8C192.8 31.7 192.88 31.66 192.88 30.72V26.33C192.88 25.39 192.76 25.36 191.89 25.26V24.95H194.7C195.5 24.95 196.04 25.05 196.46 25.32C196.91 25.61 197.21 26.1 197.21 26.77C197.21 27.72 196.6 28.31 195.79 28.66C195.99 29 196.46 29.74 196.79 30.23C197.2 30.81 197.41 31.09 197.66 31.36C197.96 31.68 198.21 31.8 198.46 31.87L198.42 32.2ZM194.36 28.62C194.93 28.62 195.3 28.53 195.57 28.3C196 27.98 196.18 27.54 196.18 26.95C196.18 25.77 195.4 25.34 194.55 25.34C194.23 25.34 194.04 25.38 193.97 25.45C193.87 25.53 193.84 25.64 193.84 25.92V28.62H194.36Z" fill="black"/>
</svg>
