<svg width="217" height="106" viewBox="0 0 217 106" fill="none" xmlns="http://www.w3.org/2000/svg">
<path d="M11.74 83.33C16.31 80.97 20.99 77.73 25.8 73.6C30.61 69.48 35.54 64.47 40.6 58.57C42.01 56.92 43.67 54.93 45.57 52.58C47.56 50.14 48.7 48.92 49 48.92C49.18 48.92 49.34 48.98 49.48 49.11C49.62 49.24 49.69 49.38 49.69 49.54C49.69 49.6 49.11 50.94 47.95 53.56C46.79 56.18 45.64 58.88 44.51 61.66C43.97 62.99 43.2 64.87 42.19 67.29C38.58 75.91 36.63 81.54 36.35 84.18C38.34 79.93 40.39 76.14 42.5 72.82C44.61 69.49 46.89 66.47 49.34 63.75C51.11 61.72 52.94 59.98 54.84 58.51C56.74 57.04 57.95 56.31 58.49 56.31C58.59 56.31 58.67 56.33 58.74 56.38C58.81 56.43 58.84 56.48 58.84 56.54C58.84 56.72 58.36 57.16 57.41 57.85C52.54 61.33 48.35 65.77 44.81 71.19C43.1 73.79 41.28 77.04 39.34 80.94C37.4 84.84 35.95 86.79 34.98 86.79C34.11 86.79 33.33 86.12 32.66 84.78C31.98 83.44 31.65 81.84 31.65 79.97C31.65 75.26 35.28 68.08 42.55 58.41C43.84 56.7 44.82 55.39 45.5 54.48C44.75 55.23 43.47 56.65 41.69 58.74C35 66.52 28.56 72.81 22.39 77.59C19.07 80.15 15.83 82.39 12.67 84.29C9.5 86.2 7.68 87.15 7.2 87.15C6.86 87.15 6.62 87.1 6.49 87C6.35 86.9 6.28 86.73 6.28 86.49C6.28 86.19 7.04 85.26 8.56 83.7C10.08 82.14 11.45 80.65 12.69 79.22C17.32 73.84 20.69 69.19 22.8 65.28C24.91 61.37 25.97 57.86 25.97 54.77C25.97 53.22 25.55 52.03 24.72 51.2C23.89 50.37 22.7 49.95 21.18 49.95C19.27 49.95 17.02 50.65 14.42 52.05C11.82 53.45 9.31 55.35 6.88 57.75C4.97 59.64 3.52 61.44 2.53 63.16C1.54 64.88 1.04 66.45 1.04 67.88C1.04 69.17 1.4 70.24 2.11 71.08C2.82 71.92 3.73 72.35 4.82 72.35C6.05 72.35 7.56 71.56 9.33 69.98C11.11 68.4 12.73 66.36 14.2 63.86C14.95 62.59 15.51 61.35 15.87 60.14C16.23 58.93 16.41 57.71 16.41 56.48C16.41 56.24 16.38 55.94 16.32 55.59C16.26 55.24 16.23 55 16.23 54.9C16.23 54.66 16.26 54.48 16.33 54.36C16.4 54.24 16.5 54.17 16.64 54.15C17.1 54.15 17.48 54.75 17.8 55.94C18.12 57.13 18.28 58.61 18.28 60.38C18.28 64.03 17.06 67.18 14.62 69.81C12.18 72.44 9.38 73.76 6.22 73.76C4.31 73.76 2.8 73.23 1.68 72.17C0.56 71.11 0 69.68 0 67.9C0 66.15 0.620001 64.23 1.86 62.12C3.1 60.02 4.88 57.9 7.21 55.78C9.59 53.56 12.12 51.81 14.81 50.54C17.49 49.27 19.93 48.63 22.14 48.63C24.98 48.63 27.29 49.51 29.07 51.28C30.85 53.05 31.74 55.33 31.74 58.13C31.74 61.55 30.25 65.16 27.26 68.99C24.22 72.81 19.06 77.59 11.74 83.33Z" fill="black"/>
<path d="M54.33 80.53C53.87 81.82 53.56 82.78 53.38 83.4C53.2 84.03 53.11 84.51 53.11 84.84C53.11 85.26 53.26 85.55 53.56 85.73C53.86 85.91 54.32 86 54.96 86C56.53 86 58.19 85.54 59.93 84.61C61.68 83.69 64.14 81.84 67.32 79.06C68.37 78.15 69.76 76.91 71.49 75.34C75.1 72.04 77.32 70.4 78.13 70.4C78.17 70.4 78.26 70.42 78.4 70.44C78.54 70.47 78.65 70.5 78.73 70.51C77.42 71.22 75.41 72.9 72.71 75.54C71.36 76.89 70.3 77.92 69.52 78.64C65.63 82.17 62.68 84.49 60.67 85.58C58.66 86.67 56.7 87.22 54.77 87.22C52.72 87.22 51.08 86.64 49.84 85.48C48.6 84.32 47.98 82.8 47.98 80.94C47.98 79.37 48.45 77.84 49.38 76.34C50.31 74.84 51.72 73.37 53.61 71.92C55.22 70.69 56.84 69.73 58.48 69.05C60.12 68.36 61.6 68.02 62.93 68.02C64.14 68.02 65.09 68.36 65.79 69.05C66.48 69.73 66.83 70.67 66.83 71.86C66.83 73.77 65.67 75.53 63.35 77.16C61.03 78.79 58.02 79.92 54.33 80.53ZM54.69 79.55C57.19 79.17 59.42 78.08 61.36 76.27C63.31 74.46 64.28 72.72 64.28 71.03C64.28 70.55 64.15 70.15 63.88 69.81C63.61 69.47 63.3 69.3 62.94 69.3C61.93 69.3 60.58 70.29 58.9 72.26C57.22 74.24 55.82 76.67 54.69 79.55Z" fill="black"/>
<path d="M106.12 51.07L90.87 78.5C89.9 80.27 89.12 81.79 88.55 83.07C87.97 84.35 87.69 85.19 87.69 85.59C87.69 85.73 87.76 85.83 87.9 85.9C88.04 85.97 88.26 86 88.56 86C89.29 86 90.17 85.65 91.2 84.96C92.22 84.27 93.58 83.07 95.27 81.39L97.41 79.28C103.39 73.32 106.88 70.34 107.89 70.34C107.95 70.34 108.03 70.35 108.13 70.37C108.23 70.39 108.37 70.42 108.55 70.46C106.9 71.37 104.3 73.67 100.75 77.34C99.96 78.15 99.35 78.77 98.93 79.19L98.16 79.99C93.45 84.82 89.93 87.23 87.59 87.23C86.32 87.23 85.33 86.92 84.63 86.31C83.92 85.69 83.57 84.83 83.57 83.72C83.57 83.08 83.63 82.49 83.76 81.93C83.89 81.37 84.09 80.81 84.37 80.23C82.42 82.69 80.71 84.46 79.22 85.55C77.73 86.63 76.27 87.17 74.84 87.17C73.29 87.17 72.03 86.67 71.06 85.68C70.09 84.69 69.6 83.38 69.6 81.75C69.6 79.96 70.04 78.3 70.91 76.76C71.78 75.22 73.13 73.74 74.96 72.31C76.79 70.9 78.51 69.83 80.14 69.11C81.77 68.38 83.26 68.02 84.61 68.02C85.92 68.02 86.97 68.3 87.75 68.87C88.53 69.44 89.04 70.27 89.25 71.39L100.09 51.73L106.12 51.07ZM88.19 71.8C88.19 71.09 87.97 70.5 87.53 70.04C87.09 69.58 86.54 69.35 85.86 69.35C85.11 69.35 84.15 69.9 82.99 70.99C81.83 72.08 80.44 73.73 78.83 75.93C77.14 78.25 75.91 80.14 75.14 81.6C74.37 83.06 73.98 84.23 73.98 85.1C73.98 85.52 74.07 85.83 74.26 86.02C74.45 86.22 74.75 86.32 75.17 86.32C76.08 86.32 77.18 85.86 78.45 84.95C79.72 84.04 81.05 82.77 82.44 81.14C84.19 79.08 85.58 77.19 86.63 75.5C87.67 73.82 88.19 72.58 88.19 71.8Z" fill="black"/>
<path d="M136.03 51.07L120.78 78.51C119.81 80.28 119.03 81.8 118.46 83.08C117.88 84.36 117.6 85.2 117.6 85.6C117.6 85.74 117.67 85.84 117.81 85.91C117.95 85.98 118.17 86.01 118.47 86.01C119.2 86.01 120.08 85.66 121.11 84.97C122.13 84.28 123.49 83.08 125.18 81.4L127.32 79.29C133.3 73.33 136.79 70.35 137.8 70.35C137.86 70.35 137.94 70.36 138.04 70.38C138.14 70.4 138.28 70.43 138.46 70.47C136.81 71.38 134.21 73.68 130.66 77.35C129.87 78.16 129.26 78.78 128.84 79.2L128.07 80C123.36 84.83 119.84 87.24 117.5 87.24C116.23 87.24 115.24 86.93 114.54 86.32C113.83 85.7 113.48 84.84 113.48 83.73C113.48 83.09 113.54 82.5 113.67 81.94C113.8 81.38 114 80.82 114.28 80.24C112.33 82.7 110.62 84.47 109.13 85.56C107.64 86.64 106.18 87.18 104.75 87.18C103.2 87.18 101.94 86.68 100.97 85.69C100 84.7 99.51 83.39 99.51 81.76C99.51 79.97 99.95 78.31 100.82 76.77C101.69 75.23 103.04 73.75 104.87 72.32C106.7 70.91 108.42 69.84 110.05 69.12C111.68 68.39 113.17 68.03 114.52 68.03C115.83 68.03 116.88 68.31 117.66 68.88C118.44 69.45 118.95 70.28 119.16 71.4L130 51.74L136.03 51.07ZM118.1 71.8C118.1 71.09 117.88 70.5 117.44 70.04C117 69.58 116.45 69.35 115.77 69.35C115.02 69.35 114.06 69.9 112.9 70.99C111.74 72.08 110.35 73.73 108.74 75.93C107.05 78.25 105.82 80.14 105.05 81.6C104.28 83.06 103.89 84.23 103.89 85.1C103.89 85.52 103.98 85.83 104.17 86.02C104.36 86.22 104.66 86.32 105.08 86.32C105.99 86.32 107.09 85.86 108.36 84.95C109.63 84.04 110.96 82.77 112.35 81.14C114.1 79.08 115.49 77.19 116.54 75.5C117.58 73.82 118.1 72.58 118.1 71.8Z" fill="black"/>
<path d="M135.85 72.49L134.03 74.25C133.75 74.51 133.4 74.86 132.96 75.29C132.11 76.14 131.59 76.57 131.41 76.57C131.23 76.57 131.09 76.55 130.99 76.5C130.89 76.45 130.84 76.38 130.84 76.28C130.84 76.04 131.22 75.59 131.97 74.94C132.51 74.44 132.94 74.04 133.28 73.72L135.25 71.75C135.31 71.69 135.42 71.58 135.58 71.42C136.71 70.29 137.62 69.31 138.29 68.47L144.63 68.02L138.46 79.31C137.53 81.02 136.82 82.38 136.33 83.39C135.84 84.4 135.6 85.04 135.6 85.3C135.6 85.46 135.65 85.59 135.75 85.69C135.85 85.79 135.98 85.84 136.14 85.84C136.7 85.84 137.67 85.28 139.07 84.16C140.47 83.04 142.22 81.41 144.33 79.26C147.98 75.57 150.48 73.17 151.81 72.07C153.14 70.97 154.1 70.42 154.7 70.42C154.74 70.42 154.89 70.45 155.15 70.51C155.25 70.53 155.33 70.54 155.39 70.54C153.82 71.37 151.29 73.64 147.8 77.33C146.65 78.54 145.75 79.47 145.12 80.13C142.42 82.89 140.32 84.77 138.82 85.76C137.32 86.75 135.93 87.25 134.63 87.25C133.48 87.25 132.58 86.91 131.93 86.22C131.28 85.53 130.96 84.58 130.96 83.35C130.96 81.74 132.26 78.69 134.86 74.21C135.3 73.45 135.63 72.89 135.85 72.49ZM141.42 61.86C141.42 61.07 141.76 60.35 142.45 59.72C143.13 59.08 143.9 58.77 144.76 58.77C145.5 58.77 146.09 58.99 146.53 59.43C146.98 59.87 147.2 60.44 147.2 61.16C147.2 62.01 146.88 62.75 146.25 63.38C145.61 64.01 144.86 64.32 143.99 64.32C143.18 64.32 142.54 64.11 142.1 63.68C141.64 63.23 141.42 62.63 141.42 61.86Z" fill="black"/>
<path d="M158.43 77.17C161.11 74.07 163.43 71.77 165.4 70.27C167.36 68.77 169.02 68.02 170.37 68.02C171.56 68.02 172.49 68.45 173.16 69.32C173.83 70.18 174.16 71.38 174.16 72.91C174.16 74.04 173.86 75.23 173.27 76.47C172.67 77.71 171.47 79.49 169.67 81.82C169.43 82.12 169.13 82.49 168.78 82.92C167.95 83.93 167.53 84.63 167.53 85C167.53 85.16 167.59 85.29 167.71 85.39C167.83 85.49 167.99 85.54 168.19 85.54C168.69 85.54 169.55 85.09 170.77 84.19C171.99 83.29 173.46 82.01 175.16 80.36L176.32 79.23C182.36 73.35 185.87 70.41 186.86 70.41C186.92 70.41 187.07 70.44 187.31 70.5C187.41 70.52 187.49 70.53 187.55 70.53C186.06 71.3 183.02 74.01 178.44 78.63L177.67 79.43L177.34 79.76C172.46 84.7 168.98 87.18 166.91 87.18C165.78 87.18 164.85 86.72 164.11 85.81C163.37 84.9 163.01 83.71 163.01 82.24C163.01 81.17 163.26 80.09 163.77 78.99C164.28 77.9 165.26 76.44 166.73 74.61C167.19 74.07 167.77 73.38 168.49 72.53C169.72 71.1 170.34 70.26 170.34 70C170.34 69.82 170.3 69.69 170.21 69.6C170.12 69.51 169.97 69.46 169.75 69.44C168.22 69.44 165.93 71 162.88 74.12C159.83 77.24 156.46 81.48 152.77 86.84L144.73 87.26L149.5 80.26C151.03 78.02 152.14 76.3 152.84 75.11C153.54 73.92 153.88 73.13 153.88 72.76C153.88 72.56 153.84 72.41 153.78 72.31C153.71 72.21 153.61 72.15 153.47 72.13C153.11 72.13 152.37 72.69 151.24 73.81C150.11 74.93 149.36 75.49 149.01 75.49C148.93 75.49 148.86 75.47 148.8 75.43C148.74 75.39 148.71 75.35 148.71 75.31C148.71 75.11 148.8 74.88 148.99 74.61C149.18 74.34 149.49 73.99 149.93 73.55C151.72 71.66 153.19 70.28 154.34 69.41C155.49 68.54 156.42 68.1 157.14 68.1C157.87 68.1 158.47 68.46 158.94 69.17C159.41 69.88 159.64 70.83 159.64 72C159.64 72.81 159.54 73.65 159.34 74.52C159.09 75.36 158.8 76.25 158.43 77.17Z" fill="black"/>
<path d="M188.78 87.68L192.95 80.23C191.04 82.73 189.35 84.51 187.87 85.58C186.39 86.64 184.91 87.17 183.42 87.17C181.85 87.17 180.58 86.66 179.59 85.65C178.61 84.64 178.12 83.32 178.12 81.69C178.12 79.94 178.57 78.3 179.47 76.78C180.37 75.25 181.79 73.71 183.72 72.16C185.47 70.81 187.14 69.78 188.75 69.08C190.36 68.38 191.84 68.02 193.19 68.02C194.5 68.02 195.55 68.3 196.33 68.87C197.11 69.44 197.61 70.27 197.8 71.39L199.47 68.53L205.49 68.02L195.81 85.59C197.04 85.17 198.52 84.38 200.23 83.22C201.95 82.06 203.85 80.55 205.93 78.71C207 77.76 208.43 76.42 210.22 74.69C213.18 71.83 215.09 70.4 215.94 70.4C215.98 70.4 216.13 70.43 216.39 70.49C216.49 70.51 216.56 70.52 216.6 70.52C215.19 71.37 212.25 74 207.77 78.38C203.29 82.77 198.98 85.66 194.83 87.05C191.57 93.34 188.51 97.94 185.64 100.83C182.77 103.72 179.88 105.16 176.96 105.16C175.29 105.16 173.93 104.73 172.88 103.88C171.83 103.03 171.3 101.95 171.3 100.66C171.3 98.22 172.74 95.92 175.62 93.78C178.49 91.64 182.88 89.61 188.78 87.68ZM188.36 88.9C183.97 90.39 180.39 92.29 177.62 94.6C174.85 96.91 173.47 99.07 173.47 101.08C173.47 101.99 173.74 102.7 174.27 103.19C174.81 103.69 175.56 103.93 176.53 103.93C178.06 103.93 179.71 102.81 181.49 100.58C183.27 98.36 185.56 94.46 188.36 88.9ZM196.73 71.8C196.73 71.09 196.51 70.5 196.07 70.04C195.63 69.58 195.08 69.35 194.4 69.35C193.65 69.35 192.7 69.89 191.57 70.96C190.44 72.03 189.06 73.69 187.43 75.93C185.88 78.07 184.67 79.93 183.8 81.5C182.93 83.07 182.49 84.21 182.49 84.93C182.49 85.39 182.6 85.73 182.82 85.97C183.04 86.21 183.36 86.33 183.77 86.33C184.66 86.33 185.76 85.87 187.05 84.95C188.34 84.03 189.67 82.76 191.04 81.15C192.77 79.11 194.15 77.23 195.18 75.54C196.21 73.84 196.73 72.6 196.73 71.8Z" fill="black"/>
<path d="M73.47 3.79C72.15 4.24 71.98 4.42 71.77 5.98C71.51 7.87 71 12.67 70.76 16.04C70.52 16.1 70.4 16.13 70.15 16.18C68.57 13.67 66.49 10.61 64.84 8.29C64.53 11.57 64.27 14.84 64.1 17.77C63.87 17.84 63.75 17.87 63.52 17.94C61.78 15.22 59.77 12.3 57.82 9.61C56.9 8.37 56.63 8.24 55.36 8.52C55.3 8.33 55.27 8.23 55.2 8.04C57.08 7.43 58.02 7.14 59.91 6.59C59.97 6.78 59.99 6.88 60.05 7.07C58.68 7.62 58.7 7.83 59.23 8.61C60.66 10.72 62.07 12.8 63.51 15.03C63.72 11.99 64.02 8.67 64.25 5.55C64.5 5.49 64.62 5.45 64.87 5.39C66.71 8.08 68.43 10.58 70.19 13.32C70.41 10.81 70.78 7.44 70.87 5.82C70.93 4.74 70.73 4.53 69.05 4.73C69.01 4.53 68.98 4.43 68.94 4.24C70.71 3.84 71.6 3.65 73.38 3.29C73.41 3.49 73.43 3.59 73.47 3.79Z" fill="black"/>
<path d="M85.49 10.28C85.44 10.76 85.18 12.66 85.07 13.22C81.54 13.69 79.78 13.97 76.28 14.65C76.24 14.45 76.22 14.35 76.18 14.15C77.84 13.7 77.94 13.53 77.67 12.07C77.16 9.27 76.91 7.87 76.4 5.07C76.11 3.49 75.89 3.44 74.41 3.59C74.37 3.39 74.35 3.29 74.31 3.09C76.69 2.63 77.88 2.43 80.28 2.06C82.12 1.78 82.88 1.67 83.11 1.62C83.19 2.06 83.45 3.39 83.65 4.33C83.42 4.4 83.31 4.43 83.09 4.5C82.83 3.92 82.59 3.57 82.32 3.22C81.93 2.68 81.46 2.61 80.29 2.79C79.55 2.9 79.18 2.96 78.44 3.08C77.84 3.18 77.81 3.24 77.9 3.76C78.17 5.33 78.3 6.11 78.57 7.68C79.41 7.54 79.83 7.47 80.66 7.34C82.08 7.12 82.13 6.85 82.19 5.6C82.43 5.57 82.55 5.55 82.78 5.52C82.99 6.99 83.09 7.72 83.29 9.19C83.06 9.22 82.94 9.24 82.71 9.27C82.28 8.02 82.1 7.86 80.75 8.07C79.92 8.2 79.51 8.27 78.68 8.41C78.92 9.82 79.04 10.53 79.28 11.94C79.49 13.18 79.91 13.22 80.82 13.09C81.5 12.98 81.83 12.93 82.51 12.83C83.62 12.66 83.78 12.47 84.12 11.96C84.4 11.54 84.71 10.75 84.89 10.19C85.14 10.23 85.26 10.25 85.49 10.28Z" fill="black"/>
<path d="M96.09 9.19C96.01 9.75 95.56 11.65 95.41 12.22C92.02 12.43 90.32 12.58 86.94 12.98C86.92 12.78 86.9 12.68 86.88 12.48C88.52 12.12 88.66 12.03 88.5 10.5C88.2 7.66 88.05 6.23 87.74 3.39C87.58 1.87 87.37 1.79 85.79 1.83C85.77 1.63 85.75 1.53 85.73 1.33C87.83 1.08 88.89 0.979999 90.99 0.799999C91.01 0.999999 91.02 1.1 91.03 1.3C89.47 1.58 89.27 1.67 89.41 3.22C89.69 6.14 89.83 7.6 90.11 10.52C90.21 11.61 90.38 11.85 91.43 11.77C91.45 11.77 92.77 11.68 92.88 11.67C93.81 11.6 94.08 11.46 94.47 11C94.89 10.5 95.24 9.76 95.48 9.08C95.74 9.12 95.86 9.15 96.09 9.19Z" fill="black"/>
<path d="M108.68 9.14C108.39 10 107.88 11.28 107.6 11.83C107.07 11.93 105.64 12.22 104.25 12.23C99.89 12.23 97.54 9.52 97.4 6.37C97.23 2.7 100.18 -0.00999912 104.6 8.81591e-07C106.3 8.81591e-07 108.17 0.300001 108.32 0.460001C108.53 0.690001 108.49 2.36 108.62 3.26C108.38 3.3 108.26 3.33 108.02 3.37C107.66 2.15 107.21 1.4 106.21 1.01C105.7 0.790001 104.9 0.660001 104.15 0.660001C100.9 0.660001 99.27 2.94 99.36 5.91C99.47 9.38 101.38 11.54 104.34 11.54C106.21 11.54 107.13 10.72 108.13 8.94C108.35 9.02 108.46 9.06 108.68 9.14Z" fill="black"/>
<path d="M117.54 0.550002C120.91 0.830002 123.62 3.55 123.18 7.11C122.7 10.95 119.76 13 116.41 12.73C112.92 12.44 110.47 9.73 110.61 6.35C110.75 3.12 113.38 0.200002 117.54 0.550002ZM117.09 1.18C114.89 1 112.8 2.59 112.61 5.95C112.43 9.29 114.16 11.85 116.76 12.07C118.97 12.26 120.81 10.84 121.19 7.38C121.61 3.62 119.66 1.39 117.09 1.18Z" fill="black"/>
<path d="M134.23 15.03C134.27 14.83 134.29 14.73 134.33 14.54C135.84 14.71 135.92 14.62 136.31 12.73C136.94 9.86 137.26 8.43 137.9 5.56C135.62 8.44 132.2 13.01 131.28 14.45C131.09 14.42 131 14.4 130.81 14.36C130.49 12.64 129.25 7.39 128.28 3.95C126.99 10.13 126.77 11.54 126.72 11.87C126.58 12.86 127.02 13.08 128.23 13.4C128.2 13.6 128.18 13.7 128.15 13.9C126.44 13.62 125.58 13.49 123.86 13.26C123.89 13.06 123.9 12.96 123.93 12.76C125 12.79 125.48 12.64 125.75 11.71C125.98 10.95 126.07 10.3 127.54 3.87C127.76 2.96 127.61 2.61 125.91 2.24C125.94 2.04 125.95 1.94 125.98 1.74C127.34 1.93 128.02 2.03 129.38 2.25C130.53 6.13 131.05 8.08 132 11.97C134.41 8.71 135.67 7.1 138.29 3.93C139.65 4.23 140.32 4.38 141.67 4.71C141.62 4.91 141.6 5 141.55 5.2C139.85 4.97 139.61 5.09 139.36 6.33C138.77 9.03 138.48 10.38 137.89 13.09C137.53 14.98 137.57 15.08 139.11 15.62C139.06 15.82 139.04 15.91 138.99 16.11C137.1 15.64 136.15 15.43 134.23 15.03Z" fill="black"/>
<path d="M150.68 16.44C150.43 16.85 149.38 18.46 149.04 18.92C145.62 17.83 143.89 17.34 140.42 16.46C140.47 16.26 140.49 16.17 140.54 15.97C142.24 16.27 142.4 16.16 142.78 14.73C143.51 11.98 143.88 10.61 144.61 7.86C145.02 6.31 144.84 6.16 143.43 5.67C143.48 5.47 143.5 5.38 143.55 5.18C145.91 5.78 147.08 6.1 149.42 6.8C151.22 7.33 151.96 7.56 152.2 7.61C152.08 8.05 151.75 9.36 151.54 10.29C151.3 10.25 151.19 10.24 150.95 10.2C150.96 9.56 150.89 9.14 150.79 8.72C150.66 8.06 150.26 7.8 149.12 7.46C148.4 7.25 148.04 7.14 147.31 6.94C146.72 6.77 146.67 6.82 146.53 7.32C146.1 8.85 145.89 9.62 145.46 11.15C146.28 11.38 146.69 11.5 147.51 11.74C148.9 12.15 149.06 11.92 149.64 10.82C149.87 10.89 149.99 10.93 150.22 11C149.78 12.42 149.56 13.13 149.12 14.54C148.89 14.47 148.78 14.44 148.56 14.37C148.7 13.06 148.61 12.83 147.28 12.45C146.47 12.21 146.07 12.1 145.25 11.87C144.87 13.25 144.67 13.94 144.29 15.32C143.95 16.53 144.32 16.75 145.2 17.02C145.86 17.21 146.19 17.31 146.85 17.51C147.93 17.84 148.16 17.73 148.69 17.41C149.13 17.15 149.74 16.57 150.16 16.14C150.39 16.25 150.49 16.31 150.68 16.44Z" fill="black"/>
<path d="M90.11 26.69C90.01 26.34 89.88 25.98 89.76 25.78C89.58 25.48 89.47 25.41 88.87 25.41H87.77V30.77C87.77 31.63 87.86 31.75 88.9 31.81V32.12H85.7V31.8C86.72 31.73 86.81 31.62 86.81 30.76V25.4H85.81C85.21 25.4 85.03 25.47 84.84 25.8C84.71 26.02 84.62 26.28 84.48 26.69H84.15C84.22 26.02 84.28 25.33 84.32 24.71H84.57C84.74 24.97 84.86 24.96 85.16 24.96H89.52C89.83 24.96 89.92 24.92 90.08 24.71H90.34C90.34 25.23 90.38 26.02 90.44 26.66L90.11 26.69Z" fill="black"/>
<path d="M95.06 24.81C96.94 24.81 98.62 26.25 98.62 28.44C98.62 30.81 97.01 32.28 94.99 32.28C92.88 32.28 91.34 30.67 91.34 28.61C91.35 26.63 92.74 24.81 95.06 24.81ZM94.84 25.21C93.61 25.21 92.49 26.24 92.49 28.3C92.49 30.35 93.61 31.85 95.17 31.85C96.5 31.85 97.5 30.86 97.5 28.74C97.51 26.43 96.29 25.21 94.84 25.21Z" fill="black"/>
<path d="M105.93 24.81C107.81 24.81 109.49 26.25 109.49 28.44C109.49 30.81 107.88 32.28 105.86 32.28C103.75 32.28 102.21 30.67 102.21 28.61C102.21 26.63 103.61 24.81 105.93 24.81ZM105.71 25.21C104.48 25.21 103.36 26.24 103.36 28.3C103.36 30.35 104.48 31.85 106.04 31.85C107.37 31.85 108.37 30.86 108.37 28.74C108.37 26.43 107.15 25.21 105.71 25.21Z" fill="black"/>
<path d="M118.07 25.27C117.38 25.31 117.12 25.49 117.1 26C117.09 26.25 117.07 26.71 117.07 27.73V28.92C117.07 30.04 116.94 30.9 116.3 31.57C115.78 32.11 115.03 32.27 114.28 32.27C113.64 32.27 112.96 32.14 112.48 31.76C111.82 31.25 111.5 30.49 111.5 29.21V26.4C111.5 25.41 111.41 25.34 110.53 25.27V24.96H113.42V25.27C112.54 25.32 112.45 25.41 112.45 26.4V29.15C112.45 30.76 113.21 31.64 114.53 31.64C116.09 31.64 116.59 30.67 116.59 28.85V27.73C116.59 26.72 116.56 26.3 116.53 26C116.5 25.5 116.24 25.32 115.43 25.27V24.96H118.07V25.27Z" fill="black"/>
<path d="M125.2 32.2C125.06 32.2 124.94 32.19 124.79 32.18C123.99 32.13 123.56 31.92 123.07 31.23C122.66 30.67 122.27 29.98 121.92 29.42C121.7 29.07 121.56 29 121 29H120.61V30.73C120.61 31.67 120.73 31.72 121.61 31.81V32.12H118.67V31.8C119.58 31.7 119.66 31.66 119.66 30.72V26.33C119.66 25.39 119.54 25.36 118.67 25.26V24.95H121.48C122.28 24.95 122.82 25.05 123.24 25.32C123.69 25.61 123.99 26.1 123.99 26.77C123.99 27.72 123.38 28.31 122.57 28.66C122.77 29 123.24 29.74 123.57 30.23C123.98 30.81 124.19 31.09 124.44 31.36C124.74 31.68 124.99 31.8 125.24 31.87L125.2 32.2ZM121.14 28.62C121.71 28.62 122.08 28.53 122.35 28.3C122.78 27.98 122.96 27.54 122.96 26.95C122.96 25.77 122.18 25.34 121.33 25.34C121.01 25.34 120.82 25.38 120.75 25.45C120.65 25.53 120.62 25.64 120.62 25.92V28.62H121.14Z" fill="black"/>
</svg>
