<svg width="356" height="71" viewBox="0 0 356 71" fill="none" xmlns="http://www.w3.org/2000/svg">
<path d="M82.47 11.75C82.36 11.77 81.96 11.82 81.25 11.92L79.33 12.19V13.18L83.85 13C84.01 12.99 84.14 13.05 84.25 13.18C84.33 13.27 84.37 13.38 84.37 13.5C84.37 13.69 84.28 13.84 84.1 13.95C84.04 13.98 83.98 14 83.91 14L79.34 14.18V14.99L86.04 14.82C86.35 14.81 86.51 14.98 86.51 15.32C86.51 15.66 86.36 15.84 86.06 15.85L71.67 16.21C71.35 16.22 71.19 16.04 71.19 15.69C71.19 15.36 71.35 15.19 71.66 15.18L78.08 15.02V14.22L73.62 14.4C73.6 14.4 73.59 14.4 73.58 14.4C73.29 14.4 73.15 14.23 73.15 13.89C73.15 13.58 73.29 13.42 73.58 13.41L78.08 13.23V12.34C77.41 12.42 76.62 12.5 75.72 12.57C74.81 12.64 74.28 12.68 74.16 12.68C73.98 12.68 73.86 12.6 73.77 12.45C73.69 12.3 73.66 12.17 73.66 12.05C73.66 11.92 73.82 11.75 74.13 11.56C74.51 11.33 75.01 10.99 75.62 10.57L73.81 10.68C73.8 10.68 73.79 10.68 73.77 10.68C73.51 10.68 73.37 10.52 73.37 10.19C73.37 9.92997 73.49 9.79998 73.73 9.78998L82.96 9.25C83.05 9.24 83.14 9.26998 83.23 9.31998C83.38 9.39998 83.45 9.51999 83.45 9.67999C83.45 9.79999 83.41 9.9 83.32 10C83.23 10.1 83.14 10.14 83.03 10.15L81.66 10.24C82.22 10.44 82.95 10.78 83.86 11.26C84.16 11.42 84.32 11.62 84.32 11.87C84.32 11.98 84.29 12.08 84.24 12.18C84.13 12.37 83.95 12.47 83.71 12.47C83.52 12.47 83.3 12.38 83.05 12.19C82.98 12.12 82.79 11.98 82.47 11.75ZM72.76 8.15997L85.38 7.42999C85.41 7.42999 85.46 7.42999 85.52 7.42999C86.08 7.42999 86.35 7.59997 86.35 7.93997C86.35 8.26997 86.1 8.72998 85.6 9.28998C85.06 9.90998 84.67 10.22 84.43 10.22C84.35 10.22 84.28 10.19 84.2 10.13C84.11 10.06 84.07 9.96999 84.07 9.85999C84.07 9.76999 84.11 9.63999 84.2 9.48999C84.48 8.99999 84.62 8.69999 84.62 8.57999C84.62 8.44999 84.51 8.37999 84.29 8.39999L72.82 9.06998C72.81 9.62998 72.77 10.09 72.68 10.46C72.6 10.84 72.36 11.02 71.98 11.02C71.87 11.02 71.77 10.99 71.67 10.94C71.48 10.83 71.38 10.66 71.38 10.42C71.38 10.33 71.42 10.19 71.49 9.98999C71.67 9.47999 71.77 8.85997 71.82 8.12997C71.84 7.79997 72.01 7.62997 72.33 7.62997C72.56 7.63997 72.71 7.80997 72.76 8.15997ZM79.35 2.92999L83.38 2.67999L83.41 2.66998C83.47 2.65998 83.56 2.67998 83.67 2.72998C83.83 2.80998 83.92 2.93998 83.92 3.13998C83.92 3.42998 83.78 3.58999 83.51 3.60999L74.15 4.18997C74.11 4.18997 74.09 4.18997 74.08 4.18997C73.89 4.18997 73.75 4.10999 73.66 3.95999C73.61 3.88999 73.59 3.80999 73.59 3.70999C73.59 3.41999 73.74 3.25999 74.03 3.23999L78.06 2.98999V2.42999L73.08 2.71997C73.05 2.71997 73.03 2.71997 73.01 2.71997C72.69 2.71997 72.53 2.55998 72.53 2.22998C72.53 1.92998 72.67 1.76 72.96 1.75L78.07 1.45999V0.599976C78.07 0.199976 78.29 0 78.72 0C78.94 0 79.12 0.0799805 79.25 0.22998C79.33 0.32998 79.37 0.449976 79.37 0.599976V1.38998L84.34 1.09998H84.38C84.54 1.08998 84.67 1.14 84.78 1.25C84.87 1.34 84.91 1.45 84.91 1.59C84.91 1.89 84.76 2.05998 84.47 2.06998L79.38 2.35999V2.92999H79.35ZM83.15 6C83.41 6.06 83.55 6.19998 83.55 6.41998C83.55 6.69998 83.41 6.83999 83.12 6.85999L75.32 7.32999C75.21 7.54999 75.02 7.65997 74.75 7.65997C74.38 7.65997 74.16 7.46999 74.1 7.07999L73.81 5.35999C73.8 5.31999 73.8 5.27999 73.8 5.23999C73.8 5.01999 73.9 4.86 74.1 4.75C74.21 4.69 74.33 4.65997 74.45 4.65997C74.65 4.65997 74.82 4.73999 74.96 4.89999L82.52 4.38998C82.53 4.38998 82.57 4.38998 82.63 4.38998C83.17 4.38998 83.45 4.59998 83.45 5.00998C83.45 5.10998 83.43 5.21998 83.39 5.34998L83.15 6ZM81.96 6.06L82.05 5.65997C82.07 5.54997 82.09 5.46997 82.09 5.40997C82.09 5.26997 81.98 5.19998 81.76 5.19998C81.74 5.19998 81.71 5.19998 81.69 5.19998L75.17 5.68997L75.28 6.5L81.96 6.06ZM81.48 11.1C81.33 11.01 81.15 10.91 80.94 10.8C80.79 10.73 80.71 10.62 80.71 10.48C80.71 10.42 80.73 10.35 80.76 10.26L77.45 10.46C76.86 10.92 76.23 11.33 75.58 11.7C76.62 11.64 78.39 11.46 80.89 11.16L81.07 11.13L81.48 11.1Z" fill="black"/>
<path d="M94.36 12.14C94.52 12.08 94.69 12.01 94.85 11.94C95.21 11.79 95.45 11.71 95.57 11.71C95.75 11.71 95.88 11.79 95.98 11.95C96.04 12.04 96.07 12.14 96.07 12.24C96.07 12.44 95.96 12.6 95.74 12.73C94.89 13.23 93.34 13.87 91.09 14.65C90.22 14.95 89.7 15.11 89.53 15.11C89.32 15.11 89.15 15.03 89.03 14.86C88.92 14.7 88.87 14.53 88.87 14.35C88.87 14.1 88.96 13.93 89.15 13.82C89.21 13.78 89.43 13.72 89.78 13.64C90.75 13.41 91.82 13.07 93.01 12.64V7.03998L89.95 7.41998C89.91 7.42998 89.87 7.42999 89.83 7.42999C89.39 7.42999 89.17 7.21998 89.17 6.78998C89.17 6.40998 89.38 6.19999 89.79 6.14999L93.02 5.78V2.03C93.02 1.58 93.24 1.35999 93.68 1.35999C94.13 1.35999 94.36 1.58 94.36 2.03V12.14ZM98.78 7.69998V13.02C98.78 13.52 98.94 13.83 99.25 13.97C99.48 14.06 99.94 14.11 100.6 14.11C101.51 14.11 102.14 14.04 102.49 13.89C102.77 13.78 102.96 13.49 103.04 13.03C103.12 12.58 103.17 11.98 103.18 11.25C103.19 10.86 103.34 10.67 103.64 10.67C103.87 10.67 104.02 10.81 104.1 11.1C104.22 11.59 104.28 12.38 104.28 13.46C104.28 14.01 104.19 14.41 104 14.66C103.77 14.97 103.34 15.18 102.72 15.28C102.17 15.36 101.5 15.4 100.72 15.4C99.23 15.4 98.29 15.22 97.91 14.87C97.6 14.58 97.44 14.06 97.44 13.31V1.42999C97.44 1.22999 97.52 1.07999 97.68 0.959991C97.8 0.869991 97.95 0.819977 98.13 0.819977C98.35 0.819977 98.53 0.899998 98.66 1.06C98.74 1.16 98.78 1.27999 98.78 1.42999V6.53C99.93 5.97 101.15 5.23998 102.43 4.34998C102.64 4.20998 102.82 4.13998 102.99 4.13998C103.18 4.13998 103.34 4.20999 103.47 4.35999C103.59 4.48999 103.65 4.64998 103.65 4.81998C103.65 5.06998 103.53 5.27998 103.29 5.44998C102.8 5.81998 101.88 6.31998 100.55 6.94998C99.82 7.28998 99.23 7.53998 98.78 7.69998Z" fill="black"/>
<path d="M113.96 10.59L110.45 10.81C110.46 10.88 110.46 10.94 110.46 10.98C110.46 11.37 110.24 11.57 109.81 11.57C109.46 11.57 109.26 11.36 109.19 10.94L108.24 4.92999C108.23 4.85999 108.22 4.80999 108.22 4.76999C108.22 4.35999 108.47 4.14999 108.97 4.14999C109.31 4.14999 109.52 4.32997 109.59 4.68997L113.96 4.31V1.00998C113.96 0.799979 114.04 0.649978 114.2 0.539978C114.33 0.449978 114.48 0.399994 114.64 0.399994C114.8 0.399994 114.96 0.449978 115.1 0.539978C115.26 0.649978 115.34 0.809979 115.34 1.00998V4.19998L120 3.79999C120.04 3.78999 120.08 3.78998 120.13 3.78998C120.52 3.78998 120.81 3.9 121.01 4.12C121.18 4.3 121.26 4.53 121.26 4.81C121.26 4.92 121.25 5.03997 121.22 5.15997L120.41 9.01999C120.74 9.04999 120.91 9.24999 120.91 9.60999C120.91 9.97999 120.69 10.18 120.26 10.21L115.33 10.51V15.88C115.33 16 115.3 16.1 115.24 16.19C115.12 16.39 114.92 16.49 114.64 16.49C114.36 16.49 114.17 16.39 114.04 16.19C113.98 16.1 113.95 16 113.95 15.88V10.59H113.96ZM113.96 9.40997V5.53L109.77 5.88998L110.29 9.62997L113.96 9.40997ZM115.33 9.31998L119.07 9.09L119.7 5.41998C119.7 5.39998 119.7 5.37998 119.7 5.34998C119.7 5.13998 119.57 5.04999 119.32 5.07999L115.32 5.41998V9.31998H115.33Z" fill="black"/>
<path d="M133.32 13.25L137.72 12.91L137.9 6.94998C137.93 6.51998 138.16 6.29999 138.6 6.29999C138.96 6.29999 139.18 6.45998 139.28 6.78998C139.3 6.87998 139.31 6.96999 139.31 7.04999L139 14.45C138.96 14.88 138.74 15.1 138.34 15.1C138.11 15.1 137.94 15.03 137.82 14.88C137.7 14.73 137.65 14.57 137.66 14.4L137.67 14.35V14.13L127.92 14.87C127.85 14.88 127.78 14.88 127.7 14.88C126.81 14.88 126.35 14.41 126.32 13.46L126.14 7.78998C126.13 7.62998 126.16 7.49998 126.23 7.38998C126.36 7.15998 126.56 7.03998 126.85 7.03998C127.16 7.03998 127.37 7.15997 127.48 7.40997C127.52 7.49997 127.54 7.58997 127.54 7.68997L127.66 13.03C127.67 13.44 127.88 13.65 128.29 13.65C128.36 13.65 128.4 13.65 128.41 13.65L131.9 13.37V2.34998C131.9 2.14998 131.96 1.99 132.09 1.87C132.22 1.75 132.39 1.68997 132.59 1.68997C132.85 1.68997 133.04 1.77999 133.18 1.95999C133.26 2.06999 133.3 2.19999 133.3 2.35999V13.25H133.32Z" fill="black"/>
<path d="M150.7 9.95999L147.91 10.17L148.02 14.05C148.02 14.43 147.8 14.62 147.37 14.62C147.12 14.62 146.94 14.53 146.82 14.36C146.76 14.27 146.73 14.16 146.72 14.05L146.61 10.21C145.02 11.59 144.04 12.28 143.68 12.28C143.54 12.28 143.43 12.22 143.35 12.1C143.29 12.01 143.25 11.91 143.25 11.82C143.25 11.69 143.31 11.56 143.43 11.44C143.46 11.42 143.64 11.28 143.97 11.04C145.3 10.04 146.62 8.70998 147.93 7.03998L143.49 7.34C143.03 7.37 142.8 7.17998 142.8 6.75998C142.8 6.37998 143.01 6.17999 143.43 6.14999L148.79 5.78C149.04 5.38 149.29 4.94999 149.53 4.48999C149.7 4.15999 149.9 4 150.14 4C150.28 4 150.42 4.03999 150.55 4.10999C150.75 4.21999 150.85 4.35999 150.85 4.54999C150.85 4.72999 150.68 5.10999 150.35 5.67999L157.93 5.15997C157.94 5.15997 157.97 5.15997 158.01 5.15997C158.41 5.15997 158.62 5.34998 158.62 5.72998C158.62 6.11998 158.41 6.31998 158 6.34998L149.57 6.92999C149.02 7.69999 148.44 8.39998 147.82 9.03998L147.83 9.03L150.68 8.81V7.81C150.68 7.63 150.74 7.47997 150.87 7.37997C150.99 7.28997 151.14 7.23999 151.31 7.23999C151.53 7.23999 151.69 7.30999 151.81 7.45999C151.89 7.54999 151.93 7.67 151.93 7.81V8.70999L155.06 8.45999C155.2 8.44999 155.33 8.43997 155.45 8.43997C155.91 8.43997 156.21 8.55998 156.35 8.78998C156.46 8.95998 156.51 9.31997 156.51 9.87997C156.51 11.7 156.45 12.92 156.32 13.55C156.17 14.26 155.81 14.61 155.26 14.61C154.95 14.61 154.51 14.46 153.94 14.16C153.43 13.9 153.18 13.67 153.18 13.47C153.18 13.22 153.31 13.09 153.56 13.09C153.65 13.09 153.81 13.12 154.04 13.19C154.33 13.27 154.56 13.31 154.72 13.31C154.93 13.31 155.05 13.19 155.1 12.96C155.19 12.48 155.23 11.48 155.23 9.94998C155.23 9.78998 155.2 9.69998 155.15 9.66998C155.11 9.64998 155.05 9.62997 154.95 9.62997C154.91 9.62997 154.88 9.62997 154.87 9.62997L151.95 9.85999V15.97C151.95 16.36 151.74 16.55 151.32 16.55C151.07 16.55 150.89 16.46 150.78 16.27C150.73 16.19 150.7 16.09 150.7 15.97V9.95999ZM152.36 2.34998L153.8 2.79999C154.33 2.96999 154.62 3.06998 154.68 3.09998C154.92 3.22998 155.04 3.41997 155.04 3.65997C155.04 3.78997 155.01 3.91998 154.94 4.03998C154.82 4.22998 154.64 4.32999 154.39 4.32999C154.23 4.32999 153.91 4.22998 153.42 4.03998C152.83 3.79998 152.03 3.50997 151.02 3.15997L150.94 3.12997C149.86 3.69997 148.46 4.27997 146.77 4.87997C146.3 5.03997 146.02 5.12997 145.94 5.12997C145.75 5.12997 145.61 5.03999 145.54 4.85999C145.51 4.77999 145.5 4.70999 145.5 4.64999C145.5 4.48999 145.59 4.35998 145.76 4.25998C145.8 4.23998 145.99 4.16 146.33 4.03C147.23 3.7 148.26 3.23997 149.43 2.62997L149.03 2.50998L148.49 2.34L147.09 1.92999C146.74 1.81999 146.56 1.64998 146.56 1.38998C146.56 1.09998 146.72 0.959991 147.04 0.959991C147.17 0.959991 148.41 1.26998 150.74 1.88998C151.54 1.40998 152.21 0.95 152.74 0.5C152.96 0.31 153.17 0.219971 153.36 0.219971C153.52 0.219971 153.65 0.269995 153.76 0.369995C153.91 0.499995 153.98 0.659996 153.98 0.839996C153.98 1.03 153.89 1.21 153.71 1.37C153.4 1.66 152.94 1.97998 152.36 2.34998Z" fill="black"/>
<path d="M169.29 5.17999L174.03 4.91998C174.09 4.90998 174.13 4.90997 174.16 4.90997C174.91 4.90997 175.29 5.32999 175.29 6.17999V15.11C175.29 15.49 175.2 15.78 175.01 15.98C174.83 16.18 174.59 16.28 174.29 16.28C173.88 16.28 173.33 16.15 172.65 15.88C172.02 15.63 171.7 15.39 171.7 15.17C171.7 15.12 171.72 15.05 171.75 14.98C171.82 14.82 171.94 14.74 172.12 14.74C172.2 14.74 172.31 14.76 172.45 14.79C172.97 14.92 173.36 14.99 173.63 14.99C173.91 14.99 174.04 14.83 174.04 14.5V6.32999C174.04 6.08999 173.91 5.96997 173.64 5.96997C173.62 5.96997 173.6 5.96997 173.57 5.96997L169.3 6.21997V15.25C169.3 15.41 169.25 15.55 169.14 15.65C169.02 15.77 168.86 15.83 168.67 15.83C168.42 15.83 168.24 15.74 168.13 15.55C168.08 15.47 168.05 15.37 168.05 15.25V6.28998L163.83 6.53V15.66C163.83 16.08 163.62 16.29 163.2 16.29C162.78 16.29 162.58 16.08 162.58 15.66V6.01999C162.06 6.28999 161.73 6.41998 161.6 6.41998C161.44 6.41998 161.31 6.34998 161.23 6.19998C161.18 6.11998 161.15 6.03999 161.15 5.95999C161.15 5.83999 161.2 5.73998 161.31 5.63998C161.35 5.59998 161.48 5.52997 161.71 5.40997C162.58 4.93997 163.52 4.27997 164.53 3.43997C164.83 3.18997 165.06 3.06 165.23 3.06C165.42 3.06 165.59 3.13 165.73 3.28C165.82 3.37 165.86 3.47998 165.86 3.59998C165.86 3.77998 165.76 3.95997 165.56 4.15997C165.28 4.43997 164.69 4.83999 163.77 5.35999L163.66 5.41998C163.69 5.44998 163.71 5.47998 163.73 5.50998L168.05 5.25998V2.65997L163.81 2.90997L163.71 2.91998C163.58 2.92998 163.46 2.89 163.34 2.81C163.19 2.72 163.12 2.55998 163.12 2.34998C163.12 1.95998 163.33 1.75998 163.74 1.72998L173.8 1.10999C173.84 1.10999 173.87 1.10999 173.88 1.10999C174.28 1.10999 174.49 1.28997 174.49 1.65997C174.49 2.04997 174.29 2.25 173.88 2.28L169.3 2.54999V5.17999H169.29ZM166.27 13.09C165.43 13.88 164.87 14.28 164.59 14.28C164.51 14.28 164.43 14.24 164.36 14.17C164.26 14.06 164.21 13.96 164.21 13.84C164.21 13.69 164.34 13.53 164.59 13.34C164.8 13.18 165.09 12.9 165.44 12.51C165.08 12.27 164.8 12.09 164.59 11.98C164.41 11.89 164.33 11.76 164.33 11.6C164.33 11.5 164.37 11.41 164.44 11.33C164.52 11.25 164.6 11.21 164.7 11.21C164.93 11.21 165.39 11.39 166.07 11.74C166.28 11.46 166.47 11.18 166.63 10.91C166.78 10.67 166.96 10.55 167.17 10.55C167.25 10.55 167.32 10.57 167.39 10.6C167.62 10.71 167.74 10.88 167.74 11.12C167.74 11.3 167.5 11.69 167.02 12.29C167.21 12.41 167.4 12.54 167.56 12.67C167.72 12.8 167.81 12.95 167.81 13.14C167.81 13.3 167.76 13.43 167.65 13.54C167.54 13.65 167.41 13.7 167.26 13.7C167.13 13.7 166.98 13.63 166.81 13.5C166.66 13.39 166.48 13.25 166.27 13.09ZM167.04 8.65997C167.55 8.97997 167.8 9.24999 167.8 9.48999C167.8 9.60999 167.77 9.71998 167.7 9.81998C167.59 9.96998 167.45 10.05 167.25 10.05C167.12 10.05 166.96 9.96998 166.78 9.81998C166.65 9.70998 166.49 9.58997 166.31 9.46997C165.44 10.24 164.86 10.62 164.59 10.62C164.51 10.62 164.43 10.58 164.37 10.51C164.28 10.4 164.23 10.29 164.23 10.18C164.23 10.04 164.36 9.87997 164.61 9.68997C164.85 9.50997 165.13 9.24 165.44 8.87C165.1 8.64 164.82 8.46998 164.59 8.34998C164.41 8.24998 164.33 8.11999 164.33 7.95999C164.33 7.85999 164.37 7.76997 164.44 7.68997C164.51 7.60997 164.6 7.56998 164.7 7.56998C164.96 7.56998 165.42 7.74999 166.07 8.10999C166.28 7.82999 166.47 7.56 166.63 7.28C166.77 7.04 166.95 6.91998 167.17 6.91998C167.25 6.91998 167.32 6.93997 167.39 6.96997C167.62 7.07997 167.73 7.24999 167.73 7.48999C167.73 7.66999 167.5 8.05997 167.04 8.65997ZM172.49 8.22998C172.68 8.34998 172.86 8.47 173.02 8.59C173.18 8.71 173.27 8.87 173.27 9.06C173.27 9.18 173.24 9.28998 173.17 9.38998C173.06 9.53998 172.92 9.62 172.72 9.62C172.59 9.62 172.43 9.53998 172.25 9.38998C172.16 9.30998 172 9.19998 171.78 9.03998C171.42 9.39998 171.01 9.72 170.56 10C170.34 10.13 170.18 10.19 170.08 10.19C169.99 10.19 169.9 10.15 169.83 10.07C169.74 9.95998 169.7 9.85 169.7 9.75C169.7 9.61 169.82 9.44998 170.07 9.25998C170.29 9.09998 170.57 8.81997 170.91 8.43997C170.59 8.21997 170.3 8.04997 170.06 7.90997C169.88 7.81997 169.8 7.69 169.8 7.53C169.8 7.43 169.84 7.33998 169.91 7.25998C169.98 7.17998 170.07 7.13998 170.17 7.13998C170.39 7.13998 170.85 7.31999 171.54 7.67999C171.75 7.38999 171.94 7.10998 172.09 6.84998C172.24 6.60998 172.42 6.48999 172.63 6.48999C172.71 6.48999 172.79 6.50998 172.86 6.53998C173.09 6.64998 173.2 6.82 173.2 7.06C173.18 7.25 172.95 7.63998 172.49 8.22998ZM171.89 12.72C171.08 13.51 170.53 13.9 170.23 13.9C170.12 13.9 170.03 13.85 169.95 13.75C169.86 13.64 169.81 13.54 169.81 13.43C169.81 13.29 169.94 13.13 170.19 12.94C170.44 12.75 170.72 12.48 171.04 12.13C170.69 11.9 170.4 11.72 170.18 11.59C170 11.5 169.91 11.37 169.91 11.21C169.91 11.1 169.95 11.01 170.02 10.93C170.09 10.85 170.18 10.81 170.28 10.81C170.55 10.81 171.01 10.99 171.67 11.35C171.9 11.05 172.1 10.73 172.27 10.42C172.37 10.24 172.53 10.15 172.74 10.15C172.82 10.15 172.89 10.17 172.97 10.2C173.2 10.31 173.31 10.48 173.31 10.72C173.31 10.95 173.08 11.34 172.62 11.91C172.8 12.02 172.98 12.14 173.15 12.27C173.31 12.4 173.4 12.55 173.4 12.74C173.4 12.86 173.37 12.97 173.3 13.07C173.19 13.22 173.05 13.3 172.85 13.3C172.72 13.3 172.56 13.22 172.38 13.07C172.31 13.02 172.15 12.9 171.89 12.72ZM172.46 2.75C172.61 2.75 173.02 2.87999 173.68 3.14999C174.65 3.53999 175.48 3.95997 176.15 4.40997C176.37 4.55997 176.48 4.74999 176.48 4.95999C176.48 5.09999 176.43 5.22999 176.34 5.35999C176.22 5.50999 176.07 5.59 175.87 5.59C175.72 5.59 175.51 5.48999 175.24 5.29999C174.61 4.84999 173.66 4.30998 172.39 3.66998C172.14 3.54998 172.02 3.39998 172.02 3.22998C172.02 3.12998 172.05 3.02997 172.11 2.93997C172.2 2.80997 172.31 2.75 172.46 2.75Z" fill="black"/>
<path d="M182.94 10.35V12.82C182.94 13.11 183.02 13.28 183.19 13.35C183.32 13.4 183.53 13.43 183.81 13.43C184.59 13.43 185.04 13.3 185.16 13.04C185.22 12.9 185.26 12.51 185.27 11.88C185.28 11.52 185.41 11.34 185.67 11.34C185.92 11.34 186.07 11.49 186.14 11.8C186.23 12.21 186.27 12.73 186.27 13.36C186.27 13.92 186.03 14.27 185.54 14.4C185.15 14.51 184.52 14.56 183.65 14.56C182.91 14.56 182.41 14.47 182.16 14.28C181.9 14.07 181.76 13.7 181.76 13.16V10.52L180.3 10.74C180.19 10.76 180.09 10.77 180.02 10.77C179.39 10.77 179.06 10.37 179.04 9.56998L178.95 6.50998C178.94 6.35998 178.99 6.23997 179.09 6.15997C179.21 6.04997 179.35 6 179.52 6C179.71 6 179.87 6.06997 179.98 6.21997C180.04 6.30997 180.08 6.39998 180.08 6.50998L180.18 9.22998C180.19 9.49998 180.3 9.63 180.51 9.62C180.52 9.62 180.54 9.61999 180.57 9.60999L181.76 9.42999V4.53C180.48 4.88 179.73 5.04999 179.5 5.04999C179.2 5.04999 179.04 4.88999 179.04 4.57999C179.04 4.38999 179.12 4.23999 179.29 4.14999C179.34 4.10999 179.5 4.07 179.77 4C180.17 3.9 180.83 3.69997 181.76 3.37997V0.789978C181.76 0.439978 181.96 0.259979 182.35 0.259979C182.74 0.259979 182.93 0.439978 182.93 0.789978V2.93997C183.36 2.75997 183.74 2.58998 184.06 2.41998C184.25 2.32998 184.42 2.28 184.58 2.28C184.79 2.28 184.96 2.35999 185.09 2.51999C185.17 2.62999 185.21 2.74999 185.21 2.89999C185.21 3.20999 185.02 3.44 184.64 3.59C184.12 3.8 183.55 3.98999 182.93 4.17999V9.25L184.67 8.98999L184.8 5.59C184.84 5.24 185.04 5.06998 185.39 5.06998C185.75 5.06998 185.93 5.25999 185.93 5.64999L185.75 10.31C185.72 10.66 185.53 10.83 185.19 10.83C184.91 10.83 184.73 10.72 184.65 10.5C184.63 10.45 184.62 10.38 184.62 10.31L184.63 10.08L182.94 10.35ZM188.85 13.43C188.99 13.43 189.12 13.48 189.24 13.58C189.38 13.7 189.45 13.85 189.45 14.03C189.45 14.21 189.34 14.4 189.13 14.6C188.39 15.3 187.57 15.88 186.68 16.32C186.49 16.41 186.34 16.46 186.21 16.46C186.06 16.46 185.95 16.4 185.87 16.28C185.8 16.17 185.76 16.07 185.76 15.96C185.76 15.78 185.91 15.6 186.2 15.42C186.85 15.03 187.54 14.46 188.27 13.71C188.46 13.52 188.65 13.43 188.85 13.43ZM189.95 4.16998L192.46 3.95999C192.53 3.94999 192.6 3.94998 192.67 3.94998C193.42 3.94998 193.8 4.33997 193.8 5.12997V12.76C193.8 13.12 193.6 13.3 193.21 13.3C192.81 13.3 192.61 13.12 192.61 12.76V12.69L188.41 12.96C188.35 13.27 188.15 13.43 187.81 13.43C187.58 13.43 187.41 13.35 187.29 13.19C187.23 13.11 187.2 13.01 187.2 12.89V4.57999C187.2 4.41999 187.26 4.28997 187.37 4.18997C187.49 4.07997 187.63 4.03 187.81 4.03C188.04 4.03 188.22 4.11999 188.34 4.29999L188.8 4.25998C189.18 3.55998 189.48 2.90999 189.69 2.32999L186.78 2.54999C186.73 2.55999 186.7 2.56 186.68 2.56C186.31 2.56 186.13 2.36999 186.13 1.98999C186.13 1.63999 186.3 1.44998 186.65 1.41998L193.91 0.849976C193.95 0.839976 193.98 0.839996 194 0.839996C194.19 0.829996 194.35 0.899988 194.47 1.04999C194.55 1.14999 194.58 1.26999 194.58 1.39999C194.58 1.76999 194.4 1.97 194.03 2L191.05 2.22998C190.83 2.79998 190.46 3.44998 189.95 4.16998ZM192.62 6.46997V5.48999C192.62 5.14999 192.48 4.98999 192.2 5.01999C192.19 5.01999 192.16 5.02 192.11 5.03L188.42 5.35999V6.79999L192.62 6.46997ZM192.62 7.5L188.42 7.82999V9.31998L192.62 9.00998V7.5ZM192.62 10.03L188.42 10.36V11.91L192.62 11.64V10.03ZM191.89 13.37C192.28 13.37 193.05 13.89 194.19 14.93C194.35 15.08 194.46 15.17 194.51 15.2C194.75 15.41 194.87 15.61 194.87 15.82C194.87 15.97 194.81 16.11 194.7 16.24C194.58 16.39 194.43 16.46 194.24 16.46C194.02 16.46 193.78 16.32 193.52 16.05C192.89 15.39 192.28 14.8 191.69 14.27C191.52 14.12 191.44 13.96 191.44 13.8C191.44 13.7 191.48 13.6 191.55 13.51C191.63 13.42 191.75 13.37 191.89 13.37Z" fill="black"/>
<path d="M209.66 8.50998L208.39 8.59998V8.63998L208.26 12.12C208.26 12.16 208.26 12.19 208.26 12.21C208.26 12.46 208.35 12.62 208.54 12.68C208.69 12.72 209.01 12.74 209.5 12.74C210.21 12.74 210.66 12.67 210.84 12.54C210.95 12.46 211.01 12.34 211.03 12.18C211.06 11.94 211.08 11.54 211.08 10.98C211.08 10.58 211.21 10.37 211.46 10.37C211.67 10.37 211.81 10.49 211.88 10.72C212.06 11.31 212.14 11.92 212.14 12.57C212.14 13.19 211.91 13.56 211.46 13.7C211.01 13.83 210.26 13.9 209.21 13.9C208.13 13.9 207.46 13.73 207.21 13.39C207.06 13.18 206.99 12.87 207.01 12.44L207.15 8.66998L205.89 8.75998C206.21 8.83998 206.37 9.02 206.37 9.31C206.37 9.48 206.3 9.71999 206.15 10.02C205.63 11.07 204.83 12 203.75 12.81C203.09 13.3 202.6 13.59 202.28 13.66C202.37 13.68 202.47 13.7 202.59 13.72C206.1 14.44 209.33 14.82 212.29 14.87C212.95 14.88 213.27 14.96 213.27 15.12C213.27 15.21 213.15 15.35 212.9 15.55C212.33 16.01 211.79 16.24 211.3 16.24C211.12 16.24 210.81 16.21 210.36 16.15C208.44 15.91 205.73 15.41 202.22 14.66C201.1 14.42 200.14 14.3 199.33 14.3C198.91 14.3 198.35 14.4 197.63 14.61C197.35 14.69 197.17 14.72 197.09 14.72C196.73 14.72 196.55 14.53 196.55 14.15C196.55 13.9 196.69 13.73 196.96 13.64C197.07 13.61 197.37 13.56 197.87 13.47C199.07 12.27 199.66 11.5 199.66 11.18C199.66 11.05 199.52 10.89 199.23 10.71C198.92 10.52 198.76 10.28 198.76 9.98999C198.76 9.65999 199.03 8.85 199.58 7.56L197.46 8.06C197.38 8.08 197.3 8.09 197.21 8.09C196.97 8.09 196.8 7.98 196.71 7.75C196.67 7.66 196.65 7.57 196.65 7.5C196.65 7.2 196.81 7.01999 197.13 6.95999L200.1 6.37997C200.17 6.36997 200.26 6.35999 200.35 6.35999C200.83 6.35999 201.07 6.57998 201.07 7.00998C201.07 7.25998 200.96 7.54998 200.73 7.88998C200.4 8.37998 200.14 8.84999 199.97 9.29999C199.91 9.45999 199.88 9.59999 199.88 9.70999C199.88 9.85999 200 9.99997 200.25 10.13C200.64 10.34 200.87 10.46 200.94 10.52C201.14 10.66 201.24 10.83 201.24 11.02C201.24 11.48 200.57 12.27 199.24 13.37H199.32H199.41C200.21 13.37 201.02 13.45 201.86 13.6C201.72 13.48 201.65 13.35 201.65 13.19C201.65 13.01 201.78 12.85 202.04 12.69C203.41 11.86 204.44 10.68 205.12 9.16998C205.2 8.98998 205.32 8.86998 205.47 8.78998L204.14 8.87997V8.91998L204.15 8.95999C204.16 9.10999 204.09 9.24 203.92 9.34C203.81 9.41 203.69 9.44998 203.57 9.44998C203.38 9.44998 203.22 9.36997 203.1 9.21997C203.03 9.13997 202.99 9.03998 202.98 8.91998L202.6 5.25C202.6 5.23 202.6 5.20999 202.6 5.20999C202.6 5.04999 202.67 4.93 202.81 4.84C202.93 4.77 203.06 4.72998 203.2 4.72998C203.33 4.72998 203.47 4.77999 203.6 4.87L205.54 4.68997C205.59 4.62997 205.65 4.56998 205.72 4.50998C206.28 3.94998 206.79 3.35998 207.26 2.72998C207.35 2.60998 207.39 2.50999 207.4 2.42999C207.41 2.33999 207.35 2.30998 207.24 2.31998L207.21 2.32999L205.12 2.50998C204.39 3.30998 203.64 3.99999 202.86 4.57999C202.44 4.88999 202.13 5.04999 201.95 5.04999C201.66 5.04999 201.52 4.90997 201.52 4.62997C201.52 4.47997 201.57 4.35998 201.67 4.25998C201.7 4.23998 201.81 4.14998 202 4.00998C203.14 3.13998 204.07 2.13 204.77 1C204.94 0.72 205.14 0.589996 205.36 0.589996C205.82 0.589996 206.05 0.769984 206.05 1.13998C206.05 1.19998 206.04 1.26999 206.01 1.35999L208.25 1.16998C208.29 1.15998 208.34 1.15997 208.41 1.15997C208.94 1.15997 209.21 1.34998 209.21 1.72998C209.21 1.93998 209.11 2.18999 208.91 2.48999C208.48 3.14999 207.87 3.82998 207.08 4.53998L210.07 4.25998C210.12 4.24998 210.19 4.25 210.27 4.25C210.93 4.25 211.25 4.54997 211.25 5.15997C211.25 5.24997 211.24 5.36999 211.21 5.48999L210.74 8.28C210.68 8.64 210.49 8.81998 210.16 8.81998C209.94 8.81998 209.76 8.71998 209.66 8.50998ZM197.91 1.39999C198.21 1.39999 198.83 1.73998 199.76 2.41998C200.07 2.63998 200.3 2.84 200.46 3C200.68 3.21 200.79 3.41997 200.79 3.62997C200.79 3.75997 200.74 3.9 200.65 4.03C200.52 4.21 200.34 4.29999 200.11 4.29999C199.88 4.29999 199.64 4.16 199.4 3.87C198.87 3.24 198.33 2.71 197.77 2.28C197.58 2.13 197.49 1.97999 197.49 1.82999C197.48 1.54999 197.63 1.39999 197.91 1.39999ZM206.25 7.68997V5.68997L203.9 5.88998L204.08 7.84L206.25 7.68997ZM209.74 7.45999L209.98 5.68997C209.98 5.66997 209.98 5.64 209.98 5.62C209.97 5.44 209.86 5.36997 209.65 5.37997L207.4 5.56998V7.60999L209.74 7.45999Z" fill="black"/>
<path d="M218.32 8.31998C217.52 9.82998 216.57 11.19 215.45 12.42C215.28 12.61 215.1 12.7 214.92 12.7C214.81 12.7 214.71 12.65 214.62 12.56C214.54 12.47 214.5 12.37 214.5 12.26C214.5 12.13 214.67 11.85 215 11.43C215.73 10.5 216.49 9.26998 217.29 7.72998C217.56 7.19998 217.77 6.75997 217.93 6.40997L215.58 6.63998C215.53 6.64998 215.48 6.64999 215.45 6.64999C215.02 6.64999 214.81 6.46 214.81 6.09C214.81 5.7 214.99 5.48999 215.36 5.45999L218.31 5.17999V1.60999C218.31 1.41999 218.38 1.26997 218.52 1.15997C218.65 1.05997 218.8 1.00998 218.98 1.00998C219.2 1.00998 219.37 1.08999 219.5 1.23999C219.59 1.34999 219.63 1.46999 219.63 1.60999V5.04999L220.97 4.92999C221 4.91999 221.03 4.91998 221.05 4.91998C221.49 4.91998 221.71 5.11999 221.71 5.51999C221.71 5.87999 221.53 6.08 221.17 6.12L219.64 6.26999V7.19998C219.96 7.44998 220.2 7.63 220.36 7.75C221.12 8.32 221.64 8.72999 221.91 8.98999C222.13 9.20999 222.24 9.41998 222.24 9.63998C222.24 9.76998 222.2 9.88999 222.11 9.98999C221.96 10.17 221.8 10.25 221.62 10.25C221.41 10.25 221.16 10.08 220.88 9.72998C220.5 9.26998 220.09 8.81998 219.64 8.38998V15.47C219.64 15.63 219.58 15.75 219.47 15.85C219.34 15.97 219.17 16.03 218.98 16.03C218.73 16.03 218.54 15.95 218.41 15.78C218.35 15.7 218.32 15.6 218.32 15.48V8.31998ZM226.72 5.68997C227.41 7.11997 228.33 8.59997 229.51 10.13C230.01 10.77 230.51 11.35 231 11.84C231.25 12.09 231.38 12.28 231.38 12.4C231.38 12.5 231.25 12.6 231.01 12.69C230.76 12.79 230.5 12.84 230.23 12.84C229.94 12.84 229.71 12.72 229.52 12.49C228.37 11.04 227.35 9.26998 226.47 7.16998V15.78C226.47 15.94 226.41 16.07 226.3 16.18C226.18 16.3 226.01 16.36 225.81 16.36C225.56 16.36 225.37 16.27 225.25 16.1C225.19 16.01 225.15 15.91 225.15 15.79V7.84998C224.35 9.76998 223.34 11.38 222.11 12.69C221.82 13.01 221.6 13.16 221.46 13.16C221.37 13.16 221.28 13.12 221.2 13.05C221.11 12.97 221.06 12.87 221.06 12.77C221.06 12.65 221.22 12.38 221.53 11.98C222.46 10.77 223.35 9.15999 224.18 7.14999C224.39 6.63999 224.55 6.21997 224.66 5.87997L222.74 6.06C222.71 6.06 222.68 6.06 222.66 6.06C222.41 6.06 222.24 5.94997 222.14 5.71997C222.1 5.63997 222.09 5.54998 222.09 5.44998C222.09 5.09998 222.27 4.91 222.63 4.87L225.15 4.64999V1.18997C225.15 1.01997 225.21 0.889978 225.32 0.789978C225.45 0.659978 225.62 0.599976 225.82 0.599976C226.09 0.599976 226.28 0.699984 226.39 0.889984C226.44 0.979984 226.47 1.08998 226.47 1.19998V4.54999L229.55 4.28L229.63 4.26999C229.8 4.25999 229.95 4.31998 230.07 4.44998C230.17 4.55998 230.22 4.68998 230.22 4.84998C230.22 5.22998 230.04 5.42997 229.67 5.46997L226.72 5.68997Z" fill="black"/>
<path d="M233.08 5.47998C233.21 5.47998 233.4 5.53997 233.64 5.65997C234.39 6.05997 235.02 6.50998 235.53 7.00998C235.78 7.25998 235.9 7.48997 235.9 7.71997C235.9 7.85997 235.85 7.99 235.75 8.12C235.63 8.27 235.46 8.34 235.26 8.34C235.07 8.34 234.85 8.20999 234.62 7.95999C233.95 7.23999 233.37 6.70999 232.91 6.35999C232.74 6.23999 232.66 6.08998 232.66 5.91998C232.66 5.80998 232.7 5.71 232.77 5.62C232.84 5.52999 232.95 5.47998 233.08 5.47998ZM236.43 10.21C236.77 10.21 236.94 10.37 236.94 10.69C236.94 10.82 236.87 11.05 236.73 11.38C236.07 12.89 235.3 14.22 234.44 15.36C234.22 15.65 233.99 15.8 233.75 15.8C233.57 15.8 233.42 15.73 233.28 15.6C233.15 15.47 233.08 15.32 233.08 15.13C233.08 14.95 233.21 14.7 233.48 14.36C234.12 13.54 234.9 12.32 235.83 10.71C236.01 10.38 236.21 10.21 236.43 10.21ZM234.01 1.31C234.16 1.31 234.36 1.36999 234.59 1.48999C235.3 1.85999 235.9 2.28998 236.39 2.78998C236.64 3.03998 236.76 3.25998 236.76 3.47998C236.76 3.60998 236.71 3.73999 236.61 3.85999C236.48 4.02999 236.3 4.10999 236.08 4.10999C235.86 4.10999 235.64 3.97999 235.42 3.70999C235 3.18999 234.47 2.68998 233.84 2.19998C233.66 2.06998 233.57 1.90998 233.57 1.72998C233.57 1.44998 233.72 1.31 234.01 1.31ZM246.69 15.34L239.27 15.64V15.8C239.27 15.95 239.23 16.07 239.14 16.17C239.02 16.3 238.86 16.37 238.66 16.37C238.44 16.37 238.27 16.29 238.15 16.12C238.09 16.03 238.05 15.92 238.05 15.79V5.48999C238.05 5.29999 238.13 5.14998 238.28 5.03998C238.4 4.95998 238.52 4.91998 238.66 4.91998C238.91 4.91998 239.09 5.01998 239.21 5.22998L240.9 5.12V2.82999L238.64 2.98999L238.61 3C238.45 3.02 238.32 2.94998 238.21 2.78998C238.13 2.67998 238.1 2.55998 238.1 2.41998C238.1 2.05998 238.26 1.86 238.58 1.84L246.82 1.25C247.18 1.25 247.36 1.43998 247.36 1.81998C247.36 2.17998 247.2 2.37999 246.88 2.39999L244.62 2.56V4.87L246.35 4.75998C246.45 4.74998 246.52 4.75 246.57 4.75C247.45 4.75 247.9 5.16999 247.9 6.01999V15.91C247.9 16.06 247.85 16.18 247.76 16.28C247.64 16.41 247.48 16.48 247.29 16.48C247.07 16.48 246.9 16.4 246.78 16.23C246.72 16.14 246.68 16.03 246.68 15.9V15.34H246.69ZM240.88 6.22998L239.28 6.34V11.6L246.7 11.22V9.64999C246.55 9.65999 246.34 9.67998 246.08 9.69998C245.72 9.72998 245.33 9.73999 244.92 9.73999C244.23 9.73999 243.8 9.57999 243.63 9.26999C243.52 9.06999 243.46 8.76997 243.46 8.37997V6.03L242.08 6.12997C242.07 6.16997 242.07 6.24 242.06 6.34C241.95 7.85 241.52 9.02 240.78 9.87C240.44 10.26 240.15 10.45 239.91 10.45C239.63 10.45 239.49 10.3 239.49 10.01C239.49 9.87998 239.56 9.73999 239.69 9.57999C240.38 8.75999 240.78 7.63998 240.88 6.22998ZM246.69 12.29L239.27 12.66V14.51L246.69 14.21V12.29ZM243.45 4.94998V2.64999L242.09 2.75V5.03998L243.45 4.94998ZM244.64 5.96997V8.09C244.64 8.28 244.66 8.42 244.69 8.5C244.74 8.63 244.89 8.69998 245.13 8.69998C245.65 8.69998 246.17 8.65998 246.69 8.56998V6.31998C246.69 5.98998 246.54 5.82998 246.24 5.84998L244.64 5.96997Z" fill="black"/>
<path d="M259.66 2.98999L265.09 2.57999C265.11 2.57999 265.14 2.57999 265.16 2.57999C265.38 2.57999 265.54 2.67997 265.65 2.87997C265.7 2.96997 265.72 3.05998 265.72 3.16998C265.72 3.52998 265.54 3.73 265.18 3.75L254.61 4.54999C254.62 4.75999 254.62 4.90999 254.62 5.01999C254.62 6.58999 254.42 8.27998 254.01 10.1C253.6 11.98 253.02 13.51 252.28 14.71C251.99 15.17 251.74 15.4 251.52 15.4C251.43 15.4 251.34 15.37 251.25 15.3C251.1 15.19 251.03 15.06 251.03 14.89C251.03 14.77 251.11 14.56 251.28 14.28C251.8 13.38 252.23 12.13 252.58 10.51C252.98 8.64998 253.21 6.67999 253.26 4.60999C253 4.53999 252.86 4.34998 252.86 4.03998C252.86 3.67998 253.08 3.48999 253.51 3.45999L258.32 3.09V1.07999C258.32 0.679987 258.54 0.469971 258.99 0.469971C259.19 0.469971 259.35 0.529994 259.47 0.649994C259.59 0.759994 259.65 0.899987 259.65 1.07999V2.98999H259.66ZM263.98 14.3C264.35 14.34 264.53 14.54 264.53 14.9C264.53 15.28 264.31 15.47 263.88 15.49L256.9 15.78L256.91 15.89C256.91 15.9 256.91 15.91 256.91 15.94C256.91 16.32 256.7 16.51 256.29 16.51C255.9 16.51 255.69 16.3 255.66 15.89L255.2 10.99C255.2 10.97 255.2 10.94 255.2 10.89C255.2 10.52 255.42 10.34 255.86 10.34C256.22 10.34 256.43 10.51 256.5 10.85L258.82 10.66V5.34C258.82 4.89 259.04 4.66998 259.48 4.66998C259.93 4.66998 260.16 4.89 260.16 5.34V7.25998L264.01 6.91998C264.27 6.89998 264.46 6.96999 264.57 7.14999C264.64 7.25999 264.68 7.37998 264.68 7.50998C264.68 7.86998 264.47 8.06999 264.05 8.10999L260.17 8.44998V10.55L263.23 10.3C263.3 10.29 263.36 10.29 263.41 10.29C264.12 10.29 264.48 10.62 264.48 11.27C264.48 11.39 264.47 11.51 264.44 11.63L263.98 14.3ZM262.66 14.35L263.04 11.86C263.04 11.84 263.04 11.82 263.04 11.79C263.03 11.56 262.9 11.45 262.66 11.46L256.6 11.94L256.81 14.6L262.66 14.35Z" fill="black"/>
<path d="M26.67 32.7V37.62C27.18 37.36 27.7 37.08 28.23 36.77C28.39 36.68 28.54 36.63 28.68 36.63C28.84 36.63 28.98 36.7 29.08 36.85C29.14 36.93 29.17 37.02 29.17 37.11C29.17 37.25 29.1 37.39 28.95 37.52C28.8 37.65 28.44 37.89 27.87 38.25C26.5 39.1 25.27 39.77 24.17 40.25C23.92 40.36 23.73 40.42 23.6 40.42C23.35 40.42 23.16 40.31 23.04 40.1C22.97 39.98 22.93 39.85 22.93 39.73C22.93 39.52 23.02 39.35 23.2 39.22C23.28 39.16 23.47 39.07 23.78 38.95C24.17 38.8 24.7 38.57 25.37 38.26V32.9L23.74 33.16C23.7 33.17 23.67 33.17 23.64 33.17C23.44 33.17 23.29 33.09 23.17 32.93C23.1 32.83 23.06 32.7 23.06 32.55C23.06 32.23 23.24 32.05 23.61 31.99L25.36 31.71V28.1C25.36 27.71 25.57 27.51 26 27.51C26.22 27.51 26.4 27.59 26.53 27.74C26.61 27.84 26.65 27.96 26.65 28.1V31.5L28.11 31.27C28.15 31.26 28.19 31.26 28.24 31.26C28.61 31.26 28.79 31.46 28.79 31.85C28.79 32.18 28.6 32.38 28.21 32.44L26.67 32.7ZM31.19 33.63V39.12C31.19 39.68 31.37 40.02 31.74 40.13C31.99 40.21 32.62 40.24 33.61 40.24C35.58 40.24 36.84 40.11 37.37 39.86C37.75 39.68 37.93 39.23 37.93 38.51L37.92 37.98C37.92 37.66 38.07 37.5 38.37 37.5C38.58 37.5 38.73 37.67 38.81 38.02C38.94 38.54 39 39.13 39 39.79C39 40.37 38.77 40.78 38.31 41.02C37.65 41.36 36.03 41.53 33.44 41.53C32.45 41.53 31.78 41.5 31.43 41.44C30.72 41.33 30.26 41.01 30.06 40.49C29.95 40.2 29.89 39.84 29.89 39.39V34.08L29.01 34.4C28.88 34.45 28.76 34.47 28.65 34.47C28.38 34.47 28.2 34.34 28.1 34.09C28.06 34 28.05 33.91 28.05 33.84C28.05 33.56 28.22 33.36 28.56 33.23L29.9 32.76V30.17C29.9 29.77 30.11 29.57 30.54 29.57C30.76 29.57 30.94 29.65 31.07 29.8C31.15 29.9 31.19 30.02 31.19 30.17V32.31L32.93 31.71V27.28C32.93 26.89 33.14 26.69 33.57 26.69C33.8 26.69 33.97 26.77 34.1 26.92C34.18 27.02 34.22 27.14 34.22 27.28V31.25L36.69 30.4C36.95 30.31 37.19 30.26 37.43 30.26C38.05 30.26 38.36 30.66 38.36 31.46C38.36 32.5 38.22 33.64 37.95 34.89C37.78 35.68 37.61 36.24 37.43 36.58C37.2 37.04 36.88 37.27 36.49 37.27C36.15 37.27 35.72 37.12 35.2 36.81C34.73 36.53 34.49 36.28 34.49 36.06C34.49 35.8 34.62 35.66 34.89 35.66C35.01 35.66 35.14 35.7 35.29 35.77C35.55 35.9 35.76 35.96 35.91 35.96C36.18 35.96 36.39 35.71 36.53 35.2C36.68 34.69 36.81 34.09 36.91 33.39C37.02 32.67 37.07 32.21 37.07 32.01C37.07 31.79 36.97 31.68 36.76 31.68C36.67 31.68 36.57 31.7 36.45 31.74L34.22 32.54V37.72C34.22 38.12 34 38.32 33.57 38.32C33.14 38.32 32.93 38.12 32.93 37.72V33.01L31.19 33.63Z" fill="black"/>
<path d="M44.81 32.1V36.72C44.86 36.7 44.9 36.68 44.93 36.66C45.37 36.48 45.91 36.23 46.56 35.9C46.71 35.82 46.84 35.79 46.97 35.79C47.12 35.79 47.25 35.85 47.34 35.97C47.41 36.05 47.45 36.14 47.45 36.24C47.45 36.46 47.33 36.64 47.08 36.78C45.91 37.47 44.37 38.22 42.47 39.04C41.95 39.26 41.61 39.37 41.44 39.37C41.19 39.37 41.02 39.26 40.92 39.04C40.87 38.93 40.84 38.83 40.84 38.73C40.84 38.48 40.97 38.28 41.23 38.15C41.28 38.12 41.44 38.06 41.71 37.97C42.19 37.8 42.79 37.57 43.52 37.27V32.28L41.63 32.53C41.6 32.54 41.57 32.54 41.52 32.54C41.14 32.54 40.96 32.35 40.96 31.98C40.96 31.65 41.14 31.45 41.5 31.4L43.51 31.13V27.64C43.51 27.46 43.58 27.31 43.71 27.2C43.84 27.1 43.99 27.05 44.16 27.05C44.38 27.05 44.56 27.13 44.68 27.28C44.76 27.38 44.8 27.5 44.8 27.64V30.95L46.28 30.76C46.3 30.75 46.34 30.75 46.39 30.75C46.75 30.75 46.93 30.94 46.93 31.31C46.93 31.64 46.75 31.84 46.39 31.89L44.81 32.1ZM52.52 32.23L55.29 31.99C55.51 31.97 55.69 32.02 55.83 32.13C55.97 32.25 56.04 32.43 56.04 32.65C56.04 33.03 55.83 33.24 55.41 33.27L52.53 33.48V39.65L56.53 39.47C56.73 39.46 56.9 39.5 57.03 39.6C57.18 39.72 57.25 39.88 57.25 40.09C57.25 40.51 57.03 40.72 56.58 40.74L46.58 41.17C46.57 41.17 46.56 41.17 46.53 41.17H46.49C46.07 41.16 45.87 40.96 45.87 40.57C45.87 40.16 46.08 39.95 46.5 39.93L47.76 39.87V32.53C47.76 32.34 47.83 32.19 47.96 32.07C48.09 31.96 48.24 31.9 48.41 31.9C48.63 31.9 48.8 31.98 48.93 32.15C49.01 32.26 49.05 32.38 49.05 32.52V39.81L51.19 39.7V27.09C51.19 26.86 51.29 26.68 51.48 26.56C51.6 26.49 51.72 26.45 51.86 26.45C52.07 26.45 52.23 26.51 52.36 26.64C52.48 26.76 52.54 26.9 52.54 27.08V32.23H52.52Z" fill="black"/>
<path d="M60.94 31.88C61.17 31.88 61.4 31.95 61.62 32.09C62.01 32.34 62.21 32.7 62.21 33.16C62.21 33.5 62.09 33.79 61.86 34.04C61.61 34.3 61.29 34.44 60.92 34.44C60.71 34.44 60.52 34.39 60.34 34.29C59.88 34.05 59.65 33.67 59.65 33.15C59.65 32.76 59.8 32.44 60.11 32.18C60.35 31.98 60.63 31.88 60.94 31.88ZM60.94 38.08C61.17 38.08 61.4 38.15 61.62 38.29C62.01 38.54 62.21 38.9 62.21 39.36C62.21 39.7 62.09 39.99 61.86 40.24C61.61 40.5 61.29 40.64 60.92 40.64C60.71 40.64 60.52 40.59 60.34 40.5C59.88 40.25 59.65 39.87 59.65 39.35C59.65 38.96 59.8 38.64 60.11 38.38C60.35 38.18 60.63 38.08 60.94 38.08Z" fill="black"/>
<path d="M76.53 37.59C76.42 37.61 76.02 37.66 75.31 37.76L73.39 38.03V39.02L77.91 38.84C78.07 38.83 78.2 38.89 78.31 39.02C78.39 39.11 78.43 39.22 78.43 39.34C78.43 39.53 78.34 39.68 78.16 39.79C78.1 39.82 78.04 39.84 77.97 39.84L73.4 40.02V40.83L80.1 40.66C80.41 40.65 80.57 40.82 80.57 41.16C80.57 41.5 80.42 41.68 80.12 41.69L65.73 42.05C65.41 42.06 65.25 41.88 65.25 41.53C65.25 41.2 65.41 41.03 65.72 41.02L72.14 40.86V40.06L67.68 40.24C67.66 40.24 67.65 40.24 67.64 40.24C67.35 40.24 67.21 40.07 67.21 39.73C67.21 39.42 67.35 39.26 67.64 39.25L72.14 39.07V38.18C71.47 38.26 70.68 38.34 69.78 38.41C68.87 38.48 68.34 38.52 68.22 38.52C68.04 38.52 67.92 38.44 67.83 38.29C67.75 38.14 67.72 38.01 67.72 37.89C67.72 37.76 67.88 37.59 68.19 37.4C68.57 37.17 69.07 36.83 69.68 36.41L67.87 36.52C67.86 36.52 67.85 36.52 67.83 36.52C67.57 36.52 67.43 36.36 67.43 36.03C67.43 35.77 67.55 35.64 67.79 35.63L77.02 35.09C77.11 35.08 77.2 35.11 77.29 35.16C77.44 35.24 77.51 35.36 77.51 35.52C77.51 35.64 77.47 35.74 77.38 35.84C77.29 35.94 77.2 35.98 77.09 35.99L75.72 36.08C76.28 36.28 77.01 36.62 77.92 37.1C78.22 37.26 78.38 37.46 78.38 37.71C78.38 37.82 78.35 37.92 78.3 38.02C78.19 38.21 78.01 38.31 77.77 38.31C77.58 38.31 77.36 38.22 77.11 38.03C77.03 37.95 76.84 37.82 76.53 37.59ZM66.81 34L79.43 33.27C79.46 33.27 79.51 33.27 79.57 33.27C80.13 33.27 80.4 33.44 80.4 33.78C80.4 34.11 80.15 34.57 79.65 35.13C79.11 35.75 78.72 36.06 78.48 36.06C78.4 36.06 78.33 36.03 78.25 35.97C78.16 35.9 78.12 35.81 78.12 35.7C78.12 35.61 78.16 35.48 78.25 35.33C78.53 34.84 78.67 34.54 78.67 34.42C78.67 34.29 78.56 34.22 78.34 34.24L66.87 34.91C66.86 35.47 66.82 35.93 66.73 36.3C66.65 36.68 66.41 36.86 66.03 36.86C65.92 36.86 65.82 36.83 65.72 36.78C65.53 36.67 65.43 36.5 65.43 36.26C65.43 36.17 65.47 36.03 65.54 35.83C65.72 35.32 65.82 34.7 65.87 33.97C65.89 33.64 66.06 33.47 66.38 33.47C66.62 33.47 66.76 33.65 66.81 34ZM73.41 28.77L77.44 28.52L77.47 28.51C77.53 28.5 77.62 28.52 77.73 28.57C77.89 28.65 77.98 28.78 77.98 28.98C77.98 29.27 77.84 29.43 77.57 29.45L68.21 30.03C68.17 30.03 68.15 30.03 68.14 30.03C67.95 30.03 67.81 29.95 67.72 29.8C67.67 29.73 67.65 29.65 67.65 29.55C67.65 29.26 67.8 29.1 68.09 29.08L72.12 28.83V28.27L67.14 28.56C67.11 28.56 67.09 28.56 67.07 28.56C66.75 28.56 66.59 28.4 66.59 28.07C66.59 27.77 66.73 27.6 67.02 27.59L72.13 27.3V26.44C72.13 26.04 72.35 25.84 72.78 25.84C73 25.84 73.18 25.92 73.31 26.07C73.39 26.17 73.43 26.29 73.43 26.44V27.23L78.4 26.94H78.44C78.6 26.93 78.73 26.98 78.84 27.09C78.93 27.18 78.97 27.29 78.97 27.43C78.97 27.73 78.82 27.9 78.53 27.91L73.44 28.2V28.77H73.41ZM77.2 31.84C77.46 31.9 77.6 32.04 77.6 32.26C77.6 32.54 77.46 32.68 77.17 32.7L69.37 33.17C69.26 33.39 69.07 33.5 68.8 33.5C68.43 33.5 68.21 33.31 68.15 32.92L67.86 31.2C67.85 31.16 67.85 31.12 67.85 31.08C67.85 30.86 67.95 30.7 68.15 30.59C68.26 30.53 68.38 30.5 68.5 30.5C68.7 30.5 68.87 30.58 69.01 30.74L76.57 30.23C76.58 30.23 76.62 30.23 76.68 30.23C77.22 30.23 77.5 30.44 77.5 30.85C77.5 30.95 77.48 31.06 77.44 31.19L77.2 31.84ZM76.02 31.9L76.11 31.5C76.13 31.39 76.15 31.31 76.15 31.25C76.15 31.11 76.04 31.04 75.82 31.04C75.8 31.04 75.77 31.04 75.75 31.04L69.23 31.53L69.34 32.34L76.02 31.9ZM75.53 36.94C75.38 36.85 75.2 36.75 74.99 36.64C74.84 36.57 74.76 36.46 74.76 36.32C74.76 36.26 74.78 36.19 74.81 36.1L71.5 36.3C70.91 36.76 70.28 37.17 69.63 37.54C70.67 37.48 72.44 37.3 74.94 37L75.12 36.97L75.53 36.94Z" fill="black"/>
<path d="M88.42 37.97C88.58 37.91 88.75 37.84 88.91 37.77C89.27 37.62 89.51 37.54 89.63 37.54C89.81 37.54 89.94 37.62 90.04 37.78C90.1 37.87 90.13 37.97 90.13 38.07C90.13 38.27 90.02 38.43 89.8 38.56C88.95 39.06 87.4 39.7 85.15 40.48C84.28 40.78 83.76 40.94 83.59 40.94C83.38 40.94 83.21 40.86 83.09 40.69C82.98 40.53 82.93 40.36 82.93 40.18C82.93 39.93 83.02 39.76 83.21 39.65C83.27 39.61 83.49 39.55 83.84 39.47C84.81 39.24 85.88 38.9 87.07 38.47V32.87L84.01 33.25C83.97 33.26 83.93 33.26 83.89 33.26C83.45 33.26 83.23 33.05 83.23 32.62C83.23 32.24 83.44 32.03 83.85 31.98L87.08 31.61V27.86C87.08 27.41 87.3 27.19 87.74 27.19C88.19 27.19 88.42 27.41 88.42 27.86V37.97ZM92.84 33.54V38.86C92.84 39.36 93 39.67 93.31 39.81C93.54 39.9 94 39.95 94.66 39.95C95.57 39.95 96.2 39.88 96.55 39.73C96.83 39.62 97.02 39.33 97.1 38.87C97.18 38.42 97.23 37.82 97.24 37.09C97.25 36.7 97.4 36.51 97.7 36.51C97.93 36.51 98.08 36.65 98.16 36.94C98.28 37.43 98.34 38.22 98.34 39.3C98.34 39.85 98.25 40.25 98.06 40.5C97.83 40.81 97.4 41.02 96.78 41.12C96.23 41.2 95.56 41.24 94.78 41.24C93.29 41.24 92.35 41.06 91.97 40.71C91.66 40.42 91.5 39.9 91.5 39.15V27.26C91.5 27.06 91.58 26.91 91.74 26.79C91.86 26.7 92.01 26.65 92.19 26.65C92.41 26.65 92.59 26.73 92.72 26.89C92.8 26.99 92.84 27.11 92.84 27.26V32.36C93.99 31.8 95.21 31.07 96.49 30.18C96.7 30.04 96.88 29.97 97.05 29.97C97.24 29.97 97.4 30.04 97.53 30.19C97.65 30.32 97.71 30.48 97.71 30.65C97.71 30.9 97.59 31.11 97.35 31.28C96.86 31.65 95.94 32.15 94.61 32.78C93.87 33.13 93.28 33.38 92.84 33.54Z" fill="black"/>
<path d="M109.46 29.21L115.97 28.81C116.01 28.81 116.04 28.81 116.05 28.81C116.47 28.81 116.67 29.01 116.67 29.41C116.67 29.8 116.46 30.01 116.05 30.04L101.7 30.88C101.69 30.88 101.65 30.88 101.59 30.88C101.19 30.88 100.99 30.67 100.99 30.26C100.99 29.91 101.19 29.72 101.59 29.7L108.09 29.3V26.89C108.09 26.69 108.17 26.54 108.33 26.42C108.45 26.33 108.6 26.28 108.78 26.28C108.99 26.28 109.16 26.34 109.28 26.46C109.4 26.58 109.46 26.72 109.46 26.89V29.21ZM104.71 34.09L104.98 38.8C104.98 38.84 104.98 38.87 104.98 38.9C104.98 39.26 104.76 39.44 104.32 39.44C103.92 39.44 103.7 39.23 103.68 38.81L103.35 33.19C103.35 33.16 103.35 33.14 103.35 33.13C103.35 32.75 103.57 32.56 104 32.56C104.32 32.56 104.52 32.7 104.61 32.98L108.13 32.73V31.18C108.13 30.99 108.2 30.83 108.33 30.72C108.45 30.61 108.6 30.56 108.78 30.56C109 30.56 109.18 30.64 109.3 30.8C109.38 30.91 109.42 31.03 109.42 31.18V32.63L113.29 32.35C113.35 32.34 113.42 32.34 113.47 32.34C113.88 32.34 114.17 32.47 114.33 32.74C114.46 32.95 114.53 33.36 114.53 33.98C114.53 35.48 114.46 36.81 114.31 37.97C114.18 38.99 113.8 39.5 113.18 39.5C112.87 39.5 112.45 39.41 111.91 39.22C110.99 38.9 110.53 38.6 110.53 38.31C110.53 38.05 110.66 37.92 110.93 37.92C111.02 37.92 111.13 37.94 111.27 37.99C111.72 38.14 112.11 38.21 112.45 38.21C112.74 38.21 112.92 38.02 112.99 37.64C113.02 37.45 113.05 37.16 113.09 36.76C113.17 35.83 113.21 34.95 113.21 34.11C113.21 33.71 113.07 33.5 112.78 33.49C112.76 33.49 112.75 33.49 112.74 33.49C112.73 33.49 112.72 33.49 112.71 33.49L109.4 33.74V41.61C109.4 42.04 109.18 42.26 108.75 42.26C108.32 42.26 108.11 42.04 108.11 41.61V33.84L104.71 34.09Z" fill="black"/>
<path d="M126.02 36.43L122.51 36.65C122.52 36.72 122.52 36.78 122.52 36.82C122.52 37.21 122.3 37.41 121.87 37.41C121.52 37.41 121.32 37.2 121.25 36.78L120.3 30.77C120.29 30.7 120.28 30.65 120.28 30.61C120.28 30.2 120.53 29.99 121.03 29.99C121.37 29.99 121.58 30.17 121.65 30.53L126.02 30.15V26.85C126.02 26.64 126.1 26.49 126.26 26.38C126.39 26.29 126.54 26.24 126.7 26.24C126.86 26.24 127.02 26.29 127.16 26.38C127.32 26.49 127.4 26.65 127.4 26.85V30.04L132.06 29.64C132.1 29.63 132.14 29.63 132.19 29.63C132.58 29.63 132.87 29.74 133.07 29.96C133.24 30.14 133.32 30.37 133.32 30.65C133.32 30.76 133.31 30.88 133.28 31L132.47 34.86C132.8 34.89 132.97 35.09 132.97 35.45C132.97 35.82 132.75 36.02 132.32 36.05L127.39 36.35V41.72C127.39 41.84 127.36 41.94 127.3 42.03C127.18 42.23 126.98 42.33 126.7 42.33C126.42 42.33 126.23 42.23 126.1 42.03C126.04 41.94 126.01 41.84 126.01 41.72V36.43H126.02ZM126.02 35.25V31.37L121.83 31.73L122.35 35.47L126.02 35.25ZM127.39 35.16L131.13 34.93L131.76 31.26C131.76 31.24 131.76 31.22 131.76 31.19C131.76 30.98 131.63 30.89 131.38 30.92L127.38 31.26V35.16H127.39Z" fill="black"/>
<path d="M145.37 39.09L149.77 38.75L149.95 32.79C149.98 32.36 150.21 32.14 150.65 32.14C151.01 32.14 151.23 32.3 151.33 32.63C151.35 32.72 151.36 32.81 151.36 32.89L151.05 40.29C151.01 40.72 150.79 40.94 150.39 40.94C150.16 40.94 149.99 40.87 149.87 40.72C149.75 40.57 149.7 40.41 149.71 40.24L149.72 40.19V39.97L139.97 40.71C139.9 40.72 139.83 40.72 139.75 40.72C138.86 40.72 138.4 40.25 138.37 39.3L138.19 33.63C138.18 33.47 138.21 33.34 138.28 33.23C138.41 33 138.61 32.88 138.9 32.88C139.21 32.88 139.42 33 139.53 33.25C139.57 33.34 139.59 33.43 139.59 33.53L139.7 38.87C139.71 39.28 139.92 39.49 140.33 39.49C140.4 39.49 140.44 39.49 140.45 39.49L143.94 39.21V28.19C143.94 27.99 144 27.83 144.13 27.71C144.26 27.59 144.43 27.53 144.63 27.53C144.89 27.53 145.08 27.62 145.22 27.8C145.3 27.91 145.34 28.04 145.34 28.2V39.09H145.37Z" fill="black"/>
<path d="M157.45 28.8V39.58C157.45 40.24 157.8 40.57 158.49 40.57C158.55 40.57 158.6 40.57 158.64 40.57L169.51 40.12C169.62 40.11 169.72 40.13 169.81 40.17C170.03 40.28 170.14 40.45 170.14 40.71C170.14 40.93 170.06 41.09 169.91 41.21C169.83 41.27 169.74 41.3 169.63 41.31L158.31 41.76C158.15 41.77 158.07 41.77 158.06 41.77C157.19 41.77 156.62 41.52 156.35 41.01C156.19 40.7 156.11 40.27 156.11 39.72V28.86L155.95 28.87H155.91C155.79 28.88 155.67 28.85 155.54 28.76C155.38 28.66 155.3 28.5 155.3 28.27C155.3 27.89 155.47 27.69 155.82 27.67L169.21 27.06C169.63 27.07 169.84 27.27 169.84 27.65C169.84 27.87 169.76 28.03 169.61 28.15C169.53 28.21 169.44 28.24 169.34 28.25L157.45 28.8ZM162.76 37.93C163.05 37.99 163.2 38.16 163.2 38.44C163.2 38.77 163.04 38.94 162.72 38.96L160.02 39.11C159.99 39.46 159.79 39.63 159.42 39.63C159.11 39.63 158.94 39.46 158.9 39.11L158.52 35.56C158.51 35.53 158.51 35.5 158.51 35.47C158.51 35.09 158.7 34.9 159.08 34.9C159.34 34.9 159.52 35.01 159.63 35.22L161.9 35.01C162.02 35 162.1 34.99 162.15 34.99C162.78 34.99 163.1 35.26 163.1 35.8C163.1 35.9 163.09 36.02 163.06 36.16L162.76 37.93ZM161.7 37.98L161.93 36.41C161.93 36.4 161.93 36.37 161.93 36.34C161.93 36.12 161.8 36.03 161.55 36.05L159.77 36.18L159.94 38.1L161.7 37.98ZM166.29 32.36C166.56 32.44 166.69 32.61 166.69 32.89C166.69 33.22 166.53 33.4 166.21 33.43L161.79 33.71C161.76 34.07 161.57 34.25 161.21 34.25C160.84 34.25 160.64 34.06 160.59 33.69L160.21 30.42C160.2 30.36 160.2 30.32 160.2 30.31C160.2 30.05 160.33 29.88 160.6 29.79C160.67 29.77 160.74 29.75 160.82 29.75C161.08 29.75 161.27 29.86 161.38 30.09L165.34 29.76C165.41 29.75 165.49 29.75 165.59 29.75C166.28 29.75 166.62 30.02 166.62 30.55C166.62 30.67 166.6 30.81 166.57 30.98L166.29 32.36ZM165.15 32.41L165.35 31.21C165.35 31.2 165.35 31.18 165.35 31.15C165.35 30.93 165.22 30.83 164.97 30.85L161.52 31.1L161.68 32.67L165.15 32.41ZM168.5 37.57C168.79 37.63 168.94 37.8 168.94 38.08C168.94 38.41 168.78 38.59 168.46 38.6L165.67 38.75C165.64 39.1 165.46 39.27 165.12 39.27C164.78 39.27 164.59 39.1 164.56 38.75L164.18 35.16L164.17 35.11C164.15 34.95 164.23 34.8 164.41 34.67C164.53 34.58 164.64 34.54 164.75 34.54C165 34.54 165.17 34.65 165.28 34.86L167.65 34.65C167.71 34.64 167.78 34.64 167.87 34.64C168.53 34.64 168.85 34.91 168.85 35.46C168.85 35.56 168.84 35.67 168.81 35.8L168.5 37.57ZM167.44 37.62L167.67 36.05L167.68 35.98C167.7 35.76 167.57 35.67 167.29 35.69L165.4 35.82L165.58 37.74L167.44 37.62Z" fill="black"/>
<path d="M180.02 36.43L176.51 36.65C176.52 36.72 176.52 36.78 176.52 36.82C176.52 37.21 176.3 37.41 175.87 37.41C175.52 37.41 175.32 37.2 175.25 36.78L174.3 30.77C174.29 30.7 174.28 30.65 174.28 30.61C174.28 30.2 174.53 29.99 175.03 29.99C175.37 29.99 175.58 30.17 175.65 30.53L180.02 30.15V26.85C180.02 26.64 180.1 26.49 180.26 26.38C180.39 26.29 180.54 26.24 180.7 26.24C180.86 26.24 181.02 26.29 181.16 26.38C181.32 26.49 181.4 26.65 181.4 26.85V30.04L186.06 29.64C186.1 29.63 186.14 29.63 186.19 29.63C186.58 29.63 186.87 29.74 187.07 29.96C187.24 30.14 187.32 30.37 187.32 30.65C187.32 30.76 187.31 30.88 187.28 31L186.47 34.86C186.8 34.89 186.97 35.09 186.97 35.45C186.97 35.82 186.75 36.02 186.32 36.05L181.39 36.35V41.72C181.39 41.84 181.36 41.94 181.3 42.03C181.18 42.23 180.98 42.33 180.7 42.33C180.42 42.33 180.23 42.23 180.1 42.03C180.04 41.94 180.01 41.84 180.01 41.72V36.43H180.02ZM180.02 35.25V31.37L175.83 31.73L176.35 35.47L180.02 35.25ZM181.39 35.16L185.13 34.93L185.76 31.26C185.76 31.24 185.76 31.22 185.76 31.19C185.76 30.98 185.63 30.89 185.38 30.92L181.38 31.26V35.16H181.39Z" fill="black"/>
<path d="M199.37 39.09L203.77 38.75L203.95 32.79C203.98 32.36 204.21 32.14 204.65 32.14C205.01 32.14 205.23 32.3 205.33 32.63C205.35 32.72 205.36 32.81 205.36 32.89L205.05 40.29C205.01 40.72 204.79 40.94 204.39 40.94C204.16 40.94 203.99 40.87 203.87 40.72C203.75 40.57 203.7 40.41 203.71 40.24L203.72 40.19V39.97L193.97 40.71C193.9 40.72 193.83 40.72 193.75 40.72C192.86 40.72 192.4 40.25 192.37 39.3L192.19 33.63C192.18 33.47 192.21 33.34 192.28 33.23C192.41 33 192.61 32.88 192.9 32.88C193.21 32.88 193.42 33 193.53 33.25C193.57 33.34 193.59 33.43 193.59 33.53L193.7 38.87C193.71 39.28 193.92 39.49 194.33 39.49C194.4 39.49 194.44 39.49 194.45 39.49L197.94 39.21V28.19C197.94 27.99 198 27.83 198.13 27.71C198.26 27.59 198.43 27.53 198.63 27.53C198.89 27.53 199.08 27.62 199.22 27.8C199.3 27.91 199.34 28.04 199.34 28.2V39.09H199.37Z" fill="black"/>
<path d="M214.42 37.97C214.58 37.91 214.75 37.84 214.91 37.77C215.27 37.62 215.51 37.54 215.63 37.54C215.81 37.54 215.94 37.62 216.04 37.78C216.1 37.87 216.13 37.97 216.13 38.07C216.13 38.27 216.02 38.43 215.8 38.56C214.95 39.06 213.4 39.7 211.15 40.48C210.28 40.78 209.76 40.94 209.59 40.94C209.38 40.94 209.21 40.86 209.09 40.69C208.98 40.53 208.93 40.36 208.93 40.18C208.93 39.93 209.02 39.76 209.21 39.65C209.27 39.61 209.49 39.55 209.84 39.47C210.81 39.24 211.88 38.9 213.07 38.47V32.87L210.01 33.25C209.97 33.26 209.93 33.26 209.89 33.26C209.45 33.26 209.23 33.05 209.23 32.62C209.23 32.24 209.44 32.03 209.85 31.98L213.08 31.61V27.86C213.08 27.41 213.3 27.19 213.74 27.19C214.19 27.19 214.42 27.41 214.42 27.86V37.97ZM218.84 33.54V38.86C218.84 39.36 219 39.67 219.31 39.81C219.54 39.9 220 39.95 220.66 39.95C221.57 39.95 222.2 39.88 222.55 39.73C222.83 39.62 223.02 39.33 223.1 38.87C223.18 38.42 223.23 37.82 223.24 37.09C223.25 36.7 223.4 36.51 223.7 36.51C223.93 36.51 224.08 36.65 224.16 36.94C224.28 37.43 224.34 38.22 224.34 39.3C224.34 39.85 224.25 40.25 224.06 40.5C223.83 40.81 223.4 41.02 222.78 41.12C222.23 41.2 221.56 41.24 220.78 41.24C219.29 41.24 218.35 41.06 217.97 40.71C217.66 40.42 217.5 39.9 217.5 39.15V27.26C217.5 27.06 217.58 26.91 217.74 26.79C217.86 26.7 218.01 26.65 218.19 26.65C218.41 26.65 218.59 26.73 218.72 26.89C218.8 26.99 218.84 27.11 218.84 27.26V32.36C219.99 31.8 221.21 31.07 222.49 30.18C222.7 30.04 222.88 29.97 223.05 29.97C223.24 29.97 223.4 30.04 223.53 30.19C223.65 30.32 223.71 30.48 223.71 30.65C223.71 30.9 223.59 31.11 223.35 31.28C222.86 31.65 221.94 32.15 220.61 32.78C219.87 33.13 219.28 33.38 218.84 33.54Z" fill="black"/>
<path d="M233 31.31C233.2 31.39 233.3 31.56 233.3 31.8C233.3 32.11 233.12 32.28 232.77 32.32L231.21 32.45V34.76L232.77 34.58C232.81 34.57 232.83 34.57 232.84 34.57C233.1 34.55 233.27 34.65 233.36 34.9C233.39 34.97 233.4 35.05 233.4 35.14C233.4 35.48 233.23 35.67 232.89 35.7L231.2 35.88V38.99C231.76 38.8 232.37 38.55 233.05 38.25C233.2 38.19 233.34 38.15 233.45 38.15C233.63 38.15 233.77 38.23 233.86 38.38C233.92 38.48 233.95 38.59 233.95 38.7C233.95 38.93 233.75 39.14 233.35 39.32C231.97 39.98 230.09 40.69 227.69 41.46C227.55 41.51 227.44 41.53 227.35 41.53C227.05 41.53 226.84 41.39 226.73 41.12C226.69 41.02 226.68 40.92 226.68 40.82C226.68 40.53 226.81 40.34 227.06 40.25C227.12 40.22 227.29 40.18 227.56 40.12V35.07C227.56 34.71 227.76 34.53 228.15 34.53C228.3 34.53 228.43 34.57 228.55 34.66C228.68 34.75 228.75 34.89 228.75 35.06V39.79C229.03 39.7 229.33 39.61 229.67 39.5L230 39.39V32.55L228.88 32.65C228.86 33 228.65 33.18 228.27 33.18C227.9 33.18 227.7 33 227.67 32.63L227.31 28.05C227.31 28.03 227.31 28.01 227.31 27.97C227.31 27.58 227.52 27.39 227.93 27.39C228.2 27.39 228.38 27.5 228.47 27.71L232.14 27.38L232.41 27.36C233.13 27.38 233.49 27.69 233.49 28.28C233.49 28.33 233.49 28.4 233.48 28.47L233.45 28.68L233 31.31ZM231.86 31.35L232.18 28.94V28.81C232.17 28.63 232.07 28.52 231.88 28.49L231.8 28.48L228.61 28.81L228.83 31.62L231.86 31.35ZM239.05 32.48L239.16 32.58C240.26 33.66 241.46 34.55 242.75 35.24C243.2 35.48 243.43 35.68 243.43 35.83C243.43 35.95 243.3 36.05 243.04 36.13C242.61 36.26 242.29 36.33 242.06 36.33C241.85 36.33 241.64 36.25 241.44 36.1C240.47 35.4 239.44 34.45 238.35 33.25C237.06 34.58 235.67 35.67 234.18 36.52C233.96 36.64 233.78 36.7 233.64 36.7C233.48 36.7 233.35 36.63 233.27 36.5C233.21 36.39 233.17 36.29 233.17 36.19C233.17 36.07 233.2 35.98 233.26 35.91C233.32 35.85 233.5 35.73 233.81 35.55C235.23 34.71 236.49 33.66 237.61 32.39C236.99 31.64 236.49 30.95 236.09 30.33C235.09 31.65 234.38 32.31 233.96 32.31C233.82 32.31 233.71 32.26 233.64 32.15C233.56 32.04 233.53 31.94 233.53 31.83C233.53 31.68 233.69 31.45 234 31.13C234.62 30.49 235.25 29.59 235.89 28.44C236.12 28.02 236.33 27.63 236.5 27.24C236.64 26.92 236.85 26.76 237.12 26.76C237.22 26.76 237.33 26.79 237.45 26.85C237.67 26.96 237.78 27.12 237.78 27.33C237.78 27.42 237.76 27.51 237.73 27.61L240.42 27.39C240.47 27.38 240.51 27.38 240.55 27.38C241.19 27.38 241.51 27.65 241.51 28.19C241.51 28.39 241.43 28.68 241.26 29.06C240.7 30.29 239.97 31.43 239.05 32.48ZM241.1 40.19C241.4 40.23 241.56 40.42 241.56 40.76C241.56 41.12 241.39 41.32 241.04 41.34L236.56 41.59C236.55 41.98 236.36 42.18 235.98 42.18C235.6 42.18 235.39 41.99 235.36 41.6L234.9 36.85C234.9 36.82 234.9 36.79 234.9 36.76C234.9 36.6 234.96 36.46 235.08 36.35C235.2 36.23 235.36 36.17 235.55 36.17C235.85 36.17 236.04 36.29 236.13 36.53L240.2 36.12C240.31 36.11 240.41 36.1 240.48 36.1C241.21 36.1 241.57 36.43 241.57 37.09C241.57 37.19 241.56 37.31 241.53 37.46L241.1 40.19ZM239.91 40.25L240.23 37.63C240.23 37.61 240.23 37.58 240.23 37.56C240.23 37.34 240.1 37.25 239.85 37.27L236.23 37.6L236.47 40.44L239.91 40.25ZM238.25 31.63C238.86 30.86 239.35 30.07 239.72 29.27C239.85 28.98 239.91 28.79 239.91 28.7C239.91 28.55 239.83 28.49 239.66 28.52L239.63 28.53L237.15 28.71C237.02 28.94 236.87 29.18 236.71 29.43L236.64 29.54C237.08 30.2 237.61 30.9 238.25 31.63Z" fill="black"/>
<path d="M259.56 34.28L246.18 34.93H246.13C245.67 34.93 245.44 34.72 245.44 34.3C245.44 33.88 245.66 33.66 246.09 33.63L259.46 32.94H259.5C259.68 32.92 259.83 32.96 259.97 33.06C260.13 33.18 260.22 33.35 260.22 33.57C260.22 34.02 260 34.26 259.56 34.28Z" fill="black"/>
<path d="M265.72 29.28V31.13L268.83 30.75C268.86 30.74 268.9 30.74 268.95 30.74C269.34 30.74 269.54 30.94 269.54 31.33C269.54 31.66 269.35 31.85 268.96 31.9L265.72 32.28V34.08L268.83 33.71C268.85 33.71 268.89 33.71 268.94 33.71C269.34 33.71 269.54 33.9 269.54 34.29C269.54 34.63 269.35 34.82 268.98 34.87L265.72 35.23V37.91L266.24 37.74C267.38 37.38 268.35 37.04 269.14 36.72C269.29 36.66 269.43 36.62 269.56 36.62C269.89 36.62 270.05 36.8 270.05 37.16C270.05 37.38 269.89 37.56 269.58 37.7C268.61 38.13 267.32 38.63 265.71 39.18V41.68C265.71 41.83 265.66 41.96 265.57 42.08C265.44 42.22 265.27 42.29 265.05 42.29C264.82 42.29 264.63 42.21 264.51 42.04C264.43 41.95 264.4 41.83 264.4 41.69V39.59C263.84 39.75 263.51 39.84 263.4 39.84C263.15 39.84 262.97 39.72 262.86 39.49C262.81 39.38 262.79 39.28 262.79 39.18C262.79 38.9 262.92 38.71 263.18 38.58C263.26 38.54 263.47 38.49 263.83 38.4C263.95 38.37 264.14 38.33 264.4 38.27V28.58C264.4 28.35 264.5 28.17 264.69 28.05C264.81 27.98 264.93 27.94 265.07 27.94C265.3 27.94 265.48 28.04 265.62 28.24C266.66 27.83 267.58 27.35 268.4 26.79C268.58 26.67 268.76 26.61 268.93 26.61C269.16 26.61 269.34 26.71 269.47 26.92C269.54 27.04 269.58 27.16 269.58 27.28C269.58 27.52 269.41 27.73 269.08 27.92C268.12 28.45 267 28.9 265.72 29.28ZM274.75 38.7C275.82 39.56 277.03 40.33 278.37 40.99C278.79 41.2 279 41.37 279 41.49C279 41.57 278.9 41.64 278.71 41.72C278.16 41.92 277.73 42.02 277.44 42.02C277.19 42.02 276.91 41.91 276.6 41.7C276 41.29 275.11 40.55 273.93 39.47C272.78 40.49 271.54 41.29 270.21 41.87C269.88 42.02 269.66 42.09 269.55 42.09C269.36 42.09 269.22 42.01 269.14 41.85C269.09 41.76 269.06 41.67 269.06 41.59C269.06 41.48 269.11 41.38 269.22 41.28C269.27 41.24 269.44 41.14 269.75 40.99C271.05 40.32 272.17 39.55 273.11 38.66C271.74 37.24 271.05 36.35 271.05 36C271.05 35.85 271.11 35.73 271.24 35.65C271.32 35.6 271.39 35.58 271.47 35.58C271.65 35.58 271.89 35.76 272.17 36.12C272.63 36.7 273.18 37.29 273.84 37.9C275.06 36.52 275.68 35.59 275.71 35.1C275.72 34.99 275.63 34.94 275.46 34.94C275.41 34.94 275.37 34.94 275.33 34.95L270.7 35.4C270.65 35.41 270.62 35.41 270.59 35.41C270.39 35.42 270.24 35.35 270.12 35.19C270.05 35.08 270.01 34.96 270.01 34.83C270.01 34.47 270.19 34.28 270.54 34.25L276.01 33.82C276.06 33.81 276.14 33.81 276.23 33.81C276.93 33.81 277.28 34.07 277.28 34.58C277.28 34.82 277.19 35.14 277.02 35.53C276.56 36.56 275.8 37.61 274.75 38.7ZM272.28 27.44L274.64 27.12C274.76 27.1 274.87 27.09 274.96 27.09C275.6 27.09 275.91 27.49 275.88 28.29L275.77 31.08C275.78 31.26 275.82 31.38 275.9 31.45C275.98 31.51 276.11 31.55 276.31 31.55C276.99 31.55 277.38 31.44 277.48 31.21C277.55 31.06 277.59 30.61 277.59 29.86C277.6 29.48 277.72 29.29 277.98 29.29C278.18 29.29 278.31 29.43 278.38 29.7C278.55 30.33 278.63 30.94 278.63 31.53C278.63 32.08 278.36 32.42 277.82 32.56C277.44 32.66 276.77 32.71 275.82 32.71C275.32 32.71 274.97 32.62 274.77 32.43C274.61 32.27 274.53 32.01 274.52 31.65L274.63 28.64V28.59C274.64 28.5 274.61 28.43 274.56 28.37C274.5 28.3 274.42 28.27 274.33 28.27C274.32 28.27 274.3 28.27 274.27 28.28L272.35 28.55C272.34 30.32 272.01 31.7 271.37 32.7C270.96 33.34 270.6 33.66 270.3 33.66C270.21 33.66 270.12 33.62 270.04 33.55C269.93 33.46 269.88 33.35 269.88 33.22C269.88 33.13 269.95 32.99 270.08 32.78C270.77 31.76 271.12 30.45 271.12 28.84L271.09 27.65C271.09 27.29 271.3 27.11 271.71 27.11C271.97 27.1 272.16 27.21 272.28 27.44Z" fill="black"/>
<path d="M286.52 28.51V39.92C286.52 40.13 286.45 40.3 286.32 40.43C286.17 40.57 285.98 40.64 285.75 40.64C285.4 40.64 285.17 40.5 285.04 40.23C285 40.14 284.98 40.04 284.98 39.92V28.51C284.98 28.27 285.07 28.08 285.25 27.95C285.39 27.84 285.56 27.79 285.75 27.79C286.04 27.79 286.25 27.89 286.4 28.1C286.48 28.21 286.52 28.34 286.52 28.51Z" fill="black"/>
<path d="M294.91 39.14H301.68C302.16 39.14 302.4 39.37 302.4 39.83C302.4 40.29 302.16 40.52 301.68 40.52H294.27C293.57 40.52 293.22 40.2 293.22 39.57C293.22 39.19 293.4 38.81 293.75 38.42C294.5 37.59 295.8 36.34 297.65 34.67C298.62 33.79 299.25 33.18 299.56 32.82C300.09 32.2 300.35 31.62 300.35 31.08C300.35 30.41 300.11 29.88 299.64 29.51C299.18 29.13 298.55 28.95 297.77 28.95C296.53 28.95 295.62 29.51 295.04 30.64C294.86 30.99 294.62 31.16 294.31 31.16C294.17 31.16 294.03 31.12 293.89 31.05C293.66 30.94 293.55 30.74 293.55 30.44C293.55 30.19 293.67 29.88 293.91 29.53C294.27 28.98 294.78 28.53 295.43 28.19C296.14 27.81 296.93 27.63 297.79 27.63C298.86 27.63 299.76 27.87 300.51 28.35C301.51 28.98 302 29.9 302 31.11C302 31.88 301.7 32.63 301.09 33.35C300.8 33.7 300.08 34.37 298.93 35.36C297.05 36.98 295.71 38.25 294.91 39.14Z" fill="black"/>
<path d="M310.97 33.76C311.66 33.87 312.23 34.07 312.68 34.38C313.58 35 314.03 35.88 314.03 37.02C314.03 38.27 313.54 39.24 312.56 39.94C311.73 40.53 310.69 40.82 309.42 40.82C307.79 40.82 306.48 40.34 305.49 39.38C305.13 39.03 304.95 38.73 304.95 38.46C304.95 38.27 305.03 38.11 305.2 37.98C305.35 37.85 305.52 37.79 305.69 37.79C305.89 37.79 306.11 37.94 306.36 38.23C306.7 38.65 307.18 38.97 307.79 39.21C308.28 39.4 308.82 39.49 309.4 39.49C310.13 39.49 310.75 39.34 311.28 39.03C312.06 38.57 312.45 37.91 312.45 37.03C312.45 36.29 312.22 35.69 311.76 35.24C311.43 34.91 311.01 34.7 310.5 34.61C310.11 34.54 309.56 34.5 308.85 34.5L308.52 34.51C307.99 34.51 307.72 34.29 307.72 33.86C307.72 33.54 307.85 33.35 308.12 33.28C308.21 33.26 308.37 33.24 308.59 33.24C310.8 33.24 311.91 32.48 311.91 30.95C311.91 30.31 311.67 29.8 311.19 29.43C310.73 29.08 310.11 28.9 309.34 28.9C308.13 28.9 307.25 29.32 306.69 30.17C306.54 30.38 306.36 30.49 306.13 30.49C305.97 30.49 305.81 30.44 305.66 30.33C305.47 30.2 305.38 30.03 305.38 29.82C305.38 29.61 305.51 29.36 305.78 29.07C306.14 28.69 306.58 28.37 307.11 28.12C307.82 27.79 308.57 27.63 309.37 27.63C310.28 27.63 311.07 27.81 311.73 28.17C312.86 28.79 313.43 29.72 313.43 30.97C313.43 32.22 312.82 33.09 311.59 33.57C311.47 33.63 311.26 33.69 310.97 33.76Z" fill="black"/>
<path d="M319.99 34.16C319.7 34.98 319.5 35.5 319.39 35.71C319.35 35.78 319.34 35.83 319.34 35.87C319.34 35.95 319.4 35.98 319.52 35.98C319.54 35.98 319.57 35.98 319.61 35.97L321.16 35.85C321.24 35.84 321.29 35.84 321.32 35.84C322.01 35.84 322.35 36.21 322.35 36.95C322.35 37.49 322.23 38.24 321.99 39.2C321.73 40.22 321.46 40.91 321.17 41.28C320.95 41.57 320.67 41.71 320.33 41.71C320.07 41.71 319.69 41.62 319.2 41.45C318.27 41.12 317.81 40.85 317.81 40.63C317.81 40.58 317.82 40.52 317.85 40.47C317.92 40.32 318.03 40.24 318.19 40.24C318.25 40.24 318.34 40.25 318.46 40.28C319.13 40.43 319.61 40.5 319.88 40.5C320.12 40.5 320.33 40.29 320.5 39.88C320.71 39.39 320.88 38.75 321.01 37.97C321.07 37.59 321.11 37.35 321.11 37.25C321.11 37.06 321.01 36.96 320.8 36.96C320.76 36.96 320.74 36.96 320.73 36.96L318.93 37.1C318.89 37.11 318.83 37.11 318.75 37.11C318.21 37.11 317.93 36.9 317.93 36.49C317.93 36.35 317.99 36.14 318.12 35.87C318.34 35.4 318.53 34.91 318.69 34.4C318.71 34.34 318.73 34.28 318.74 34.24L316.79 34.38L316.69 34.39C316.31 34.41 316.12 34.21 316.12 33.78C316.12 33.45 316.31 33.27 316.7 33.24L322.9 32.77C323.34 32.73 323.56 32.92 323.56 33.32C323.56 33.69 323.36 33.89 322.97 33.92L319.99 34.16ZM322.39 30.58C322.52 30.69 322.58 30.83 322.58 31.03C322.58 31.36 322.37 31.54 321.96 31.57L318.61 31.82C318.6 32.17 318.41 32.35 318.04 32.35C317.69 32.35 317.5 32.15 317.46 31.75L317.03 27.66C317.02 27.61 317.02 27.58 317.02 27.56C317.02 27.22 317.22 27.05 317.61 27.05C317.85 27.05 318.02 27.14 318.13 27.32L321.6 27.01C321.64 27 321.67 27 321.71 27C322.03 27 322.29 27.08 322.49 27.25C322.7 27.42 322.81 27.65 322.81 27.95C322.81 28.03 322.8 28.11 322.78 28.2L322.39 30.58ZM321.32 30.53L321.59 28.36C321.6 28.3 321.58 28.24 321.55 28.2C321.5 28.14 321.44 28.11 321.37 28.12L321.34 28.13L318.3 28.39L318.53 30.73L321.32 30.53ZM325.1 31.17C325.1 31.35 325.1 31.54 325.1 31.74C325.1 34.29 324.99 36.2 324.78 37.47C324.5 39.13 324.04 40.41 323.4 41.33C323.24 41.56 323.08 41.68 322.91 41.68C322.59 41.68 322.44 41.52 322.44 41.21C322.44 41.1 322.5 40.95 322.62 40.74C323.08 39.97 323.42 38.77 323.64 37.15C323.8 35.95 323.89 33.77 323.9 30.61C323.9 30.13 324.1 29.89 324.49 29.89C324.68 29.89 324.84 29.97 324.97 30.13L327.06 29.93V26.75C327.06 26.56 327.12 26.4 327.25 26.29C327.37 26.18 327.51 26.13 327.67 26.13C327.86 26.13 328.01 26.2 328.13 26.35C328.22 26.46 328.26 26.59 328.26 26.75V27.69L330.55 27.45L330.6 27.44C330.78 27.42 330.93 27.51 331.03 27.69C331.07 27.77 331.09 27.86 331.09 27.95C331.09 28.26 330.94 28.43 330.64 28.46L328.26 28.72V29.8L331.49 29.48C331.56 29.47 331.63 29.47 331.7 29.47C332.25 29.47 332.53 29.69 332.53 30.14C332.53 30.44 332.38 30.85 332.08 31.38C331.95 31.63 331.81 31.84 331.68 32C331.56 32.17 331.42 32.25 331.26 32.25C331.16 32.25 331.06 32.22 330.97 32.15C330.88 32.08 330.83 31.99 330.83 31.87C330.83 31.77 330.87 31.63 330.94 31.46C331.1 31.07 331.19 30.83 331.19 30.72C331.19 30.61 331.12 30.56 330.99 30.56C330.95 30.56 330.91 30.56 330.84 30.57L327.97 30.86V30.9V32.31L330.03 31.98C330.05 31.97 330.07 31.97 330.08 31.97C330.28 31.95 330.43 32.03 330.55 32.21C330.6 32.29 330.63 32.38 330.63 32.49C330.63 32.78 330.49 32.94 330.21 32.99L327.98 33.34V33.85C327.98 34.17 328.01 34.38 328.07 34.48C328.12 34.57 328.28 34.61 328.54 34.61C329.18 34.61 329.77 34.54 330.32 34.41C330.45 34.37 330.56 34.36 330.64 34.36C330.98 34.36 331.15 34.54 331.15 34.9C331.15 35.22 330.99 35.41 330.67 35.49C330.07 35.63 329.3 35.7 328.38 35.7C327.92 35.7 327.59 35.65 327.4 35.54C327.02 35.33 326.84 34.87 326.84 34.15V33.52L325.94 33.66C325.92 33.67 325.88 33.67 325.84 33.67C325.63 33.67 325.47 33.59 325.37 33.42C325.32 33.34 325.3 33.26 325.3 33.17C325.3 32.88 325.44 32.71 325.73 32.66L326.83 32.48V30.97L325.1 31.17ZM327.24 36.71C327.41 36.71 327.56 36.76 327.68 36.87C327.81 36.98 327.88 37.14 327.88 37.34C327.88 37.61 327.79 38.06 327.61 38.69C327.21 40.07 326.54 41.08 325.61 41.73C325.33 41.92 325.13 42.02 325 42.02C324.8 42.02 324.65 41.93 324.55 41.76C324.51 41.68 324.49 41.61 324.49 41.55C324.49 41.42 324.61 41.24 324.85 41.03C325.83 40.17 326.43 38.91 326.67 37.24C326.72 36.89 326.91 36.71 327.24 36.71ZM329.87 37.03V40.26C329.87 40.44 329.92 40.55 330.01 40.61C330.07 40.65 330.23 40.67 330.48 40.67C330.84 40.67 331.09 40.65 331.23 40.61C331.39 40.56 331.48 40.42 331.52 40.18C331.55 39.94 331.57 39.56 331.57 39.05C331.58 38.67 331.72 38.49 332 38.49C332.21 38.49 332.35 38.62 332.4 38.88C332.51 39.32 332.56 39.87 332.56 40.53C332.56 41.16 332.3 41.56 331.77 41.73C331.49 41.81 331.08 41.85 330.54 41.85C329.82 41.85 329.35 41.78 329.12 41.64C328.83 41.46 328.69 41.14 328.69 40.69V37.03C328.69 36.66 328.89 36.48 329.28 36.48C329.41 36.48 329.54 36.52 329.65 36.6C329.8 36.71 329.87 36.85 329.87 37.03Z" fill="black"/>
<path d="M137.3 53.39C137.63 53.39 137.8 53.56 137.8 53.89C137.8 54.02 137.74 54.16 137.62 54.29C137.6 54.31 137.44 54.46 137.16 54.72C136.57 55.28 136.03 56.04 135.55 57.01C134.8 58.52 134.42 60.19 134.42 62.03C134.42 63.57 134.7 65.02 135.26 66.39C135.82 67.74 136.56 68.81 137.47 69.6C137.68 69.78 137.79 69.95 137.79 70.12C137.79 70.23 137.75 70.34 137.68 70.44C137.59 70.56 137.45 70.62 137.28 70.62C137.01 70.62 136.59 70.32 136.01 69.71C135.25 68.9 134.61 67.91 134.09 66.73C133.4 65.16 133.05 63.58 133.05 61.99C133.05 60.23 133.47 58.49 134.32 56.78C134.99 55.43 135.81 54.37 136.78 53.6C136.97 53.45 137.14 53.39 137.3 53.39Z" fill="black"/>
<path d="M142.65 64.91H149.42C149.9 64.91 150.14 65.14 150.14 65.6C150.14 66.06 149.9 66.29 149.42 66.29H142C141.3 66.29 140.95 65.97 140.95 65.34C140.95 64.96 141.13 64.58 141.48 64.19C142.23 63.36 143.53 62.11 145.38 60.44C146.35 59.56 146.98 58.95 147.29 58.59C147.82 57.97 148.08 57.39 148.08 56.85C148.08 56.18 147.84 55.65 147.37 55.28C146.91 54.9 146.28 54.72 145.5 54.72C144.26 54.72 143.35 55.28 142.77 56.41C142.59 56.76 142.35 56.93 142.04 56.93C141.9 56.93 141.76 56.89 141.62 56.82C141.39 56.71 141.28 56.51 141.28 56.21C141.28 55.96 141.4 55.65 141.64 55.3C142 54.75 142.51 54.3 143.16 53.96C143.87 53.58 144.66 53.4 145.52 53.4C146.59 53.4 147.49 53.64 148.24 54.12C149.24 54.75 149.73 55.67 149.73 56.88C149.73 57.65 149.43 58.4 148.82 59.12C148.53 59.47 147.81 60.14 146.66 61.13C144.79 62.75 143.45 64.01 142.65 64.91Z" fill="black"/>
<path d="M154.53 60.37V65.7C154.53 65.9 154.46 66.06 154.33 66.18C154.17 66.33 153.96 66.4 153.71 66.4C153.41 66.4 153.18 66.29 153.03 66.08C152.96 65.97 152.92 65.85 152.92 65.69V55.16C152.92 54.16 153.42 53.67 154.43 53.67H161.36C161.51 53.67 161.64 53.72 161.76 53.81C161.91 53.94 161.98 54.12 161.98 54.36C161.98 54.82 161.77 55.05 161.36 55.05H154.86C154.63 55.05 154.52 55.16 154.52 55.39V59.02H160.57C160.68 59.02 160.78 59.05 160.87 59.1C161.07 59.21 161.17 59.41 161.17 59.69C161.17 60.14 160.97 60.36 160.57 60.36H154.53V60.37Z" fill="black"/>
<path d="M169.66 62.13L169.58 60.97L167.45 61.13C167.44 61.13 167.43 61.13 167.42 61.13C167.34 61.13 167.27 61.08 167.19 60.99C167.11 60.89 167.07 60.78 167.07 60.66C167.07 60.5 167.13 60.37 167.24 60.27C167.29 60.23 167.35 60.21 167.4 60.2L169.52 60.04L169.45 58.92L166.65 59.11C166.66 59.27 166.66 59.38 166.66 59.44C166.66 60.67 166.54 61.95 166.3 63.27C166.03 64.77 165.54 66.09 164.84 67.24C164.7 67.47 164.54 67.59 164.36 67.59C164.28 67.59 164.2 67.57 164.11 67.53C163.95 67.45 163.87 67.32 163.87 67.15C163.87 67.06 163.92 66.91 164.03 66.7C164.89 64.99 165.34 62.6 165.4 59.55V59.19C165.08 59.18 164.92 59.03 164.92 58.72C164.92 58.42 165.11 58.25 165.48 58.22L170.67 57.84V57.15C170.67 56.95 170.74 56.8 170.89 56.7C171 56.62 171.13 56.58 171.27 56.58C171.67 56.58 171.88 56.77 171.88 57.15V57.75L177.84 57.32C177.88 57.31 177.91 57.31 177.93 57.31C178.16 57.3 178.32 57.39 178.4 57.58C178.43 57.64 178.44 57.72 178.44 57.81C178.44 58.14 178.26 58.31 177.89 58.34L174.14 58.6L174.07 59.69L176.42 59.51C176.46 59.5 176.51 59.5 176.56 59.5C177.08 59.5 177.33 59.71 177.33 60.14C177.33 60.28 177.31 60.43 177.26 60.6L176.99 61.61C177.2 61.66 177.3 61.82 177.3 62.09C177.3 62.25 177.24 62.37 177.12 62.47C177.07 62.51 177.02 62.53 176.96 62.53L167.32 63.17H167.29C167.28 63.17 167.28 63.17 167.26 63.17C167.17 63.16 167.08 63.1 167.01 62.97C166.96 62.89 166.94 62.8 166.94 62.72C166.94 62.57 166.99 62.45 167.1 62.35C167.15 62.31 167.2 62.29 167.27 62.28L169.66 62.13ZM170.32 53.19L165.55 53.59C165.53 53.59 165.5 53.59 165.44 53.59C165.11 53.59 164.95 53.42 164.95 53.09C164.95 52.83 165.11 52.68 165.44 52.65L170.22 52.24C170.23 52.24 170.26 52.24 170.31 52.24C170.65 52.24 170.82 52.39 170.82 52.68C170.82 52.99 170.66 53.16 170.32 53.19ZM166.67 55.2V57.11C166.67 57.2 166.65 57.28 166.6 57.36C166.5 57.54 166.33 57.62 166.09 57.62C165.89 57.62 165.73 57.55 165.62 57.4C165.56 57.32 165.52 57.22 165.52 57.1V54.66C165.52 54.49 165.58 54.36 165.7 54.26C165.82 54.17 165.95 54.13 166.09 54.13C166.26 54.13 166.4 54.19 166.52 54.3L169.69 53.97C169.74 53.96 169.8 53.96 169.87 53.96C170.35 53.96 170.59 54.26 170.59 54.85V56.77C170.59 56.86 170.57 56.95 170.52 57.02C170.42 57.2 170.25 57.29 170.02 57.29C169.81 57.29 169.65 57.22 169.54 57.07C169.48 56.99 169.44 56.89 169.44 56.76V55.25C169.44 55.03 169.33 54.92 169.12 54.92C169.11 54.92 169.1 54.92 169.08 54.92L166.67 55.2ZM167.51 55.4C167.66 55.4 167.87 55.49 168.13 55.67C168.64 56.02 168.89 56.32 168.89 56.59C168.89 56.73 168.83 56.84 168.71 56.93C168.6 57.01 168.48 57.04 168.37 57.04C168.16 57.04 167.98 56.92 167.84 56.69C167.73 56.51 167.56 56.3 167.33 56.06C167.22 55.95 167.16 55.83 167.16 55.72C167.16 55.64 167.19 55.57 167.26 55.51C167.35 55.44 167.43 55.4 167.51 55.4ZM168.68 65.44L168.59 66.72C169.86 66.59 170.92 66.4 171.75 66.17C171.84 66.14 171.93 66.13 172 66.13C172.25 66.13 172.38 66.28 172.38 66.59C172.38 66.76 172.25 66.9 172 67C171.47 67.22 170.54 67.47 169.21 67.77C168.59 67.9 168.23 67.97 168.12 67.97C167.89 67.97 167.7 67.89 167.56 67.72C167.41 67.55 167.34 67.33 167.36 67.07L167.37 66.96L167.56 63.88C167.59 63.48 167.79 63.27 168.17 63.27C168.59 63.27 168.79 63.45 168.79 63.81C168.79 63.82 168.79 63.85 168.79 63.88L168.75 64.47L171.63 64.19C172.02 64.15 172.21 64.31 172.21 64.65C172.21 64.95 172.03 65.12 171.68 65.15L168.68 65.44ZM170.64 59.96L172.91 59.79L172.95 58.69L170.6 58.85L170.64 59.96ZM170.73 62.06L172.85 61.91L172.89 60.73L170.69 60.89L170.73 62.06ZM177.16 52.88L172.08 53.26C172.05 53.26 172.02 53.26 171.98 53.26C171.66 53.24 171.51 53.1 171.51 52.82C171.51 52.5 171.68 52.33 172.01 52.3L177.07 51.92C177.09 51.92 177.12 51.92 177.16 51.92C177.49 51.92 177.66 52.07 177.66 52.36C177.66 52.69 177.49 52.86 177.16 52.88ZM173.13 54.83V56.67C173.13 56.76 173.11 56.84 173.06 56.92C172.96 57.1 172.79 57.19 172.56 57.19C172.35 57.19 172.19 57.12 172.08 56.97C172.02 56.89 171.98 56.79 171.98 56.67V54.3C171.98 54.13 172.04 54 172.16 53.9C172.28 53.81 172.41 53.77 172.55 53.77C172.73 53.77 172.88 53.83 173 53.95L176.32 53.66C176.38 53.65 176.43 53.65 176.45 53.65C176.95 53.65 177.2 53.95 177.2 54.54V56.43C177.2 56.52 177.18 56.6 177.13 56.68C177.03 56.86 176.86 56.95 176.62 56.95C176.42 56.95 176.26 56.88 176.15 56.73C176.09 56.65 176.05 56.55 176.05 56.42V54.89C176.05 54.67 175.95 54.57 175.75 54.58C175.74 54.58 175.72 54.58 175.71 54.58L173.13 54.83ZM173.99 64.61C174.94 64.31 175.9 63.92 176.87 63.45C177.03 63.37 177.18 63.34 177.32 63.34C177.67 63.34 177.85 63.53 177.85 63.91C177.85 64.16 177.65 64.37 177.25 64.53C176.25 64.94 175.17 65.27 173.99 65.52V65.99C173.99 66.33 174.1 66.55 174.32 66.64C174.5 66.72 174.92 66.75 175.57 66.75C176.74 66.75 177.43 66.64 177.64 66.42C177.77 66.29 177.87 65.9 177.91 65.27C177.93 65.02 178.05 64.89 178.28 64.89C178.47 64.89 178.6 65.02 178.67 65.27C178.79 65.7 178.85 66.16 178.85 66.67C178.85 67.14 178.62 67.46 178.16 67.6C177.64 67.76 176.83 67.84 175.73 67.84C174.85 67.84 174.24 67.83 173.91 67.8C173.39 67.75 173.04 67.56 172.87 67.25C172.77 67.05 172.72 66.78 172.72 66.43V63.62C172.72 63.44 172.79 63.29 172.92 63.19C173.04 63.1 173.18 63.05 173.35 63.05C173.57 63.05 173.74 63.12 173.86 63.27C173.94 63.37 173.97 63.49 173.97 63.62V64.61H173.99ZM173.95 55.08C174.08 55.08 174.28 55.16 174.57 55.32C175.21 55.68 175.54 55.99 175.54 56.25C175.54 56.37 175.49 56.48 175.38 56.59C175.29 56.69 175.18 56.74 175.04 56.74C174.87 56.74 174.7 56.65 174.54 56.48C174.21 56.12 173.95 55.86 173.76 55.69C173.68 55.61 173.64 55.52 173.64 55.41C173.63 55.19 173.74 55.08 173.95 55.08ZM175.82 61.71L175.96 60.88C175.96 60.87 175.96 60.84 175.96 60.79C175.96 60.61 175.88 60.52 175.71 60.54C175.7 60.54 175.69 60.54 175.67 60.54L174 60.66L173.92 61.85L175.82 61.71Z" fill="black"/>
<path d="M186.33 64.45V67.12C187.51 67 188.59 66.78 189.56 66.45C189.64 66.42 189.72 66.41 189.8 66.41C189.98 66.41 190.11 66.49 190.2 66.64C190.24 66.72 190.26 66.79 190.26 66.86C190.26 67.08 189.97 67.29 189.4 67.48C188.38 67.82 187.33 68.09 186.26 68.28C186.1 68.31 185.98 68.32 185.9 68.32C185.72 68.32 185.56 68.23 185.4 68.06C185.24 67.9 185.16 67.66 185.16 67.36V61.45C184.94 61.38 184.84 61.24 184.85 61.03C184.85 61.02 184.85 61 184.85 60.99C184.14 61.37 183.43 61.69 182.72 61.96C182.39 62.09 182.16 62.15 182.05 62.15C181.87 62.15 181.75 62.08 181.67 61.94C181.63 61.86 181.61 61.78 181.61 61.72C181.61 61.57 181.69 61.44 181.85 61.33C181.89 61.31 182.11 61.21 182.52 61.05C184.3 60.34 185.95 59.38 187.49 58.17C188.13 57.67 188.67 57.17 189.09 56.68C189.28 56.45 189.49 56.33 189.71 56.33C189.84 56.33 189.97 56.38 190.08 56.48C190.22 56.6 190.29 56.75 190.29 56.91C190.29 57.01 190.26 57.11 190.2 57.22C190.47 57.44 190.7 57.61 190.88 57.74C190.9 57.65 190.94 57.58 191 57.51C191.03 57.47 191.17 57.37 191.41 57.2C191.74 56.97 192.11 56.66 192.53 56.28C192.47 56.24 192.39 56.2 192.31 56.14C191.86 55.86 191.38 55.6 190.87 55.33C190.66 55.23 190.56 55.09 190.56 54.92C190.56 54.84 190.58 54.76 190.63 54.68C190.71 54.53 190.83 54.46 190.99 54.46C191.16 54.46 191.92 54.81 193.28 55.51C194.1 54.61 194.51 54.03 194.51 53.79C194.51 53.71 194.43 53.67 194.27 53.67C194.23 53.67 194.18 53.67 194.13 53.68L190.96 54.01C190.95 54.01 190.92 54.01 190.87 54.01C190.52 54.01 190.35 53.85 190.35 53.53C190.35 53.2 190.53 53.02 190.89 52.99L195.14 52.59C195.2 52.58 195.27 52.58 195.35 52.58C195.85 52.58 196.11 52.76 196.11 53.12C196.11 53.31 196.04 53.54 195.9 53.81C195.55 54.48 194.99 55.23 194.24 56.06C195.1 56.56 195.77 56.98 196.24 57.33C196.47 57.5 196.58 57.68 196.58 57.88C196.58 58.01 196.53 58.14 196.43 58.26C196.31 58.4 196.18 58.47 196.02 58.47C195.87 58.47 195.63 58.35 195.31 58.12C194.73 57.71 194.11 57.29 193.45 56.86C192.69 57.55 192.08 58 191.61 58.22C193.46 59.4 195.37 60.25 197.35 60.77C197.73 60.87 197.92 61 197.92 61.15C197.92 61.27 197.81 61.37 197.58 61.44C197.01 61.61 196.57 61.69 196.27 61.69C196.09 61.69 195.91 61.64 195.73 61.55C195.13 61.26 194.42 60.88 193.62 60.42C193.77 60.58 193.84 60.8 193.84 61.07C193.84 61.12 193.83 61.2 193.82 61.3L193.49 63.95C193.44 64.33 193.26 64.51 192.95 64.51C192.66 64.51 192.48 64.4 192.4 64.18L186.33 64.45ZM184.95 57.76C184.42 57.3 183.92 56.92 183.46 56.62C182.79 57.16 182.32 57.43 182.06 57.43C181.96 57.43 181.88 57.39 181.81 57.32C181.72 57.23 181.68 57.13 181.68 57.02C181.68 56.89 181.8 56.74 182.05 56.55C182.72 56.07 183.45 55.36 184.22 54.43C184.37 54.25 184.53 54.17 184.69 54.17C184.78 54.17 184.87 54.2 184.95 54.26C185.1 54.35 185.17 54.48 185.17 54.65C185.17 54.74 185.14 54.85 185.08 54.96L185.65 54.92V52.23C185.65 52.06 185.71 51.93 185.83 51.84C185.95 51.75 186.08 51.71 186.22 51.71C186.35 51.71 186.48 51.75 186.59 51.82C186.73 51.92 186.8 52.06 186.8 52.23V52.94L188.81 52.77C188.85 52.76 188.88 52.76 188.9 52.76C189.24 52.76 189.41 52.92 189.41 53.23C189.41 53.54 189.23 53.72 188.87 53.75L186.8 53.91V54.81L188.17 54.7C188.22 54.69 188.28 54.69 188.37 54.69C188.83 54.69 189.06 54.85 189.06 55.16C189.06 55.56 188.55 56.21 187.52 57.1C186.2 58.24 184.7 59.14 183 59.81C182.76 59.9 182.59 59.95 182.48 59.95C182.33 59.95 182.22 59.88 182.14 59.75C182.08 59.66 182.05 59.57 182.05 59.48C182.05 59.34 182.11 59.23 182.23 59.15C182.27 59.12 182.45 59.04 182.79 58.91C183.38 58.68 184.09 58.3 184.95 57.76ZM185.77 57.2C186.8 56.48 187.31 56 187.31 55.78C187.31 55.71 187.24 55.67 187.11 55.67C187.03 55.67 186.99 55.67 186.97 55.67L184.27 55.92C184.25 55.94 184.23 55.95 184.22 55.96C184.16 56.02 184.11 56.07 184.07 56.1C184.96 56.52 185.53 56.88 185.77 57.2ZM185.63 60.55L192.77 60.15C192.8 60.15 192.83 60.15 192.87 60.15C193.02 60.15 193.16 60.17 193.29 60.2C192.43 59.7 191.72 59.26 191.17 58.9C191.22 58.99 191.24 59.07 191.24 59.14C191.24 59.3 191.17 59.42 191.02 59.52C190.96 59.56 190.9 59.58 190.83 59.58L188.13 59.72C188.07 59.73 188.02 59.72 187.96 59.69C187.81 59.61 187.73 59.48 187.73 59.28C187.73 59.26 187.73 59.24 187.73 59.21C186.97 59.73 186.27 60.18 185.63 60.55ZM186.33 61.98L192.57 61.67L192.6 61.47C192.6 61.45 192.6 61.42 192.6 61.36C192.6 61.17 192.48 61.08 192.24 61.09L186.33 61.4V61.98ZM186.33 63.55L192.42 63.24L192.48 62.55L186.33 62.84V63.55ZM192.39 66.1C193.85 66.62 195.15 66.96 196.29 67.14C196.67 67.2 196.86 67.3 196.86 67.44C196.86 67.56 196.75 67.66 196.54 67.76C195.89 68.04 195.39 68.18 195.04 68.18C194.44 68.18 193.28 67.78 191.56 66.97C190.37 66.41 189.33 65.85 188.44 65.27C188.25 65.15 188.16 65.01 188.16 64.85C188.16 64.77 188.19 64.69 188.25 64.6C188.33 64.48 188.43 64.42 188.57 64.42C188.68 64.42 188.95 64.53 189.38 64.76C189.97 65.08 190.62 65.39 191.34 65.69C192.39 65.09 193.23 64.52 193.85 63.98C194.04 63.81 194.23 63.73 194.4 63.73C194.53 63.73 194.66 63.78 194.77 63.89C194.88 63.99 194.93 64.11 194.93 64.26C194.93 64.51 194.74 64.77 194.36 65.04C193.92 65.34 193.27 65.7 192.39 66.1ZM188.24 58.85L190.82 58.69H190.85C190.41 58.41 189.99 58.11 189.58 57.79C189.02 58.27 188.57 58.62 188.24 58.85Z" fill="black"/>
<path d="M208.32 53.61L214.59 53.19C214.96 53.19 215.14 53.36 215.14 53.7C215.14 53.93 215.05 54.09 214.87 54.19C214.81 54.23 214.75 54.24 214.68 54.24L201.95 55.08V55.26C201.92 59.49 201.67 62.53 201.21 64.38C200.95 65.41 200.62 66.32 200.23 67.11C200.1 67.37 199.93 67.5 199.71 67.5C199.62 67.5 199.54 67.48 199.46 67.43C199.28 67.33 199.2 67.18 199.2 66.96C199.2 66.88 199.26 66.72 199.37 66.48C199.87 65.33 200.24 63.77 200.47 61.8C200.64 60.3 200.72 58.07 200.72 55.11C200.49 55.03 200.38 54.86 200.38 54.61C200.38 54.29 200.58 54.11 200.98 54.08L207.08 53.67V52.3C207.08 51.9 207.28 51.69 207.69 51.69C207.92 51.69 208.1 51.77 208.23 51.93C208.31 52.03 208.34 52.15 208.34 52.3V53.61H208.32ZM203.4 63.66L202.41 63.79C202.36 63.8 202.32 63.8 202.29 63.8C202.04 63.8 201.91 63.67 201.91 63.41C201.91 63.16 202.06 63.02 202.36 62.98L205.08 62.62C205.12 62.61 205.15 62.61 205.19 62.61C205.45 62.61 205.58 62.74 205.58 63.01C205.58 63.25 205.43 63.39 205.13 63.43L204.37 63.53V64.15L204.82 64.09C204.85 64.08 204.89 64.08 204.93 64.08C205.18 64.08 205.3 64.21 205.3 64.46C205.3 64.7 205.16 64.84 204.87 64.88L204.37 64.95V65.62C204.62 65.57 204.83 65.53 205.01 65.48C205.2 65.43 205.33 65.41 205.39 65.41C205.62 65.41 205.73 65.53 205.73 65.77C205.73 65.95 205.56 66.1 205.21 66.22C204.65 66.42 203.88 66.62 202.9 66.83C202.43 66.93 202.14 66.98 202.04 66.98C201.73 66.98 201.57 66.82 201.57 66.49C201.57 66.23 201.79 66.07 202.23 66.01C202.48 65.98 202.87 65.92 203.39 65.83V65.1L202.67 65.21C202.61 65.22 202.57 65.22 202.56 65.22C202.31 65.22 202.19 65.1 202.19 64.85C202.19 64.6 202.33 64.45 202.62 64.42L203.39 64.31V63.66H203.4ZM206.89 56.6V67.52C206.89 67.88 206.71 68.06 206.36 68.06C206.01 68.06 205.84 67.88 205.84 67.52V61.55C204.94 61.84 203.99 62.1 202.97 62.32C202.74 62.37 202.59 62.4 202.52 62.4C202.19 62.4 202.03 62.23 202.03 61.89C202.03 61.7 202.11 61.56 202.28 61.48C202.34 61.45 202.49 61.42 202.7 61.38C202.81 61.36 202.92 61.34 203.03 61.32V56.98L202.62 57.02C202.59 57.02 202.56 57.02 202.53 57.02C202.24 57 202.1 56.86 202.1 56.61C202.1 56.34 202.26 56.19 202.58 56.16L207.09 55.69C207.1 55.69 207.13 55.69 207.16 55.69C207.47 55.69 207.63 55.83 207.63 56.12C207.63 56.39 207.47 56.54 207.15 56.58L206.89 56.6ZM205.84 56.71L204.06 56.89V57.77L205.84 57.57V56.71ZM205.84 58.39L204.06 58.58V59.31L205.84 59.07V58.39ZM204.06 61.12C204.97 60.93 205.56 60.8 205.84 60.72V59.92L204.06 60.17V61.12ZM208.38 64.61C208.67 64.61 208.81 64.84 208.81 65.3C208.81 66.91 208.55 67.72 208.02 67.72C207.96 67.72 207.9 67.71 207.83 67.68C207.56 67.59 207.43 67.4 207.43 67.13C207.43 67.05 207.47 66.93 207.54 66.75C207.7 66.36 207.84 65.76 207.96 64.97C207.99 64.73 208.13 64.61 208.38 64.61ZM213.06 61.54L208.88 61.87C208.86 62.17 208.7 62.33 208.39 62.33C208.08 62.33 207.91 62.16 207.87 61.81L207.56 58.91C207.55 58.86 207.55 58.83 207.55 58.8C207.54 58.48 207.71 58.32 208.08 58.32C208.33 58.32 208.49 58.44 208.55 58.67L210.31 58.49V57.38L208.41 57.54C208.34 57.55 208.28 57.55 208.23 57.55C207.88 57.55 207.71 57.38 207.71 57.03C207.71 56.74 207.89 56.58 208.24 56.56L210.31 56.38V55.28C210.31 54.9 210.5 54.71 210.87 54.71C211.24 54.71 211.42 54.9 211.42 55.28V56.27L213.27 56.1C213.3 56.1 213.33 56.1 213.36 56.1C213.71 56.1 213.89 56.26 213.89 56.58C213.89 56.91 213.71 57.1 213.35 57.12L211.42 57.28V58.37L213.24 58.19C213.54 58.16 213.8 58.23 214.02 58.41C214.23 58.59 214.33 58.77 214.31 58.96L214.3 59.03L214.09 61.32C214.05 61.71 213.84 61.9 213.47 61.9C213.24 61.9 213.1 61.78 213.06 61.54ZM213.71 63.36L208.43 63.74C208.41 63.74 208.38 63.74 208.32 63.74C208 63.74 207.84 63.59 207.84 63.29C207.84 62.96 208.01 62.79 208.34 62.76L213.63 62.38C213.64 62.38 213.67 62.38 213.73 62.38C214.06 62.38 214.23 62.53 214.23 62.84C214.22 63.16 214.05 63.34 213.71 63.36ZM209.61 60.97L209.47 59.43L208.66 59.52L208.81 61.03L209.61 60.97ZM209.58 64.46C209.71 64.46 209.85 64.57 210 64.8C210.35 65.34 210.84 65.81 211.49 66.22C212.14 66.64 212.79 66.84 213.43 66.84C213.55 66.84 213.61 66.79 213.61 66.7C213.61 66.53 213.54 66.29 213.41 65.97C213.38 65.9 213.37 65.84 213.37 65.79C213.37 65.59 213.47 65.49 213.67 65.49C213.82 65.49 214.02 65.68 214.28 66.07C214.61 66.59 214.78 66.99 214.78 67.27C214.78 67.72 214.4 67.95 213.63 67.95C212.43 67.95 211.37 67.54 210.46 66.71C210 66.28 209.61 65.78 209.31 65.21C209.23 65.06 209.19 64.93 209.19 64.83C209.19 64.73 209.23 64.64 209.31 64.57C209.38 64.49 209.48 64.46 209.58 64.46ZM210.53 60.89L211.4 60.81L211.47 59.23L210.42 59.34L210.53 60.89ZM211.1 63.83C211.21 63.83 211.32 63.89 211.42 64.02C211.7 64.38 211.9 64.56 212.03 64.56C212.12 64.56 212.21 64.51 212.3 64.42C212.38 64.35 212.46 64.31 212.55 64.31C212.77 64.31 212.88 64.42 212.88 64.65C212.88 64.86 212.79 65.11 212.6 65.39C212.46 65.6 212.3 65.7 212.11 65.7C211.75 65.7 211.39 65.42 211.04 64.87C210.88 64.61 210.79 64.37 210.79 64.15C210.79 63.93 210.89 63.83 211.1 63.83ZM212.33 60.74L213.12 60.67L213.21 59.36V59.28C213.2 59.15 213.13 59.08 213.02 59.08H212.93L212.45 59.13L212.33 60.74ZM213.68 63.9C213.92 63.9 214.34 64.11 214.95 64.53C215.4 64.85 215.63 65.13 215.63 65.39C215.63 65.52 215.59 65.64 215.52 65.75C215.42 65.89 215.28 65.96 215.09 65.96C214.92 65.96 214.76 65.88 214.61 65.71C214.2 65.26 213.84 64.92 213.53 64.68C213.36 64.56 213.28 64.43 213.28 64.31C213.28 64.23 213.31 64.15 213.38 64.06C213.43 63.95 213.54 63.9 213.68 63.9Z" fill="black"/>
<path d="M218.21 53.39C218.47 53.39 218.89 53.69 219.47 54.3C220.23 55.1 220.87 56.09 221.39 57.27C222.09 58.85 222.44 60.42 222.44 62C222.44 63.61 222.08 65.21 221.35 66.83C220.68 68.3 219.84 69.46 218.81 70.32C218.58 70.51 218.37 70.61 218.19 70.61C218.04 70.61 217.91 70.56 217.82 70.45C217.74 70.35 217.7 70.24 217.7 70.11C217.7 69.98 217.76 69.84 217.89 69.71C217.91 69.69 218.06 69.54 218.34 69.28C218.93 68.72 219.47 67.96 219.95 66.99C220.71 65.48 221.08 63.81 221.08 61.99C221.08 60.05 220.65 58.29 219.79 56.7C219.31 55.81 218.7 55.02 217.95 54.34C217.78 54.19 217.7 54.04 217.7 53.88C217.7 53.77 217.74 53.66 217.81 53.56C217.9 53.45 218.03 53.39 218.21 53.39Z" fill="black"/>
</svg>
