<svg width="356" height="133" viewBox="0 0 356 133" fill="none" xmlns="http://www.w3.org/2000/svg">
<path d="M63.16 3.06001C62.93 3.88001 62.7 4.58001 62.47 5.15001L63.88 5.01001C63.9 5.01001 63.92 5.01001 63.95 5.01001C64.27 5.03001 64.43 5.19 64.43 5.5C64.43 5.79 64.28 5.95001 63.98 5.98001L61.53 6.23001V7.60001L63.61 7.40001C63.64 7.40001 63.66 7.40001 63.68 7.40001C64 7.40001 64.16 7.56 64.16 7.88C64.16 8.17 64.01 8.33 63.71 8.36L61.54 8.56001V9.19C62.18 9.54 62.76 9.89001 63.29 10.23C63.53 10.39 63.66 10.58 63.66 10.78C63.66 10.91 63.62 11.02 63.54 11.13C63.44 11.27 63.31 11.33 63.14 11.33C62.96 11.33 62.75 11.21 62.51 10.98C62.28 10.76 61.96 10.48 61.54 10.14V13.54C61.54 13.66 61.5 13.76 61.42 13.84C61.31 13.95 61.17 14.01 60.99 14.01C60.79 14.01 60.63 13.94 60.53 13.8C60.48 13.73 60.45 13.64 60.45 13.53V10.04C59.84 10.89 59.08 11.7 58.18 12.48C57.93 12.7 57.74 12.81 57.6 12.81C57.49 12.81 57.39 12.77 57.31 12.68C57.23 12.59 57.18 12.49 57.18 12.38C57.18 12.24 57.33 12.03 57.64 11.75C58.59 10.87 59.43 9.85 60.16 8.69L57.93 8.90001C57.92 8.90001 57.9 8.90001 57.86 8.90001C57.54 8.90001 57.38 8.74001 57.38 8.42001C57.38 8.13001 57.53 7.97 57.83 7.94L60.46 7.69V6.32001L57.62 6.61C57.58 6.62 57.55 6.62001 57.53 6.62001C57.36 6.63001 57.22 6.56 57.12 6.41C57.07 6.33 57.05 6.24001 57.05 6.13C57.05 5.83 57.2 5.67 57.51 5.64L59.3 5.46001C59.12 4.74001 58.9 4.09001 58.65 3.51001L58.18 3.56001C58.17 3.56001 58.15 3.56001 58.11 3.56001C57.8 3.56001 57.64 3.4 57.64 3.08C57.64 2.79 57.79 2.63001 58.09 2.60001L60.43 2.36V0.779999C60.43 0.619999 60.49 0.500009 60.61 0.400009C60.72 0.320009 60.85 0.270004 61 0.270004C61.16 0.270004 61.29 0.310009 61.41 0.400009C61.52 0.490009 61.58 0.610004 61.58 0.770004V2.23001L63.53 2.03C63.55 2.03 63.57 2.03 63.59 2.03C63.91 2.03 64.07 2.19001 64.07 2.51001C64.07 2.80001 63.92 2.96001 63.62 2.99001L63.16 3.06001ZM62.06 3.18001L59.66 3.42001C59.99 4.20001 60.2 4.85001 60.3 5.37001L61.47 5.25C61.7 4.63 61.9 3.94001 62.06 3.18001ZM65.91 2.96001C66.96 2.52001 67.95 1.98001 68.89 1.35001C69.2 1.14001 69.43 1.04001 69.59 1.04001C69.76 1.04001 69.89 1.11001 70 1.24001C70.08 1.34001 70.13 1.46001 70.13 1.59001C70.13 1.84001 69.94 2.06 69.57 2.27C68.67 2.77 67.52 3.28001 66.11 3.79001L66.13 4.95001L66.14 5.28V5.58L70.86 5.14C70.89 5.14 70.91 5.13 70.93 5.13C71.29 5.13 71.47 5.30001 71.47 5.65001C71.47 5.96001 71.3 6.13001 70.95 6.17001L69.19 6.32001V13.9C69.19 13.99 69.17 14.08 69.13 14.15C69.03 14.32 68.85 14.41 68.61 14.41C68.23 14.41 68.04 14.24 68.04 13.9V6.42001L66.12 6.58C66.12 6.65 66.12 6.75 66.11 6.86C66.04 9.34 65.53 11.3 64.6 12.73C64.3 13.2 64.04 13.43 63.82 13.43C63.73 13.43 63.65 13.4 63.56 13.34C63.46 13.27 63.41 13.16 63.41 13.03C63.41 12.91 63.5 12.71 63.67 12.43C64.3 11.38 64.69 10.13 64.84 8.67001C64.94 7.73001 64.99 6.56 64.99 5.16C64.99 4.96 64.98 4.77001 64.97 4.57001C64.94 3.96001 64.92 3.61 64.92 3.52C64.92 3.05 65.11 2.82001 65.5 2.82001C65.65 2.81001 65.79 2.86001 65.91 2.96001Z" fill="#727171"/>
<path d="M75.28 8.25V11.5C76.1 11.28 77.01 10.97 78.01 10.55L78.14 10.5C77.85 10.04 77.63 9.70001 77.48 9.48001C77.35 9.31001 77.28 9.16 77.28 9.03C77.28 8.9 77.33 8.80001 77.44 8.71001C77.52 8.64001 77.61 8.61 77.71 8.61C77.85 8.61 78 8.69 78.17 8.86C78.84 9.55 79.45 10.38 80.02 11.35C80.16 11.6 80.23 11.8 80.23 11.95C80.23 12.12 80.15 12.27 80 12.38C79.86 12.48 79.71 12.54 79.56 12.54C79.38 12.54 79.23 12.47 79.11 12.32C79.08 12.28 79.01 12.16 78.91 11.98C78.78 11.72 78.66 11.5 78.57 11.31C77.75 11.75 76.74 12.22 75.55 12.71C75.23 12.84 75.01 12.91 74.87 12.91C74.72 12.91 74.54 12.8 74.32 12.58C74.21 12.47 74.15 12.17 74.15 11.67V3.76001C73.88 3.71001 73.75 3.54 73.75 3.27C73.75 2.99 73.93 2.82 74.29 2.78L76.38 2.51001V0.600006C76.38 0.430006 76.44 0.290002 76.56 0.190002C76.67 0.0900024 76.81 0.0400085 76.96 0.0400085C77.15 0.0400085 77.31 0.120004 77.42 0.270004C77.49 0.360004 77.53 0.480001 77.53 0.610001V2.36L78.83 2.20001C78.93 2.18001 79.02 2.18001 79.1 2.18001C79.71 2.18001 80 2.55001 79.97 3.29001L79.8 7.70001C79.77 8.08001 79.59 8.26001 79.24 8.26001C78.93 8.26001 78.75 8.12001 78.7 7.85001L75.28 8.25ZM75.28 4.90001L78.8 4.48001L78.83 3.53C78.83 3.32 78.75 3.22 78.6 3.22C78.58 3.22 78.56 3.22001 78.52 3.23001L75.27 3.62001V4.90001H75.28ZM75.28 7.29001L78.72 6.85001L78.77 5.45001L75.29 5.86V7.29001H75.28ZM82.52 2.73001V13.91C82.52 14.25 82.33 14.42 81.96 14.42C81.58 14.42 81.39 14.25 81.39 13.91V2.85001L81.33 2.86C81.3 2.86 81.27 2.86 81.24 2.86C80.92 2.84 80.76 2.68001 80.76 2.35001C80.76 2.05001 80.94 1.89001 81.31 1.85001L85.26 1.43001C85.33 1.43001 85.4 1.42001 85.46 1.42001C86.03 1.42001 86.32 1.66001 86.32 2.15001C86.32 2.35001 86.25 2.62001 86.12 2.96001C85.73 3.91001 85.3 4.8 84.82 5.63C86.29 6.88 87.02 8.09 87.02 9.28C87.02 9.64 86.95 9.95001 86.8 10.21C86.55 10.66 86.17 10.89 85.67 10.89C85.1 10.89 84.47 10.72 83.76 10.37C83.49 10.24 83.35 10.08 83.35 9.89C83.35 9.61 83.48 9.48001 83.75 9.48001C83.82 9.48001 83.93 9.5 84.09 9.55C84.48 9.67 84.84 9.73001 85.17 9.73001C85.6 9.73001 85.81 9.48 85.81 8.97C85.81 8.01 85.17 7.02 83.89 6C83.74 5.88 83.66 5.76001 83.66 5.62001C83.66 5.41001 83.77 5.27001 84 5.20001C84.39 4.47001 84.68 3.76 84.9 3.08C84.95 2.92 84.98 2.80001 84.98 2.74001C84.98 2.58001 84.87 2.51001 84.64 2.51001C84.63 2.51001 84.61 2.51 84.57 2.52L82.52 2.73001Z" fill="#727171"/>
<path d="M274.21 3.06001C273.98 3.88001 273.75 4.58001 273.52 5.15001L274.93 5.01001C274.95 5.01001 274.97 5.01001 275 5.01001C275.32 5.03001 275.48 5.19 275.48 5.5C275.48 5.79 275.33 5.95001 275.03 5.98001L272.58 6.23001V7.60001L274.66 7.40001C274.69 7.40001 274.71 7.40001 274.73 7.40001C275.05 7.40001 275.21 7.56 275.21 7.88C275.21 8.17 275.06 8.33 274.76 8.36L272.59 8.56001V9.19C273.23 9.54 273.81 9.89001 274.34 10.23C274.58 10.39 274.71 10.58 274.71 10.78C274.71 10.91 274.67 11.02 274.59 11.13C274.49 11.27 274.36 11.33 274.19 11.33C274.01 11.33 273.8 11.21 273.56 10.98C273.33 10.76 273.01 10.48 272.59 10.14V13.54C272.59 13.66 272.55 13.76 272.47 13.84C272.36 13.95 272.22 14.01 272.04 14.01C271.84 14.01 271.68 13.94 271.58 13.8C271.53 13.73 271.5 13.64 271.5 13.53V10.04C270.89 10.89 270.13 11.7 269.23 12.48C268.98 12.7 268.79 12.81 268.65 12.81C268.54 12.81 268.44 12.77 268.36 12.68C268.28 12.59 268.23 12.49 268.23 12.38C268.23 12.24 268.38 12.03 268.69 11.75C269.64 10.87 270.48 9.85 271.21 8.69L268.98 8.90001C268.97 8.90001 268.95 8.90001 268.91 8.90001C268.59 8.90001 268.43 8.74001 268.43 8.42001C268.43 8.13001 268.58 7.97 268.88 7.94L271.51 7.69V6.32001L268.67 6.61C268.63 6.62 268.6 6.62001 268.58 6.62001C268.41 6.63001 268.27 6.56 268.17 6.41C268.12 6.33 268.1 6.24001 268.1 6.13C268.1 5.83 268.25 5.67 268.56 5.64L270.35 5.46001C270.17 4.74001 269.95 4.09001 269.7 3.51001L269.23 3.56001C269.22 3.56001 269.2 3.56001 269.16 3.56001C268.85 3.56001 268.69 3.4 268.69 3.08C268.69 2.79 268.84 2.63001 269.14 2.60001L271.48 2.36V0.779999C271.48 0.619999 271.54 0.500009 271.66 0.400009C271.77 0.320009 271.9 0.270004 272.05 0.270004C272.21 0.270004 272.34 0.310009 272.46 0.400009C272.57 0.490009 272.63 0.610004 272.63 0.770004V2.23001L274.58 2.03C274.6 2.03 274.62 2.03 274.64 2.03C274.96 2.03 275.12 2.19001 275.12 2.51001C275.12 2.80001 274.97 2.96001 274.67 2.99001L274.21 3.06001ZM273.11 3.18001L270.71 3.42001C271.04 4.20001 271.25 4.85001 271.35 5.37001L272.52 5.25C272.75 4.63 272.95 3.94001 273.11 3.18001ZM276.96 2.96001C278.01 2.52001 279 1.98001 279.94 1.35001C280.25 1.14001 280.48 1.04001 280.64 1.04001C280.81 1.04001 280.94 1.11001 281.05 1.24001C281.13 1.34001 281.18 1.46001 281.18 1.59001C281.18 1.84001 280.99 2.06 280.62 2.27C279.72 2.77 278.57 3.28001 277.16 3.79001L277.18 4.95001L277.19 5.28V5.58L281.91 5.14C281.94 5.14 281.96 5.13 281.98 5.13C282.34 5.13 282.52 5.30001 282.52 5.65001C282.52 5.96001 282.35 6.13001 282 6.17001L280.24 6.32001V13.9C280.24 13.99 280.22 14.08 280.18 14.15C280.08 14.32 279.9 14.41 279.66 14.41C279.28 14.41 279.09 14.24 279.09 13.9V6.42001L277.17 6.58C277.17 6.65 277.17 6.75 277.16 6.86C277.09 9.34 276.58 11.3 275.65 12.73C275.35 13.2 275.09 13.43 274.87 13.43C274.78 13.43 274.7 13.4 274.61 13.34C274.51 13.27 274.46 13.16 274.46 13.03C274.46 12.91 274.55 12.71 274.72 12.43C275.35 11.38 275.74 10.13 275.89 8.67001C275.99 7.73001 276.04 6.56 276.04 5.16C276.04 4.96 276.03 4.77001 276.02 4.57001C275.99 3.96001 275.97 3.61 275.97 3.52C275.97 3.05 276.16 2.82001 276.55 2.82001C276.7 2.81001 276.84 2.86001 276.96 2.96001Z" fill="#727171"/>
<path d="M288.52 4.15001C288.52 3.70001 288.7 3.47 289.07 3.47C289.39 3.47 289.58 3.63001 289.62 3.95001L289.86 3.90001C289.91 3.89001 289.97 3.88 290.04 3.88C290.33 3.88 290.47 4.02001 290.47 4.31001C290.47 4.55001 290.33 4.70001 290.04 4.76001L289.59 4.86C289.51 6.13 289.28 7.35 288.92 8.52C288.75 9.06 288.57 9.53001 288.36 9.93001C289.04 10.49 289.52 10.91 289.8 11.21C289.98 11.4 290.07 11.58 290.07 11.76C290.07 11.89 290.02 12 289.92 12.11C289.81 12.24 289.67 12.3 289.51 12.3C289.33 12.3 289.16 12.21 289.01 12.03C288.69 11.65 288.29 11.25 287.81 10.81C287.24 11.61 286.43 12.38 285.38 13.12C285.09 13.32 284.89 13.42 284.79 13.42C284.68 13.42 284.58 13.37 284.5 13.26C284.43 13.16 284.39 13.07 284.39 12.98C284.39 12.88 284.43 12.78 284.52 12.7C284.56 12.66 284.68 12.57 284.86 12.43C285.74 11.77 286.46 11.01 287.04 10.13C286.78 9.90001 286.32 9.53001 285.66 9.01001C285.26 8.70001 285.07 8.40001 285.07 8.09001C285.07 7.95001 285.1 7.78001 285.16 7.56001C285.32 6.99001 285.46 6.43001 285.58 5.90001L285.63 5.71001L284.52 5.94C284.45 5.96 284.38 5.96001 284.33 5.96001C284.12 5.96001 283.98 5.87001 283.89 5.68001C283.85 5.59001 283.83 5.5 283.83 5.41C283.83 5.13 283.99 4.97 284.31 4.91L285.84 4.63C285.98 3.93 286.15 2.82001 286.36 1.29001C286.42 0.860009 286.61 0.639999 286.92 0.639999C287.3 0.639999 287.48 0.830007 287.48 1.21001C287.48 1.71001 287.32 2.78 286.99 4.41L288.52 4.15001ZM288.49 5.09001L286.78 5.46001C286.57 6.34001 286.38 7.03 286.23 7.53C286.19 7.68 286.17 7.80001 286.17 7.90001C286.17 8.05001 286.23 8.19001 286.34 8.31001C286.38 8.36001 286.52 8.48001 286.77 8.67001C286.81 8.70001 287.06 8.9 287.54 9.27C288.03 8.15 288.35 6.76001 288.49 5.09001ZM291.96 8.28V13.08C292.64 12.77 293.32 12.4 294.01 11.96C294.14 11.88 294.25 11.84 294.35 11.84C294.48 11.84 294.59 11.9 294.68 12.03C294.74 12.11 294.77 12.19 294.77 12.27C294.77 12.41 294.7 12.53 294.55 12.65C293.8 13.28 293.02 13.79 292.18 14.18C291.89 14.32 291.71 14.38 291.63 14.38C291.45 14.38 291.27 14.28 291.08 14.08C290.94 13.93 290.87 13.7 290.87 13.39V3.62001C290.6 3.57001 290.46 3.42001 290.46 3.15001C290.46 2.84001 290.63 2.67 290.96 2.63L292.98 2.39V0.520004C292.98 0.180004 293.16 0 293.53 0C293.89 0 294.08 0.170004 294.08 0.520004V2.25L295.73 2.05C295.79 2.05 295.86 2.04001 295.93 2.04001C296.2 2.04001 296.4 2.11001 296.56 2.26001C296.75 2.44001 296.84 2.67001 296.83 2.96001L296.82 3.07001L296.55 7.74001C296.53 8.07001 296.35 8.24001 296.02 8.24001C295.71 8.24001 295.53 8.1 295.5 7.83L291.96 8.28ZM291.96 4.91L295.68 4.5L295.74 3.37001C295.74 3.19001 295.69 3.10001 295.58 3.10001C295.54 3.10001 295.51 3.10001 295.49 3.10001L291.97 3.51001V4.91H291.96ZM291.96 7.35001L295.55 6.90001L295.63 5.45001L291.97 5.81001V7.35001H291.96ZM294.86 10.05C295.4 9.63 295.99 9.01001 296.65 8.17001C296.83 7.95001 297.01 7.83 297.19 7.83C297.34 7.83 297.48 7.89001 297.6 8.01001C297.74 8.15001 297.81 8.28001 297.81 8.42001C297.81 8.59001 297.69 8.78001 297.45 9.01001C296.83 9.60001 296.17 10.15 295.47 10.66C295.51 10.69 295.54 10.72 295.57 10.75C296.18 11.35 296.89 11.93 297.69 12.47C298.02 12.69 298.27 12.85 298.43 12.94C298.67 13.08 298.8 13.19 298.8 13.28C298.8 13.35 298.73 13.42 298.6 13.48C298.2 13.64 297.83 13.72 297.49 13.72C297.29 13.72 297.11 13.65 296.95 13.51C295.64 12.4 294.45 11.13 293.39 9.70001C293.09 9.29001 292.94 9.02001 292.94 8.88C292.94 8.79 292.98 8.7 293.07 8.61C293.16 8.53 293.25 8.48001 293.35 8.48001C293.48 8.48001 293.58 8.53 293.68 8.63C293.7 8.65001 293.83 8.81 294.06 9.11C294.24 9.36 294.51 9.68 294.86 10.05Z" fill="#727171"/>
<path d="M52.25 31.91L59.14 31.42C59.6 31.46 59.83 31.68 59.83 32.07C59.83 32.48 59.64 32.7 59.25 32.73L45.43 33.69C45.44 34.01 45.44 34.24 45.44 34.37C45.44 39.5 44.94 43.33 43.95 45.85C43.66 46.57 43.41 47.12 43.18 47.48C43.02 47.74 42.83 47.87 42.62 47.87C42.52 47.87 42.41 47.84 42.31 47.79C42.1 47.68 42 47.51 42 47.28C42 47.16 42.07 46.95 42.22 46.64C42.95 45.04 43.44 43.02 43.7 40.59C43.87 38.94 43.96 36.66 43.97 33.77C43.62 33.71 43.45 33.5 43.45 33.13C43.45 32.74 43.69 32.53 44.16 32.49L50.78 32.01V30.41C50.78 30.18 50.85 30.01 51 29.88C51.14 29.76 51.31 29.7 51.51 29.7C51.78 29.7 51.98 29.79 52.13 29.98C52.23 30.1 52.27 30.25 52.27 30.42V31.91H52.25ZM53.24 38.98L53.48 39.17C53.49 39.03 53.64 38.89 53.91 38.74C54.66 38.32 55.29 37.84 55.81 37.29C55.95 37.15 56.09 37.08 56.25 37.08C56.49 37.08 56.68 37.18 56.82 37.39C56.9 37.5 56.94 37.61 56.94 37.73C56.94 37.95 56.78 38.17 56.47 38.39C55.83 38.83 55.14 39.21 54.39 39.54C54.25 39.59 54.16 39.63 54.11 39.64C54.35 39.81 54.65 40.01 55.01 40.22C56.71 41.27 58.46 42.08 60.25 42.67C60.63 42.79 60.81 42.92 60.81 43.06C60.81 43.18 60.7 43.28 60.47 43.37C59.79 43.64 59.27 43.78 58.93 43.78C58.62 43.78 58.01 43.52 57.12 43C55.69 42.17 54.21 41.12 52.68 39.84C51.19 41.31 49.41 42.52 47.33 43.46C46.39 43.88 45.8 44.1 45.55 44.1C45.18 44.1 45 43.91 45 43.53C45 43.36 45.08 43.23 45.25 43.13C45.28 43.11 45.51 43.02 45.94 42.86C47.2 42.4 48.54 41.61 49.94 40.49C50.26 40.24 50.62 39.92 51.03 39.54C50.8 39.4 50.69 39.21 50.69 38.96L50.73 35.79L50.71 35.62C50.67 35.47 50.56 35.39 50.38 35.37L50.13 35.39L47.09 35.77C47.04 35.78 46.99 35.78 46.95 35.78C46.57 35.78 46.39 35.6 46.39 35.23C46.39 34.85 46.59 34.64 46.99 34.59L50.78 34.19H51C51.61 34.22 51.95 34.55 52.04 35.19V35.38L52.01 38.46C52.17 38.29 52.32 38.2 52.47 38.2C52.63 38.2 52.79 38.28 52.97 38.43C53.14 38.58 53.23 38.76 53.24 38.98ZM49.42 35.55C49.59 35.55 49.75 35.63 49.89 35.78C50.01 35.92 50.07 36.06 50.07 36.22C50.07 36.38 49.96 36.55 49.75 36.72C49.09 37.22 48.31 37.69 47.41 38.14C47.18 38.26 47.01 38.31 46.9 38.31C46.75 38.31 46.63 38.25 46.54 38.12C46.46 38.01 46.43 37.91 46.43 37.83C46.43 37.67 46.58 37.5 46.89 37.32C47.64 36.88 48.31 36.36 48.92 35.77C49.08 35.62 49.25 35.55 49.42 35.55ZM49.72 37.55C49.88 37.55 50.04 37.63 50.19 37.8C50.31 37.93 50.36 38.07 50.36 38.23C50.36 38.51 49.88 38.99 48.91 39.66C47.88 40.38 47.24 40.74 46.97 40.74C46.8 40.74 46.67 40.66 46.57 40.49C46.52 40.4 46.5 40.32 46.5 40.23C46.5 40.03 46.66 39.84 46.97 39.67C47.7 39.25 48.44 38.63 49.17 37.83C49.36 37.64 49.54 37.55 49.72 37.55ZM53.18 41.01C53.36 41.01 53.52 41.08 53.66 41.23C53.78 41.35 53.84 41.49 53.84 41.64C53.84 41.95 53.48 42.34 52.77 42.82C51.76 43.5 50.51 44.1 49.04 44.62C48.78 44.71 48.6 44.75 48.51 44.75C48.19 44.75 48.03 44.59 48.03 44.26C48.03 44.08 48.12 43.94 48.29 43.83C48.34 43.8 48.52 43.72 48.8 43.59C49.7 43.23 50.53 42.78 51.31 42.26C51.82 41.93 52.19 41.64 52.42 41.42C52.71 41.14 52.96 41.01 53.18 41.01ZM56.36 44.13C56.54 44.13 56.71 44.21 56.87 44.37C57.01 44.51 57.09 44.68 57.09 44.86C57.09 45.11 56.85 45.4 56.37 45.73C54.61 46.93 52.49 47.85 50.03 48.49C49.43 48.65 49.04 48.73 48.85 48.73C48.49 48.73 48.32 48.56 48.32 48.22C48.32 48.01 48.42 47.86 48.61 47.77C48.66 47.74 48.9 47.67 49.32 47.55C51.51 46.96 53.68 45.89 55.83 44.34C56.01 44.2 56.19 44.13 56.36 44.13ZM54.61 42.5C54.8 42.5 54.98 42.6 55.14 42.8C55.27 42.95 55.33 43.1 55.33 43.24C55.33 43.61 54.58 44.2 53.08 45.01C52.41 45.37 51.62 45.73 50.72 46.07C49.82 46.41 49.22 46.59 48.94 46.59C48.73 46.59 48.57 46.5 48.48 46.33C48.43 46.23 48.4 46.13 48.4 46.04C48.4 45.87 48.48 45.74 48.65 45.65C48.69 45.63 48.88 45.57 49.2 45.47C50.5 45.07 51.77 44.46 53 43.62C53.42 43.33 53.79 43.04 54.11 42.73C54.28 42.58 54.45 42.5 54.61 42.5ZM57.29 35.72V35.49C57.25 35.27 57.12 35.16 56.91 35.14L56.7 35.15L53.49 35.55C53.44 35.55 53.39 35.55 53.35 35.55C52.97 35.53 52.78 35.34 52.78 35C52.78 34.62 52.99 34.42 53.4 34.37L57.47 33.97C57.54 33.96 57.59 33.96 57.63 33.96C58.31 33.96 58.65 34.34 58.65 35.11L58.58 39.56C58.57 40 58.35 40.23 57.92 40.23C57.56 40.23 57.33 40.09 57.22 39.81C57.2 39.74 57.19 39.66 57.19 39.56L57.29 35.72ZM55.72 35.42C55.93 35.42 56.11 35.51 56.26 35.69C56.36 35.81 56.4 35.92 56.4 36.03C56.4 36.3 56 36.66 55.19 37.11C54.4 37.55 53.84 37.78 53.49 37.78C53.15 37.78 52.98 37.61 52.98 37.28C52.98 37.1 53.14 36.94 53.47 36.8C54.18 36.49 54.8 36.09 55.32 35.6C55.43 35.47 55.56 35.42 55.72 35.42Z" fill="black"/>
<path d="M78.93 35.79C79.24 35.82 79.39 36 79.39 36.31C79.39 36.64 79.24 36.82 78.93 36.83L67 37.45C66.99 37.45 66.97 37.45 66.96 37.45C66.67 37.45 66.52 37.28 66.52 36.93C66.52 36.6 66.68 36.42 67 36.4L69.91 36.26L69.82 35.15L67.09 35.31C66.76 35.33 66.6 35.16 66.6 34.79C66.6 34.46 66.76 34.29 67.09 34.27L69.73 34.11L69.64 33.07L66.04 33.26C66.04 38.34 65.75 42.02 65.18 44.31C64.88 45.51 64.5 46.57 64.03 47.5C63.88 47.8 63.68 47.95 63.43 47.95C63.33 47.95 63.23 47.92 63.13 47.87C62.92 47.75 62.82 47.57 62.82 47.33C62.82 47.24 62.88 47.05 63.01 46.77C63.6 45.42 64.03 43.6 64.29 41.31C64.49 39.55 64.59 36.87 64.59 33.28C64.32 33.19 64.19 33 64.19 32.71C64.19 32.33 64.42 32.13 64.89 32.11L71.69 31.74V30.23C71.69 29.76 71.93 29.52 72.41 29.52C72.68 29.52 72.88 29.61 73.03 29.8C73.12 29.92 73.16 30.06 73.16 30.23V31.66L80.07 31.29C80.19 31.29 80.29 31.31 80.37 31.35C80.61 31.46 80.73 31.64 80.73 31.89C80.73 32.15 80.62 32.34 80.41 32.45C80.34 32.49 80.26 32.51 80.17 32.52L75.32 32.77L75.26 33.75L78.28 33.57C78.97 33.53 79.32 33.79 79.32 34.36C79.32 34.49 79.29 34.65 79.23 34.85L78.93 35.79ZM72.57 39.01C73.07 39.38 73.38 39.56 73.51 39.56C73.62 39.56 73.74 39.49 73.87 39.34C73.97 39.24 74.06 39.2 74.16 39.2C74.38 39.2 74.49 39.32 74.49 39.56C74.49 39.83 74.4 40.09 74.23 40.34C74.08 40.56 73.87 40.67 73.61 40.67C73.21 40.67 72.79 40.43 72.34 39.96C71.97 39.58 71.79 39.3 71.79 39.14C71.79 39.11 71.8 39.08 71.81 39.05L66.71 39.32C66.61 39.33 66.53 39.31 66.44 39.28C66.23 39.18 66.13 39.01 66.13 38.75C66.13 38.44 66.32 38.28 66.7 38.26L79.91 37.56C79.92 37.56 79.96 37.56 80.02 37.56C80.69 37.56 81.02 37.77 81.02 38.18C81.02 38.49 80.75 38.95 80.21 39.55C79.75 40.06 79.42 40.32 79.22 40.32C79.14 40.32 79.05 40.29 78.92 40.22C78.81 40.16 78.76 40.07 78.76 39.94C78.76 39.85 78.79 39.73 78.85 39.58C78.99 39.23 79.07 39 79.07 38.89C79.07 38.75 78.97 38.68 78.77 38.7L72.57 39.01ZM74.41 45.89C76.38 46.67 78.36 47.22 80.36 47.55C80.83 47.63 81.07 47.74 81.07 47.91C81.07 48.03 80.95 48.13 80.7 48.22C79.85 48.53 79.2 48.68 78.77 48.68C78.3 48.68 77.31 48.39 75.81 47.81C75.02 47.5 74.16 47.12 73.23 46.67C71.89 47.46 70.43 48.09 68.84 48.56C68.46 48.67 68.21 48.72 68.09 48.72C67.71 48.72 67.53 48.54 67.53 48.19C67.53 48.02 67.63 47.88 67.82 47.77C67.9 47.72 68.11 47.65 68.45 47.55C69.58 47.23 70.77 46.71 72 45.98C71.39 45.62 70.78 45.19 70.16 44.71C69.39 45.24 68.56 45.7 67.67 46.11C67.29 46.29 67.02 46.38 66.86 46.38C66.55 46.38 66.4 46.2 66.4 45.83C66.4 45.67 66.5 45.53 66.7 45.41C66.75 45.38 66.91 45.3 67.17 45.16C68.35 44.58 69.35 43.89 70.17 43.08C70.35 42.91 70.51 42.73 70.65 42.56C70.86 42.3 71.06 42.17 71.28 42.17C71.44 42.17 71.58 42.23 71.72 42.34C71.88 42.48 71.97 42.63 71.97 42.81C71.97 42.85 71.96 42.91 71.95 42.97L75.71 42.84C75.76 42.84 75.81 42.84 75.84 42.84C76.61 42.84 77 43.03 77 43.42C76.99 43.87 76.13 44.69 74.41 45.89ZM68.37 39.61C68.73 39.61 68.91 39.82 68.91 40.24C68.91 40.8 68.76 41.41 68.47 42.05C68.22 42.6 67.93 42.87 67.59 42.87C67.47 42.87 67.36 42.84 67.25 42.78C67.02 42.66 66.91 42.46 66.91 42.2C66.91 42.06 66.97 41.9 67.1 41.7C67.48 41.11 67.72 40.57 67.83 40.1C67.92 39.77 68.09 39.61 68.37 39.61ZM69.95 39.51C70.12 39.51 70.31 39.61 70.51 39.81C71.49 40.75 72.88 41.21 74.68 41.21C75.08 41.21 75.27 41.14 75.27 41C75.27 40.9 75.18 40.71 75.01 40.45C74.93 40.33 74.9 40.24 74.9 40.16C74.9 39.95 75.02 39.84 75.26 39.84C75.42 39.84 75.72 40.03 76.15 40.42C76.66 40.89 76.92 41.26 76.92 41.54C76.92 42.06 76.25 42.32 74.91 42.32C72.88 42.32 71.25 41.8 70.02 40.77C69.64 40.45 69.45 40.19 69.45 39.98C69.45 39.85 69.49 39.74 69.58 39.65C69.7 39.56 69.82 39.51 69.95 39.51ZM73.09 45.31C73.66 44.96 74.12 44.62 74.46 44.29C74.61 44.15 74.69 44.04 74.69 43.98C74.69 43.88 74.59 43.84 74.4 43.86L74.31 43.87L71.13 43.94C71.08 43.99 71.02 44.04 70.98 44.07C71.59 44.53 72.29 44.94 73.09 45.31ZM71.08 34.01L73.89 33.83L73.95 32.84L71 32.99L71.08 34.01ZM73.78 36.04L73.84 34.89L71.16 35.05L71.25 36.17L73.78 36.04ZM77.63 35.85L77.77 35.18C77.78 35.11 77.79 35.05 77.79 35C77.79 34.74 77.67 34.63 77.43 34.67L77.39 34.68L75.19 34.81L75.12 35.98L77.63 35.85ZM76.65 39.09C77.03 39.09 77.63 39.47 78.46 40.23C79.09 40.8 79.4 41.26 79.4 41.59C79.4 41.75 79.34 41.9 79.22 42.03C79.06 42.2 78.87 42.29 78.66 42.29C78.39 42.29 78.15 42.12 77.94 41.77C77.45 41 76.96 40.38 76.45 39.92C76.28 39.77 76.19 39.63 76.19 39.51C76.19 39.41 76.24 39.31 76.33 39.22C76.43 39.13 76.53 39.09 76.65 39.09Z" fill="black"/>
<path d="M91.49 40.35L93.97 40.11C94.27 40.08 94.49 40.17 94.64 40.38C94.72 40.5 94.76 40.65 94.76 40.82C94.76 41.24 94.55 41.46 94.13 41.5L91.48 41.74V44.99C92.49 44.78 93.59 44.53 94.78 44.21C94.92 44.18 95.04 44.16 95.15 44.16C95.57 44.16 95.78 44.39 95.78 44.86C95.78 45.14 95.57 45.34 95.16 45.45C92.54 46.2 89.65 46.87 86.47 47.44C85.66 47.58 85.19 47.66 85.08 47.66C84.54 47.66 84.27 47.39 84.27 46.85C84.27 46.47 84.47 46.22 84.86 46.09C84.96 46.06 85.26 46.02 85.77 45.96C85.88 45.95 86.09 45.92 86.4 45.89V40.13C86.4 39.91 86.48 39.74 86.64 39.61C86.78 39.49 86.95 39.44 87.15 39.44C87.41 39.44 87.61 39.53 87.77 39.72C87.87 39.84 87.91 39.98 87.91 40.14V45.68C88.44 45.6 89.12 45.48 89.97 45.32V38.04C89.97 37.83 90.05 37.66 90.21 37.53C90.35 37.41 90.52 37.36 90.72 37.36C90.98 37.36 91.18 37.45 91.34 37.63C91.44 37.75 91.48 37.89 91.48 38.05V40.35H91.49ZM96.34 36.36C96.65 38.01 97.02 39.46 97.45 40.69C98.12 42.61 99.02 44.2 100.15 45.47C100.44 45.8 100.66 45.96 100.8 45.96C101.07 45.96 101.29 45.05 101.46 43.24C101.5 42.82 101.68 42.61 102 42.61C102.4 42.61 102.59 42.86 102.59 43.36C102.59 44.3 102.52 45.29 102.37 46.32C102.21 47.52 101.79 48.11 101.12 48.11C100.62 48.11 100.05 47.79 99.4 47.15C97.98 45.74 96.79 43.58 95.84 40.67C95.38 39.26 95.04 37.86 94.81 36.46L85.17 37.09C84.65 37.12 84.39 36.89 84.39 36.39C84.39 35.95 84.6 35.71 85.02 35.68L94.59 35.05C94.5 34.45 94.43 33.83 94.36 33.19C94.24 31.82 94.18 30.94 94.18 30.55C94.18 30.02 94.45 29.76 95 29.76C95.4 29.76 95.65 29.95 95.75 30.32C95.77 30.41 95.78 30.71 95.79 31.23C95.8 32.18 95.9 33.41 96.11 34.93L100.81 34.62C101.32 34.62 101.58 34.86 101.58 35.33C101.58 35.77 101.37 36.01 100.95 36.04L96.34 36.36ZM92.31 33.1L86.88 33.42C86.83 33.42 86.8 33.42 86.79 33.42C86.48 33.42 86.28 33.28 86.17 33C86.14 32.91 86.12 32.81 86.12 32.7C86.12 32.26 86.32 32.03 86.72 32L92.16 31.69H92.2C92.21 31.69 92.22 31.69 92.24 31.69C92.53 31.7 92.73 31.82 92.84 32.07C92.89 32.17 92.91 32.28 92.91 32.4C92.92 32.84 92.72 33.07 92.31 33.1ZM97.87 30.47C98.08 30.47 98.33 30.58 98.63 30.79C99.49 31.4 100.12 31.9 100.52 32.3C100.77 32.56 100.9 32.81 100.9 33.06C100.9 33.23 100.84 33.38 100.72 33.52C100.56 33.7 100.35 33.79 100.12 33.79C99.86 33.79 99.6 33.62 99.33 33.27C98.97 32.79 98.41 32.22 97.65 31.55C97.47 31.39 97.37 31.22 97.37 31.03C97.36 30.66 97.53 30.47 97.87 30.47Z" fill="black"/>
<path d="M266.75 44.54L257.82 45.06C257.74 45.44 257.5 45.63 257.09 45.63C256.64 45.63 256.39 45.4 256.35 44.95L255.81 38.78C255.81 38.75 255.81 38.72 255.81 38.68C255.82 38.48 255.89 38.32 256.02 38.2C256.16 38.06 256.35 37.98 256.56 37.98C256.84 37.98 257.06 38.09 257.21 38.32L261.51 38.06V36.63L253.81 37.01C253.79 37.01 253.77 37.01 253.76 37.01C253.57 37.01 253.41 36.94 253.28 36.79C253.17 36.67 253.12 36.53 253.12 36.37C253.12 35.97 253.31 35.77 253.68 35.74L258.81 35.48L258.63 33.61L255.81 33.78C255.76 33.78 255.73 33.78 255.73 33.78C255.57 33.78 255.44 33.72 255.32 33.61C255.2 33.49 255.15 33.35 255.15 33.17C255.15 32.79 255.33 32.59 255.69 32.57L258.52 32.41L258.36 30.75C258.33 30.48 258.42 30.26 258.62 30.11C258.76 30 258.93 29.95 259.13 29.95C259.62 29.95 259.88 30.18 259.92 30.64L260.03 32.32L264.28 32.06L264.4 30.21C264.43 29.75 264.68 29.52 265.17 29.52C265.39 29.52 265.58 29.6 265.74 29.75C265.9 29.9 265.97 30.09 265.95 30.32L265.8 31.97L268.52 31.81C268.62 31.81 268.71 31.82 268.78 31.85C269.06 31.95 269.2 32.14 269.2 32.42C269.2 32.8 269.02 33 268.65 33.02L265.7 33.19L265.53 35.14L270.8 34.88C270.94 34.88 271.05 34.9 271.14 34.94C271.38 35.06 271.5 35.25 271.5 35.51C271.5 35.91 271.31 36.11 270.94 36.14L262.97 36.53V37.95L267.26 37.7C267.33 37.69 267.38 37.69 267.42 37.69C268.35 37.69 268.81 38.09 268.81 38.9C268.81 38.97 268.8 39.07 268.79 39.21L268.22 44.52C268.17 44.97 267.93 45.2 267.49 45.2C266.99 45.24 266.76 45.01 266.75 44.54ZM259.47 45.31C259.72 45.31 259.91 45.41 260.05 45.61C260.14 45.74 260.19 45.88 260.19 46.04C260.19 46.31 260.05 46.54 259.76 46.71C258.67 47.35 257.26 47.93 255.52 48.45C255.06 48.59 254.75 48.66 254.61 48.66C254.24 48.66 254.06 48.48 254.06 48.12C254.06 47.91 254.15 47.75 254.34 47.64C254.39 47.61 254.54 47.56 254.79 47.48C256.14 47.04 257.49 46.39 258.85 45.53C259.07 45.38 259.28 45.31 259.47 45.31ZM261.5 40.8V39.23L257.39 39.46L257.51 41.02L261.5 40.8ZM261.5 43.69V41.93L257.6 42.15L257.74 43.92L261.5 43.69ZM264.18 33.32L260.09 33.57L260.22 35.46L264.04 35.27L264.18 33.32ZM267.14 40.49L267.23 39.49C267.24 39.45 267.24 39.42 267.24 39.4C267.25 39.25 267.19 39.13 267.07 39.04C266.98 38.98 266.87 38.95 266.75 38.96H266.71L262.93 39.17V40.73L267.14 40.49ZM266.85 43.38L267.02 41.63L262.92 41.86V43.61L266.85 43.38ZM264.97 45.06C265.12 45.06 265.36 45.12 265.7 45.24C267.11 45.77 268.42 46.42 269.64 47.19C269.97 47.41 270.14 47.66 270.14 47.94C270.14 48.08 270.1 48.22 270.01 48.36C269.85 48.6 269.63 48.72 269.35 48.72C269.15 48.72 268.88 48.59 268.54 48.34C267.19 47.36 265.98 46.62 264.91 46.13C264.63 46 264.49 45.82 264.49 45.59C264.49 45.23 264.65 45.06 264.97 45.06Z" fill="black"/>
<path d="M278.57 35.12C278.57 34.5 278.79 34.19 279.24 34.19C279.67 34.19 279.9 34.42 279.92 34.88L280.06 34.85C280.17 34.83 280.25 34.82 280.32 34.82C280.64 34.82 280.8 35 280.8 35.36C280.8 35.67 280.63 35.86 280.28 35.93L279.85 36.03C279.63 39.05 279.21 41.23 278.6 42.56C279.21 43.07 279.69 43.5 280.04 43.87C280.26 44.1 280.37 44.32 280.37 44.53C280.37 44.71 280.3 44.87 280.15 45.02C280.02 45.17 279.87 45.25 279.7 45.25C279.47 45.25 279.19 45.07 278.86 44.7C278.59 44.41 278.3 44.1 277.97 43.79C277.15 45.14 276.15 46.26 274.97 47.17C274.77 47.33 274.6 47.41 274.46 47.41C274.3 47.41 274.17 47.33 274.07 47.18C274 47.07 273.97 46.96 273.97 46.86C273.97 46.69 274.14 46.44 274.49 46.11C275.49 45.17 276.32 44.09 276.99 42.87C276.48 42.42 275.99 42.02 275.52 41.67C275.02 41.29 274.77 40.89 274.77 40.48C274.77 40.3 274.86 39.88 275.03 39.22C275.19 38.62 275.34 37.88 275.5 37.01L274.3 37.28C274.22 37.3 274.15 37.31 274.08 37.31C273.86 37.31 273.7 37.21 273.59 37.02C273.51 36.88 273.48 36.73 273.48 36.58C273.48 36.25 273.68 36.05 274.07 35.99L275.72 35.67C275.95 34.04 276.12 32.57 276.21 31.26C276.24 30.78 276.48 30.54 276.91 30.54C277.35 30.54 277.58 30.77 277.58 31.23C277.58 31.63 277.46 32.73 277.22 34.53C277.19 34.83 277.14 35.12 277.1 35.41L278.57 35.12ZM278.53 36.33L276.86 36.7C276.63 37.96 276.41 38.97 276.2 39.74C276.15 39.94 276.12 40.1 276.12 40.23C276.12 40.43 276.19 40.61 276.34 40.76C276.38 40.8 276.53 40.92 276.79 41.12L277.21 41.46L277.54 41.73C277.71 41.35 277.87 40.86 278.01 40.26C278.3 39.04 278.47 37.73 278.53 36.33ZM283.69 37.22L285.06 37.07C285.12 37.06 285.2 37.06 285.29 37.06C285.88 37.06 286.17 37.37 286.17 37.98C286.17 38.55 286.04 39.34 285.77 40.35C284.98 43.34 283.42 45.76 281.1 47.59C280.87 47.77 280.67 47.87 280.52 47.87C280.38 47.87 280.26 47.81 280.15 47.7C280.05 47.59 280.01 47.47 280.01 47.34C280.01 47.19 280.06 47.05 280.16 46.93C280.19 46.9 280.37 46.73 280.7 46.43C281.82 45.38 282.75 44.12 283.48 42.65C283.42 42.66 283.37 42.67 283.33 42.67C283.15 42.67 282.99 42.55 282.83 42.31C282.52 41.84 282.19 41.43 281.87 41.1C281.26 42 280.81 42.44 280.52 42.44C280.44 42.44 280.36 42.41 280.25 42.35C280.12 42.27 280.05 42.14 280.05 41.98C280.05 41.85 280.16 41.63 280.39 41.32C280.94 40.57 281.46 39.59 281.93 38.39C282.1 37.97 282.24 37.56 282.36 37.14C282.46 36.77 282.66 36.59 282.95 36.59C283.44 36.58 283.69 36.79 283.69 37.22ZM287.05 33.09L291.16 32.68C291.3 32.67 291.44 32.66 291.6 32.66C292.23 32.66 292.54 32.88 292.54 33.31C292.54 33.91 292.17 34.71 291.43 35.7C291.18 36.04 290.94 36.21 290.73 36.21C290.44 36.21 290.3 36.06 290.3 35.77C290.3 35.65 290.34 35.5 290.41 35.32C290.64 34.73 290.76 34.35 290.76 34.18C290.76 34.06 290.65 34.01 290.44 34.03L282.33 34.88C282.34 35.13 282.34 35.34 282.34 35.52C282.34 36.11 282.32 36.49 282.28 36.65C282.18 37.01 281.96 37.18 281.6 37.18C281.12 37.18 280.88 36.95 280.88 36.5C280.88 36.42 280.89 36.28 280.92 36.08C281.06 35.2 281.13 34.58 281.13 34.2L281.12 33.67C281.12 33.3 281.32 33.12 281.71 33.12C281.94 33.12 282.09 33.27 282.18 33.58L285.54 33.24V30.69C285.54 30.23 285.79 30 286.29 30C286.55 30 286.75 30.09 286.88 30.27C286.98 30.39 287.02 30.53 287.02 30.69V33.09H287.05ZM283.27 38.52C283.02 39.11 282.71 39.71 282.36 40.29C283.19 40.8 283.71 41.25 283.92 41.66C284.24 40.83 284.49 40.04 284.67 39.3C284.76 38.9 284.81 38.67 284.81 38.6C284.81 38.43 284.72 38.35 284.54 38.37L283.27 38.52ZM288.27 38.6V45.73C288.27 46.07 288.41 46.27 288.69 46.33C288.82 46.36 289.11 46.38 289.55 46.38C290.7 46.38 291.36 46.25 291.53 46C291.67 45.79 291.75 45.2 291.76 44.23C291.76 43.87 291.91 43.69 292.2 43.69C292.49 43.69 292.66 43.88 292.71 44.26C292.87 45.33 292.96 45.99 292.96 46.23C292.96 46.83 292.75 47.22 292.33 47.41C291.84 47.64 290.85 47.75 289.37 47.75C288.32 47.75 287.64 47.63 287.35 47.39C287.06 47.15 286.91 46.69 286.91 46.02V38.69C286.63 38.59 286.49 38.39 286.49 38.11C286.49 37.66 286.72 37.41 287.17 37.36L290.48 37C290.6 36.99 290.72 36.98 290.84 36.98C291.18 36.98 291.42 37.07 291.57 37.26C291.7 37.43 291.77 37.84 291.77 38.48C291.77 40.05 291.66 41.32 291.45 42.29C291.36 42.71 291.24 43.02 291.08 43.2C290.92 43.39 290.67 43.49 290.34 43.49C289.97 43.49 289.56 43.35 289.1 43.06C288.84 42.9 288.71 42.72 288.71 42.54C288.71 42.26 288.85 42.12 289.14 42.12C289.2 42.12 289.28 42.13 289.38 42.16C289.55 42.21 289.69 42.23 289.79 42.23C290.03 42.23 290.18 42.1 290.23 41.83C290.42 40.96 290.51 39.94 290.51 38.75C290.51 38.5 290.42 38.38 290.23 38.39C290.2 38.39 290.16 38.39 290.11 38.4L288.27 38.6Z" fill="black"/>
<path d="M299.53 43.21L296.8 43.55V43.66C296.8 43.77 296.77 43.87 296.72 43.97C296.6 44.19 296.4 44.3 296.12 44.3C295.88 44.3 295.7 44.21 295.57 44.03C295.49 43.93 295.46 43.8 295.46 43.66V32.98C295.46 32.77 295.53 32.61 295.67 32.5C295.8 32.4 295.95 32.35 296.12 32.35C296.41 32.35 296.62 32.47 296.75 32.72L299.41 32.35C299.51 32.34 299.62 32.33 299.74 32.33C300.5 32.33 300.88 32.79 300.88 33.71V43.67C300.88 43.78 300.85 43.88 300.8 43.98C300.68 44.2 300.49 44.31 300.21 44.31C299.97 44.31 299.79 44.22 299.66 44.04C299.58 43.94 299.55 43.81 299.55 43.67V43.21H299.53ZM299.53 37.05V34.11C299.53 33.82 299.39 33.66 299.11 33.65C299.08 33.65 299.05 33.65 299.03 33.65L296.81 33.96V37.38L299.53 37.05ZM299.53 38.28L296.8 38.62V42.29L299.53 41.97V38.28ZM307.91 32.34L312.24 32C312.28 32 312.36 32 312.48 32C313.17 32 313.52 32.26 313.52 32.77C313.52 33.21 313.25 33.98 312.7 35.08C312.38 35.73 312.1 36.05 311.86 36.05C311.79 36.05 311.72 36.03 311.63 36C311.43 35.91 311.33 35.75 311.33 35.53C311.33 35.44 311.36 35.31 311.42 35.14C311.71 34.36 311.85 33.82 311.85 33.53C311.85 33.35 311.76 33.26 311.57 33.26C311.56 33.26 311.54 33.26 311.53 33.26L303.14 33.92C303.15 34 303.15 34.06 303.16 34.1C303.17 34.32 303.18 34.53 303.18 34.75C303.18 36.06 302.88 36.72 302.27 36.72C301.8 36.72 301.56 36.47 301.56 35.96C301.56 35.84 301.6 35.64 301.67 35.38C301.85 34.77 301.94 33.94 301.95 32.88C301.95 32.48 302.14 32.29 302.52 32.29C302.77 32.29 302.94 32.43 303.03 32.72L306.43 32.45V30.48C306.43 30.25 306.51 30.08 306.67 29.96C306.81 29.84 306.98 29.79 307.16 29.79C307.41 29.79 307.6 29.88 307.75 30.06C307.85 30.18 307.89 30.32 307.89 30.49V32.34H307.91ZM313 47.51L302.27 47.95H302.23C302.1 47.95 301.98 47.91 301.87 47.84C301.67 47.71 301.57 47.52 301.57 47.28C301.57 46.86 301.77 46.65 302.15 46.63L312.89 46.15C313.1 46.14 313.27 46.21 313.4 46.38C313.52 46.52 313.57 46.68 313.57 46.85C313.57 47.07 313.49 47.25 313.33 47.38C313.25 47.46 313.13 47.5 313 47.51ZM309.83 44.55L304.92 44.88C304.85 45.22 304.61 45.39 304.19 45.39C303.8 45.39 303.59 45.17 303.57 44.73L303.25 38.38C303.24 37.9 303.48 37.66 303.98 37.66C304.29 37.66 304.5 37.79 304.61 38.05L310.09 37.58C310.19 37.57 310.27 37.57 310.31 37.57C311.07 37.57 311.43 37.95 311.4 38.7L311.39 38.82L311.16 44.7C311.13 45.16 310.91 45.4 310.49 45.4C310.02 45.4 309.8 45.17 309.81 44.7V44.55H309.83ZM310.05 36.1L304.4 36.58C304.39 36.58 304.37 36.58 304.34 36.58C304.19 36.58 304.07 36.53 303.98 36.43C303.87 36.3 303.82 36.14 303.82 35.96C303.82 35.57 304 35.36 304.36 35.32L310.01 34.84C310.41 34.81 310.6 35.02 310.6 35.48C310.61 35.86 310.42 36.07 310.05 36.1ZM309.94 40.44L309.97 39.27C309.98 39 309.84 38.87 309.56 38.87C309.52 38.87 309.5 38.87 309.49 38.87L304.72 39.28L304.78 40.85L309.94 40.44ZM309.87 43.33L309.91 41.61L304.82 42.01L304.89 43.66L309.87 43.33Z" fill="black"/>
<path d="M48.1 93.2C47.48 94.51 46.6 95.55 45.47 96.33C44.7 96.86 43.89 97.26 43.06 97.53C42.92 97.58 42.8 97.6 42.71 97.6C42.45 97.6 42.32 97.47 42.32 97.2C42.32 97.05 42.39 96.93 42.53 96.84C42.58 96.81 42.71 96.75 42.93 96.66C44.11 96.18 45.11 95.44 45.95 94.46C46.25 94.12 46.51 93.73 46.75 93.29L42.83 93.56L42.8 93.57C42.67 93.59 42.55 93.53 42.45 93.41C42.37 93.31 42.32 93.2 42.32 93.07C42.32 92.76 42.47 92.59 42.77 92.58L47.22 92.28C47.35 91.93 47.45 91.58 47.51 91.26C47.58 90.88 47.78 90.69 48.1 90.69C48.19 90.69 48.27 90.7 48.35 90.73C48.61 90.82 48.74 91 48.74 91.28C48.74 91.44 48.66 91.74 48.51 92.19L52.55 91.92C52.59 91.92 52.65 91.91 52.73 91.91C53.39 91.91 53.71 92.23 53.71 92.86C53.71 93.27 53.58 93.86 53.33 94.64C52.98 95.71 52.57 96.53 52.11 97.11C51.77 97.53 51.37 97.74 50.9 97.74C50.46 97.74 49.88 97.61 49.17 97.36C48.78 97.22 48.47 97.1 48.25 96.99C48.06 96.89 47.96 96.77 47.96 96.61C47.96 96.33 48.1 96.2 48.37 96.2C48.46 96.2 48.59 96.23 48.77 96.28C49.38 96.46 49.94 96.55 50.45 96.55C50.84 96.55 51.13 96.4 51.35 96.11C51.81 95.47 52.15 94.7 52.37 93.77C52.43 93.5 52.46 93.31 52.46 93.2C52.46 93.01 52.35 92.91 52.14 92.91C52.11 92.91 52.07 92.91 52.03 92.92L48.1 93.2ZM51.73 90.35L44.75 90.78C44.7 91.1 44.52 91.26 44.19 91.26C43.85 91.26 43.66 91.09 43.64 90.74L43.23 85.4L43.22 85.33C43.22 85.16 43.28 85.03 43.4 84.92C43.51 84.82 43.64 84.77 43.79 84.77C44.03 84.77 44.2 84.87 44.31 85.07L52.11 84.54C52.14 84.54 52.21 84.54 52.31 84.54C53 84.54 53.34 84.87 53.34 85.52C53.34 85.58 53.34 85.64 53.33 85.7L52.85 90.5C52.82 90.84 52.63 91.02 52.3 91.02C52.02 91.02 51.85 90.9 51.77 90.67C51.74 90.58 51.73 90.49 51.74 90.41L51.73 90.35ZM47.63 87.23V85.79L44.41 85.99L44.52 87.42L47.63 87.23ZM47.63 88.14L44.58 88.34L44.69 89.86L47.63 89.68V88.14ZM48.74 87.16L52.01 86.96L52.1 85.89C52.1 85.63 52 85.51 51.78 85.54H51.75L48.74 85.73V87.16ZM48.74 89.61L51.8 89.42L51.93 87.87L48.73 88.07V89.61H48.74Z" fill="#727171"/>
<path d="M63.89 87.73C64.18 87.79 64.32 88 64.32 88.34C64.32 88.6 64.24 89.04 64.07 89.68L67.57 89.83C67.96 89.85 68.25 89.93 68.45 90.06C68.69 90.23 68.81 90.53 68.81 90.96C68.81 91.69 68.64 92.7 68.31 93.98C67.94 95.4 67.52 96.45 67.04 97.13C66.75 97.55 66.38 97.76 65.95 97.76C65.61 97.76 65.12 97.61 64.49 97.31C64.01 97.08 63.6 96.85 63.25 96.63C63.06 96.51 62.96 96.38 62.96 96.22C62.96 96.14 62.98 96.06 63.03 95.99C63.11 95.87 63.23 95.81 63.38 95.81C63.51 95.81 63.69 95.86 63.91 95.97C64.6 96.3 65.13 96.46 65.5 96.46C65.8 96.46 66.05 96.3 66.26 95.99C66.64 95.4 66.98 94.44 67.29 93.12C67.48 92.29 67.58 91.69 67.58 91.32C67.58 91.02 67.41 90.86 67.06 90.84L63.93 90.7C63.88 90.7 63.83 90.69 63.78 90.68C63.18 92.63 62.18 94.28 60.8 95.63C59.97 96.45 59.41 96.86 59.14 96.86C59.02 96.86 58.91 96.81 58.82 96.7C58.75 96.61 58.72 96.52 58.72 96.43C58.72 96.31 58.78 96.18 58.91 96.05C58.94 96.02 59.07 95.9 59.3 95.7C60.41 94.71 61.32 93.46 62.02 91.96C62.53 90.87 62.89 89.67 63.09 88.34C63.13 88.04 63.25 87.85 63.46 87.77L58.45 88.05C58.43 88.05 58.42 88.05 58.42 88.05C58.31 88.05 58.21 88.01 58.13 87.94C58.01 87.84 57.95 87.7 57.95 87.51C57.95 87.16 58.12 86.98 58.45 86.96L63.55 86.67V84.76C63.55 84.58 63.61 84.44 63.72 84.33C63.84 84.22 63.99 84.17 64.17 84.17C64.4 84.17 64.57 84.25 64.69 84.41C64.76 84.51 64.8 84.63 64.8 84.76V86.6L70.16 86.3C70.3 86.3 70.4 86.33 70.49 86.4C70.62 86.51 70.68 86.66 70.68 86.85C70.68 87.19 70.51 87.37 70.16 87.39L63.89 87.73Z" fill="#727171"/>
<path d="M80.78 85.84L85.95 85.52C85.98 85.52 86.01 85.52 86.05 85.52C86.53 85.52 86.78 85.69 86.78 86.04C86.78 86.3 86.54 86.8 86.06 87.54C85.67 88.15 85.36 88.46 85.14 88.46C85.08 88.46 85 88.43 84.91 88.37C84.82 88.31 84.77 88.24 84.77 88.14C84.77 88.06 84.81 87.95 84.89 87.8C85.17 87.24 85.3 86.87 85.3 86.68C85.3 86.57 85.23 86.51 85.1 86.51C85.08 86.51 85.07 86.51 85.05 86.51L75.21 87.11C75.2 88.59 74.92 89.33 74.37 89.33C74.3 89.33 74.22 89.31 74.14 89.28C73.91 89.2 73.79 89.02 73.79 88.75C73.79 88.65 73.83 88.49 73.92 88.27C74.13 87.74 74.26 87.06 74.31 86.22C74.33 85.92 74.48 85.77 74.75 85.77C74.96 85.77 75.09 85.91 75.14 86.18L79.61 85.91V84.34C79.61 83.99 79.81 83.81 80.2 83.81C80.4 83.81 80.56 83.88 80.68 84.01C80.76 84.1 80.8 84.21 80.8 84.34V85.84H80.78ZM81.47 93.41C81.51 93.97 81.53 94.42 81.53 94.75C81.53 96.97 81.05 98.08 80.1 98.08C79.6 98.08 78.95 97.89 78.15 97.51C77.83 97.36 77.67 97.19 77.67 97.02C77.67 96.96 77.69 96.91 77.72 96.86C77.81 96.72 77.92 96.66 78.05 96.66C78.12 96.66 78.25 96.69 78.42 96.75C78.89 96.91 79.29 96.99 79.62 96.99C79.94 96.99 80.15 96.86 80.23 96.61C80.37 96.18 80.44 95.49 80.44 94.52C80.44 94.31 80.43 94.06 80.42 93.76C79.04 94.99 77.5 95.95 75.79 96.65C75.09 96.94 74.64 97.08 74.43 97.08C74.15 97.08 74.02 96.94 74.02 96.65C74.02 96.51 74.08 96.4 74.22 96.32C74.27 96.29 74.47 96.21 74.81 96.08C76.51 95.42 78.34 94.26 80.3 92.6V92.56C80.25 92.26 80.17 91.97 80.07 91.68C79.19 92.45 78 93.17 76.52 93.83C75.47 94.3 74.81 94.53 74.55 94.53C74.27 94.53 74.13 94.38 74.13 94.09C74.13 93.96 74.19 93.86 74.33 93.79C74.37 93.76 74.54 93.7 74.86 93.59C76.29 93.1 77.67 92.36 79.01 91.37C79.15 91.27 79.31 91.14 79.51 90.97C79.6 90.9 79.65 90.85 79.67 90.83C79.52 90.56 79.4 90.36 79.29 90.22C78.42 90.76 77.29 91.29 75.89 91.82C75.35 92.02 75.04 92.12 74.96 92.12C74.7 92.12 74.57 91.98 74.57 91.7C74.57 91.56 74.64 91.45 74.77 91.37C74.81 91.35 74.99 91.29 75.29 91.18C76.57 90.75 77.88 90.03 79.24 89.04L76.48 89.24L76.42 89.25C76.14 89.25 76.01 89.09 76.01 88.78C76.01 88.5 76.15 88.36 76.42 88.33L83.58 87.81H83.61C83.92 87.81 84.08 87.96 84.08 88.26C84.08 88.55 83.93 88.7 83.64 88.72L81 88.91C80.84 89.06 80.51 89.32 80.01 89.7C80.42 90.16 80.78 90.76 81.07 91.49C82.16 90.83 83.06 90.19 83.77 89.56C83.99 89.37 84.18 89.27 84.36 89.27C84.52 89.27 84.64 89.34 84.74 89.47C84.84 89.59 84.89 89.72 84.89 89.86C84.89 90.06 84.75 90.26 84.48 90.45C83.51 91.13 82.48 91.73 81.39 92.25C83.04 93.83 84.85 95 86.81 95.77C87.09 95.88 87.22 95.99 87.22 96.11C87.22 96.21 87.14 96.28 86.98 96.34C86.49 96.51 86.09 96.6 85.79 96.6C85.63 96.6 85.42 96.52 85.16 96.36C83.97 95.62 82.74 94.63 81.47 93.41Z" fill="#727171"/>
<path d="M92.56 91.97L89.93 92.13C89.85 92.14 89.77 92.13 89.7 92.1C89.47 92.01 89.36 91.84 89.36 91.59C89.36 91.28 89.54 91.11 89.89 91.09L92.72 90.92V84.83C92.72 84.64 92.8 84.49 92.96 84.39C93.06 84.32 93.18 84.29 93.31 84.29C93.64 84.29 93.83 84.44 93.9 84.73L99.74 84.19C99.76 84.19 99.78 84.19 99.81 84.19C100.16 84.19 100.33 84.36 100.33 84.71C100.33 85 100.16 85.15 99.83 85.18L93.91 85.67V86.71L99.39 86.24C99.42 86.24 99.45 86.23 99.47 86.23C99.8 86.23 99.97 86.38 99.97 86.68C99.97 87 99.8 87.17 99.47 87.2L93.92 87.63V88.72L99.38 88.31C99.42 88.31 99.44 88.3 99.46 88.3C99.66 88.29 99.81 88.36 99.91 88.52C99.95 88.58 99.96 88.66 99.96 88.75C99.96 89.07 99.79 89.25 99.46 89.27L93.92 89.63V90.85L102.26 90.36H102.3C102.68 90.37 102.87 90.53 102.87 90.85C102.87 91.19 102.7 91.38 102.35 91.4L93.77 91.91V96.89C94.57 96.62 95.45 96.23 96.41 95.71C96.51 95.65 96.61 95.62 96.71 95.62C96.86 95.62 96.97 95.69 97.06 95.82C97.12 95.9 97.15 95.99 97.15 96.09C97.15 96.25 97.05 96.39 96.85 96.52C96 97.07 95.15 97.55 94.32 97.97C93.99 98.14 93.74 98.22 93.59 98.22C93.32 98.22 93.05 98.07 92.79 97.76C92.66 97.61 92.59 97.39 92.59 97.11V91.97H92.56ZM98.38 94.42C99.69 95.31 101.15 96.02 102.76 96.56C103.11 96.67 103.29 96.79 103.29 96.9C103.29 96.99 103.18 97.08 102.97 97.17C102.41 97.39 101.96 97.51 101.63 97.51C101.44 97.51 101.18 97.43 100.85 97.26C98.64 96.16 96.78 94.7 95.3 92.88C95.14 92.68 95.06 92.52 95.06 92.4C95.06 92.3 95.1 92.21 95.18 92.13C95.27 92.04 95.37 91.99 95.48 91.99C95.58 91.99 95.68 92.03 95.78 92.12C95.8 92.14 96.08 92.42 96.61 92.95C96.89 93.24 97.24 93.54 97.64 93.86C98.55 93.21 99.34 92.56 100 91.91C100.16 91.76 100.31 91.68 100.46 91.68C100.61 91.68 100.76 91.75 100.91 91.88C101.02 91.99 101.08 92.11 101.08 92.26C101.08 92.46 100.91 92.7 100.56 92.98C99.96 93.46 99.23 93.94 98.38 94.42Z" fill="#727171"/>
<path d="M261.58 88.38C261.6 88.28 261.62 88.18 261.63 88.09C261.7 87.63 261.91 87.39 262.27 87.39C262.39 87.39 262.5 87.42 262.61 87.48C262.81 87.58 262.91 87.76 262.91 88.02C262.91 88.09 262.9 88.19 262.88 88.32L265.51 88.19H265.55C265.67 88.18 265.78 88.2 265.89 88.26C266.06 88.35 266.15 88.49 266.15 88.69C266.15 89.02 265.99 89.19 265.66 89.2L262.68 89.34C262.25 91.31 261.49 92.95 260.41 94.27C261.04 94.6 261.51 94.85 261.83 95.02C263.17 95.71 264 96.15 264.3 96.34C264.57 96.51 264.71 96.72 264.71 96.96C264.71 97.07 264.68 97.19 264.62 97.3C264.49 97.52 264.3 97.63 264.04 97.63C263.89 97.63 263.74 97.59 263.59 97.51C263.55 97.48 263.36 97.36 263.01 97.13C262.31 96.67 261.38 96.11 260.22 95.43L259.61 95.07C258.69 95.87 257.52 96.5 256.1 96.98C255.48 97.19 254.81 97.37 254.1 97.52C253.99 97.55 253.89 97.56 253.81 97.56C253.5 97.56 253.35 97.41 253.35 97.1C253.35 96.95 253.42 96.83 253.56 96.76C253.63 96.72 253.87 96.65 254.29 96.54C255.97 96.13 257.38 95.45 258.53 94.49C257.33 93.88 256.41 93.45 255.77 93.21C255.18 92.99 254.88 92.68 254.88 92.29C254.88 92.08 254.97 91.81 255.14 91.5C255.53 90.79 255.84 90.17 256.07 89.63L252.98 89.77C252.57 89.79 252.37 89.62 252.37 89.27C252.37 88.95 252.52 88.78 252.83 88.76L256.52 88.6C257.02 87.39 257.43 86.21 257.76 85.06C257.89 84.63 258.11 84.41 258.41 84.41C258.52 84.41 258.62 84.43 258.72 84.47C258.95 84.57 259.06 84.75 259.06 85C259.06 85.34 258.71 86.38 258.01 88.11L257.85 88.53L261.58 88.38ZM261.38 89.41L257.4 89.59C257.11 90.24 256.74 90.95 256.3 91.72C256.22 91.86 256.18 91.97 256.18 92.07C256.18 92.2 256.26 92.32 256.41 92.41C256.46 92.44 256.69 92.54 257.11 92.72C257.3 92.8 258.04 93.14 259.33 93.74C260.29 92.67 260.98 91.22 261.38 89.41Z" fill="#727171"/>
<path d="M274.94 87.73C275.23 87.79 275.37 88 275.37 88.34C275.37 88.6 275.29 89.04 275.12 89.68L278.62 89.83C279.01 89.85 279.3 89.93 279.5 90.06C279.74 90.23 279.86 90.53 279.86 90.96C279.86 91.69 279.69 92.7 279.36 93.98C278.99 95.4 278.57 96.45 278.09 97.13C277.8 97.55 277.43 97.76 277 97.76C276.66 97.76 276.17 97.61 275.54 97.31C275.06 97.08 274.65 96.85 274.3 96.63C274.11 96.51 274.01 96.38 274.01 96.22C274.01 96.14 274.03 96.06 274.08 95.99C274.16 95.87 274.28 95.81 274.43 95.81C274.56 95.81 274.74 95.86 274.96 95.97C275.65 96.3 276.18 96.46 276.55 96.46C276.85 96.46 277.1 96.3 277.31 95.99C277.69 95.4 278.03 94.44 278.34 93.12C278.53 92.29 278.63 91.69 278.63 91.32C278.63 91.02 278.46 90.86 278.11 90.84L274.98 90.7C274.93 90.7 274.88 90.69 274.83 90.68C274.23 92.63 273.23 94.28 271.85 95.63C271.02 96.45 270.46 96.86 270.19 96.86C270.07 96.86 269.96 96.81 269.87 96.7C269.8 96.61 269.77 96.52 269.77 96.43C269.77 96.31 269.83 96.18 269.96 96.05C269.99 96.02 270.12 95.9 270.35 95.7C271.46 94.71 272.37 93.46 273.07 91.96C273.58 90.87 273.94 89.67 274.14 88.34C274.18 88.04 274.3 87.85 274.51 87.77L269.5 88.05C269.48 88.05 269.47 88.05 269.47 88.05C269.36 88.05 269.26 88.01 269.18 87.94C269.06 87.84 269 87.7 269 87.51C269 87.16 269.17 86.98 269.5 86.96L274.6 86.67V84.76C274.6 84.58 274.66 84.44 274.77 84.33C274.89 84.22 275.04 84.17 275.22 84.17C275.45 84.17 275.62 84.25 275.74 84.41C275.81 84.51 275.85 84.63 275.85 84.76V86.6L281.21 86.3C281.35 86.3 281.46 86.33 281.54 86.4C281.67 86.51 281.73 86.66 281.73 86.85C281.73 87.19 281.56 87.37 281.21 87.39L274.94 87.73Z" fill="#727171"/>
<path d="M291.83 85.84L297 85.52C297.03 85.52 297.07 85.52 297.1 85.52C297.58 85.52 297.83 85.69 297.83 86.04C297.83 86.3 297.59 86.8 297.11 87.54C296.72 88.15 296.41 88.46 296.19 88.46C296.13 88.46 296.05 88.43 295.96 88.37C295.87 88.31 295.82 88.24 295.82 88.14C295.82 88.06 295.86 87.95 295.94 87.8C296.22 87.24 296.35 86.87 296.35 86.68C296.35 86.57 296.28 86.51 296.15 86.51C296.13 86.51 296.12 86.51 296.1 86.51L286.26 87.11C286.25 88.59 285.97 89.33 285.42 89.33C285.35 89.33 285.27 89.31 285.19 89.28C284.96 89.2 284.84 89.02 284.84 88.75C284.84 88.65 284.88 88.49 284.97 88.27C285.18 87.74 285.31 87.06 285.36 86.22C285.38 85.92 285.53 85.77 285.8 85.77C286.01 85.77 286.14 85.91 286.19 86.18L290.66 85.91V84.34C290.66 83.99 290.86 83.81 291.25 83.81C291.45 83.81 291.61 83.88 291.73 84.01C291.81 84.1 291.85 84.21 291.85 84.34V85.84H291.83ZM292.52 93.41C292.56 93.97 292.58 94.42 292.58 94.75C292.58 96.97 292.1 98.08 291.15 98.08C290.65 98.08 290 97.89 289.2 97.51C288.88 97.36 288.72 97.19 288.72 97.02C288.72 96.96 288.74 96.91 288.77 96.86C288.86 96.72 288.97 96.66 289.1 96.66C289.17 96.66 289.3 96.69 289.47 96.75C289.94 96.91 290.34 96.99 290.67 96.99C290.99 96.99 291.2 96.86 291.28 96.61C291.42 96.18 291.49 95.49 291.49 94.52C291.49 94.31 291.48 94.06 291.47 93.76C290.09 94.99 288.55 95.95 286.84 96.65C286.14 96.94 285.69 97.08 285.48 97.08C285.2 97.08 285.07 96.94 285.07 96.65C285.07 96.51 285.14 96.4 285.27 96.32C285.32 96.29 285.52 96.21 285.86 96.08C287.56 95.42 289.39 94.26 291.35 92.6V92.56C291.3 92.26 291.22 91.97 291.12 91.68C290.24 92.45 289.05 93.17 287.57 93.83C286.52 94.3 285.86 94.53 285.6 94.53C285.32 94.53 285.18 94.38 285.18 94.09C285.18 93.96 285.25 93.86 285.38 93.79C285.42 93.76 285.59 93.7 285.91 93.59C287.34 93.1 288.72 92.36 290.06 91.37C290.2 91.27 290.36 91.14 290.56 90.97C290.65 90.9 290.7 90.85 290.72 90.83C290.57 90.56 290.45 90.36 290.34 90.22C289.47 90.76 288.34 91.29 286.94 91.82C286.4 92.02 286.09 92.12 286.01 92.12C285.75 92.12 285.62 91.98 285.62 91.7C285.62 91.56 285.69 91.45 285.82 91.37C285.86 91.35 286.04 91.29 286.34 91.18C287.62 90.75 288.93 90.03 290.29 89.04L287.53 89.24L287.47 89.25C287.19 89.25 287.06 89.09 287.06 88.78C287.06 88.5 287.2 88.36 287.47 88.33L294.63 87.81H294.66C294.97 87.81 295.13 87.96 295.13 88.26C295.13 88.55 294.98 88.7 294.69 88.72L292.06 88.91C291.9 89.06 291.57 89.32 291.07 89.7C291.48 90.16 291.84 90.76 292.13 91.49C293.22 90.83 294.12 90.19 294.83 89.56C295.05 89.37 295.24 89.27 295.42 89.27C295.58 89.27 295.7 89.34 295.8 89.47C295.9 89.59 295.95 89.72 295.95 89.86C295.95 90.06 295.81 90.26 295.54 90.45C294.57 91.13 293.54 91.73 292.45 92.25C294.1 93.83 295.91 95 297.87 95.77C298.15 95.88 298.28 95.99 298.28 96.11C298.28 96.21 298.2 96.28 298.04 96.34C297.55 96.51 297.15 96.6 296.85 96.6C296.69 96.6 296.48 96.52 296.22 96.36C295.03 95.62 293.79 94.63 292.52 93.41Z" fill="#727171"/>
<path d="M303.62 91.97L300.99 92.13C300.91 92.14 300.83 92.13 300.76 92.1C300.53 92.01 300.42 91.84 300.42 91.59C300.42 91.28 300.6 91.11 300.95 91.09L303.78 90.92V84.83C303.78 84.64 303.86 84.49 304.02 84.39C304.12 84.32 304.24 84.29 304.37 84.29C304.7 84.29 304.89 84.44 304.96 84.73L310.8 84.19C310.82 84.19 310.84 84.19 310.87 84.19C311.22 84.19 311.39 84.36 311.39 84.71C311.39 85 311.22 85.15 310.89 85.18L304.97 85.67V86.71L310.45 86.24C310.48 86.24 310.51 86.23 310.53 86.23C310.86 86.23 311.03 86.38 311.03 86.68C311.03 87 310.86 87.17 310.53 87.2L304.98 87.63V88.72L310.44 88.31C310.48 88.31 310.5 88.3 310.52 88.3C310.72 88.29 310.87 88.36 310.97 88.52C311.01 88.58 311.02 88.66 311.02 88.75C311.02 89.07 310.85 89.25 310.52 89.27L304.98 89.63V90.85L313.32 90.36H313.36C313.74 90.37 313.93 90.53 313.93 90.85C313.93 91.19 313.76 91.38 313.41 91.4L304.83 91.91V96.89C305.63 96.62 306.51 96.23 307.47 95.71C307.57 95.65 307.67 95.62 307.77 95.62C307.92 95.62 308.03 95.69 308.12 95.82C308.18 95.9 308.21 95.99 308.21 96.09C308.21 96.25 308.11 96.39 307.91 96.52C307.06 97.07 306.21 97.55 305.38 97.97C305.05 98.14 304.8 98.22 304.65 98.22C304.38 98.22 304.11 98.07 303.85 97.76C303.72 97.61 303.65 97.39 303.65 97.11V91.97H303.62ZM309.44 94.42C310.75 95.31 312.21 96.02 313.82 96.56C314.17 96.67 314.35 96.79 314.35 96.9C314.35 96.99 314.24 97.08 314.03 97.17C313.47 97.39 313.02 97.51 312.69 97.51C312.5 97.51 312.24 97.43 311.91 97.26C309.7 96.16 307.84 94.7 306.36 92.88C306.2 92.68 306.12 92.52 306.12 92.4C306.12 92.3 306.16 92.21 306.24 92.13C306.33 92.04 306.43 91.99 306.54 91.99C306.64 91.99 306.74 92.03 306.84 92.12C306.86 92.14 307.14 92.42 307.67 92.95C307.95 93.24 308.3 93.54 308.7 93.86C309.61 93.21 310.4 92.56 311.06 91.91C311.22 91.76 311.37 91.68 311.52 91.68C311.67 91.68 311.82 91.75 311.97 91.88C312.08 91.99 312.14 92.11 312.14 92.26C312.14 92.46 311.97 92.7 311.62 92.98C311.01 93.46 310.29 93.94 309.44 94.42Z" fill="#727171"/>
<path d="M224.75 128.13L215.82 128.65C215.74 129.03 215.5 129.22 215.09 129.22C214.64 129.22 214.39 128.99 214.35 128.54L213.81 122.37C213.81 122.34 213.81 122.31 213.81 122.27C213.82 122.07 213.89 121.91 214.02 121.79C214.16 121.65 214.34 121.57 214.56 121.57C214.84 121.57 215.06 121.68 215.21 121.91L219.51 121.65V120.22L211.81 120.6C211.79 120.6 211.77 120.6 211.76 120.6C211.57 120.6 211.41 120.53 211.28 120.38C211.17 120.26 211.12 120.12 211.12 119.96C211.12 119.56 211.31 119.36 211.68 119.33L216.81 119.07L216.63 117.2L213.81 117.37C213.76 117.37 213.73 117.37 213.73 117.37C213.57 117.37 213.44 117.31 213.32 117.2C213.2 117.09 213.15 116.94 213.15 116.76C213.15 116.38 213.33 116.18 213.69 116.16L216.52 116L216.36 114.34C216.33 114.07 216.42 113.85 216.62 113.7C216.76 113.59 216.93 113.54 217.13 113.54C217.62 113.54 217.89 113.77 217.92 114.23L218.03 115.91L222.29 115.65L222.41 113.8C222.44 113.34 222.69 113.11 223.18 113.11C223.4 113.11 223.59 113.19 223.75 113.34C223.91 113.49 223.98 113.68 223.96 113.91L223.81 115.56L226.53 115.4C226.63 115.4 226.72 115.41 226.79 115.44C227.07 115.54 227.21 115.73 227.21 116.01C227.21 116.39 227.03 116.59 226.66 116.61L223.71 116.78L223.54 118.73L228.81 118.47C228.95 118.47 229.06 118.49 229.15 118.53C229.39 118.65 229.51 118.84 229.51 119.1C229.51 119.5 229.32 119.7 228.95 119.73L220.98 120.12V121.54L225.27 121.29C225.34 121.28 225.39 121.28 225.43 121.28C226.36 121.28 226.82 121.68 226.82 122.49C226.82 122.56 226.81 122.66 226.8 122.8L226.23 128.11C226.18 128.56 225.94 128.79 225.5 128.79C224.99 128.82 224.76 128.59 224.75 128.13ZM217.47 128.9C217.72 128.9 217.91 129 218.05 129.2C218.15 129.33 218.19 129.47 218.19 129.63C218.19 129.9 218.05 130.13 217.76 130.3C216.67 130.94 215.26 131.52 213.53 132.04C213.07 132.18 212.76 132.25 212.62 132.25C212.25 132.25 212.07 132.07 212.07 131.71C212.07 131.5 212.16 131.34 212.35 131.23C212.4 131.2 212.55 131.15 212.8 131.07C214.15 130.63 215.5 129.98 216.86 129.12C217.07 128.96 217.28 128.9 217.47 128.9ZM219.5 124.38V122.81L215.39 123.04L215.51 124.6L219.5 124.38ZM219.5 127.28V125.52L215.6 125.74L215.74 127.51L219.5 127.28ZM222.18 116.9L218.09 117.15L218.22 119.04L222.04 118.85L222.18 116.9ZM225.14 124.08L225.23 123.08C225.24 123.04 225.24 123.01 225.24 122.99C225.25 122.84 225.19 122.72 225.07 122.63C224.98 122.57 224.88 122.54 224.75 122.55H224.71L220.93 122.76V124.32L225.14 124.08ZM224.85 126.97L225.02 125.22L220.92 125.45V127.2L224.85 126.97ZM222.97 128.64C223.12 128.64 223.36 128.7 223.7 128.82C225.11 129.35 226.42 130 227.64 130.77C227.97 130.99 228.14 131.24 228.14 131.52C228.14 131.66 228.1 131.8 228.01 131.94C227.85 132.18 227.63 132.3 227.35 132.3C227.15 132.3 226.88 132.17 226.54 131.92C225.19 130.94 223.98 130.2 222.91 129.71C222.63 129.58 222.49 129.4 222.49 129.17C222.48 128.81 222.64 128.64 222.97 128.64Z" fill="black"/>
<path d="M237.57 118.35C237.75 118.35 237.89 118.42 237.99 118.57C238.06 118.67 238.09 118.77 238.09 118.87C238.09 119.29 237.25 119.94 235.58 120.83C234.41 121.45 233.69 121.76 233.43 121.76C233.19 121.76 233.01 121.66 232.89 121.46C232.81 121.33 232.78 121.2 232.78 121.08C232.78 120.86 232.88 120.69 233.07 120.57C233.16 120.51 233.33 120.43 233.58 120.33C234.78 119.88 235.97 119.27 237.14 118.5C237.28 118.41 237.42 118.35 237.57 118.35ZM238.34 115.7L233.75 116.08C233.72 116.08 233.69 116.08 233.67 116.08C233.48 116.08 233.32 116.01 233.2 115.87C233.09 115.75 233.04 115.6 233.04 115.42C233.04 115.03 233.23 114.82 233.62 114.79L238.79 114.41C238.87 114.4 238.91 114.4 238.92 114.4C239.43 114.4 239.8 114.56 240.03 114.88C240.12 115.01 240.18 115.16 240.21 115.33C240.24 115.49 240.26 115.88 240.26 116.52L240.19 118.97C240.11 120.46 240.04 121.29 239.98 121.46C239.82 121.95 239.45 122.2 238.87 122.2C238.16 122.2 237.4 122.02 236.58 121.65C236.33 121.54 236.2 121.38 236.2 121.18C236.2 120.85 236.36 120.68 236.68 120.68C236.78 120.68 236.93 120.7 237.12 120.75C237.45 120.84 237.77 120.88 238.06 120.88C238.35 120.88 238.53 120.77 238.59 120.56C238.74 120.01 238.82 118.64 238.82 116.44C238.82 115.94 238.68 115.69 238.41 115.69C238.38 115.69 238.37 115.69 238.36 115.69C238.35 115.7 238.34 115.7 238.34 115.7ZM234.39 116.36C234.68 116.36 235.16 116.52 235.83 116.85C236.3 117.08 236.55 117.21 236.59 117.23C236.82 117.38 236.94 117.57 236.94 117.79C236.94 117.93 236.9 118.05 236.82 118.17C236.69 118.35 236.51 118.44 236.28 118.44C236.1 118.44 235.89 118.35 235.65 118.17C235.49 118.05 235.16 117.84 234.69 117.55C234.46 117.41 234.3 117.31 234.21 117.25C234.03 117.13 233.94 116.99 233.94 116.83C233.94 116.73 233.97 116.64 234.04 116.53C234.12 116.43 234.24 116.36 234.39 116.36ZM245.63 130.96L237.28 131.23L237.29 131.39C237.29 131.9 237.03 132.16 236.52 132.16C236.02 132.16 235.76 131.9 235.73 131.39L235.37 124.18C235.37 124.15 235.37 124.12 235.37 124.11C235.37 123.64 235.63 123.4 236.15 123.4C236.53 123.4 236.78 123.56 236.89 123.89L238.68 123.77C239.17 123.28 239.66 122.62 240.17 121.81C240.34 121.52 240.56 121.38 240.83 121.38C240.97 121.38 241.12 121.42 241.26 121.49C241.55 121.64 241.69 121.84 241.69 122.09C241.69 122.36 241.23 122.88 240.31 123.66L246.01 123.27C246.11 123.26 246.18 123.26 246.23 123.26C247.15 123.26 247.61 123.67 247.61 124.49C247.61 124.5 247.61 124.54 247.6 124.59L247.16 131.31C247.13 131.83 246.87 132.09 246.38 132.09C246.1 132.09 245.89 132.01 245.75 131.85C245.63 131.71 245.58 131.57 245.6 131.41L245.61 131.31L245.63 130.96ZM245.91 126.39L246 124.87C245.98 124.66 245.87 124.56 245.68 124.57L236.97 125.12L237.05 126.81L245.91 126.39ZM245.83 127.66L237.12 128.02L237.21 129.94L245.7 129.67L245.83 127.66ZM247.01 115.5L241.98 115.9L241.88 115.91C241.69 115.92 241.53 115.84 241.41 115.66C241.33 115.54 241.29 115.41 241.29 115.25C241.29 114.84 241.48 114.62 241.85 114.59L247.44 114.21C247.47 114.21 247.53 114.21 247.63 114.21C248.18 114.21 248.56 114.42 248.75 114.85C248.85 115.06 248.89 115.51 248.89 116.21C248.89 117.67 248.81 119.24 248.65 120.94C248.57 121.79 248.15 122.22 247.41 122.22C246.8 122.22 246.01 122.05 245.03 121.72C244.74 121.62 244.59 121.44 244.59 121.2C244.59 120.87 244.76 120.7 245.1 120.7C245.2 120.7 245.34 120.72 245.51 120.76C245.87 120.84 246.23 120.88 246.61 120.88C246.92 120.88 247.12 120.76 247.18 120.53C247.38 119.85 247.48 118.44 247.48 116.3C247.48 115.89 247.42 115.65 247.31 115.57C247.24 115.52 247.17 115.5 247.08 115.5C247.06 115.5 247.04 115.5 247.01 115.5ZM246.24 117.95C246.37 117.95 246.49 118.01 246.61 118.12C246.71 118.22 246.76 118.34 246.76 118.48C246.76 118.66 246.64 118.85 246.39 119.04C245.45 119.74 244.33 120.4 243.03 121.02C242.73 121.16 242.5 121.24 242.33 121.24C242.04 121.24 241.84 121.11 241.71 120.85C241.67 120.77 241.65 120.68 241.65 120.58C241.65 120.35 241.77 120.16 242 120.01C242.06 119.98 242.22 119.9 242.46 119.79C243.66 119.28 244.75 118.72 245.74 118.13C245.95 118.02 246.11 117.95 246.24 117.95ZM242.62 116.15C242.95 116.15 243.57 116.39 244.48 116.86C244.94 117.11 245.17 117.36 245.17 117.62C245.17 117.76 245.12 117.89 245.03 118.03C244.91 118.21 244.74 118.3 244.53 118.3C244.32 118.3 244.09 118.2 243.83 117.99C243.44 117.68 243.01 117.37 242.53 117.09C242.31 116.96 242.2 116.8 242.2 116.62C242.2 116.52 242.23 116.42 242.3 116.32C242.38 116.2 242.49 116.15 242.62 116.15Z" fill="black"/>
<path d="M256.94 120.44V131.01C256.94 131.19 256.88 131.35 256.75 131.47C256.61 131.61 256.43 131.68 256.19 131.68C255.89 131.68 255.67 131.57 255.53 131.36C255.47 131.26 255.44 131.14 255.44 131.01V120.59L253.34 120.82C253.31 120.83 253.25 120.83 253.18 120.83C252.69 120.83 252.45 120.58 252.45 120.09C252.45 119.69 252.68 119.46 253.14 119.41L255.45 119.15V114.49C255.45 114.27 255.53 114.1 255.69 113.97C255.84 113.85 256.01 113.8 256.2 113.8C256.46 113.8 256.66 113.89 256.82 114.08C256.92 114.2 256.96 114.34 256.96 114.5V118.99L258.89 118.78C258.94 118.77 258.99 118.77 259.03 118.77C259.49 118.77 259.73 118.99 259.73 119.44C259.73 119.9 259.5 120.16 259.04 120.21L256.94 120.44ZM268.28 126.52V130.67C268.28 131.7 267.89 132.22 267.12 132.22C266.74 132.22 266.16 132.08 265.38 131.8C265 131.66 264.69 131.53 264.47 131.41C264.22 131.27 264.1 131.11 264.1 130.91C264.1 130.56 264.27 130.39 264.62 130.39C264.73 130.39 264.86 130.41 265.02 130.45C265.59 130.61 266.06 130.7 266.43 130.7C266.68 130.7 266.81 130.52 266.81 130.16V126.61L259.94 127.03C259.9 127.03 259.86 127.03 259.84 127.03C259.41 127.03 259.19 126.82 259.19 126.4C259.19 125.98 259.41 125.75 259.86 125.72L266.81 125.29V124.46C266.81 124.04 267.05 123.82 267.52 123.82C268.02 123.82 268.28 124.03 268.28 124.46V125.2L271.07 125.03C271.58 125 271.83 125.2 271.83 125.65C271.83 126.1 271.59 126.33 271.11 126.36L268.28 126.52ZM264.35 117.77V116.49L260.98 116.79C260.93 116.8 260.89 116.8 260.86 116.8C260.57 116.81 260.37 116.68 260.27 116.41C260.24 116.31 260.22 116.22 260.22 116.12C260.22 115.76 260.43 115.57 260.86 115.53L264.37 115.22V113.9C264.37 113.78 264.4 113.67 264.46 113.57C264.59 113.36 264.8 113.26 265.09 113.26C265.36 113.26 265.56 113.35 265.7 113.54C265.77 113.64 265.81 113.76 265.81 113.9V115.1L268.56 114.86L268.65 114.85C268.92 114.83 269.12 114.93 269.24 115.14C269.29 115.22 269.31 115.32 269.31 115.44C269.31 115.86 269.09 116.09 268.65 116.13L265.8 116.38V117.66L268.83 117.39C268.87 117.38 268.93 117.38 269.02 117.38C269.79 117.38 270.18 117.79 270.18 118.6C270.18 118.68 270.18 118.74 270.18 118.77L269.88 123.4C269.84 123.82 269.61 124.04 269.18 124.04C268.84 124.04 268.63 123.91 268.52 123.66C268.49 123.58 268.48 123.5 268.49 123.4V123.28L262.1 123.78V123.84C262.11 124.02 262.06 124.16 261.96 124.26C261.82 124.4 261.63 124.48 261.42 124.48C260.99 124.48 260.76 124.27 260.72 123.84L260.26 118.32C260.25 118.12 260.31 117.96 260.44 117.84C260.59 117.71 260.77 117.65 260.98 117.65C261.27 117.65 261.47 117.77 261.61 118.02L264.35 117.77ZM261.86 127.13C262.15 127.13 262.64 127.44 263.32 128.06C264 128.68 264.35 129.14 264.35 129.43C264.35 129.64 264.26 129.82 264.09 129.96C263.95 130.08 263.78 130.14 263.59 130.14C263.33 130.14 263.09 129.99 262.88 129.68C262.57 129.24 262.16 128.72 261.64 128.11C261.47 127.91 261.38 127.73 261.38 127.58C261.38 127.47 261.42 127.37 261.51 127.27C261.6 127.18 261.72 127.13 261.86 127.13ZM264.35 120.13V118.9L261.72 119.12L261.81 120.35L264.35 120.13ZM264.35 121.19L261.9 121.38L262 122.66L264.35 122.48V121.19ZM265.79 120.01L268.65 119.75L268.68 119.07C268.67 118.74 268.53 118.57 268.26 118.57C268.22 118.57 268.2 118.57 268.18 118.57L265.79 118.78V120.01ZM265.79 121.08V122.37L268.54 122.15L268.6 120.85L265.79 121.08ZM269.27 113.35C269.41 113.35 269.59 113.43 269.79 113.59C270.94 114.47 271.52 115.15 271.52 115.62C271.52 115.8 271.45 115.96 271.31 116.09C271.19 116.21 271.03 116.27 270.85 116.27C270.57 116.27 270.32 116.1 270.1 115.76C269.81 115.28 269.44 114.78 268.99 114.26C268.86 114.11 268.79 113.97 268.79 113.83C268.79 113.71 268.83 113.6 268.92 113.51C269.03 113.41 269.14 113.35 269.27 113.35Z" fill="black"/>
<path d="M309.2 125.12C309.91 123.45 310.42 122.08 310.73 121.03C310.87 120.54 311.12 120.3 311.47 120.3C311.61 120.3 311.74 120.33 311.86 120.39C312.12 120.54 312.25 120.76 312.25 121.05C312.25 121.17 312.21 121.35 312.13 121.59C311.53 123.37 310.76 125.11 309.82 126.79C310.37 128.13 310.92 129.15 311.46 129.85C311.69 130.14 311.84 130.28 311.93 130.28C312.02 130.28 312.1 130.15 312.18 129.88C312.35 129.32 312.48 128.66 312.56 127.89C312.59 127.51 312.77 127.33 313.08 127.33C313.4 127.33 313.56 127.58 313.56 128.08C313.56 130.92 313.14 132.34 312.31 132.34C311.96 132.34 311.57 132.11 311.14 131.66C310.38 130.87 309.65 129.73 308.95 128.24C307.99 129.66 307.32 130.36 306.95 130.36C306.85 130.36 306.74 130.32 306.64 130.24C306.5 130.14 306.43 130 306.43 129.83C306.43 129.69 306.56 129.46 306.81 129.15C307.31 128.55 307.83 127.77 308.36 126.81C307.36 124.22 306.7 121.44 306.4 118.47L295.5 119.33C295.04 119.36 294.8 119.18 294.8 118.77C294.8 118.39 295.01 118.19 295.43 118.15L300.14 117.78V116.51L296.89 116.79C296.83 116.8 296.8 116.8 296.78 116.8C296.56 116.81 296.39 116.74 296.28 116.57C296.21 116.47 296.18 116.36 296.18 116.22C296.18 115.82 296.4 115.6 296.84 115.56L300.15 115.28V114.03C300.15 113.83 300.21 113.67 300.35 113.54C300.49 113.4 300.66 113.33 300.87 113.33C301.11 113.33 301.3 113.42 301.43 113.59C301.53 113.71 301.57 113.85 301.57 114.03V115.16L304.41 114.91L304.5 114.9C304.77 114.88 304.96 114.99 305.07 115.22C305.1 115.3 305.12 115.38 305.12 115.48C305.12 115.88 304.9 116.1 304.46 116.14L301.56 116.39V117.67L306.28 117.29C306.1 115.53 306.01 114.42 306.01 113.97C306.01 113.36 306.26 113.06 306.77 113.06C307.1 113.06 307.31 113.2 307.42 113.47C307.47 113.59 307.5 113.95 307.52 114.57C307.54 115.19 307.59 116.07 307.67 117.19L312.11 116.83C312.13 116.83 312.16 116.83 312.2 116.83C312.6 116.83 312.8 117.02 312.8 117.39C312.8 117.76 312.59 117.97 312.17 118.01L307.78 118.36C308.05 120.83 308.52 123.08 309.2 125.12ZM303.79 124.25L303.7 125.2L305.51 125.06C305.54 125.06 305.58 125.06 305.61 125.06C305.98 125.08 306.16 125.26 306.16 125.59C306.16 125.95 305.96 126.14 305.55 126.17L303.58 126.33L303.48 127.46L306.34 127.25C306.35 127.25 306.39 127.25 306.45 127.25C306.81 127.25 306.99 127.43 306.99 127.78C306.99 128.13 306.78 128.33 306.37 128.36L295.58 129.2C295.55 129.2 295.51 129.2 295.48 129.2C295.08 129.2 294.89 129.01 294.89 128.62C294.89 128.24 295.11 128.03 295.55 128L298.71 127.77L298.59 126.72L296.72 126.87C296.67 126.88 296.63 126.88 296.61 126.88C296.24 126.88 296.06 126.7 296.06 126.34C296.06 125.98 296.27 125.78 296.69 125.75L298.46 125.61L298.35 124.68L297.95 124.72C297.85 124.93 297.64 125.03 297.33 125.03C297.01 125.03 296.83 124.84 296.8 124.46L296.4 120.59C296.39 120.56 296.39 120.53 296.39 120.5C296.37 120.12 296.58 119.94 297.02 119.94C297.27 119.94 297.44 120.03 297.55 120.22L304.29 119.64L304.62 119.62C305.34 119.64 305.71 119.95 305.73 120.56L305.72 120.79L305.44 123.88C305.4 124.34 305.18 124.58 304.79 124.58C304.48 124.58 304.28 124.46 304.18 124.22L303.79 124.25ZM299.36 129.04C299.52 129.04 299.67 129.09 299.81 129.2C299.97 129.32 300.06 129.49 300.06 129.69C300.06 129.98 299.78 130.34 299.21 130.79C298.55 131.31 297.86 131.74 297.14 132.09C296.93 132.19 296.77 132.23 296.65 132.23C296.5 132.23 296.38 132.17 296.28 132.04C296.22 131.95 296.19 131.86 296.19 131.76C296.19 131.56 296.33 131.36 296.62 131.17C297.38 130.66 298.05 130.09 298.63 129.47C298.88 129.18 299.13 129.04 299.36 129.04ZM300.37 121.8V120.95L297.7 121.14L297.78 122L300.37 121.8ZM300.37 122.71L297.87 122.93L297.95 123.82L300.37 123.59V122.71ZM302.44 124.36L299.68 124.59L299.77 125.52L302.36 125.31L302.44 124.36ZM302.29 126.44L299.88 126.65L299.98 127.72L302.22 127.56L302.29 126.44ZM301.59 121.71L304.34 121.48L304.36 121.25V121.1C304.34 120.84 304.2 120.7 303.93 120.69H303.82L301.59 120.85V121.71ZM301.59 123.48L304.22 123.24L304.28 122.39L301.59 122.61V123.48ZM302.96 128.82C303.27 128.82 303.92 129.23 304.91 130.05C305.36 130.43 305.59 130.75 305.59 131.02C305.59 131.18 305.52 131.33 305.39 131.46C305.23 131.62 305.05 131.7 304.84 131.7C304.61 131.7 304.38 131.56 304.16 131.28C303.91 130.97 303.47 130.49 302.83 129.84C302.61 129.62 302.5 129.43 302.5 129.27C302.5 128.97 302.65 128.82 302.96 128.82ZM309.11 113.56C309.4 113.56 309.98 113.92 310.83 114.64C311.4 115.12 311.68 115.49 311.68 115.77C311.68 115.93 311.61 116.08 311.49 116.22C311.35 116.37 311.17 116.45 310.96 116.45C310.7 116.45 310.44 116.29 310.19 115.96C309.83 115.51 309.41 115.03 308.93 114.53C308.75 114.35 308.66 114.18 308.66 114.03C308.66 113.91 308.7 113.81 308.79 113.71C308.88 113.61 308.99 113.56 309.11 113.56Z" fill="black"/>
<path d="M323.21 125.24L323.12 123.89L320.64 124.07C320.63 124.07 320.62 124.07 320.61 124.07C320.52 124.07 320.43 124.02 320.34 123.91C320.24 123.79 320.2 123.67 320.2 123.53C320.2 123.34 320.26 123.19 320.4 123.08C320.46 123.03 320.52 123 320.58 123L323.05 122.82L322.97 121.52L319.7 121.75C319.71 121.93 319.71 122.06 319.71 122.13C319.71 123.57 319.57 125.06 319.29 126.6C318.97 128.35 318.41 129.89 317.59 131.23C317.43 131.5 317.24 131.64 317.03 131.64C316.93 131.64 316.84 131.62 316.74 131.57C316.56 131.47 316.46 131.33 316.46 131.13C316.46 131.03 316.52 130.85 316.64 130.61C317.64 128.61 318.17 125.83 318.24 122.26V121.84C317.86 121.83 317.68 121.65 317.68 121.29C317.68 120.93 317.9 120.74 318.34 120.71L324.39 120.27V119.47C324.39 119.24 324.47 119.06 324.65 118.95C324.78 118.85 324.93 118.81 325.09 118.81C325.56 118.81 325.8 119.03 325.8 119.48V120.18L332.75 119.68C332.8 119.67 332.83 119.67 332.85 119.67C333.12 119.66 333.3 119.76 333.4 119.99C333.43 120.07 333.45 120.15 333.45 120.26C333.45 120.64 333.24 120.85 332.8 120.88L328.42 121.19L328.34 122.46L331.08 122.25C331.13 122.24 331.18 122.24 331.24 122.24C331.84 122.24 332.14 122.49 332.14 122.99C332.14 123.15 332.11 123.33 332.06 123.52L331.74 124.7C331.98 124.75 332.1 124.94 332.1 125.26C332.1 125.44 332.03 125.59 331.89 125.7C331.84 125.74 331.77 125.76 331.71 125.77L320.46 126.52H320.43C320.42 126.52 320.41 126.52 320.4 126.52C320.29 126.51 320.19 126.43 320.1 126.28C320.05 126.18 320.02 126.09 320.02 125.98C320.02 125.81 320.08 125.67 320.2 125.55C320.25 125.5 320.32 125.47 320.4 125.47L323.21 125.24ZM323.98 114.82L318.41 115.28C318.39 115.28 318.35 115.28 318.29 115.28C317.91 115.28 317.72 115.09 317.72 114.7C317.72 114.39 317.91 114.22 318.29 114.19L323.87 113.71C323.88 113.71 323.92 113.71 323.97 113.71C324.37 113.71 324.56 113.88 324.56 114.22C324.56 114.58 324.37 114.78 323.98 114.82ZM319.71 117.16V119.39C319.71 119.49 319.68 119.59 319.63 119.69C319.51 119.9 319.32 120 319.04 120C318.81 120 318.62 119.91 318.49 119.74C318.41 119.65 318.38 119.53 318.38 119.39V116.54C318.38 116.34 318.45 116.19 318.6 116.08C318.74 115.98 318.89 115.93 319.05 115.93C319.25 115.93 319.42 115.99 319.55 116.12L323.25 115.74C323.3 115.73 323.37 115.73 323.46 115.73C324.02 115.73 324.3 116.08 324.3 116.77V119.02C324.3 119.13 324.27 119.23 324.22 119.32C324.1 119.53 323.91 119.64 323.64 119.64C323.4 119.64 323.21 119.55 323.08 119.38C323 119.28 322.97 119.16 322.97 119.02V117.26C322.97 117.01 322.85 116.88 322.6 116.88C322.59 116.88 322.58 116.88 322.55 116.88L319.71 117.16ZM320.7 117.39C320.88 117.39 321.12 117.5 321.43 117.71C322.02 118.11 322.32 118.47 322.32 118.79C322.32 118.95 322.25 119.09 322.1 119.19C321.97 119.28 321.84 119.32 321.7 119.32C321.45 119.32 321.25 119.18 321.08 118.91C320.95 118.7 320.75 118.45 320.48 118.17C320.35 118.04 320.29 117.91 320.29 117.77C320.29 117.67 320.33 117.59 320.4 117.52C320.5 117.43 320.6 117.39 320.7 117.39ZM322.06 129.11L321.96 130.61C323.44 130.45 324.67 130.24 325.65 129.96C325.76 129.93 325.86 129.91 325.95 129.91C326.24 129.91 326.39 130.09 326.39 130.44C326.39 130.64 326.24 130.8 325.95 130.92C325.33 131.17 324.24 131.47 322.69 131.82C321.97 131.98 321.55 132.06 321.42 132.06C321.15 132.06 320.93 131.96 320.76 131.77C320.58 131.57 320.5 131.32 320.52 131.01L320.53 130.89L320.76 127.3C320.79 126.83 321.03 126.59 321.47 126.59C321.96 126.59 322.2 126.8 322.2 127.22C322.2 127.23 322.2 127.26 322.2 127.3L322.15 127.99L325.51 127.66C325.96 127.62 326.19 127.8 326.19 128.19C326.19 128.54 325.98 128.73 325.57 128.77L322.06 129.11ZM324.35 122.71L327 122.52L327.04 121.24L324.3 121.42L324.35 122.71ZM324.45 125.16L326.92 124.99L326.96 123.62L324.4 123.8L324.45 125.16ZM331.96 114.46L326.03 114.9C326 114.9 325.96 114.9 325.92 114.9C325.55 114.88 325.37 114.71 325.37 114.39C325.37 114.02 325.57 113.82 325.95 113.79L331.86 113.35C331.88 113.35 331.91 113.35 331.96 113.35C332.35 113.35 332.54 113.52 332.54 113.86C332.54 114.23 332.34 114.43 331.96 114.46ZM327.25 116.72V118.86C327.25 118.96 327.22 119.06 327.17 119.15C327.05 119.36 326.86 119.47 326.59 119.47C326.35 119.47 326.16 119.38 326.03 119.21C325.95 119.12 325.92 119 325.92 118.86V116.09C325.92 115.89 325.99 115.74 326.14 115.63C326.28 115.53 326.43 115.48 326.59 115.48C326.8 115.48 326.97 115.55 327.11 115.7L330.99 115.36C331.06 115.35 331.12 115.35 331.14 115.35C331.72 115.35 332.01 115.7 332.01 116.39V118.59C332.01 118.69 331.98 118.79 331.93 118.89C331.81 119.1 331.61 119.21 331.33 119.21C331.1 119.21 330.91 119.12 330.78 118.95C330.7 118.85 330.67 118.73 330.67 118.59V116.81C330.67 116.56 330.55 116.44 330.32 116.45C330.31 116.45 330.29 116.45 330.27 116.45L327.25 116.72ZM328.25 128.14C329.36 127.79 330.48 127.34 331.61 126.79C331.79 126.7 331.97 126.66 332.13 126.66C332.54 126.66 332.75 126.88 332.75 127.33C332.75 127.62 332.52 127.87 332.05 128.06C330.89 128.54 329.62 128.92 328.25 129.22V129.76C328.25 130.16 328.38 130.41 328.64 130.52C328.85 130.61 329.34 130.65 330.1 130.65C331.47 130.65 332.27 130.52 332.52 130.26C332.68 130.1 332.78 129.66 332.84 128.92C332.86 128.63 333 128.48 333.27 128.48C333.49 128.48 333.64 128.63 333.72 128.92C333.86 129.42 333.93 129.96 333.93 130.55C333.93 131.1 333.66 131.47 333.13 131.64C332.53 131.82 331.58 131.92 330.29 131.92C329.26 131.92 328.56 131.9 328.17 131.87C327.56 131.81 327.16 131.59 326.96 131.22C326.84 130.99 326.79 130.67 326.79 130.27V126.99C326.79 126.78 326.87 126.61 327.03 126.49C327.17 126.38 327.33 126.33 327.53 126.33C327.78 126.33 327.98 126.42 328.12 126.59C328.21 126.71 328.25 126.84 328.25 127V128.14ZM328.21 117.02C328.36 117.02 328.6 117.11 328.93 117.3C329.68 117.72 330.06 118.08 330.06 118.39C330.06 118.53 330 118.66 329.88 118.79C329.78 118.91 329.64 118.96 329.48 118.96C329.28 118.96 329.09 118.86 328.9 118.65C328.51 118.23 328.21 117.93 327.99 117.73C327.89 117.64 327.85 117.53 327.85 117.4C327.83 117.15 327.96 117.02 328.21 117.02ZM330.39 124.75L330.55 123.78C330.55 123.77 330.55 123.74 330.55 123.68C330.55 123.47 330.45 123.37 330.25 123.38C330.24 123.38 330.23 123.38 330.21 123.38L328.26 123.52L328.17 124.9L330.39 124.75Z" fill="black"/>
<path d="M344.14 119.74C344.3 119.74 344.45 119.79 344.58 119.88C344.77 120.02 344.87 120.2 344.87 120.43C344.87 120.68 344.6 121.13 344.07 121.79C343 123.12 341.68 124.34 340.11 125.43C338.96 126.23 338.22 126.63 337.88 126.63C337.74 126.63 337.62 126.56 337.52 126.41C337.45 126.3 337.42 126.2 337.42 126.11C337.42 125.94 337.57 125.76 337.88 125.57C339.11 124.81 340.35 123.77 341.6 122.43C342.33 121.65 342.93 120.9 343.4 120.17C343.61 119.89 343.85 119.74 344.14 119.74ZM349.7 116.94L349.48 118.34C349.42 118.78 349.18 119.01 348.76 119.01C348.33 119.01 348.11 118.77 348.11 118.3C348.11 118.26 348.11 118.22 348.11 118.19L348.22 117.03L344.05 117.32L344.16 118.49C344.17 118.54 344.17 118.57 344.17 118.59C344.17 118.83 344.06 119.01 343.85 119.13C343.73 119.21 343.59 119.24 343.44 119.24C343 119.24 342.75 119 342.69 118.52L342.55 117.41L338.62 117.68C338.48 117.69 338.34 117.67 338.19 117.6C337.96 117.5 337.84 117.3 337.84 117.01C337.84 116.59 338.05 116.37 338.47 116.34L342.37 116.07L342.16 114.39C342.15 114.36 342.15 114.32 342.15 114.28C342.15 113.96 342.29 113.74 342.57 113.61C342.69 113.56 342.81 113.53 342.94 113.53C343.43 113.53 343.7 113.77 343.75 114.26L343.92 115.97L348.36 115.66L348.51 114.07C348.56 113.58 348.82 113.33 349.31 113.33C349.56 113.33 349.76 113.41 349.93 113.58C350.06 113.71 350.13 113.87 350.13 114.06C350.13 114.1 350.13 114.15 350.12 114.19L349.91 115.55L353.92 115.27C354.41 115.31 354.65 115.54 354.65 115.97C354.65 116.38 354.44 116.6 354.02 116.63L349.7 116.94ZM345.95 125.32C345.73 126.14 345.35 126.99 344.81 127.86C343.71 129.62 342.18 130.9 340.22 131.67C340.03 131.75 339.87 131.78 339.75 131.78C339.54 131.78 339.38 131.69 339.29 131.52C339.22 131.4 339.19 131.29 339.19 131.19C339.19 131.04 339.26 130.91 339.4 130.8C339.45 130.76 339.69 130.62 340.13 130.39C341.65 129.57 342.84 128.4 343.7 126.88C343.97 126.39 344.19 125.9 344.34 125.41L342.26 125.56C342.2 125.57 342.16 125.57 342.16 125.57C341.74 125.57 341.53 125.35 341.53 124.91C341.53 124.49 341.74 124.26 342.15 124.23L349.39 123.75C349.51 123.74 349.58 123.74 349.6 123.74C350.52 123.74 350.98 124.19 350.98 125.09C350.98 125.95 350.79 127.09 350.42 128.49C350.12 129.63 349.79 130.5 349.43 131.08C349.07 131.69 348.6 131.99 348.03 131.99C347.25 131.99 346.29 131.63 345.14 130.92C344.84 130.73 344.69 130.54 344.69 130.37C344.69 130.05 344.85 129.89 345.18 129.89C345.32 129.89 345.52 129.94 345.78 130.03C346.52 130.3 347.1 130.44 347.49 130.44C347.85 130.44 348.15 130.17 348.4 129.64C348.71 129 348.96 128.25 349.15 127.36C349.34 126.49 349.44 125.88 349.44 125.51C349.44 125.2 349.27 125.05 348.94 125.05C348.88 125.05 348.84 125.05 348.83 125.05L345.95 125.32ZM347.89 119.33C348.05 119.33 348.22 119.41 348.39 119.56C348.43 119.59 348.59 119.76 348.87 120.05C350.7 121.98 352.86 123.59 355.35 124.88C355.71 125.06 355.89 125.23 355.89 125.36C355.89 125.47 355.76 125.57 355.51 125.67C355 125.88 354.59 125.98 354.28 125.98C353.97 125.98 353.46 125.73 352.76 125.24C351.51 124.36 350.24 123.26 348.97 121.94C348.37 121.32 347.9 120.78 347.53 120.32C347.41 120.16 347.34 120.01 347.34 119.85C347.34 119.71 347.4 119.58 347.53 119.47C347.65 119.37 347.77 119.33 347.89 119.33Z" fill="black"/>
<path d="M10.25 115.49L17.14 115C17.6 115.04 17.83 115.26 17.83 115.65C17.83 116.06 17.64 116.28 17.25 116.31L3.43 117.27C3.44 117.59 3.44 117.82 3.44 117.95C3.44 123.08 2.94 126.91 1.95 129.43C1.66 130.15 1.41 130.7 1.18 131.06C1.02 131.32 0.83 131.45 0.62 131.45C0.52 131.45 0.41 131.42 0.31 131.37C0.1 131.26 0 131.09 0 130.85C0 130.73 0.07 130.52 0.22 130.21C0.95 128.61 1.44 126.59 1.7 124.16C1.87 122.51 1.96 120.23 1.97 117.34C1.62 117.28 1.45 117.07 1.45 116.7C1.45 116.31 1.69 116.1 2.16 116.06L8.78 115.58V113.98C8.78 113.75 8.85 113.58 9 113.45C9.14 113.33 9.31 113.27 9.51 113.27C9.78 113.27 9.98 113.36 10.13 113.55C10.23 113.67 10.27 113.82 10.27 113.99V115.49H10.25ZM11.24 122.56L11.48 122.75C11.49 122.61 11.64 122.47 11.91 122.32C12.66 121.9 13.29 121.42 13.81 120.87C13.95 120.73 14.09 120.66 14.25 120.66C14.49 120.66 14.68 120.76 14.82 120.97C14.9 121.08 14.94 121.19 14.94 121.31C14.94 121.53 14.78 121.75 14.47 121.97C13.83 122.41 13.14 122.79 12.39 123.12C12.25 123.17 12.16 123.21 12.11 123.22C12.35 123.39 12.65 123.59 13.01 123.8C14.71 124.85 16.46 125.66 18.25 126.25C18.63 126.37 18.81 126.5 18.81 126.64C18.81 126.76 18.7 126.86 18.47 126.95C17.79 127.22 17.27 127.36 16.93 127.36C16.62 127.36 16.01 127.1 15.12 126.58C13.69 125.75 12.21 124.7 10.68 123.42C9.19 124.89 7.41 126.1 5.33 127.04C4.39 127.46 3.8 127.68 3.55 127.68C3.18 127.68 3 127.49 3 127.11C3 126.94 3.08 126.81 3.25 126.71C3.28 126.69 3.51 126.6 3.94 126.44C5.2 125.98 6.54 125.19 7.94 124.07C8.26 123.82 8.62 123.5 9.03 123.12C8.8 122.98 8.69 122.79 8.69 122.54L8.73 119.37L8.71 119.2C8.67 119.05 8.56 118.97 8.38 118.95L8.13 118.97L5.09 119.35C5.04 119.36 4.99 119.36 4.95 119.36C4.57 119.36 4.39 119.18 4.39 118.81C4.39 118.43 4.59 118.22 4.99 118.17L8.78 117.77H9C9.61 117.8 9.95 118.13 10.04 118.77V118.96L10.01 122.04C10.17 121.87 10.32 121.78 10.47 121.78C10.63 121.78 10.79 121.86 10.97 122.01C11.14 122.17 11.23 122.35 11.24 122.56ZM7.42 119.13C7.59 119.13 7.75 119.21 7.89 119.36C8.01 119.5 8.07 119.64 8.07 119.8C8.07 119.96 7.96 120.13 7.75 120.3C7.09 120.8 6.31 121.27 5.41 121.72C5.18 121.84 5.01 121.89 4.9 121.89C4.75 121.89 4.63 121.83 4.54 121.7C4.46 121.59 4.43 121.49 4.43 121.41C4.43 121.25 4.58 121.08 4.89 120.9C5.64 120.46 6.31 119.94 6.92 119.35C7.08 119.21 7.25 119.13 7.42 119.13ZM7.72 121.13C7.88 121.13 8.04 121.21 8.19 121.38C8.31 121.51 8.36 121.65 8.36 121.81C8.36 122.09 7.88 122.57 6.91 123.24C5.88 123.96 5.24 124.32 4.97 124.32C4.8 124.32 4.67 124.24 4.57 124.07C4.52 123.98 4.5 123.9 4.5 123.81C4.5 123.61 4.66 123.42 4.97 123.25C5.7 122.83 6.44 122.21 7.17 121.41C7.36 121.23 7.54 121.13 7.72 121.13ZM11.18 124.59C11.36 124.59 11.52 124.66 11.66 124.81C11.78 124.93 11.84 125.07 11.84 125.22C11.84 125.53 11.48 125.92 10.77 126.4C9.76 127.08 8.51 127.68 7.04 128.2C6.78 128.29 6.6 128.33 6.51 128.33C6.19 128.33 6.03 128.17 6.03 127.84C6.03 127.66 6.12 127.52 6.29 127.41C6.34 127.38 6.52 127.3 6.8 127.17C7.7 126.81 8.53 126.36 9.31 125.84C9.82 125.51 10.19 125.22 10.42 125C10.71 124.73 10.96 124.59 11.18 124.59ZM14.36 127.72C14.54 127.72 14.71 127.8 14.87 127.96C15.01 128.1 15.09 128.27 15.09 128.45C15.09 128.7 14.85 128.99 14.37 129.32C12.61 130.52 10.49 131.44 8.03 132.08C7.43 132.24 7.04 132.32 6.85 132.32C6.49 132.32 6.32 132.15 6.32 131.81C6.32 131.6 6.42 131.45 6.61 131.36C6.66 131.33 6.9 131.26 7.32 131.14C9.51 130.55 11.68 129.48 13.83 127.93C14.01 127.78 14.19 127.72 14.36 127.72ZM12.61 126.09C12.8 126.09 12.98 126.19 13.14 126.39C13.27 126.54 13.33 126.69 13.33 126.83C13.33 127.2 12.58 127.79 11.08 128.6C10.41 128.96 9.62 129.32 8.72 129.66C7.82 130 7.22 130.18 6.94 130.18C6.73 130.18 6.57 130.09 6.48 129.92C6.43 129.82 6.4 129.72 6.4 129.63C6.4 129.46 6.48 129.33 6.65 129.24C6.69 129.22 6.88 129.16 7.2 129.06C8.5 128.66 9.77 128.05 11 127.21C11.42 126.92 11.79 126.63 12.11 126.32C12.28 126.16 12.45 126.09 12.61 126.09ZM15.29 119.31V119.08C15.25 118.86 15.12 118.75 14.91 118.73L14.7 118.74L11.49 119.14C11.44 119.14 11.39 119.14 11.35 119.14C10.97 119.12 10.78 118.93 10.78 118.59C10.78 118.21 10.99 118.01 11.4 117.96L15.47 117.56C15.54 117.55 15.59 117.55 15.63 117.55C16.31 117.55 16.65 117.93 16.65 118.7L16.58 123.15C16.57 123.59 16.35 123.82 15.92 123.82C15.56 123.82 15.33 123.68 15.22 123.4C15.2 123.33 15.19 123.25 15.19 123.15L15.29 119.31ZM13.72 119C13.93 119 14.11 119.09 14.26 119.27C14.36 119.39 14.4 119.5 14.4 119.61C14.4 119.88 14 120.24 13.19 120.69C12.4 121.13 11.84 121.36 11.49 121.36C11.15 121.36 10.98 121.19 10.98 120.86C10.98 120.68 11.14 120.52 11.47 120.38C12.18 120.07 12.8 119.67 13.32 119.18C13.43 119.06 13.56 119 13.72 119Z" fill="black"/>
<path d="M22.74 125.48C22.85 125.48 22.96 125.51 23.07 125.56C23.36 125.69 23.5 125.91 23.5 126.22C23.5 126.49 23.34 126.99 23.01 127.72C22.68 128.46 22.33 129.11 21.95 129.68C21.6 130.21 21.31 130.48 21.09 130.48C21 130.48 20.9 130.45 20.79 130.38C20.65 130.28 20.57 130.14 20.57 129.97C20.57 129.85 20.64 129.66 20.78 129.38C21.26 128.38 21.67 127.3 22.02 126.12C22.15 125.69 22.39 125.48 22.74 125.48ZM24.48 119.83C25.41 118.72 26.11 117.79 26.59 117.06C26.82 116.71 27.07 116.54 27.35 116.54C27.51 116.54 27.66 116.59 27.8 116.7C27.98 116.84 28.08 117.02 28.08 117.22C28.08 117.41 28 117.62 27.84 117.84C26.93 119.08 25.74 120.45 24.28 121.94C23.75 122.48 23.24 122.95 22.75 123.36C24.24 123.11 25.61 122.76 26.86 122.32C26.68 121.99 26.51 121.69 26.37 121.45C26.28 121.3 26.24 121.17 26.24 121.05C26.24 120.91 26.3 120.78 26.43 120.68C26.53 120.61 26.62 120.58 26.73 120.58C26.91 120.58 27.09 120.69 27.27 120.92C27.86 121.62 28.33 122.31 28.67 122.99C28.81 123.27 28.89 123.5 28.89 123.69C28.89 123.93 28.8 124.1 28.61 124.21C28.48 124.29 28.35 124.33 28.21 124.33C27.9 124.33 27.66 124.1 27.47 123.63C27.42 123.49 27.36 123.36 27.32 123.26C26.99 123.38 26.46 123.55 25.75 123.77V131.35C25.75 131.51 25.7 131.64 25.61 131.76C25.47 131.91 25.29 131.99 25.06 131.99C24.79 131.99 24.6 131.89 24.47 131.7C24.41 131.6 24.38 131.49 24.38 131.35V124.17C22.84 124.58 21.9 124.79 21.58 124.79C21.38 124.79 21.22 124.69 21.1 124.5C20.98 124.32 20.93 124.16 20.93 124.01C20.93 123.89 20.96 123.77 21.03 123.67C21.07 123.62 21.23 123.44 21.5 123.15C22.38 122.2 23.11 121.4 23.68 120.75C23.11 120.52 22.54 120.33 21.99 120.16C21.4 119.98 21.11 119.72 21.11 119.39C21.11 119.13 21.32 118.76 21.75 118.27C22.64 117.26 23.56 115.95 24.51 114.33C24.69 114.02 24.92 113.87 25.2 113.87C25.36 113.87 25.51 113.92 25.64 114.02C25.82 114.16 25.92 114.33 25.92 114.55C25.92 114.76 25.79 115.05 25.54 115.41C24.58 116.77 23.61 117.99 22.63 119.06C23.51 119.41 24.13 119.66 24.48 119.83ZM27.05 124.92C27.23 124.92 27.43 125.09 27.63 125.42C27.94 125.92 28.25 126.54 28.55 127.29C28.61 127.43 28.64 127.57 28.64 127.71C28.64 128.2 28.4 128.44 27.91 128.44C27.52 128.44 27.27 128.19 27.17 127.69C27.01 126.92 26.82 126.26 26.63 125.73C26.58 125.59 26.56 125.48 26.56 125.38C26.57 125.07 26.73 124.92 27.05 124.92ZM34.47 126.5V129.66L39.2 129.5C39.71 129.49 39.96 129.7 39.96 130.15C39.96 130.6 39.72 130.83 39.24 130.85L28.49 131.23C27.97 131.25 27.71 131.04 27.71 130.58C27.71 130.12 27.94 129.9 28.4 129.88L33.02 129.72V126.59L30.14 126.75C30.13 126.75 30.1 126.75 30.05 126.75C29.61 126.75 29.39 126.55 29.39 126.16C29.39 125.72 29.61 125.48 30.06 125.45L37.56 125.01C38.08 124.98 38.34 125.18 38.34 125.64C38.34 126.08 38.11 126.31 37.66 126.34L34.47 126.5ZM38.02 116.5L29.44 117.1C29.43 117.1 29.39 117.1 29.32 117.1C28.86 117.1 28.63 116.86 28.63 116.39C28.63 116 28.86 115.79 29.31 115.75L37.92 115.13C37.96 115.13 38 115.13 38.02 115.13C38.48 115.13 38.72 115.34 38.72 115.76C38.72 116.22 38.49 116.46 38.02 116.5ZM31.41 117.67C31.58 117.67 31.73 117.72 31.85 117.81C32.04 117.95 32.14 118.12 32.14 118.32C32.14 118.65 31.63 119.45 30.6 120.73C30.43 120.95 30.34 121.12 30.34 121.25C30.34 121.37 30.42 121.52 30.57 121.68C31.49 122.73 31.95 123.47 31.95 123.88C31.95 124.09 31.86 124.26 31.68 124.38C31.52 124.49 31.35 124.54 31.17 124.54C30.91 124.54 30.67 124.35 30.46 123.98C29.95 123.06 29.52 122.38 29.18 121.92C29 121.67 28.9 121.46 28.9 121.26C28.9 121.05 29.05 120.76 29.34 120.41C29.82 119.82 30.28 119.07 30.72 118.15C30.9 117.84 31.12 117.67 31.41 117.67ZM34.32 117.55C34.46 117.55 34.59 117.59 34.71 117.66C34.92 117.8 35.03 117.98 35.03 118.19C35.03 118.31 34.99 118.46 34.9 118.63C34.54 119.31 34.11 119.98 33.61 120.66C33.47 120.84 33.4 120.98 33.4 121.09C33.4 121.19 33.48 121.33 33.64 121.51C34.22 122.18 34.63 122.69 34.88 123.04C35.02 123.23 35.09 123.41 35.09 123.58C35.09 123.77 35 123.94 34.82 124.08C34.66 124.2 34.5 124.26 34.33 124.26C34.1 124.26 33.91 124.15 33.76 123.93C33.74 123.89 33.63 123.7 33.42 123.38C32.98 122.66 32.62 122.13 32.34 121.79C32.09 121.48 31.97 121.24 31.97 121.05C31.97 120.87 32.09 120.63 32.34 120.33C32.67 119.94 33.12 119.17 33.69 118.02C33.85 117.72 34.07 117.55 34.32 117.55ZM37.28 117.48C37.41 117.48 37.54 117.52 37.68 117.6C37.93 117.74 38.05 117.92 38.05 118.14C38.05 118.38 37.65 119.03 36.86 120.08C36.52 120.52 36.35 120.8 36.35 120.91C36.35 121.02 36.43 121.14 36.58 121.27C37.01 121.65 37.54 122.19 38.18 122.91C38.35 123.1 38.44 123.3 38.44 123.51C38.44 123.71 38.37 123.88 38.23 124.02C38.09 124.16 37.92 124.24 37.73 124.24C37.5 124.24 37.31 124.14 37.16 123.95C37.13 123.91 36.97 123.71 36.7 123.35C36.17 122.65 35.72 122.1 35.34 121.72C35.09 121.48 34.97 121.24 34.97 121C34.97 120.81 35.08 120.56 35.31 120.26C35.77 119.64 36.24 118.86 36.69 117.92C36.83 117.63 37.03 117.48 37.28 117.48Z" fill="black"/>
<path d="M46.42 120.11V122.1L48.46 121.83C48.49 121.82 48.52 121.82 48.55 121.82C48.72 121.82 48.87 121.89 48.99 122.04C49.11 122.17 49.16 122.32 49.16 122.48C49.16 122.84 48.97 123.04 48.6 123.1L46.42 123.38V128.78L46.56 128.73C47.21 128.51 47.8 128.29 48.32 128.05C48.51 127.97 48.68 127.93 48.82 127.93C49.17 127.93 49.34 128.11 49.34 128.47C49.34 128.7 49.2 128.89 48.93 129.03C47.96 129.56 46.4 130.17 44.25 130.88C43.39 131.17 42.88 131.31 42.71 131.31C42.42 131.31 42.22 131.19 42.09 130.94C42.04 130.83 42.01 130.72 42.01 130.6C42.01 130.31 42.16 130.09 42.45 129.94C42.53 129.91 42.71 129.85 43.01 129.78C43.3 129.71 43.98 129.52 45.05 129.21V123.55L42.7 123.85C42.69 123.85 42.65 123.85 42.6 123.85C42.22 123.85 42.03 123.64 42.03 123.21C42.03 122.85 42.21 122.65 42.57 122.59L45.07 122.26V120.26L43.83 120.4C43.8 120.41 43.78 120.41 43.76 120.41C43.52 120.41 43.34 120.31 43.23 120.12C43.18 120.02 43.15 119.92 43.15 119.81C43.15 119.77 43.15 119.72 43.16 119.66C42.71 120.22 42.46 120.52 42.41 120.57C42.25 120.75 42.08 120.85 41.91 120.85C41.8 120.85 41.69 120.81 41.59 120.72C41.46 120.61 41.4 120.48 41.4 120.32C41.4 120.17 41.56 119.9 41.88 119.52C43.1 118.07 44.15 116.25 45.04 114.04C45.2 113.64 45.44 113.45 45.76 113.45C45.9 113.45 46.03 113.49 46.15 113.56C46.36 113.68 46.46 113.87 46.46 114.11C46.46 114.24 46.42 114.41 46.33 114.63C46.64 114.87 46.87 115.05 47.03 115.16C47.84 115.78 48.46 116.28 48.87 116.69C49.09 116.9 49.2 117.11 49.2 117.31C49.2 117.45 49.14 117.61 49.03 117.77C48.9 117.95 48.73 118.05 48.51 118.05C48.27 118.05 48.01 117.88 47.74 117.54C47.27 116.95 46.65 116.3 45.88 115.59C45.29 116.73 44.5 117.95 43.5 119.25C43.58 119.22 43.65 119.2 43.74 119.19L47.54 118.71C47.57 118.7 47.61 118.7 47.67 118.7C48.07 118.7 48.26 118.91 48.26 119.32C48.26 119.7 48.07 119.9 47.68 119.95L46.42 120.11ZM42.67 124.89C42.85 124.89 43.02 125.01 43.19 125.24C43.44 125.57 43.8 126.26 44.27 127.28C44.37 127.49 44.41 127.66 44.41 127.81C44.41 128.08 44.3 128.28 44.07 128.4C43.95 128.46 43.83 128.49 43.7 128.49C43.35 128.49 43.11 128.23 42.98 127.72C42.9 127.41 42.7 126.79 42.35 125.87C42.25 125.61 42.21 125.42 42.21 125.31C42.22 125.03 42.37 124.89 42.67 124.89ZM48.48 123.96C48.59 123.96 48.69 123.98 48.78 124.03C49 124.14 49.11 124.32 49.11 124.57C49.11 124.88 48.89 125.46 48.44 126.3C48.2 126.75 48.01 127.08 47.88 127.28C47.74 127.48 47.58 127.58 47.39 127.58C47.3 127.58 47.21 127.55 47.11 127.49C46.98 127.4 46.92 127.27 46.92 127.1C46.92 127 46.97 126.83 47.07 126.61C47.26 126.17 47.5 125.5 47.79 124.59C47.91 124.18 48.15 123.96 48.48 123.96ZM57.64 116.36C57.48 117.06 57.26 117.76 56.98 118.45L59.8 118.19C59.83 118.19 59.86 118.19 59.89 118.19C60.32 118.19 60.54 118.4 60.54 118.82C60.54 119.17 60.33 119.36 59.9 119.39L49.66 120.27C49.61 120.28 49.56 120.28 49.54 120.28C49.36 120.29 49.21 120.23 49.09 120.1C49.01 120.01 48.97 119.89 48.97 119.74C48.97 119.36 49.17 119.16 49.57 119.12L52.21 118.87C52.09 118.44 51.93 117.92 51.72 117.32L51.57 116.91L50.34 117.03C50.32 117.03 50.28 117.03 50.23 117.03C49.86 117.03 49.68 116.86 49.68 116.52C49.68 116.16 49.87 115.96 50.26 115.92L53.75 115.57V113.97C53.75 113.55 53.98 113.33 54.44 113.33C54.9 113.33 55.14 113.54 55.14 113.97V115.44L58.52 115.1C58.54 115.1 58.57 115.1 58.6 115.1C59 115.1 59.2 115.28 59.2 115.63C59.2 116.01 59 116.21 58.6 116.26L57.64 116.36ZM54.07 126.57L52.16 126.68C52.13 127.03 51.91 127.2 51.5 127.2C51.12 127.2 50.9 126.97 50.84 126.52L50.28 121.57C50.27 121.52 50.27 121.48 50.27 121.46C50.25 121.08 50.48 120.89 50.96 120.89C51.25 120.89 51.46 121.02 51.56 121.28L58.13 120.7C58.21 120.69 58.27 120.69 58.29 120.69C58.86 120.69 59.14 120.98 59.14 121.56C59.14 121.62 59.14 121.68 59.13 121.72L58.73 126.26C58.7 126.62 58.52 126.8 58.18 126.8C57.81 126.8 57.59 126.66 57.51 126.37L55.36 126.49V127.8L58.45 127.62C58.92 127.59 59.16 127.77 59.16 128.16C59.16 128.56 58.95 128.77 58.53 128.8L55.36 128.97V130.22L59.97 130H60.02C60.2 129.99 60.35 130.03 60.48 130.13C60.62 130.23 60.69 130.38 60.69 130.56C60.69 130.98 60.47 131.2 60.03 131.22L49.8 131.65C49.34 131.67 49.1 131.48 49.1 131.09C49.1 130.7 49.31 130.5 49.74 130.47L54.07 130.28V129.04L51.23 129.2C51.18 129.2 51.15 129.2 51.14 129.2C50.74 129.2 50.55 129.02 50.55 128.67C50.55 128.29 50.75 128.09 51.15 128.07L54.07 127.9V126.57ZM54.07 123.24V122.11L51.71 122.32L51.82 123.42L54.07 123.24ZM54.07 124.26L51.94 124.41L52.06 125.63L54.07 125.52V124.26ZM56.3 116.48L52.75 116.81C53.06 117.53 53.3 118.18 53.48 118.77L55.67 118.58C55.88 118.02 56.09 117.33 56.3 116.48ZM55.37 123.12L57.77 122.94L57.82 122.25C57.82 122.22 57.82 122.2 57.82 122.19C57.8 121.92 57.66 121.8 57.4 121.83L55.37 121.99V123.12ZM55.37 125.45L57.56 125.33L57.67 124.02L55.36 124.18V125.45H55.37Z" fill="black"/>
<path d="M97.7 128.13L88.77 128.65C88.69 129.03 88.45 129.22 88.04 129.22C87.59 129.22 87.34 128.99 87.3 128.54L86.76 122.37C86.76 122.34 86.76 122.31 86.76 122.27C86.77 122.07 86.84 121.91 86.97 121.79C87.11 121.65 87.3 121.57 87.51 121.57C87.79 121.57 88.01 121.68 88.16 121.91L92.46 121.65V120.22L84.76 120.6C84.74 120.6 84.72 120.6 84.71 120.6C84.52 120.6 84.36 120.53 84.23 120.38C84.12 120.26 84.07 120.12 84.07 119.96C84.07 119.56 84.26 119.36 84.63 119.33L89.76 119.07L89.58 117.2L86.76 117.37C86.71 117.37 86.68 117.37 86.68 117.37C86.52 117.37 86.39 117.31 86.27 117.2C86.15 117.08 86.1 116.94 86.1 116.76C86.1 116.38 86.28 116.18 86.64 116.16L89.47 116L89.31 114.34C89.28 114.07 89.37 113.85 89.57 113.7C89.71 113.59 89.88 113.54 90.08 113.54C90.57 113.54 90.83 113.77 90.87 114.23L90.98 115.91L95.23 115.65L95.35 113.8C95.38 113.34 95.63 113.11 96.12 113.11C96.34 113.11 96.53 113.19 96.69 113.34C96.85 113.49 96.92 113.68 96.9 113.91L96.75 115.56L99.47 115.4C99.57 115.4 99.66 115.41 99.73 115.44C100.01 115.54 100.15 115.73 100.15 116.01C100.15 116.39 99.97 116.59 99.6 116.61L96.65 116.78L96.48 118.73L101.75 118.47C101.89 118.47 102 118.49 102.09 118.53C102.33 118.65 102.45 118.84 102.45 119.1C102.45 119.5 102.26 119.7 101.89 119.73L93.92 120.12V121.54L98.21 121.29C98.28 121.28 98.33 121.28 98.37 121.28C99.3 121.28 99.76 121.68 99.76 122.49C99.76 122.56 99.75 122.66 99.74 122.8L99.17 128.11C99.12 128.56 98.88 128.79 98.44 128.79C97.94 128.82 97.71 128.59 97.7 128.13ZM90.42 128.9C90.67 128.9 90.86 129 91 129.2C91.09 129.33 91.14 129.47 91.14 129.63C91.14 129.9 91 130.13 90.71 130.3C89.62 130.94 88.21 131.52 86.47 132.04C86.01 132.18 85.7 132.25 85.56 132.25C85.19 132.25 85.01 132.07 85.01 131.71C85.01 131.5 85.1 131.34 85.29 131.23C85.34 131.2 85.49 131.15 85.74 131.07C87.09 130.63 88.44 129.98 89.8 129.12C90.02 128.96 90.23 128.9 90.42 128.9ZM92.45 124.38V122.81L88.34 123.04L88.46 124.6L92.45 124.38ZM92.45 127.28V125.52L88.55 125.74L88.69 127.51L92.45 127.28ZM95.12 116.9L91.03 117.15L91.16 119.04L94.98 118.85L95.12 116.9ZM98.09 124.08L98.18 123.08C98.19 123.04 98.19 123.01 98.19 122.99C98.2 122.84 98.14 122.72 98.02 122.63C97.93 122.57 97.82 122.54 97.7 122.55H97.66L93.88 122.76V124.32L98.09 124.08ZM97.8 126.97L97.97 125.22L93.87 125.45V127.2L97.8 126.97ZM95.91 128.64C96.06 128.64 96.3 128.7 96.64 128.82C98.05 129.35 99.36 130 100.58 130.77C100.91 130.99 101.08 131.24 101.08 131.52C101.08 131.66 101.04 131.8 100.95 131.94C100.79 132.18 100.57 132.3 100.29 132.3C100.09 132.3 99.82 132.17 99.48 131.92C98.13 130.94 96.92 130.2 95.85 129.71C95.57 129.58 95.43 129.4 95.43 129.17C95.43 128.81 95.59 128.64 95.91 128.64Z" fill="black"/>
<path d="M107.74 122.28C107.08 123.87 106.33 125.33 105.51 126.67C105.35 126.94 105.15 127.08 104.94 127.08C104.82 127.08 104.71 127.04 104.61 126.96C104.47 126.84 104.39 126.69 104.39 126.51C104.39 126.41 104.51 126.15 104.76 125.73C105.84 123.9 106.73 121.71 107.42 119.16L105.41 119.38C105.35 119.39 105.3 119.39 105.27 119.39C104.87 119.39 104.68 119.17 104.68 118.72C104.68 118.32 104.88 118.09 105.26 118.05L107.74 117.79V114.24C107.74 114.01 107.82 113.84 108 113.73C108.13 113.64 108.28 113.6 108.45 113.6C108.63 113.6 108.8 113.65 108.94 113.75C109.1 113.87 109.19 114.03 109.19 114.24V117.63L110.62 117.48C110.67 117.47 110.71 117.47 110.74 117.47C111.18 117.47 111.4 117.69 111.4 118.13C111.4 118.54 111.2 118.77 110.79 118.81L109.19 118.97V120.37C109.79 120.7 110.46 121.17 111.21 121.77C111.46 121.98 111.59 122.2 111.59 122.44C111.59 122.6 111.52 122.77 111.4 122.94C111.26 123.11 111.09 123.2 110.88 123.2C110.66 123.2 110.43 123.05 110.19 122.76C109.83 122.32 109.5 121.94 109.2 121.6V131.11C109.2 131.27 109.15 131.41 109.05 131.52C108.91 131.68 108.73 131.76 108.49 131.76C108.22 131.76 108.02 131.66 107.87 131.47C107.79 131.37 107.76 131.25 107.76 131.11V122.28H107.74ZM121.43 123.01L123.2 122.94C123.7 122.93 123.96 123.14 123.96 123.59C123.96 124.01 123.72 124.23 123.24 124.25L121.31 124.31C121.19 125.43 121.04 126.65 120.85 127.96L120.78 128.49C120.81 128.5 120.86 128.51 120.92 128.52C121.33 128.6 121.82 128.73 122.38 128.9C122.91 129.06 123.18 129.3 123.18 129.61C123.18 130.12 122.96 130.37 122.51 130.37C122.4 130.37 122.27 130.35 122.12 130.3C121.61 130.13 121.08 129.98 120.54 129.84C120.42 130.52 120.33 130.95 120.26 131.14C120.04 131.81 119.69 132.14 119.22 132.14C118.83 132.14 118.25 131.97 117.47 131.62C116.74 131.29 116.37 131 116.37 130.74C116.37 130.47 116.52 130.33 116.82 130.33C116.92 130.33 117.07 130.36 117.26 130.41C117.93 130.6 118.35 130.7 118.51 130.7C118.74 130.7 118.89 130.57 118.96 130.31C118.99 130.23 119.04 129.97 119.13 129.53C117.25 129.17 115.18 128.94 112.94 128.83C112.06 128.79 111.63 128.47 111.63 127.88C111.63 127.72 111.7 127.35 111.85 126.79C112.04 126.09 112.21 125.36 112.36 124.61L111.09 124.65C110.6 124.67 110.35 124.47 110.35 124.05C110.35 123.63 110.56 123.41 110.98 123.39L112.61 123.34C112.9 121.71 113.1 120.5 113.19 119.72C113.25 119.2 113.49 118.94 113.92 118.94C114.25 118.94 114.46 119.07 114.57 119.33L120.36 118.9C120.45 118.89 120.5 118.89 120.51 118.89C121.23 118.89 121.6 119.29 121.6 120.1C121.6 120.31 121.57 120.79 121.52 121.55L121.43 123.01ZM114.08 117.66C113.04 119.33 112.32 120.16 111.91 120.16C111.81 120.16 111.7 120.11 111.59 120.02C111.45 119.88 111.37 119.74 111.37 119.6C111.37 119.48 111.44 119.33 111.58 119.16C112.42 118.14 113.28 116.48 114.16 114.17C114.31 113.78 114.54 113.59 114.84 113.59C114.94 113.59 115.05 113.61 115.17 113.65C115.5 113.77 115.67 113.98 115.67 114.28C115.67 114.53 115.39 115.21 114.84 116.32L121.81 115.69C121.86 115.68 121.89 115.68 121.9 115.68C122.35 115.68 122.58 115.89 122.58 116.31C122.58 116.75 122.34 117 121.87 117.04L114.08 117.66ZM115.45 127.74C115.46 127.68 115.48 127.59 115.5 127.48C115.6 127.04 115.77 126.03 116.01 124.48L113.75 124.56L113.51 125.7C113.33 126.54 113.24 127 113.22 127.06C113.21 127.11 113.21 127.15 113.21 127.16C113.19 127.25 113.18 127.31 113.18 127.35C113.18 127.45 113.22 127.51 113.29 127.54C113.33 127.55 113.6 127.58 114.11 127.61C114.63 127.67 115.07 127.7 115.45 127.74ZM116.56 120.44L114.48 120.57C114.27 121.91 114.11 122.81 114.02 123.28L116.22 123.2C116.34 122.37 116.44 121.6 116.52 120.87L116.56 120.44ZM116.81 127.88C117.56 127.96 118.42 128.07 119.37 128.23C119.56 126.98 119.73 125.69 119.86 124.35L117.4 124.43C117.19 125.92 117 127.07 116.81 127.88ZM117.9 120.34C117.89 120.44 117.8 121.27 117.62 122.83L117.61 122.97L117.59 123.13L120 123.04L120.21 120.6C120.21 120.32 120.11 120.19 119.91 120.2L117.9 120.34Z" fill="black"/>
<path d="M135.75 116.67V121.45L140.66 121.15C140.68 121.15 140.71 121.15 140.75 121.15C141.22 121.15 141.46 121.38 141.46 121.83C141.46 122.29 141.22 122.53 140.74 122.56L135.75 122.85V128.63L143.18 128.34L143.22 128.33C143.39 128.31 143.55 128.35 143.7 128.44C143.88 128.56 143.98 128.76 143.98 129.03C143.98 129.51 143.73 129.76 143.22 129.78L127.41 130.36C126.88 130.38 126.61 130.16 126.61 129.69C126.61 129.22 126.85 128.97 127.32 128.95L134.17 128.68V122.92L129.26 123.2C129.24 123.2 129.2 123.2 129.15 123.2C128.68 123.2 128.44 122.98 128.44 122.55C128.44 122.1 128.67 121.86 129.13 121.83L134.17 121.52V116.74L128.5 117.08C128.49 117.08 128.44 117.08 128.36 117.08C127.92 117.08 127.7 116.84 127.7 116.36C127.7 115.98 127.92 115.78 128.36 115.76L141.24 114.94C141.77 114.91 142.03 115.12 142.03 115.6C142.03 116.06 141.8 116.3 141.34 116.33L135.75 116.67ZM138.71 123.89C139.05 123.89 139.61 124.2 140.38 124.81C141.33 125.57 141.8 126.16 141.8 126.58C141.8 126.76 141.74 126.93 141.62 127.07C141.45 127.28 141.24 127.38 140.98 127.38C140.72 127.38 140.48 127.22 140.25 126.9C139.7 126.15 139.09 125.48 138.42 124.88C138.23 124.71 138.13 124.54 138.13 124.37C138.15 124.05 138.34 123.89 138.71 123.89Z" fill="black"/>
</svg>
