<svg width="310" height="71" viewBox="0 0 310 71" fill="none" xmlns="http://www.w3.org/2000/svg">
<path d="M59.54 11.75C59.43 11.77 59.03 11.82 58.32 11.92L56.4 12.19V13.18L60.92 13C61.08 12.99 61.21 13.05 61.32 13.18C61.4 13.27 61.44 13.38 61.44 13.5C61.44 13.69 61.35 13.84 61.17 13.95C61.11 13.98 61.05 14 60.98 14L56.41 14.18V14.99L63.11 14.82C63.42 14.81 63.58 14.98 63.58 15.32C63.58 15.66 63.43 15.84 63.13 15.85L48.74 16.21C48.42 16.22 48.26 16.04 48.26 15.69C48.26 15.36 48.42 15.19 48.73 15.18L55.15 15.02V14.22L50.69 14.4C50.67 14.4 50.66 14.4 50.65 14.4C50.36 14.4 50.22 14.23 50.22 13.89C50.22 13.58 50.36 13.42 50.65 13.41L55.15 13.23V12.34C54.48 12.42 53.69 12.5 52.79 12.57C51.88 12.64 51.35 12.68 51.23 12.68C51.05 12.68 50.93 12.6 50.84 12.45C50.76 12.3 50.73 12.17 50.73 12.05C50.73 11.92 50.89 11.75 51.2 11.56C51.58 11.33 52.08 10.99 52.69 10.57L50.88 10.68C50.87 10.68 50.86 10.68 50.84 10.68C50.58 10.68 50.44 10.52 50.44 10.19C50.44 9.92997 50.56 9.79998 50.8 9.78998L60.03 9.25C60.12 9.24 60.21 9.26998 60.3 9.31998C60.45 9.39998 60.52 9.51999 60.52 9.67999C60.52 9.79999 60.48 9.9 60.39 10C60.3 10.1 60.21 10.14 60.1 10.15L58.73 10.24C59.29 10.44 60.02 10.78 60.93 11.26C61.23 11.42 61.39 11.62 61.39 11.87C61.39 11.98 61.36 12.08 61.31 12.18C61.2 12.37 61.02 12.47 60.78 12.47C60.59 12.47 60.37 12.38 60.12 12.19C60.05 12.12 59.86 11.98 59.54 11.75ZM49.83 8.15997L62.45 7.42999C62.48 7.42999 62.53 7.42999 62.59 7.42999C63.15 7.42999 63.42 7.59997 63.42 7.93997C63.42 8.26997 63.17 8.72998 62.67 9.28998C62.13 9.90998 61.74 10.22 61.5 10.22C61.42 10.22 61.35 10.19 61.27 10.13C61.18 10.06 61.14 9.96999 61.14 9.85999C61.14 9.76999 61.18 9.63999 61.27 9.48999C61.55 8.99999 61.69 8.69999 61.69 8.57999C61.69 8.44999 61.58 8.37999 61.36 8.39999L49.89 9.06998C49.88 9.62998 49.84 10.09 49.75 10.46C49.67 10.84 49.43 11.02 49.05 11.02C48.94 11.02 48.84 10.99 48.74 10.94C48.55 10.83 48.45 10.66 48.45 10.42C48.45 10.33 48.49 10.19 48.56 9.98999C48.74 9.47999 48.84 8.85997 48.89 8.12997C48.91 7.79997 49.08 7.62997 49.4 7.62997C49.63 7.63997 49.78 7.80997 49.83 8.15997ZM56.42 2.92999L60.45 2.67999L60.48 2.66998C60.54 2.65998 60.63 2.67998 60.74 2.72998C60.9 2.80998 60.99 2.93998 60.99 3.13998C60.99 3.42998 60.85 3.58999 60.58 3.60999L51.22 4.18997C51.18 4.18997 51.16 4.18997 51.15 4.18997C50.96 4.18997 50.82 4.10999 50.73 3.95999C50.68 3.88999 50.66 3.80999 50.66 3.70999C50.66 3.41999 50.81 3.25999 51.1 3.23999L55.13 2.98999V2.42999L50.15 2.71997C50.12 2.71997 50.1 2.71997 50.08 2.71997C49.76 2.71997 49.6 2.55998 49.6 2.22998C49.6 1.92998 49.74 1.76 50.03 1.75L55.14 1.45999V0.599976C55.14 0.199976 55.36 0 55.79 0C56.01 0 56.19 0.0799805 56.32 0.22998C56.4 0.32998 56.44 0.449976 56.44 0.599976V1.38998L61.41 1.09998H61.45C61.61 1.08998 61.74 1.14 61.85 1.25C61.94 1.34 61.98 1.45 61.98 1.59C61.98 1.89 61.83 2.05998 61.54 2.06998L56.45 2.35999V2.92999H56.42ZM60.22 6C60.48 6.06 60.62 6.19998 60.62 6.41998C60.62 6.69998 60.48 6.83999 60.19 6.85999L52.39 7.32999C52.28 7.54999 52.09 7.65997 51.82 7.65997C51.45 7.65997 51.23 7.46999 51.17 7.07999L50.88 5.35999C50.87 5.31999 50.87 5.27999 50.87 5.23999C50.87 5.01999 50.97 4.86 51.17 4.75C51.28 4.69 51.4 4.65997 51.52 4.65997C51.72 4.65997 51.89 4.73999 52.03 4.89999L59.59 4.38998C59.6 4.38998 59.64 4.38998 59.7 4.38998C60.24 4.38998 60.52 4.59998 60.52 5.00998C60.52 5.10998 60.5 5.21998 60.46 5.34998L60.22 6ZM59.03 6.06L59.12 5.65997C59.14 5.54997 59.16 5.46997 59.16 5.40997C59.16 5.26997 59.05 5.19998 58.83 5.19998C58.81 5.19998 58.78 5.19998 58.76 5.19998L52.24 5.68997L52.35 6.5L59.03 6.06ZM58.55 11.1C58.4 11.01 58.22 10.91 58.01 10.8C57.86 10.73 57.78 10.62 57.78 10.48C57.78 10.42 57.8 10.35 57.83 10.26L54.52 10.46C53.93 10.92 53.3 11.33 52.65 11.7C53.69 11.64 55.46 11.46 57.96 11.16L58.14 11.13L58.55 11.1Z" fill="black"/>
<path d="M71.43 12.14C71.59 12.08 71.76 12.01 71.92 11.94C72.28 11.79 72.52 11.71 72.64 11.71C72.82 11.71 72.95 11.79 73.05 11.95C73.11 12.04 73.14 12.14 73.14 12.24C73.14 12.44 73.03 12.6 72.81 12.73C71.96 13.23 70.41 13.87 68.16 14.65C67.29 14.95 66.77 15.11 66.6 15.11C66.39 15.11 66.22 15.03 66.1 14.86C65.99 14.7 65.94 14.53 65.94 14.35C65.94 14.1 66.03 13.93 66.22 13.82C66.28 13.78 66.5 13.72 66.85 13.64C67.82 13.41 68.89 13.07 70.08 12.64V7.03998L67.02 7.41998C66.98 7.42998 66.94 7.42999 66.9 7.42999C66.46 7.42999 66.24 7.21998 66.24 6.78998C66.24 6.40998 66.45 6.19999 66.86 6.14999L70.09 5.78V2.03C70.09 1.58 70.31 1.35999 70.75 1.35999C71.2 1.35999 71.43 1.58 71.43 2.03V12.14ZM75.85 7.69998V13.02C75.85 13.52 76.01 13.83 76.32 13.97C76.55 14.06 77.01 14.11 77.67 14.11C78.58 14.11 79.21 14.04 79.56 13.89C79.84 13.78 80.03 13.49 80.11 13.03C80.19 12.58 80.24 11.98 80.25 11.25C80.26 10.86 80.41 10.67 80.71 10.67C80.94 10.67 81.09 10.81 81.17 11.1C81.29 11.59 81.35 12.38 81.35 13.46C81.35 14.01 81.26 14.41 81.07 14.66C80.84 14.97 80.41 15.18 79.79 15.28C79.24 15.36 78.57 15.4 77.79 15.4C76.3 15.4 75.36 15.22 74.98 14.87C74.67 14.58 74.51 14.06 74.51 13.31V1.42999C74.51 1.22999 74.59 1.07999 74.75 0.959991C74.87 0.869991 75.02 0.819977 75.2 0.819977C75.42 0.819977 75.6 0.899998 75.73 1.06C75.81 1.16 75.85 1.27999 75.85 1.42999V6.53C77 5.97 78.22 5.23998 79.5 4.34998C79.71 4.20998 79.89 4.13998 80.06 4.13998C80.25 4.13998 80.41 4.20999 80.54 4.35999C80.66 4.48999 80.72 4.64998 80.72 4.81998C80.72 5.06998 80.6 5.27998 80.36 5.44998C79.87 5.81998 78.95 6.31998 77.62 6.94998C76.89 7.28998 76.3 7.53998 75.85 7.69998Z" fill="black"/>
<path d="M91.03 10.59L87.52 10.81C87.53 10.88 87.53 10.94 87.53 10.98C87.53 11.37 87.31 11.57 86.88 11.57C86.53 11.57 86.33 11.36 86.26 10.94L85.31 4.92999C85.3 4.85999 85.29 4.80999 85.29 4.76999C85.29 4.35999 85.54 4.14999 86.04 4.14999C86.38 4.14999 86.59 4.32997 86.66 4.68997L91.03 4.31V1.00998C91.03 0.799979 91.11 0.649978 91.27 0.539978C91.4 0.449978 91.55 0.399994 91.71 0.399994C91.87 0.399994 92.03 0.449978 92.17 0.539978C92.33 0.649978 92.41 0.809979 92.41 1.00998V4.19998L97.07 3.79999C97.11 3.78999 97.15 3.78998 97.2 3.78998C97.59 3.78998 97.88 3.9 98.08 4.12C98.25 4.3 98.33 4.53 98.33 4.81C98.33 4.92 98.32 5.03997 98.29 5.15997L97.48 9.01999C97.81 9.04999 97.98 9.24999 97.98 9.60999C97.98 9.97999 97.76 10.18 97.33 10.21L92.4 10.51V15.88C92.4 16 92.37 16.1 92.31 16.19C92.19 16.39 91.99 16.49 91.71 16.49C91.43 16.49 91.24 16.39 91.11 16.19C91.05 16.1 91.02 16 91.02 15.88V10.59H91.03ZM91.03 9.40997V5.53L86.84 5.88998L87.36 9.62997L91.03 9.40997ZM92.4 9.31998L96.14 9.09L96.77 5.41998C96.77 5.39998 96.77 5.37998 96.77 5.34998C96.77 5.13998 96.64 5.04999 96.39 5.07999L92.39 5.41998V9.31998H92.4Z" fill="black"/>
<path d="M110.39 13.25L114.79 12.91L114.97 6.94998C115 6.51998 115.23 6.29999 115.67 6.29999C116.03 6.29999 116.25 6.45998 116.35 6.78998C116.37 6.87998 116.38 6.96999 116.38 7.04999L116.07 14.45C116.03 14.88 115.81 15.1 115.41 15.1C115.18 15.1 115.01 15.03 114.89 14.88C114.77 14.73 114.72 14.57 114.73 14.4L114.74 14.35V14.13L104.99 14.87C104.92 14.88 104.85 14.88 104.77 14.88C103.88 14.88 103.42 14.41 103.39 13.46L103.21 7.78998C103.2 7.62998 103.23 7.49998 103.3 7.38998C103.43 7.15998 103.63 7.03998 103.92 7.03998C104.23 7.03998 104.44 7.15997 104.55 7.40997C104.59 7.49997 104.61 7.58997 104.61 7.68997L104.73 13.03C104.74 13.44 104.95 13.65 105.36 13.65C105.43 13.65 105.47 13.65 105.48 13.65L108.97 13.37V2.34998C108.97 2.14998 109.03 1.99 109.16 1.87C109.29 1.75 109.46 1.68997 109.66 1.68997C109.92 1.68997 110.11 1.77999 110.25 1.95999C110.33 2.06999 110.37 2.19999 110.37 2.35999V13.25H110.39Z" fill="black"/>
<path d="M127.77 9.95999L124.98 10.17L125.09 14.05C125.09 14.43 124.87 14.62 124.44 14.62C124.19 14.62 124.01 14.53 123.89 14.36C123.83 14.27 123.8 14.16 123.79 14.05L123.68 10.21C122.09 11.59 121.11 12.28 120.75 12.28C120.61 12.28 120.5 12.22 120.42 12.1C120.36 12.01 120.32 11.91 120.32 11.82C120.32 11.69 120.38 11.56 120.5 11.44C120.53 11.42 120.71 11.28 121.04 11.04C122.37 10.04 123.69 8.70998 125 7.03998L120.56 7.34C120.1 7.37 119.87 7.17998 119.87 6.75998C119.87 6.37998 120.08 6.17999 120.5 6.14999L125.86 5.78C126.11 5.38 126.36 4.94999 126.6 4.48999C126.77 4.15999 126.97 4 127.21 4C127.35 4 127.49 4.03999 127.62 4.10999C127.82 4.21999 127.92 4.35999 127.92 4.54999C127.92 4.72999 127.75 5.10999 127.42 5.67999L135 5.15997C135.01 5.15997 135.04 5.15997 135.08 5.15997C135.48 5.15997 135.69 5.34998 135.69 5.72998C135.69 6.11998 135.48 6.31998 135.07 6.34998L126.64 6.92999C126.09 7.69999 125.51 8.39998 124.89 9.03998L124.9 9.03L127.75 8.81V7.81C127.75 7.63 127.81 7.47997 127.94 7.37997C128.06 7.28997 128.21 7.23999 128.38 7.23999C128.6 7.23999 128.76 7.30999 128.88 7.45999C128.96 7.54999 129 7.67 129 7.81V8.70999L132.13 8.45999C132.27 8.44999 132.4 8.43997 132.52 8.43997C132.98 8.43997 133.28 8.55998 133.42 8.78998C133.53 8.95998 133.58 9.31997 133.58 9.87997C133.58 11.7 133.52 12.92 133.39 13.55C133.24 14.26 132.88 14.61 132.33 14.61C132.02 14.61 131.58 14.46 131.01 14.16C130.5 13.9 130.25 13.67 130.25 13.47C130.25 13.22 130.38 13.09 130.63 13.09C130.72 13.09 130.88 13.12 131.11 13.19C131.4 13.27 131.63 13.31 131.79 13.31C132 13.31 132.12 13.19 132.17 12.96C132.26 12.48 132.3 11.48 132.3 9.94998C132.3 9.78998 132.27 9.69998 132.22 9.66998C132.18 9.64998 132.12 9.62997 132.02 9.62997C131.98 9.62997 131.95 9.62997 131.94 9.62997L129.02 9.85999V15.97C129.02 16.36 128.81 16.55 128.39 16.55C128.14 16.55 127.96 16.46 127.85 16.27C127.8 16.19 127.77 16.09 127.77 15.97V9.95999ZM129.43 2.34998L130.87 2.79999C131.4 2.96999 131.69 3.06998 131.75 3.09998C131.99 3.22998 132.11 3.41997 132.11 3.65997C132.11 3.78997 132.08 3.91998 132.01 4.03998C131.89 4.22998 131.71 4.32999 131.46 4.32999C131.3 4.32999 130.98 4.22998 130.49 4.03998C129.9 3.79998 129.1 3.50997 128.09 3.15997L128.01 3.12997C126.93 3.69997 125.53 4.27997 123.84 4.87997C123.37 5.03997 123.09 5.12997 123.01 5.12997C122.82 5.12997 122.68 5.03999 122.61 4.85999C122.58 4.77999 122.57 4.70999 122.57 4.64999C122.57 4.48999 122.66 4.35998 122.83 4.25998C122.87 4.23998 123.06 4.16 123.4 4.03C124.3 3.7 125.33 3.23997 126.5 2.62997L126.1 2.50998L125.56 2.34L124.16 1.92999C123.81 1.81999 123.63 1.64998 123.63 1.38998C123.63 1.09998 123.79 0.959991 124.11 0.959991C124.24 0.959991 125.48 1.26998 127.81 1.88998C128.61 1.40998 129.28 0.95 129.81 0.5C130.03 0.31 130.24 0.219971 130.43 0.219971C130.59 0.219971 130.72 0.269995 130.83 0.369995C130.98 0.499995 131.05 0.659996 131.05 0.839996C131.05 1.03 130.96 1.21 130.78 1.37C130.47 1.66 130.01 1.97998 129.43 2.34998Z" fill="black"/>
<path d="M146.36 5.17999L151.1 4.91998C151.16 4.90998 151.2 4.90997 151.23 4.90997C151.98 4.90997 152.36 5.32999 152.36 6.17999V15.11C152.36 15.49 152.27 15.78 152.08 15.98C151.9 16.18 151.66 16.28 151.36 16.28C150.95 16.28 150.4 16.15 149.72 15.88C149.09 15.63 148.77 15.39 148.77 15.17C148.77 15.12 148.79 15.05 148.82 14.98C148.89 14.82 149.01 14.74 149.19 14.74C149.27 14.74 149.38 14.76 149.52 14.79C150.04 14.92 150.43 14.99 150.7 14.99C150.98 14.99 151.11 14.83 151.11 14.5V6.32999C151.11 6.08999 150.98 5.96997 150.71 5.96997C150.69 5.96997 150.67 5.96997 150.64 5.96997L146.37 6.21997V15.25C146.37 15.41 146.32 15.55 146.21 15.65C146.09 15.77 145.93 15.83 145.74 15.83C145.49 15.83 145.31 15.74 145.2 15.55C145.15 15.47 145.12 15.37 145.12 15.25V6.28998L140.9 6.53V15.66C140.9 16.08 140.69 16.29 140.27 16.29C139.85 16.29 139.65 16.08 139.65 15.66V6.01999C139.13 6.28999 138.8 6.41998 138.67 6.41998C138.51 6.41998 138.38 6.34998 138.3 6.19998C138.25 6.11998 138.22 6.03999 138.22 5.95999C138.22 5.83999 138.27 5.73998 138.38 5.63998C138.42 5.59998 138.55 5.52997 138.78 5.40997C139.65 4.93997 140.59 4.27997 141.6 3.43997C141.9 3.18997 142.13 3.06 142.3 3.06C142.49 3.06 142.66 3.13 142.8 3.28C142.89 3.37 142.93 3.47998 142.93 3.59998C142.93 3.77998 142.83 3.95997 142.63 4.15997C142.35 4.43997 141.76 4.83999 140.84 5.35999L140.73 5.41998C140.76 5.44998 140.78 5.47998 140.8 5.50998L145.12 5.25998V2.65997L140.88 2.90997L140.78 2.91998C140.65 2.92998 140.53 2.89 140.41 2.81C140.26 2.72 140.19 2.55998 140.19 2.34998C140.19 1.95998 140.4 1.75998 140.81 1.72998L150.87 1.10999C150.91 1.10999 150.94 1.10999 150.95 1.10999C151.35 1.10999 151.56 1.28997 151.56 1.65997C151.56 2.04997 151.36 2.25 150.95 2.28L146.37 2.54999V5.17999H146.36ZM143.34 13.09C142.5 13.88 141.94 14.28 141.66 14.28C141.58 14.28 141.5 14.24 141.43 14.17C141.33 14.06 141.28 13.96 141.28 13.84C141.28 13.69 141.41 13.53 141.66 13.34C141.87 13.18 142.16 12.9 142.51 12.51C142.15 12.27 141.87 12.09 141.66 11.98C141.48 11.89 141.4 11.76 141.4 11.6C141.4 11.5 141.44 11.41 141.51 11.33C141.59 11.25 141.67 11.21 141.77 11.21C142 11.21 142.46 11.39 143.14 11.74C143.35 11.46 143.54 11.18 143.7 10.91C143.85 10.67 144.03 10.55 144.24 10.55C144.32 10.55 144.39 10.57 144.46 10.6C144.69 10.71 144.81 10.88 144.81 11.12C144.81 11.3 144.57 11.69 144.09 12.29C144.28 12.41 144.47 12.54 144.63 12.67C144.79 12.8 144.88 12.95 144.88 13.14C144.88 13.3 144.83 13.43 144.72 13.54C144.61 13.65 144.48 13.7 144.33 13.7C144.2 13.7 144.05 13.63 143.88 13.5C143.73 13.39 143.55 13.25 143.34 13.09ZM144.11 8.65997C144.62 8.97997 144.87 9.24999 144.87 9.48999C144.87 9.60999 144.84 9.71998 144.77 9.81998C144.66 9.96998 144.52 10.05 144.32 10.05C144.19 10.05 144.03 9.96998 143.85 9.81998C143.72 9.70998 143.56 9.58997 143.38 9.46997C142.51 10.24 141.93 10.62 141.66 10.62C141.58 10.62 141.5 10.58 141.44 10.51C141.35 10.4 141.3 10.29 141.3 10.18C141.3 10.04 141.43 9.87997 141.68 9.68997C141.92 9.50997 142.2 9.24 142.51 8.87C142.17 8.64 141.89 8.46998 141.66 8.34998C141.48 8.24998 141.4 8.11999 141.4 7.95999C141.4 7.85999 141.44 7.76997 141.51 7.68997C141.58 7.60997 141.67 7.56998 141.77 7.56998C142.03 7.56998 142.49 7.74999 143.14 8.10999C143.35 7.82999 143.54 7.56 143.7 7.28C143.84 7.04 144.02 6.91998 144.24 6.91998C144.32 6.91998 144.39 6.93997 144.46 6.96997C144.69 7.07997 144.8 7.24999 144.8 7.48999C144.8 7.66999 144.57 8.05997 144.11 8.65997ZM149.56 8.22998C149.75 8.34998 149.93 8.47 150.09 8.59C150.25 8.71 150.34 8.87 150.34 9.06C150.34 9.18 150.31 9.28998 150.24 9.38998C150.13 9.53998 149.99 9.62 149.79 9.62C149.66 9.62 149.5 9.53998 149.32 9.38998C149.23 9.30998 149.07 9.19998 148.85 9.03998C148.49 9.39998 148.08 9.72 147.63 10C147.41 10.13 147.25 10.19 147.15 10.19C147.06 10.19 146.97 10.15 146.9 10.07C146.81 9.95998 146.77 9.85 146.77 9.75C146.77 9.61 146.89 9.44998 147.14 9.25998C147.36 9.09998 147.64 8.81997 147.98 8.43997C147.66 8.21997 147.37 8.04997 147.13 7.90997C146.95 7.81997 146.87 7.69 146.87 7.53C146.87 7.43 146.91 7.33998 146.98 7.25998C147.05 7.17998 147.14 7.13998 147.24 7.13998C147.46 7.13998 147.92 7.31999 148.61 7.67999C148.82 7.38999 149.01 7.10998 149.16 6.84998C149.31 6.60998 149.49 6.48999 149.7 6.48999C149.78 6.48999 149.86 6.50998 149.93 6.53998C150.16 6.64998 150.27 6.82 150.27 7.06C150.25 7.25 150.02 7.63998 149.56 8.22998ZM148.96 12.72C148.15 13.51 147.6 13.9 147.3 13.9C147.19 13.9 147.1 13.85 147.02 13.75C146.93 13.64 146.88 13.54 146.88 13.43C146.88 13.29 147.01 13.13 147.26 12.94C147.51 12.75 147.79 12.48 148.11 12.13C147.76 11.9 147.47 11.72 147.25 11.59C147.07 11.5 146.98 11.37 146.98 11.21C146.98 11.1 147.02 11.01 147.09 10.93C147.16 10.85 147.25 10.81 147.35 10.81C147.62 10.81 148.08 10.99 148.74 11.35C148.97 11.05 149.17 10.73 149.34 10.42C149.44 10.24 149.6 10.15 149.81 10.15C149.89 10.15 149.96 10.17 150.04 10.2C150.27 10.31 150.38 10.48 150.38 10.72C150.38 10.95 150.15 11.34 149.69 11.91C149.87 12.02 150.05 12.14 150.22 12.27C150.38 12.4 150.47 12.55 150.47 12.74C150.47 12.86 150.44 12.97 150.37 13.07C150.26 13.22 150.12 13.3 149.92 13.3C149.79 13.3 149.63 13.22 149.45 13.07C149.38 13.02 149.22 12.9 148.96 12.72ZM149.53 2.75C149.68 2.75 150.09 2.87999 150.75 3.14999C151.72 3.53999 152.55 3.95997 153.22 4.40997C153.44 4.55997 153.55 4.74999 153.55 4.95999C153.55 5.09999 153.5 5.22999 153.41 5.35999C153.29 5.50999 153.14 5.59 152.94 5.59C152.79 5.59 152.58 5.48999 152.31 5.29999C151.68 4.84999 150.73 4.30998 149.46 3.66998C149.21 3.54998 149.09 3.39998 149.09 3.22998C149.09 3.12998 149.12 3.02997 149.18 2.93997C149.27 2.80997 149.38 2.75 149.53 2.75Z" fill="black"/>
<path d="M160.01 10.35V12.82C160.01 13.11 160.09 13.28 160.26 13.35C160.39 13.4 160.6 13.43 160.88 13.43C161.66 13.43 162.11 13.3 162.23 13.04C162.29 12.9 162.33 12.51 162.34 11.88C162.35 11.52 162.48 11.34 162.74 11.34C162.99 11.34 163.14 11.49 163.21 11.8C163.3 12.21 163.34 12.73 163.34 13.36C163.34 13.92 163.1 14.27 162.61 14.4C162.22 14.51 161.59 14.56 160.72 14.56C159.98 14.56 159.48 14.47 159.23 14.28C158.97 14.07 158.83 13.7 158.83 13.16V10.52L157.37 10.74C157.26 10.76 157.16 10.77 157.09 10.77C156.46 10.77 156.13 10.37 156.11 9.56998L156.02 6.50998C156.01 6.35998 156.06 6.23997 156.16 6.15997C156.28 6.04997 156.42 6 156.59 6C156.78 6 156.94 6.06997 157.05 6.21997C157.11 6.30997 157.15 6.39998 157.15 6.50998L157.25 9.22998C157.26 9.49998 157.37 9.63 157.58 9.62C157.59 9.62 157.61 9.61999 157.64 9.60999L158.83 9.42999V4.53C157.55 4.88 156.8 5.04999 156.57 5.04999C156.27 5.04999 156.11 4.88999 156.11 4.57999C156.11 4.38999 156.19 4.23999 156.36 4.14999C156.41 4.10999 156.57 4.07 156.84 4C157.24 3.9 157.9 3.69997 158.83 3.37997V0.789978C158.83 0.439978 159.03 0.259979 159.42 0.259979C159.81 0.259979 160 0.439978 160 0.789978V2.93997C160.43 2.75997 160.81 2.58998 161.13 2.41998C161.32 2.32998 161.49 2.28 161.65 2.28C161.86 2.28 162.03 2.35999 162.16 2.51999C162.24 2.62999 162.28 2.74999 162.28 2.89999C162.28 3.20999 162.09 3.44 161.71 3.59C161.19 3.8 160.62 3.98999 160 4.17999V9.25L161.74 8.98999L161.87 5.59C161.91 5.24 162.11 5.06998 162.46 5.06998C162.82 5.06998 163 5.25999 163 5.64999L162.82 10.31C162.79 10.66 162.6 10.83 162.26 10.83C161.98 10.83 161.8 10.72 161.72 10.5C161.7 10.45 161.69 10.38 161.69 10.31L161.7 10.08L160.01 10.35ZM165.92 13.43C166.06 13.43 166.19 13.48 166.31 13.58C166.45 13.7 166.52 13.85 166.52 14.03C166.52 14.21 166.41 14.4 166.2 14.6C165.46 15.3 164.64 15.88 163.75 16.32C163.56 16.41 163.41 16.46 163.28 16.46C163.13 16.46 163.02 16.4 162.94 16.28C162.87 16.17 162.83 16.07 162.83 15.96C162.83 15.78 162.98 15.6 163.27 15.42C163.92 15.03 164.61 14.46 165.34 13.71C165.53 13.52 165.72 13.43 165.92 13.43ZM167.02 4.16998L169.53 3.95999C169.6 3.94999 169.67 3.94998 169.74 3.94998C170.49 3.94998 170.87 4.33997 170.87 5.12997V12.76C170.87 13.12 170.67 13.3 170.28 13.3C169.88 13.3 169.68 13.12 169.68 12.76V12.69L165.48 12.96C165.42 13.27 165.22 13.43 164.88 13.43C164.65 13.43 164.48 13.35 164.36 13.19C164.3 13.11 164.27 13.01 164.27 12.89V4.57999C164.27 4.41999 164.33 4.28997 164.44 4.18997C164.56 4.07997 164.7 4.03 164.88 4.03C165.11 4.03 165.29 4.11999 165.41 4.29999L165.87 4.25998C166.25 3.55998 166.55 2.90999 166.76 2.32999L163.85 2.54999C163.8 2.55999 163.77 2.56 163.75 2.56C163.38 2.56 163.2 2.36999 163.2 1.98999C163.2 1.63999 163.37 1.44998 163.72 1.41998L170.98 0.849976C171.02 0.839976 171.05 0.839996 171.07 0.839996C171.26 0.829996 171.42 0.899988 171.54 1.04999C171.62 1.14999 171.65 1.26999 171.65 1.39999C171.65 1.76999 171.47 1.97 171.1 2L168.12 2.22998C167.9 2.79998 167.53 3.44998 167.02 4.16998ZM169.69 6.46997V5.48999C169.69 5.14999 169.55 4.98999 169.27 5.01999C169.26 5.01999 169.23 5.02 169.18 5.03L165.49 5.35999V6.79999L169.69 6.46997ZM169.69 7.5L165.49 7.82999V9.31998L169.69 9.00998V7.5ZM169.69 10.03L165.49 10.36V11.91L169.69 11.64V10.03ZM168.96 13.37C169.35 13.37 170.12 13.89 171.26 14.93C171.42 15.08 171.53 15.17 171.58 15.2C171.82 15.41 171.94 15.61 171.94 15.82C171.94 15.97 171.88 16.11 171.77 16.24C171.65 16.39 171.5 16.46 171.31 16.46C171.09 16.46 170.85 16.32 170.59 16.05C169.96 15.39 169.35 14.8 168.76 14.27C168.59 14.12 168.51 13.96 168.51 13.8C168.51 13.7 168.55 13.6 168.62 13.51C168.7 13.42 168.82 13.37 168.96 13.37Z" fill="black"/>
<path d="M186.73 8.50998L185.46 8.59998V8.63998L185.33 12.12C185.33 12.16 185.33 12.19 185.33 12.21C185.33 12.46 185.42 12.62 185.61 12.68C185.76 12.72 186.08 12.74 186.57 12.74C187.28 12.74 187.73 12.67 187.91 12.54C188.02 12.46 188.08 12.34 188.1 12.18C188.13 11.94 188.15 11.54 188.15 10.98C188.15 10.58 188.28 10.37 188.53 10.37C188.74 10.37 188.88 10.49 188.95 10.72C189.13 11.31 189.21 11.92 189.21 12.57C189.21 13.19 188.98 13.56 188.53 13.7C188.08 13.83 187.33 13.9 186.28 13.9C185.2 13.9 184.53 13.73 184.28 13.39C184.13 13.18 184.06 12.87 184.08 12.44L184.22 8.66998L182.96 8.75998C183.28 8.83998 183.44 9.02 183.44 9.31C183.44 9.48 183.37 9.71999 183.22 10.02C182.7 11.07 181.9 12 180.82 12.81C180.16 13.3 179.67 13.59 179.35 13.66C179.44 13.68 179.54 13.7 179.66 13.72C183.17 14.44 186.4 14.82 189.36 14.87C190.02 14.88 190.34 14.96 190.34 15.12C190.34 15.21 190.22 15.35 189.97 15.55C189.4 16.01 188.86 16.24 188.37 16.24C188.19 16.24 187.88 16.21 187.43 16.15C185.51 15.91 182.8 15.41 179.29 14.66C178.17 14.42 177.21 14.3 176.4 14.3C175.98 14.3 175.42 14.4 174.7 14.61C174.42 14.69 174.24 14.72 174.16 14.72C173.8 14.72 173.62 14.53 173.62 14.15C173.62 13.9 173.76 13.73 174.03 13.64C174.14 13.61 174.44 13.56 174.94 13.47C176.14 12.27 176.73 11.5 176.73 11.18C176.73 11.05 176.59 10.89 176.3 10.71C175.99 10.52 175.83 10.28 175.83 9.98999C175.83 9.65999 176.1 8.85 176.65 7.56L174.53 8.06C174.45 8.08 174.37 8.09 174.28 8.09C174.04 8.09 173.87 7.98 173.78 7.75C173.74 7.66 173.72 7.57 173.72 7.5C173.72 7.2 173.88 7.01999 174.2 6.95999L177.17 6.37997C177.24 6.36997 177.33 6.35999 177.42 6.35999C177.9 6.35999 178.14 6.57998 178.14 7.00998C178.14 7.25998 178.03 7.54998 177.8 7.88998C177.47 8.37998 177.21 8.84999 177.04 9.29999C176.98 9.45999 176.95 9.59999 176.95 9.70999C176.95 9.85999 177.07 9.99997 177.32 10.13C177.71 10.34 177.94 10.46 178.01 10.52C178.21 10.66 178.31 10.83 178.31 11.02C178.31 11.48 177.64 12.27 176.31 13.37H176.39H176.48C177.28 13.37 178.09 13.45 178.93 13.6C178.79 13.48 178.72 13.35 178.72 13.19C178.72 13.01 178.85 12.85 179.11 12.69C180.48 11.86 181.51 10.68 182.19 9.16998C182.27 8.98998 182.39 8.86998 182.54 8.78998L181.21 8.87997V8.91998L181.22 8.95999C181.23 9.10999 181.16 9.24 180.99 9.34C180.88 9.41 180.76 9.44998 180.64 9.44998C180.45 9.44998 180.29 9.36997 180.17 9.21997C180.1 9.13997 180.06 9.03998 180.05 8.91998L179.67 5.25C179.67 5.23 179.67 5.20999 179.67 5.20999C179.67 5.04999 179.74 4.93 179.88 4.84C180 4.77 180.13 4.72998 180.27 4.72998C180.4 4.72998 180.54 4.77999 180.67 4.87L182.61 4.68997C182.66 4.62997 182.72 4.56998 182.79 4.50998C183.35 3.94998 183.86 3.35998 184.33 2.72998C184.42 2.60998 184.46 2.50999 184.47 2.42999C184.48 2.33999 184.42 2.30998 184.31 2.31998L184.28 2.32999L182.19 2.50998C181.46 3.30998 180.71 3.99999 179.93 4.57999C179.51 4.88999 179.2 5.04999 179.02 5.04999C178.73 5.04999 178.59 4.90997 178.59 4.62997C178.59 4.47997 178.64 4.35998 178.74 4.25998C178.77 4.23998 178.88 4.14998 179.07 4.00998C180.21 3.13998 181.14 2.13 181.84 1C182.01 0.72 182.21 0.589996 182.43 0.589996C182.89 0.589996 183.12 0.769984 183.12 1.13998C183.12 1.19998 183.11 1.26999 183.08 1.35999L185.32 1.16998C185.36 1.15998 185.41 1.15997 185.48 1.15997C186.01 1.15997 186.28 1.34998 186.28 1.72998C186.28 1.93998 186.18 2.18999 185.98 2.48999C185.55 3.14999 184.94 3.82998 184.15 4.53998L187.14 4.25998C187.19 4.24998 187.26 4.25 187.34 4.25C188 4.25 188.32 4.54997 188.32 5.15997C188.32 5.24997 188.31 5.36999 188.28 5.48999L187.81 8.28C187.75 8.64 187.56 8.81998 187.23 8.81998C187.01 8.81998 186.83 8.71998 186.73 8.50998ZM174.98 1.39999C175.28 1.39999 175.9 1.73998 176.83 2.41998C177.14 2.63998 177.37 2.84 177.53 3C177.75 3.21 177.86 3.41997 177.86 3.62997C177.86 3.75997 177.81 3.9 177.72 4.03C177.59 4.21 177.41 4.29999 177.18 4.29999C176.95 4.29999 176.71 4.16 176.47 3.87C175.94 3.24 175.4 2.71 174.84 2.28C174.65 2.13 174.56 1.97999 174.56 1.82999C174.55 1.54999 174.7 1.39999 174.98 1.39999ZM183.32 7.68997V5.68997L180.97 5.88998L181.15 7.84L183.32 7.68997ZM186.81 7.45999L187.05 5.68997C187.05 5.66997 187.05 5.64 187.05 5.62C187.04 5.44 186.93 5.36997 186.72 5.37997L184.47 5.56998V7.60999L186.81 7.45999Z" fill="black"/>
<path d="M195.39 8.31998C194.59 9.82998 193.64 11.19 192.52 12.42C192.35 12.61 192.17 12.7 191.99 12.7C191.88 12.7 191.78 12.65 191.69 12.56C191.61 12.47 191.57 12.37 191.57 12.26C191.57 12.13 191.74 11.85 192.07 11.43C192.8 10.5 193.56 9.26998 194.36 7.72998C194.63 7.19998 194.84 6.75997 195 6.40997L192.65 6.63998C192.6 6.64998 192.55 6.64999 192.52 6.64999C192.09 6.64999 191.88 6.46 191.88 6.09C191.88 5.7 192.06 5.48999 192.43 5.45999L195.38 5.17999V1.60999C195.38 1.41999 195.45 1.26997 195.59 1.15997C195.72 1.05997 195.87 1.00998 196.05 1.00998C196.27 1.00998 196.44 1.08999 196.57 1.23999C196.66 1.34999 196.7 1.46999 196.7 1.60999V5.04999L198.04 4.92999C198.07 4.91999 198.1 4.91998 198.12 4.91998C198.56 4.91998 198.78 5.11999 198.78 5.51999C198.78 5.87999 198.6 6.08 198.24 6.12L196.71 6.26999V7.19998C197.03 7.44998 197.27 7.63 197.43 7.75C198.19 8.32 198.71 8.72999 198.98 8.98999C199.2 9.20999 199.31 9.41998 199.31 9.63998C199.31 9.76998 199.27 9.88999 199.18 9.98999C199.03 10.17 198.87 10.25 198.69 10.25C198.48 10.25 198.23 10.08 197.95 9.72998C197.57 9.26998 197.16 8.81998 196.71 8.38998V15.47C196.71 15.63 196.65 15.75 196.54 15.85C196.41 15.97 196.24 16.03 196.05 16.03C195.8 16.03 195.61 15.95 195.48 15.78C195.42 15.7 195.39 15.6 195.39 15.48V8.31998ZM203.79 5.68997C204.48 7.11997 205.4 8.59997 206.58 10.13C207.08 10.77 207.58 11.35 208.07 11.84C208.32 12.09 208.45 12.28 208.45 12.4C208.45 12.5 208.32 12.6 208.08 12.69C207.83 12.79 207.57 12.84 207.3 12.84C207.01 12.84 206.78 12.72 206.59 12.49C205.44 11.04 204.42 9.26998 203.54 7.16998V15.78C203.54 15.94 203.48 16.07 203.37 16.18C203.25 16.3 203.08 16.36 202.88 16.36C202.63 16.36 202.44 16.27 202.32 16.1C202.26 16.01 202.22 15.91 202.22 15.79V7.84998C201.42 9.76998 200.41 11.38 199.18 12.69C198.89 13.01 198.67 13.16 198.53 13.16C198.44 13.16 198.35 13.12 198.27 13.05C198.18 12.97 198.13 12.87 198.13 12.77C198.13 12.65 198.29 12.38 198.6 11.98C199.53 10.77 200.42 9.15999 201.25 7.14999C201.46 6.63999 201.62 6.21997 201.73 5.87997L199.81 6.06C199.78 6.06 199.75 6.06 199.73 6.06C199.48 6.06 199.31 5.94997 199.21 5.71997C199.17 5.63997 199.16 5.54998 199.16 5.44998C199.16 5.09998 199.34 4.91 199.7 4.87L202.22 4.64999V1.18997C202.22 1.01997 202.28 0.889978 202.39 0.789978C202.52 0.659978 202.69 0.599976 202.89 0.599976C203.16 0.599976 203.35 0.699984 203.46 0.889984C203.51 0.979984 203.54 1.08998 203.54 1.19998V4.54999L206.62 4.28L206.7 4.26999C206.87 4.25999 207.02 4.31998 207.14 4.44998C207.24 4.55998 207.29 4.68998 207.29 4.84998C207.29 5.22998 207.11 5.42997 206.74 5.46997L203.79 5.68997Z" fill="black"/>
<path d="M210.15 5.47998C210.28 5.47998 210.47 5.53997 210.71 5.65997C211.46 6.05997 212.09 6.50998 212.6 7.00998C212.85 7.25998 212.97 7.48997 212.97 7.71997C212.97 7.85997 212.92 7.99 212.82 8.12C212.7 8.27 212.53 8.34 212.33 8.34C212.14 8.34 211.92 8.20999 211.69 7.95999C211.02 7.23999 210.44 6.70999 209.98 6.35999C209.81 6.23999 209.73 6.08998 209.73 5.91998C209.73 5.80998 209.77 5.71 209.84 5.62C209.91 5.52999 210.02 5.47998 210.15 5.47998ZM213.5 10.21C213.84 10.21 214.01 10.37 214.01 10.69C214.01 10.82 213.94 11.05 213.8 11.38C213.14 12.89 212.37 14.22 211.51 15.36C211.29 15.65 211.06 15.8 210.82 15.8C210.64 15.8 210.49 15.73 210.35 15.6C210.22 15.47 210.15 15.32 210.15 15.13C210.15 14.95 210.28 14.7 210.55 14.36C211.19 13.54 211.97 12.32 212.9 10.71C213.08 10.38 213.28 10.21 213.5 10.21ZM211.08 1.31C211.23 1.31 211.43 1.36999 211.66 1.48999C212.37 1.85999 212.97 2.28998 213.46 2.78998C213.71 3.03998 213.83 3.25998 213.83 3.47998C213.83 3.60998 213.78 3.73999 213.68 3.85999C213.55 4.02999 213.37 4.10999 213.15 4.10999C212.93 4.10999 212.71 3.97999 212.49 3.70999C212.07 3.18999 211.54 2.68998 210.91 2.19998C210.73 2.06998 210.64 1.90998 210.64 1.72998C210.64 1.44998 210.79 1.31 211.08 1.31ZM223.76 15.34L216.34 15.64V15.8C216.34 15.95 216.3 16.07 216.21 16.17C216.09 16.3 215.93 16.37 215.73 16.37C215.51 16.37 215.34 16.29 215.22 16.12C215.16 16.03 215.12 15.92 215.12 15.79V5.48999C215.12 5.29999 215.2 5.14998 215.35 5.03998C215.47 4.95998 215.59 4.91998 215.73 4.91998C215.98 4.91998 216.16 5.01998 216.28 5.22998L217.97 5.12V2.82999L215.71 2.98999L215.68 3C215.52 3.02 215.39 2.94998 215.28 2.78998C215.2 2.67998 215.17 2.55998 215.17 2.41998C215.17 2.05998 215.33 1.86 215.65 1.84L223.89 1.25C224.25 1.25 224.43 1.43998 224.43 1.81998C224.43 2.17998 224.27 2.37999 223.95 2.39999L221.69 2.56V4.87L223.42 4.75998C223.52 4.74998 223.59 4.75 223.64 4.75C224.52 4.75 224.97 5.16999 224.97 6.01999V15.91C224.97 16.06 224.92 16.18 224.83 16.28C224.71 16.41 224.55 16.48 224.36 16.48C224.14 16.48 223.97 16.4 223.85 16.23C223.79 16.14 223.75 16.03 223.75 15.9V15.34H223.76ZM217.95 6.22998L216.35 6.34V11.6L223.77 11.22V9.64999C223.62 9.65999 223.41 9.67998 223.15 9.69998C222.79 9.72998 222.4 9.73999 221.99 9.73999C221.3 9.73999 220.87 9.57999 220.7 9.26999C220.59 9.06999 220.53 8.76997 220.53 8.37997V6.03L219.15 6.12997C219.14 6.16997 219.14 6.24 219.13 6.34C219.02 7.85 218.59 9.02 217.85 9.87C217.51 10.26 217.22 10.45 216.98 10.45C216.7 10.45 216.56 10.3 216.56 10.01C216.56 9.87998 216.63 9.73999 216.76 9.57999C217.45 8.75999 217.85 7.63998 217.95 6.22998ZM223.76 12.29L216.34 12.66V14.51L223.76 14.21V12.29ZM220.52 4.94998V2.64999L219.16 2.75V5.03998L220.52 4.94998ZM221.71 5.96997V8.09C221.71 8.28 221.73 8.42 221.76 8.5C221.81 8.63 221.96 8.69998 222.2 8.69998C222.72 8.69998 223.24 8.65998 223.76 8.56998V6.31998C223.76 5.98998 223.61 5.82998 223.31 5.84998L221.71 5.96997Z" fill="black"/>
<path d="M236.73 2.98999L242.16 2.57999C242.18 2.57999 242.21 2.57999 242.23 2.57999C242.45 2.57999 242.61 2.67997 242.72 2.87997C242.77 2.96997 242.79 3.05998 242.79 3.16998C242.79 3.52998 242.61 3.73 242.25 3.75L231.68 4.54999C231.69 4.75999 231.69 4.90999 231.69 5.01999C231.69 6.58999 231.49 8.27998 231.08 10.1C230.67 11.98 230.09 13.51 229.35 14.71C229.06 15.17 228.81 15.4 228.59 15.4C228.5 15.4 228.41 15.37 228.32 15.3C228.17 15.19 228.1 15.06 228.1 14.89C228.1 14.77 228.18 14.56 228.35 14.28C228.87 13.38 229.3 12.13 229.65 10.51C230.05 8.64998 230.28 6.67999 230.33 4.60999C230.07 4.53999 229.93 4.34998 229.93 4.03998C229.93 3.67998 230.15 3.48999 230.58 3.45999L235.39 3.09V1.07999C235.39 0.679987 235.61 0.469971 236.06 0.469971C236.26 0.469971 236.42 0.529994 236.54 0.649994C236.66 0.759994 236.72 0.899987 236.72 1.07999V2.98999H236.73ZM241.05 14.3C241.42 14.34 241.6 14.54 241.6 14.9C241.6 15.28 241.38 15.47 240.95 15.49L233.97 15.78L233.98 15.89C233.98 15.9 233.98 15.91 233.98 15.94C233.98 16.32 233.77 16.51 233.36 16.51C232.97 16.51 232.76 16.3 232.73 15.89L232.27 10.99C232.27 10.97 232.27 10.94 232.27 10.89C232.27 10.52 232.49 10.34 232.93 10.34C233.29 10.34 233.5 10.51 233.57 10.85L235.89 10.66V5.34C235.89 4.89 236.11 4.66998 236.55 4.66998C237 4.66998 237.23 4.89 237.23 5.34V7.25998L241.08 6.91998C241.34 6.89998 241.53 6.96999 241.64 7.14999C241.71 7.25999 241.75 7.37998 241.75 7.50998C241.75 7.86998 241.54 8.06999 241.12 8.10999L237.24 8.44998V10.55L240.3 10.3C240.37 10.29 240.43 10.29 240.48 10.29C241.19 10.29 241.55 10.62 241.55 11.27C241.55 11.39 241.54 11.51 241.51 11.63L241.05 14.3ZM239.73 14.35L240.11 11.86C240.11 11.84 240.11 11.82 240.11 11.79C240.1 11.56 239.97 11.45 239.73 11.46L233.67 11.94L233.88 14.6L239.73 14.35Z" fill="black"/>
<path d="M3.74 32.7V37.62C4.25 37.36 4.77 37.08 5.3 36.77C5.46 36.68 5.61 36.63 5.75 36.63C5.91 36.63 6.05 36.7 6.15 36.85C6.21 36.93 6.24 37.02 6.24 37.11C6.24 37.25 6.17 37.39 6.02 37.52C5.87 37.65 5.51 37.89 4.94 38.25C3.57 39.1 2.34 39.77 1.24 40.25C0.99 40.36 0.8 40.42 0.67 40.42C0.42 40.42 0.230001 40.31 0.110001 40.1C0.0400006 39.98 0 39.85 0 39.73C0 39.52 0.0900005 39.35 0.27 39.22C0.35 39.16 0.54 39.07 0.85 38.95C1.24 38.8 1.77 38.57 2.44 38.26V32.9L0.809999 33.16C0.769999 33.17 0.739999 33.17 0.709999 33.17C0.509999 33.17 0.36 33.09 0.24 32.93C0.17 32.83 0.129999 32.7 0.129999 32.55C0.129999 32.23 0.31 32.05 0.68 31.99L2.43 31.71V28.1C2.43 27.71 2.64 27.51 3.07 27.51C3.29 27.51 3.47 27.59 3.6 27.74C3.68 27.84 3.72 27.96 3.72 28.1V31.5L5.18 31.27C5.22 31.26 5.26 31.26 5.31 31.26C5.68 31.26 5.86 31.46 5.86 31.85C5.86 32.18 5.67 32.38 5.28 32.44L3.74 32.7ZM8.26 33.63V39.12C8.26 39.68 8.44 40.02 8.81 40.13C9.06 40.21 9.69 40.24 10.68 40.24C12.65 40.24 13.91 40.11 14.44 39.86C14.82 39.68 15 39.23 15 38.51L14.99 37.98C14.99 37.66 15.14 37.5 15.44 37.5C15.65 37.5 15.8 37.67 15.88 38.02C16.01 38.54 16.07 39.13 16.07 39.79C16.07 40.37 15.84 40.78 15.38 41.02C14.72 41.36 13.1 41.53 10.51 41.53C9.52 41.53 8.85 41.5 8.5 41.44C7.79 41.33 7.33 41.01 7.13 40.49C7.02 40.2 6.96 39.84 6.96 39.39V34.08L6.08 34.4C5.95 34.45 5.83 34.47 5.72 34.47C5.45 34.47 5.27 34.34 5.17 34.09C5.13 34 5.12 33.91 5.12 33.84C5.12 33.56 5.29 33.36 5.63 33.23L6.97 32.76V30.17C6.97 29.77 7.18 29.57 7.61 29.57C7.83 29.57 8.01 29.65 8.14 29.8C8.22 29.9 8.26 30.02 8.26 30.17V32.31L10 31.71V27.28C10 26.89 10.21 26.69 10.64 26.69C10.87 26.69 11.04 26.77 11.17 26.92C11.25 27.02 11.29 27.14 11.29 27.28V31.25L13.76 30.4C14.02 30.31 14.26 30.26 14.5 30.26C15.12 30.26 15.43 30.66 15.43 31.46C15.43 32.5 15.29 33.64 15.02 34.89C14.85 35.68 14.68 36.24 14.5 36.58C14.27 37.04 13.95 37.27 13.56 37.27C13.22 37.27 12.79 37.12 12.27 36.81C11.8 36.53 11.56 36.28 11.56 36.06C11.56 35.8 11.69 35.66 11.96 35.66C12.08 35.66 12.21 35.7 12.36 35.77C12.62 35.9 12.83 35.96 12.98 35.96C13.25 35.96 13.46 35.71 13.6 35.2C13.75 34.69 13.88 34.09 13.98 33.39C14.09 32.67 14.14 32.21 14.14 32.01C14.14 31.79 14.04 31.68 13.83 31.68C13.74 31.68 13.64 31.7 13.52 31.74L11.29 32.54V37.72C11.29 38.12 11.07 38.32 10.64 38.32C10.21 38.32 10 38.12 10 37.72V33.01L8.26 33.63Z" fill="black"/>
<path d="M21.88 32.1V36.72C21.93 36.7 21.97 36.68 22 36.66C22.44 36.48 22.98 36.23 23.63 35.9C23.78 35.82 23.91 35.79 24.04 35.79C24.19 35.79 24.32 35.85 24.41 35.97C24.48 36.05 24.52 36.14 24.52 36.24C24.52 36.46 24.4 36.64 24.15 36.78C22.98 37.47 21.44 38.22 19.54 39.04C19.02 39.26 18.68 39.37 18.51 39.37C18.26 39.37 18.09 39.26 17.99 39.04C17.94 38.93 17.91 38.83 17.91 38.73C17.91 38.48 18.04 38.28 18.3 38.15C18.35 38.12 18.51 38.06 18.78 37.97C19.26 37.8 19.86 37.57 20.59 37.27V32.28L18.7 32.53C18.67 32.54 18.64 32.54 18.59 32.54C18.21 32.54 18.03 32.35 18.03 31.98C18.03 31.65 18.21 31.45 18.57 31.4L20.58 31.13V27.64C20.58 27.46 20.65 27.31 20.78 27.2C20.91 27.1 21.06 27.05 21.23 27.05C21.45 27.05 21.63 27.13 21.75 27.28C21.83 27.38 21.87 27.5 21.87 27.64V30.95L23.35 30.76C23.37 30.75 23.41 30.75 23.46 30.75C23.82 30.75 24 30.94 24 31.31C24 31.64 23.82 31.84 23.46 31.89L21.88 32.1ZM29.59 32.23L32.36 31.99C32.58 31.97 32.76 32.02 32.9 32.13C33.04 32.25 33.11 32.43 33.11 32.65C33.11 33.03 32.9 33.24 32.48 33.27L29.6 33.48V39.65L33.6 39.47C33.8 39.46 33.97 39.5 34.1 39.6C34.25 39.72 34.32 39.88 34.32 40.09C34.32 40.51 34.1 40.72 33.65 40.74L23.65 41.17C23.64 41.17 23.63 41.17 23.6 41.17H23.56C23.14 41.16 22.94 40.96 22.94 40.57C22.94 40.16 23.15 39.95 23.57 39.93L24.83 39.87V32.53C24.83 32.34 24.9 32.19 25.03 32.07C25.16 31.96 25.31 31.9 25.48 31.9C25.7 31.9 25.87 31.98 26 32.15C26.08 32.26 26.12 32.38 26.12 32.52V39.81L28.26 39.7V27.09C28.26 26.86 28.36 26.68 28.55 26.56C28.67 26.49 28.79 26.45 28.93 26.45C29.14 26.45 29.3 26.51 29.43 26.64C29.55 26.76 29.61 26.9 29.61 27.08V32.23H29.59Z" fill="black"/>
<path d="M38.01 31.88C38.24 31.88 38.47 31.95 38.69 32.09C39.08 32.34 39.28 32.7 39.28 33.16C39.28 33.5 39.16 33.79 38.93 34.04C38.68 34.3 38.36 34.44 37.99 34.44C37.78 34.44 37.59 34.39 37.41 34.29C36.95 34.05 36.72 33.67 36.72 33.15C36.72 32.76 36.87 32.44 37.18 32.18C37.42 31.98 37.7 31.88 38.01 31.88ZM38.01 38.08C38.24 38.08 38.47 38.15 38.69 38.29C39.08 38.54 39.28 38.9 39.28 39.36C39.28 39.7 39.16 39.99 38.93 40.24C38.68 40.5 38.36 40.64 37.99 40.64C37.78 40.64 37.59 40.59 37.41 40.5C36.95 40.25 36.72 39.87 36.72 39.35C36.72 38.96 36.87 38.64 37.18 38.38C37.42 38.18 37.7 38.08 38.01 38.08Z" fill="black"/>
<path d="M53.6 37.59C53.49 37.61 53.09 37.66 52.38 37.76L50.46 38.03V39.02L54.98 38.84C55.14 38.83 55.27 38.89 55.38 39.02C55.46 39.11 55.5 39.22 55.5 39.34C55.5 39.53 55.41 39.68 55.23 39.79C55.17 39.82 55.11 39.84 55.04 39.84L50.47 40.02V40.83L57.17 40.66C57.48 40.65 57.64 40.82 57.64 41.16C57.64 41.5 57.49 41.68 57.19 41.69L42.8 42.05C42.48 42.06 42.32 41.88 42.32 41.53C42.32 41.2 42.48 41.03 42.79 41.02L49.21 40.86V40.06L44.75 40.24C44.73 40.24 44.72 40.24 44.71 40.24C44.42 40.24 44.28 40.07 44.28 39.73C44.28 39.42 44.42 39.26 44.71 39.25L49.21 39.07V38.18C48.54 38.26 47.75 38.34 46.85 38.41C45.94 38.48 45.41 38.52 45.29 38.52C45.11 38.52 44.99 38.44 44.9 38.29C44.82 38.14 44.79 38.01 44.79 37.89C44.79 37.76 44.95 37.59 45.26 37.4C45.64 37.17 46.14 36.83 46.75 36.41L44.94 36.52C44.93 36.52 44.92 36.52 44.9 36.52C44.64 36.52 44.5 36.36 44.5 36.03C44.5 35.77 44.62 35.64 44.86 35.63L54.09 35.09C54.18 35.08 54.27 35.11 54.36 35.16C54.51 35.24 54.58 35.36 54.58 35.52C54.58 35.64 54.54 35.74 54.45 35.84C54.36 35.94 54.27 35.98 54.16 35.99L52.79 36.08C53.35 36.28 54.08 36.62 54.99 37.1C55.29 37.26 55.45 37.46 55.45 37.71C55.45 37.82 55.42 37.92 55.37 38.02C55.26 38.21 55.08 38.31 54.84 38.31C54.65 38.31 54.43 38.22 54.18 38.03C54.1 37.95 53.91 37.82 53.6 37.59ZM43.88 34L56.5 33.27C56.53 33.27 56.58 33.27 56.64 33.27C57.2 33.27 57.47 33.44 57.47 33.78C57.47 34.11 57.22 34.57 56.72 35.13C56.18 35.75 55.79 36.06 55.55 36.06C55.47 36.06 55.4 36.03 55.32 35.97C55.23 35.9 55.19 35.81 55.19 35.7C55.19 35.61 55.23 35.48 55.32 35.33C55.6 34.84 55.74 34.54 55.74 34.42C55.74 34.29 55.63 34.22 55.41 34.24L43.94 34.91C43.93 35.47 43.89 35.93 43.8 36.3C43.72 36.68 43.48 36.86 43.1 36.86C42.99 36.86 42.89 36.83 42.79 36.78C42.6 36.67 42.5 36.5 42.5 36.26C42.5 36.17 42.54 36.03 42.61 35.83C42.79 35.32 42.89 34.7 42.94 33.97C42.96 33.64 43.13 33.47 43.45 33.47C43.69 33.47 43.83 33.65 43.88 34ZM50.48 28.77L54.51 28.52L54.54 28.51C54.6 28.5 54.69 28.52 54.8 28.57C54.96 28.65 55.05 28.78 55.05 28.98C55.05 29.27 54.91 29.43 54.64 29.45L45.28 30.03C45.24 30.03 45.22 30.03 45.21 30.03C45.02 30.03 44.88 29.95 44.79 29.8C44.74 29.73 44.72 29.65 44.72 29.55C44.72 29.26 44.87 29.1 45.16 29.08L49.19 28.83V28.27L44.21 28.56C44.18 28.56 44.16 28.56 44.14 28.56C43.82 28.56 43.66 28.4 43.66 28.07C43.66 27.77 43.8 27.6 44.09 27.59L49.2 27.3V26.44C49.2 26.04 49.42 25.84 49.85 25.84C50.07 25.84 50.25 25.92 50.38 26.07C50.46 26.17 50.5 26.29 50.5 26.44V27.23L55.47 26.94H55.51C55.67 26.93 55.8 26.98 55.91 27.09C56 27.18 56.04 27.29 56.04 27.43C56.04 27.73 55.89 27.9 55.6 27.91L50.51 28.2V28.77H50.48ZM54.27 31.84C54.53 31.9 54.67 32.04 54.67 32.26C54.67 32.54 54.53 32.68 54.24 32.7L46.44 33.17C46.33 33.39 46.14 33.5 45.87 33.5C45.5 33.5 45.28 33.31 45.22 32.92L44.93 31.2C44.92 31.16 44.92 31.12 44.92 31.08C44.92 30.86 45.02 30.7 45.22 30.59C45.33 30.53 45.45 30.5 45.57 30.5C45.77 30.5 45.94 30.58 46.08 30.74L53.64 30.23C53.65 30.23 53.69 30.23 53.75 30.23C54.29 30.23 54.57 30.44 54.57 30.85C54.57 30.95 54.55 31.06 54.51 31.19L54.27 31.84ZM53.09 31.9L53.18 31.5C53.2 31.39 53.22 31.31 53.22 31.25C53.22 31.11 53.11 31.04 52.89 31.04C52.87 31.04 52.84 31.04 52.82 31.04L46.3 31.53L46.41 32.34L53.09 31.9ZM52.6 36.94C52.45 36.85 52.27 36.75 52.06 36.64C51.91 36.57 51.83 36.46 51.83 36.32C51.83 36.26 51.85 36.19 51.88 36.1L48.57 36.3C47.98 36.76 47.35 37.17 46.7 37.54C47.74 37.48 49.51 37.3 52.01 37L52.19 36.97L52.6 36.94Z" fill="black"/>
<path d="M65.49 37.97C65.65 37.91 65.82 37.84 65.98 37.77C66.34 37.62 66.58 37.54 66.7 37.54C66.88 37.54 67.01 37.62 67.11 37.78C67.17 37.87 67.2 37.97 67.2 38.07C67.2 38.27 67.09 38.43 66.87 38.56C66.02 39.06 64.47 39.7 62.22 40.48C61.35 40.78 60.83 40.94 60.66 40.94C60.45 40.94 60.28 40.86 60.16 40.69C60.05 40.53 60 40.36 60 40.18C60 39.93 60.09 39.76 60.28 39.65C60.34 39.61 60.56 39.55 60.91 39.47C61.88 39.24 62.95 38.9 64.14 38.47V32.87L61.08 33.25C61.04 33.26 61 33.26 60.96 33.26C60.52 33.26 60.3 33.05 60.3 32.62C60.3 32.24 60.51 32.03 60.92 31.98L64.15 31.61V27.86C64.15 27.41 64.37 27.19 64.81 27.19C65.26 27.19 65.49 27.41 65.49 27.86V37.97ZM69.91 33.54V38.86C69.91 39.36 70.07 39.67 70.38 39.81C70.61 39.9 71.07 39.95 71.73 39.95C72.64 39.95 73.27 39.88 73.62 39.73C73.9 39.62 74.09 39.33 74.17 38.87C74.25 38.42 74.3 37.82 74.31 37.09C74.32 36.7 74.47 36.51 74.77 36.51C75 36.51 75.15 36.65 75.23 36.94C75.35 37.43 75.41 38.22 75.41 39.3C75.41 39.85 75.32 40.25 75.13 40.5C74.9 40.81 74.47 41.02 73.85 41.12C73.3 41.2 72.63 41.24 71.85 41.24C70.36 41.24 69.42 41.06 69.04 40.71C68.73 40.42 68.57 39.9 68.57 39.15V27.26C68.57 27.06 68.65 26.91 68.81 26.79C68.93 26.7 69.08 26.65 69.26 26.65C69.48 26.65 69.66 26.73 69.79 26.89C69.87 26.99 69.91 27.11 69.91 27.26V32.36C71.06 31.8 72.28 31.07 73.56 30.18C73.77 30.04 73.95 29.97 74.12 29.97C74.31 29.97 74.47 30.04 74.6 30.19C74.72 30.32 74.78 30.48 74.78 30.65C74.78 30.9 74.66 31.11 74.42 31.28C73.93 31.65 73.01 32.15 71.68 32.78C70.94 33.13 70.35 33.38 69.91 33.54Z" fill="black"/>
<path d="M86.53 29.21L93.04 28.81C93.08 28.81 93.11 28.81 93.12 28.81C93.54 28.81 93.74 29.01 93.74 29.41C93.74 29.8 93.53 30.01 93.12 30.04L78.77 30.88C78.76 30.88 78.72 30.88 78.66 30.88C78.26 30.88 78.06 30.67 78.06 30.26C78.06 29.91 78.26 29.72 78.66 29.7L85.16 29.3V26.89C85.16 26.69 85.24 26.54 85.4 26.42C85.52 26.33 85.67 26.28 85.85 26.28C86.06 26.28 86.23 26.34 86.35 26.46C86.47 26.58 86.53 26.72 86.53 26.89V29.21ZM81.78 34.09L82.05 38.8C82.05 38.84 82.05 38.87 82.05 38.9C82.05 39.26 81.83 39.44 81.39 39.44C80.99 39.44 80.77 39.23 80.75 38.81L80.42 33.19C80.42 33.16 80.42 33.14 80.42 33.13C80.42 32.75 80.64 32.56 81.07 32.56C81.39 32.56 81.59 32.7 81.68 32.98L85.2 32.73V31.18C85.2 30.99 85.27 30.83 85.4 30.72C85.52 30.61 85.67 30.56 85.85 30.56C86.07 30.56 86.25 30.64 86.37 30.8C86.45 30.91 86.49 31.03 86.49 31.18V32.63L90.36 32.35C90.42 32.34 90.49 32.34 90.54 32.34C90.95 32.34 91.24 32.47 91.4 32.74C91.53 32.95 91.6 33.36 91.6 33.98C91.6 35.48 91.53 36.81 91.38 37.97C91.25 38.99 90.87 39.5 90.25 39.5C89.94 39.5 89.52 39.41 88.98 39.22C88.06 38.9 87.6 38.6 87.6 38.31C87.6 38.05 87.73 37.92 88 37.92C88.09 37.92 88.2 37.94 88.34 37.99C88.79 38.14 89.18 38.21 89.52 38.21C89.81 38.21 89.99 38.02 90.06 37.64C90.09 37.45 90.12 37.16 90.16 36.76C90.24 35.83 90.28 34.95 90.28 34.11C90.28 33.71 90.14 33.5 89.85 33.49C89.83 33.49 89.82 33.49 89.81 33.49C89.8 33.49 89.79 33.49 89.78 33.49L86.47 33.74V41.61C86.47 42.04 86.25 42.26 85.82 42.26C85.39 42.26 85.18 42.04 85.18 41.61V33.84L81.78 34.09Z" fill="black"/>
<path d="M103.09 36.43L99.58 36.65C99.59 36.72 99.59 36.78 99.59 36.82C99.59 37.21 99.37 37.41 98.94 37.41C98.59 37.41 98.39 37.2 98.32 36.78L97.37 30.77C97.36 30.7 97.35 30.65 97.35 30.61C97.35 30.2 97.6 29.99 98.1 29.99C98.44 29.99 98.65 30.17 98.72 30.53L103.09 30.15V26.85C103.09 26.64 103.17 26.49 103.33 26.38C103.46 26.29 103.61 26.24 103.77 26.24C103.93 26.24 104.09 26.29 104.23 26.38C104.39 26.49 104.47 26.65 104.47 26.85V30.04L109.13 29.64C109.17 29.63 109.21 29.63 109.26 29.63C109.65 29.63 109.94 29.74 110.14 29.96C110.31 30.14 110.39 30.37 110.39 30.65C110.39 30.76 110.38 30.88 110.35 31L109.54 34.86C109.87 34.89 110.04 35.09 110.04 35.45C110.04 35.82 109.82 36.02 109.39 36.05L104.46 36.35V41.72C104.46 41.84 104.43 41.94 104.37 42.03C104.25 42.23 104.05 42.33 103.77 42.33C103.49 42.33 103.3 42.23 103.17 42.03C103.11 41.94 103.08 41.84 103.08 41.72V36.43H103.09ZM103.09 35.25V31.37L98.9 31.73L99.42 35.47L103.09 35.25ZM104.46 35.16L108.2 34.93L108.83 31.26C108.83 31.24 108.83 31.22 108.83 31.19C108.83 30.98 108.7 30.89 108.45 30.92L104.45 31.26V35.16H104.46Z" fill="black"/>
<path d="M122.44 39.09L126.84 38.75L127.02 32.79C127.05 32.36 127.28 32.14 127.72 32.14C128.08 32.14 128.3 32.3 128.4 32.63C128.42 32.72 128.43 32.81 128.43 32.89L128.12 40.29C128.08 40.72 127.86 40.94 127.46 40.94C127.23 40.94 127.06 40.87 126.94 40.72C126.82 40.57 126.77 40.41 126.78 40.24L126.79 40.19V39.97L117.04 40.71C116.97 40.72 116.9 40.72 116.82 40.72C115.93 40.72 115.47 40.25 115.44 39.3L115.26 33.63C115.25 33.47 115.28 33.34 115.35 33.23C115.48 33 115.68 32.88 115.97 32.88C116.28 32.88 116.49 33 116.6 33.25C116.64 33.34 116.66 33.43 116.66 33.53L116.77 38.87C116.78 39.28 116.99 39.49 117.4 39.49C117.47 39.49 117.51 39.49 117.52 39.49L121.01 39.21V28.19C121.01 27.99 121.07 27.83 121.2 27.71C121.33 27.59 121.5 27.53 121.7 27.53C121.96 27.53 122.15 27.62 122.29 27.8C122.37 27.91 122.41 28.04 122.41 28.2V39.09H122.44Z" fill="black"/>
<path d="M134.52 28.8V39.58C134.52 40.24 134.87 40.57 135.56 40.57C135.62 40.57 135.67 40.57 135.71 40.57L146.58 40.12C146.69 40.11 146.79 40.13 146.88 40.17C147.1 40.28 147.21 40.45 147.21 40.71C147.21 40.93 147.13 41.09 146.98 41.21C146.9 41.27 146.81 41.3 146.7 41.31L135.38 41.76C135.22 41.77 135.14 41.77 135.13 41.77C134.26 41.77 133.69 41.52 133.42 41.01C133.26 40.7 133.18 40.27 133.18 39.72V28.86L133.02 28.87H132.98C132.86 28.88 132.74 28.85 132.61 28.76C132.45 28.66 132.37 28.5 132.37 28.27C132.37 27.89 132.54 27.69 132.89 27.67L146.28 27.06C146.7 27.07 146.91 27.27 146.91 27.65C146.91 27.87 146.83 28.03 146.68 28.15C146.6 28.21 146.51 28.24 146.41 28.25L134.52 28.8ZM139.83 37.93C140.12 37.99 140.27 38.16 140.27 38.44C140.27 38.77 140.11 38.94 139.79 38.96L137.09 39.11C137.06 39.46 136.86 39.63 136.49 39.63C136.18 39.63 136.01 39.46 135.97 39.11L135.59 35.56C135.58 35.53 135.58 35.5 135.58 35.47C135.58 35.09 135.77 34.9 136.15 34.9C136.41 34.9 136.59 35.01 136.7 35.22L138.97 35.01C139.09 35 139.17 34.99 139.22 34.99C139.85 34.99 140.17 35.26 140.17 35.8C140.17 35.9 140.16 36.02 140.13 36.16L139.83 37.93ZM138.77 37.98L139 36.41C139 36.4 139 36.37 139 36.34C139 36.12 138.87 36.03 138.62 36.05L136.84 36.18L137.01 38.1L138.77 37.98ZM143.36 32.36C143.63 32.44 143.76 32.61 143.76 32.89C143.76 33.22 143.6 33.4 143.28 33.43L138.86 33.71C138.83 34.07 138.64 34.25 138.28 34.25C137.91 34.25 137.71 34.06 137.66 33.69L137.28 30.42C137.27 30.36 137.27 30.32 137.27 30.31C137.27 30.05 137.4 29.88 137.67 29.79C137.74 29.77 137.81 29.75 137.89 29.75C138.15 29.75 138.34 29.86 138.45 30.09L142.41 29.76C142.48 29.75 142.56 29.75 142.66 29.75C143.35 29.75 143.69 30.02 143.69 30.55C143.69 30.67 143.67 30.81 143.64 30.98L143.36 32.36ZM142.22 32.41L142.42 31.21C142.42 31.2 142.42 31.18 142.42 31.15C142.42 30.93 142.29 30.83 142.04 30.85L138.59 31.1L138.75 32.67L142.22 32.41ZM145.57 37.57C145.86 37.63 146.01 37.8 146.01 38.08C146.01 38.41 145.85 38.59 145.53 38.6L142.74 38.75C142.71 39.1 142.53 39.27 142.19 39.27C141.85 39.27 141.66 39.1 141.63 38.75L141.25 35.16L141.24 35.11C141.22 34.95 141.3 34.8 141.48 34.67C141.6 34.58 141.71 34.54 141.82 34.54C142.07 34.54 142.24 34.65 142.35 34.86L144.72 34.65C144.78 34.64 144.85 34.64 144.94 34.64C145.6 34.64 145.92 34.91 145.92 35.46C145.92 35.56 145.91 35.67 145.88 35.8L145.57 37.57ZM144.51 37.62L144.74 36.05L144.75 35.98C144.77 35.76 144.64 35.67 144.36 35.69L142.47 35.82L142.65 37.74L144.51 37.62Z" fill="black"/>
<path d="M157.09 36.43L153.58 36.65C153.59 36.72 153.59 36.78 153.59 36.82C153.59 37.21 153.37 37.41 152.94 37.41C152.59 37.41 152.39 37.2 152.32 36.78L151.37 30.77C151.36 30.7 151.35 30.65 151.35 30.61C151.35 30.2 151.6 29.99 152.1 29.99C152.44 29.99 152.65 30.17 152.72 30.53L157.09 30.15V26.85C157.09 26.64 157.17 26.49 157.33 26.38C157.46 26.29 157.61 26.24 157.77 26.24C157.93 26.24 158.09 26.29 158.23 26.38C158.39 26.49 158.47 26.65 158.47 26.85V30.04L163.13 29.64C163.17 29.63 163.21 29.63 163.26 29.63C163.65 29.63 163.94 29.74 164.14 29.96C164.31 30.14 164.39 30.37 164.39 30.65C164.39 30.76 164.38 30.88 164.35 31L163.54 34.86C163.87 34.89 164.04 35.09 164.04 35.45C164.04 35.82 163.82 36.02 163.39 36.05L158.46 36.35V41.72C158.46 41.84 158.43 41.94 158.37 42.03C158.25 42.23 158.05 42.33 157.77 42.33C157.49 42.33 157.3 42.23 157.17 42.03C157.11 41.94 157.08 41.84 157.08 41.72V36.43H157.09ZM157.09 35.25V31.37L152.9 31.73L153.42 35.47L157.09 35.25ZM158.46 35.16L162.2 34.93L162.83 31.26C162.83 31.24 162.83 31.22 162.83 31.19C162.83 30.98 162.7 30.89 162.45 30.92L158.45 31.26V35.16H158.46Z" fill="black"/>
<path d="M176.44 39.09L180.84 38.75L181.02 32.79C181.05 32.36 181.28 32.14 181.72 32.14C182.08 32.14 182.3 32.3 182.4 32.63C182.42 32.72 182.43 32.81 182.43 32.89L182.12 40.29C182.08 40.72 181.86 40.94 181.46 40.94C181.23 40.94 181.06 40.87 180.94 40.72C180.82 40.57 180.77 40.41 180.78 40.24L180.79 40.19V39.97L171.04 40.71C170.97 40.72 170.9 40.72 170.82 40.72C169.93 40.72 169.47 40.25 169.44 39.3L169.26 33.63C169.25 33.47 169.28 33.34 169.35 33.23C169.48 33 169.68 32.88 169.97 32.88C170.28 32.88 170.49 33 170.6 33.25C170.64 33.34 170.66 33.43 170.66 33.53L170.77 38.87C170.78 39.28 170.99 39.49 171.4 39.49C171.47 39.49 171.51 39.49 171.52 39.49L175.01 39.21V28.19C175.01 27.99 175.07 27.83 175.2 27.71C175.33 27.59 175.5 27.53 175.7 27.53C175.96 27.53 176.15 27.62 176.29 27.8C176.37 27.91 176.41 28.04 176.41 28.2V39.09H176.44Z" fill="black"/>
<path d="M191.49 37.97C191.65 37.91 191.82 37.84 191.98 37.77C192.34 37.62 192.58 37.54 192.7 37.54C192.88 37.54 193.01 37.62 193.11 37.78C193.17 37.87 193.2 37.97 193.2 38.07C193.2 38.27 193.09 38.43 192.87 38.56C192.02 39.06 190.47 39.7 188.22 40.48C187.35 40.78 186.83 40.94 186.66 40.94C186.45 40.94 186.28 40.86 186.16 40.69C186.05 40.53 186 40.36 186 40.18C186 39.93 186.09 39.76 186.28 39.65C186.34 39.61 186.56 39.55 186.91 39.47C187.88 39.24 188.95 38.9 190.14 38.47V32.87L187.08 33.25C187.04 33.26 187 33.26 186.96 33.26C186.52 33.26 186.3 33.05 186.3 32.62C186.3 32.24 186.51 32.03 186.92 31.98L190.15 31.61V27.86C190.15 27.41 190.37 27.19 190.81 27.19C191.26 27.19 191.49 27.41 191.49 27.86V37.97ZM195.91 33.54V38.86C195.91 39.36 196.07 39.67 196.38 39.81C196.61 39.9 197.07 39.95 197.73 39.95C198.64 39.95 199.27 39.88 199.62 39.73C199.9 39.62 200.09 39.33 200.17 38.87C200.25 38.42 200.3 37.82 200.31 37.09C200.32 36.7 200.47 36.51 200.77 36.51C201 36.51 201.15 36.65 201.23 36.94C201.35 37.43 201.41 38.22 201.41 39.3C201.41 39.85 201.32 40.25 201.13 40.5C200.9 40.81 200.47 41.02 199.85 41.12C199.3 41.2 198.63 41.24 197.85 41.24C196.36 41.24 195.42 41.06 195.04 40.71C194.73 40.42 194.57 39.9 194.57 39.15V27.26C194.57 27.06 194.65 26.91 194.81 26.79C194.93 26.7 195.08 26.65 195.26 26.65C195.48 26.65 195.66 26.73 195.79 26.89C195.87 26.99 195.91 27.11 195.91 27.26V32.36C197.06 31.8 198.28 31.07 199.56 30.18C199.77 30.04 199.95 29.97 200.12 29.97C200.31 29.97 200.47 30.04 200.6 30.19C200.72 30.32 200.78 30.48 200.78 30.65C200.78 30.9 200.66 31.11 200.42 31.28C199.93 31.65 199.01 32.15 197.68 32.78C196.94 33.13 196.35 33.38 195.91 33.54Z" fill="black"/>
<path d="M210.07 31.31C210.27 31.39 210.37 31.56 210.37 31.8C210.37 32.11 210.19 32.28 209.84 32.32L208.28 32.45V34.76L209.84 34.58C209.88 34.57 209.9 34.57 209.91 34.57C210.17 34.55 210.34 34.65 210.43 34.9C210.46 34.97 210.47 35.05 210.47 35.14C210.47 35.48 210.3 35.67 209.96 35.7L208.27 35.88V38.99C208.83 38.8 209.44 38.55 210.12 38.25C210.27 38.19 210.41 38.15 210.52 38.15C210.7 38.15 210.84 38.23 210.93 38.38C210.99 38.48 211.02 38.59 211.02 38.7C211.02 38.93 210.82 39.14 210.42 39.32C209.04 39.98 207.16 40.69 204.76 41.46C204.62 41.51 204.51 41.53 204.42 41.53C204.12 41.53 203.91 41.39 203.8 41.12C203.76 41.02 203.75 40.92 203.75 40.82C203.75 40.53 203.88 40.34 204.13 40.25C204.19 40.22 204.36 40.18 204.63 40.12V35.07C204.63 34.71 204.83 34.53 205.22 34.53C205.37 34.53 205.5 34.57 205.62 34.66C205.75 34.75 205.82 34.89 205.82 35.06V39.79C206.1 39.7 206.4 39.61 206.74 39.5L207.07 39.39V32.55L205.95 32.65C205.93 33 205.72 33.18 205.34 33.18C204.97 33.18 204.77 33 204.74 32.63L204.38 28.05C204.38 28.03 204.38 28.01 204.38 27.97C204.38 27.58 204.59 27.39 205 27.39C205.27 27.39 205.45 27.5 205.54 27.71L209.21 27.38L209.48 27.36C210.2 27.38 210.56 27.69 210.56 28.28C210.56 28.33 210.56 28.4 210.55 28.47L210.52 28.68L210.07 31.31ZM208.93 31.35L209.25 28.94V28.81C209.24 28.63 209.14 28.52 208.95 28.49L208.87 28.48L205.68 28.81L205.9 31.62L208.93 31.35ZM216.12 32.48L216.23 32.58C217.33 33.66 218.53 34.55 219.82 35.24C220.27 35.48 220.5 35.68 220.5 35.83C220.5 35.95 220.37 36.05 220.11 36.13C219.68 36.26 219.36 36.33 219.13 36.33C218.92 36.33 218.71 36.25 218.51 36.1C217.54 35.4 216.51 34.45 215.42 33.25C214.13 34.58 212.74 35.67 211.25 36.52C211.03 36.64 210.85 36.7 210.71 36.7C210.55 36.7 210.42 36.63 210.34 36.5C210.28 36.39 210.24 36.29 210.24 36.19C210.24 36.07 210.27 35.98 210.33 35.91C210.39 35.85 210.57 35.73 210.88 35.55C212.3 34.71 213.56 33.66 214.68 32.39C214.06 31.64 213.56 30.95 213.16 30.33C212.16 31.65 211.45 32.31 211.03 32.31C210.89 32.31 210.78 32.26 210.71 32.15C210.63 32.04 210.6 31.94 210.6 31.83C210.6 31.68 210.76 31.45 211.07 31.13C211.69 30.49 212.32 29.59 212.96 28.44C213.19 28.02 213.4 27.63 213.57 27.24C213.71 26.92 213.92 26.76 214.19 26.76C214.29 26.76 214.4 26.79 214.52 26.85C214.74 26.96 214.85 27.12 214.85 27.33C214.85 27.42 214.83 27.51 214.8 27.61L217.49 27.39C217.54 27.38 217.58 27.38 217.62 27.38C218.26 27.38 218.58 27.65 218.58 28.19C218.58 28.39 218.5 28.68 218.33 29.06C217.77 30.29 217.04 31.43 216.12 32.48ZM218.17 40.19C218.47 40.23 218.63 40.42 218.63 40.76C218.63 41.12 218.46 41.32 218.11 41.34L213.63 41.59C213.62 41.98 213.43 42.18 213.05 42.18C212.67 42.18 212.46 41.99 212.43 41.6L211.97 36.85C211.97 36.82 211.97 36.79 211.97 36.76C211.97 36.6 212.03 36.46 212.15 36.35C212.27 36.23 212.43 36.17 212.62 36.17C212.92 36.17 213.11 36.29 213.2 36.53L217.27 36.12C217.38 36.11 217.48 36.1 217.55 36.1C218.28 36.1 218.64 36.43 218.64 37.09C218.64 37.19 218.63 37.31 218.6 37.46L218.17 40.19ZM216.98 40.25L217.3 37.63C217.3 37.61 217.3 37.58 217.3 37.56C217.3 37.34 217.17 37.25 216.92 37.27L213.3 37.6L213.54 40.44L216.98 40.25ZM215.32 31.63C215.93 30.86 216.42 30.07 216.79 29.27C216.92 28.98 216.98 28.79 216.98 28.7C216.98 28.55 216.9 28.49 216.73 28.52L216.7 28.53L214.22 28.71C214.09 28.94 213.94 29.18 213.78 29.43L213.71 29.54C214.15 30.2 214.68 30.9 215.32 31.63Z" fill="black"/>
<path d="M236.63 34.28L223.25 34.93H223.2C222.74 34.93 222.51 34.72 222.51 34.3C222.51 33.88 222.73 33.66 223.16 33.63L236.53 32.94H236.57C236.75 32.92 236.9 32.96 237.04 33.06C237.2 33.18 237.29 33.35 237.29 33.57C237.29 34.02 237.07 34.26 236.63 34.28Z" fill="black"/>
<path d="M242.79 29.28V31.13L245.9 30.75C245.93 30.74 245.97 30.74 246.02 30.74C246.41 30.74 246.61 30.94 246.61 31.33C246.61 31.66 246.42 31.85 246.03 31.9L242.79 32.28V34.08L245.9 33.71C245.92 33.71 245.96 33.71 246.01 33.71C246.41 33.71 246.61 33.9 246.61 34.29C246.61 34.63 246.42 34.82 246.05 34.87L242.79 35.23V37.91L243.31 37.74C244.45 37.38 245.42 37.04 246.21 36.72C246.36 36.66 246.5 36.62 246.63 36.62C246.96 36.62 247.12 36.8 247.12 37.16C247.12 37.38 246.96 37.56 246.65 37.7C245.68 38.13 244.39 38.63 242.78 39.18V41.68C242.78 41.83 242.73 41.96 242.64 42.08C242.51 42.22 242.34 42.29 242.12 42.29C241.89 42.29 241.7 42.21 241.58 42.04C241.5 41.95 241.47 41.83 241.47 41.69V39.59C240.91 39.75 240.58 39.84 240.47 39.84C240.22 39.84 240.04 39.72 239.93 39.49C239.88 39.38 239.86 39.28 239.86 39.18C239.86 38.9 239.99 38.71 240.25 38.58C240.33 38.54 240.54 38.49 240.9 38.4C241.02 38.37 241.21 38.33 241.47 38.27V28.58C241.47 28.35 241.57 28.17 241.76 28.05C241.88 27.98 242 27.94 242.14 27.94C242.37 27.94 242.55 28.04 242.69 28.24C243.73 27.83 244.65 27.35 245.47 26.79C245.65 26.67 245.83 26.61 246 26.61C246.23 26.61 246.41 26.71 246.54 26.92C246.61 27.04 246.65 27.16 246.65 27.28C246.65 27.52 246.48 27.73 246.15 27.92C245.19 28.45 244.07 28.9 242.79 29.28ZM251.82 38.7C252.89 39.56 254.1 40.33 255.44 40.99C255.86 41.2 256.07 41.37 256.07 41.49C256.07 41.57 255.97 41.64 255.78 41.72C255.23 41.92 254.8 42.02 254.51 42.02C254.26 42.02 253.98 41.91 253.67 41.7C253.07 41.29 252.18 40.55 251 39.47C249.85 40.49 248.61 41.29 247.28 41.87C246.95 42.02 246.73 42.09 246.62 42.09C246.43 42.09 246.29 42.01 246.21 41.85C246.16 41.76 246.13 41.67 246.13 41.59C246.13 41.48 246.18 41.38 246.29 41.28C246.34 41.24 246.51 41.14 246.82 40.99C248.12 40.32 249.24 39.55 250.18 38.66C248.81 37.24 248.12 36.35 248.12 36C248.12 35.85 248.18 35.73 248.31 35.65C248.39 35.6 248.46 35.58 248.54 35.58C248.72 35.58 248.96 35.76 249.24 36.12C249.7 36.7 250.25 37.29 250.91 37.9C252.13 36.52 252.75 35.59 252.78 35.1C252.79 34.99 252.7 34.94 252.53 34.94C252.48 34.94 252.44 34.94 252.4 34.95L247.77 35.4C247.72 35.41 247.69 35.41 247.66 35.41C247.46 35.42 247.31 35.35 247.19 35.19C247.12 35.08 247.08 34.96 247.08 34.83C247.08 34.47 247.26 34.28 247.61 34.25L253.08 33.82C253.13 33.81 253.21 33.81 253.3 33.81C254 33.81 254.35 34.07 254.35 34.58C254.35 34.82 254.26 35.14 254.09 35.53C253.63 36.56 252.87 37.61 251.82 38.7ZM249.35 27.44L251.71 27.12C251.83 27.1 251.94 27.09 252.03 27.09C252.67 27.09 252.98 27.49 252.95 28.29L252.84 31.08C252.85 31.26 252.89 31.38 252.97 31.45C253.05 31.51 253.18 31.55 253.38 31.55C254.06 31.55 254.45 31.44 254.55 31.21C254.62 31.06 254.66 30.61 254.66 29.86C254.67 29.48 254.79 29.29 255.05 29.29C255.25 29.29 255.38 29.43 255.45 29.7C255.62 30.33 255.7 30.94 255.7 31.53C255.7 32.08 255.43 32.42 254.89 32.56C254.51 32.66 253.84 32.71 252.89 32.71C252.39 32.71 252.04 32.62 251.84 32.43C251.68 32.27 251.6 32.01 251.59 31.65L251.7 28.64V28.59C251.71 28.5 251.68 28.43 251.63 28.37C251.57 28.3 251.49 28.27 251.4 28.27C251.39 28.27 251.37 28.27 251.34 28.28L249.42 28.55C249.41 30.32 249.08 31.7 248.44 32.7C248.03 33.34 247.67 33.66 247.37 33.66C247.28 33.66 247.19 33.62 247.11 33.55C247 33.46 246.95 33.35 246.95 33.22C246.95 33.13 247.02 32.99 247.15 32.78C247.84 31.76 248.19 30.45 248.19 28.84L248.16 27.65C248.16 27.29 248.37 27.11 248.78 27.11C249.04 27.1 249.23 27.21 249.35 27.44Z" fill="black"/>
<path d="M263.59 28.51V39.92C263.59 40.13 263.52 40.3 263.39 40.43C263.24 40.57 263.05 40.64 262.82 40.64C262.47 40.64 262.24 40.5 262.11 40.23C262.07 40.14 262.05 40.04 262.05 39.92V28.51C262.05 28.27 262.14 28.08 262.32 27.95C262.46 27.84 262.63 27.79 262.82 27.79C263.11 27.79 263.32 27.89 263.47 28.1C263.55 28.21 263.59 28.34 263.59 28.51Z" fill="black"/>
<path d="M271.98 39.14H278.75C279.23 39.14 279.47 39.37 279.47 39.83C279.47 40.29 279.23 40.52 278.75 40.52H271.34C270.64 40.52 270.29 40.2 270.29 39.57C270.29 39.19 270.47 38.81 270.82 38.42C271.57 37.59 272.87 36.34 274.72 34.67C275.69 33.79 276.32 33.18 276.63 32.82C277.16 32.2 277.42 31.62 277.42 31.08C277.42 30.41 277.18 29.88 276.71 29.51C276.25 29.13 275.62 28.95 274.84 28.95C273.6 28.95 272.69 29.51 272.11 30.64C271.93 30.99 271.69 31.16 271.38 31.16C271.24 31.16 271.1 31.12 270.96 31.05C270.73 30.94 270.62 30.74 270.62 30.44C270.62 30.19 270.74 29.88 270.98 29.53C271.34 28.98 271.85 28.53 272.5 28.19C273.21 27.81 274 27.63 274.86 27.63C275.93 27.63 276.83 27.87 277.58 28.35C278.58 28.98 279.07 29.9 279.07 31.11C279.07 31.88 278.77 32.63 278.16 33.35C277.87 33.7 277.15 34.37 276 35.36C274.12 36.98 272.78 38.25 271.98 39.14Z" fill="black"/>
<path d="M288.04 33.76C288.73 33.87 289.3 34.07 289.75 34.38C290.65 35 291.1 35.88 291.1 37.02C291.1 38.27 290.61 39.24 289.63 39.94C288.8 40.53 287.76 40.82 286.49 40.82C284.86 40.82 283.55 40.34 282.56 39.38C282.2 39.03 282.02 38.73 282.02 38.46C282.02 38.27 282.1 38.11 282.27 37.98C282.42 37.85 282.59 37.79 282.76 37.79C282.96 37.79 283.18 37.94 283.43 38.23C283.77 38.65 284.25 38.97 284.86 39.21C285.35 39.4 285.89 39.49 286.47 39.49C287.2 39.49 287.82 39.34 288.35 39.03C289.13 38.57 289.52 37.91 289.52 37.03C289.52 36.29 289.29 35.69 288.83 35.24C288.5 34.91 288.08 34.7 287.57 34.61C287.18 34.54 286.63 34.5 285.92 34.5L285.59 34.51C285.06 34.51 284.79 34.29 284.79 33.86C284.79 33.54 284.92 33.35 285.19 33.28C285.28 33.26 285.44 33.24 285.66 33.24C287.87 33.24 288.98 32.48 288.98 30.95C288.98 30.31 288.74 29.8 288.26 29.43C287.8 29.08 287.18 28.9 286.41 28.9C285.2 28.9 284.32 29.32 283.76 30.17C283.61 30.38 283.43 30.49 283.2 30.49C283.04 30.49 282.88 30.44 282.73 30.33C282.54 30.2 282.45 30.03 282.45 29.82C282.45 29.61 282.58 29.36 282.85 29.07C283.21 28.69 283.65 28.37 284.18 28.12C284.89 27.79 285.64 27.63 286.44 27.63C287.35 27.63 288.14 27.81 288.8 28.17C289.93 28.79 290.5 29.72 290.5 30.97C290.5 32.22 289.89 33.09 288.66 33.57C288.54 33.63 288.33 33.69 288.04 33.76Z" fill="black"/>
<path d="M297.06 34.16C296.77 34.98 296.57 35.5 296.46 35.71C296.42 35.78 296.41 35.83 296.41 35.87C296.41 35.95 296.47 35.98 296.59 35.98C296.61 35.98 296.64 35.98 296.68 35.97L298.23 35.85C298.31 35.84 298.36 35.84 298.39 35.84C299.08 35.84 299.42 36.21 299.42 36.95C299.42 37.49 299.3 38.24 299.06 39.2C298.8 40.22 298.53 40.91 298.24 41.28C298.02 41.57 297.74 41.71 297.4 41.71C297.14 41.71 296.76 41.62 296.27 41.45C295.34 41.12 294.88 40.85 294.88 40.63C294.88 40.58 294.89 40.52 294.92 40.47C294.99 40.32 295.1 40.24 295.26 40.24C295.32 40.24 295.41 40.25 295.53 40.28C296.2 40.43 296.68 40.5 296.95 40.5C297.19 40.5 297.4 40.29 297.57 39.88C297.78 39.39 297.95 38.75 298.08 37.97C298.14 37.59 298.18 37.35 298.18 37.25C298.18 37.06 298.08 36.96 297.87 36.96C297.83 36.96 297.81 36.96 297.8 36.96L296 37.1C295.96 37.11 295.9 37.11 295.82 37.11C295.28 37.11 295 36.9 295 36.49C295 36.35 295.06 36.14 295.19 35.87C295.41 35.4 295.6 34.91 295.76 34.4C295.78 34.34 295.8 34.28 295.81 34.24L293.86 34.38L293.76 34.39C293.38 34.41 293.19 34.21 293.19 33.78C293.19 33.45 293.38 33.27 293.77 33.24L299.97 32.77C300.41 32.73 300.63 32.92 300.63 33.32C300.63 33.69 300.43 33.89 300.04 33.92L297.06 34.16ZM299.46 30.58C299.59 30.69 299.65 30.83 299.65 31.03C299.65 31.36 299.44 31.54 299.03 31.57L295.68 31.82C295.67 32.17 295.48 32.35 295.11 32.35C294.76 32.35 294.57 32.15 294.53 31.75L294.1 27.66C294.09 27.61 294.09 27.58 294.09 27.56C294.09 27.22 294.29 27.05 294.68 27.05C294.92 27.05 295.09 27.14 295.2 27.32L298.67 27.01C298.71 27 298.74 27 298.78 27C299.1 27 299.36 27.08 299.56 27.25C299.77 27.42 299.88 27.65 299.88 27.95C299.88 28.03 299.87 28.11 299.85 28.2L299.46 30.58ZM298.39 30.53L298.66 28.36C298.67 28.3 298.65 28.24 298.62 28.2C298.57 28.14 298.51 28.11 298.44 28.12L298.41 28.13L295.37 28.39L295.6 30.73L298.39 30.53ZM302.17 31.17C302.17 31.35 302.17 31.54 302.17 31.74C302.17 34.29 302.06 36.2 301.85 37.47C301.57 39.13 301.11 40.41 300.47 41.33C300.31 41.56 300.15 41.68 299.98 41.68C299.66 41.68 299.51 41.52 299.51 41.21C299.51 41.1 299.57 40.95 299.69 40.74C300.15 39.97 300.49 38.77 300.71 37.15C300.87 35.95 300.96 33.77 300.97 30.61C300.97 30.13 301.17 29.89 301.56 29.89C301.75 29.89 301.91 29.97 302.04 30.13L304.13 29.93V26.75C304.13 26.56 304.19 26.4 304.32 26.29C304.44 26.18 304.58 26.13 304.74 26.13C304.93 26.13 305.08 26.2 305.2 26.35C305.29 26.46 305.33 26.59 305.33 26.75V27.69L307.62 27.45L307.67 27.44C307.85 27.42 308 27.51 308.1 27.69C308.14 27.77 308.16 27.86 308.16 27.95C308.16 28.26 308.01 28.43 307.71 28.46L305.33 28.72V29.8L308.56 29.48C308.63 29.47 308.7 29.47 308.77 29.47C309.32 29.47 309.6 29.69 309.6 30.14C309.6 30.44 309.45 30.85 309.15 31.38C309.02 31.63 308.88 31.84 308.75 32C308.63 32.17 308.49 32.25 308.33 32.25C308.23 32.25 308.13 32.22 308.04 32.15C307.95 32.08 307.9 31.99 307.9 31.87C307.9 31.77 307.94 31.63 308.01 31.46C308.17 31.07 308.26 30.83 308.26 30.72C308.26 30.61 308.19 30.56 308.06 30.56C308.02 30.56 307.98 30.56 307.91 30.57L305.04 30.86V30.9V32.31L307.1 31.98C307.12 31.97 307.14 31.97 307.15 31.97C307.35 31.95 307.5 32.03 307.62 32.21C307.67 32.29 307.7 32.38 307.7 32.49C307.7 32.78 307.56 32.94 307.28 32.99L305.05 33.34V33.85C305.05 34.17 305.08 34.38 305.14 34.48C305.19 34.57 305.35 34.61 305.61 34.61C306.25 34.61 306.84 34.54 307.39 34.41C307.52 34.37 307.63 34.36 307.71 34.36C308.05 34.36 308.22 34.54 308.22 34.9C308.22 35.22 308.06 35.41 307.74 35.49C307.14 35.63 306.37 35.7 305.45 35.7C304.99 35.7 304.66 35.65 304.47 35.54C304.09 35.33 303.91 34.87 303.91 34.15V33.52L303.01 33.66C302.99 33.67 302.95 33.67 302.91 33.67C302.7 33.67 302.54 33.59 302.44 33.42C302.39 33.34 302.37 33.26 302.37 33.17C302.37 32.88 302.51 32.71 302.8 32.66L303.9 32.48V30.97L302.17 31.17ZM304.31 36.71C304.48 36.71 304.63 36.76 304.75 36.87C304.88 36.98 304.95 37.14 304.95 37.34C304.95 37.61 304.86 38.06 304.68 38.69C304.28 40.07 303.61 41.08 302.68 41.73C302.4 41.92 302.2 42.02 302.07 42.02C301.87 42.02 301.72 41.93 301.62 41.76C301.58 41.68 301.56 41.61 301.56 41.55C301.56 41.42 301.68 41.24 301.92 41.03C302.9 40.17 303.5 38.91 303.74 37.24C303.79 36.89 303.98 36.71 304.31 36.71ZM306.94 37.03V40.26C306.94 40.44 306.99 40.55 307.08 40.61C307.14 40.65 307.3 40.67 307.55 40.67C307.91 40.67 308.16 40.65 308.3 40.61C308.46 40.56 308.55 40.42 308.59 40.18C308.62 39.94 308.64 39.56 308.64 39.05C308.65 38.67 308.79 38.49 309.07 38.49C309.28 38.49 309.42 38.62 309.47 38.88C309.58 39.32 309.63 39.87 309.63 40.53C309.63 41.16 309.37 41.56 308.84 41.73C308.56 41.81 308.15 41.85 307.61 41.85C306.89 41.85 306.42 41.78 306.19 41.64C305.9 41.46 305.76 41.14 305.76 40.69V37.03C305.76 36.66 305.96 36.48 306.35 36.48C306.48 36.48 306.61 36.52 306.72 36.6C306.87 36.71 306.94 36.85 306.94 37.03Z" fill="black"/>
<path d="M114.37 53.39C114.7 53.39 114.87 53.56 114.87 53.89C114.87 54.02 114.81 54.16 114.69 54.29C114.67 54.31 114.51 54.46 114.23 54.72C113.64 55.28 113.1 56.04 112.62 57.01C111.87 58.52 111.49 60.19 111.49 62.03C111.49 63.57 111.77 65.02 112.33 66.39C112.89 67.74 113.63 68.81 114.54 69.6C114.75 69.78 114.86 69.95 114.86 70.12C114.86 70.23 114.82 70.34 114.75 70.44C114.66 70.56 114.52 70.62 114.35 70.62C114.08 70.62 113.66 70.32 113.08 69.71C112.32 68.9 111.68 67.91 111.16 66.73C110.47 65.16 110.12 63.58 110.12 61.99C110.12 60.23 110.54 58.49 111.39 56.78C112.06 55.43 112.88 54.37 113.85 53.6C114.04 53.45 114.21 53.39 114.37 53.39Z" fill="black"/>
<path d="M119.72 64.91H126.49C126.97 64.91 127.21 65.14 127.21 65.6C127.21 66.06 126.97 66.29 126.49 66.29H119.07C118.37 66.29 118.02 65.97 118.02 65.34C118.02 64.96 118.2 64.58 118.55 64.19C119.3 63.36 120.6 62.11 122.45 60.44C123.42 59.56 124.05 58.95 124.36 58.59C124.89 57.97 125.15 57.39 125.15 56.85C125.15 56.18 124.91 55.65 124.44 55.28C123.98 54.9 123.35 54.72 122.57 54.72C121.33 54.72 120.42 55.28 119.84 56.41C119.66 56.76 119.42 56.93 119.11 56.93C118.97 56.93 118.83 56.89 118.69 56.82C118.46 56.71 118.35 56.51 118.35 56.21C118.35 55.96 118.47 55.65 118.71 55.3C119.07 54.75 119.58 54.3 120.23 53.96C120.94 53.58 121.73 53.4 122.59 53.4C123.66 53.4 124.56 53.64 125.31 54.12C126.31 54.75 126.8 55.67 126.8 56.88C126.8 57.65 126.5 58.4 125.89 59.12C125.6 59.47 124.88 60.14 123.73 61.13C121.86 62.75 120.52 64.01 119.72 64.91Z" fill="black"/>
<path d="M131.6 60.37V65.7C131.6 65.9 131.53 66.06 131.4 66.18C131.24 66.33 131.03 66.4 130.78 66.4C130.48 66.4 130.25 66.29 130.1 66.08C130.03 65.97 129.99 65.85 129.99 65.69V55.16C129.99 54.16 130.49 53.67 131.5 53.67H138.43C138.58 53.67 138.71 53.72 138.83 53.81C138.98 53.94 139.05 54.12 139.05 54.36C139.05 54.82 138.84 55.05 138.43 55.05H131.93C131.7 55.05 131.59 55.16 131.59 55.39V59.02H137.64C137.75 59.02 137.85 59.05 137.94 59.1C138.14 59.21 138.24 59.41 138.24 59.69C138.24 60.14 138.04 60.36 137.64 60.36H131.6V60.37Z" fill="black"/>
<path d="M146.73 62.13L146.65 60.97L144.52 61.13C144.51 61.13 144.5 61.13 144.49 61.13C144.41 61.13 144.34 61.08 144.26 60.99C144.18 60.89 144.14 60.78 144.14 60.66C144.14 60.5 144.2 60.37 144.31 60.27C144.36 60.23 144.42 60.21 144.47 60.2L146.59 60.04L146.52 58.92L143.72 59.11C143.73 59.27 143.73 59.38 143.73 59.44C143.73 60.67 143.61 61.95 143.37 63.27C143.1 64.77 142.61 66.09 141.91 67.24C141.77 67.47 141.61 67.59 141.43 67.59C141.35 67.59 141.27 67.57 141.18 67.53C141.02 67.45 140.94 67.32 140.94 67.15C140.94 67.06 140.99 66.91 141.1 66.7C141.96 64.99 142.41 62.6 142.47 59.55V59.19C142.15 59.18 141.99 59.03 141.99 58.72C141.99 58.42 142.18 58.25 142.55 58.22L147.74 57.84V57.15C147.74 56.95 147.81 56.8 147.96 56.7C148.07 56.62 148.2 56.58 148.34 56.58C148.74 56.58 148.95 56.77 148.95 57.15V57.75L154.91 57.32C154.95 57.31 154.98 57.31 155 57.31C155.23 57.3 155.39 57.39 155.47 57.58C155.5 57.64 155.51 57.72 155.51 57.81C155.51 58.14 155.33 58.31 154.96 58.34L151.21 58.6L151.14 59.69L153.49 59.51C153.53 59.5 153.58 59.5 153.63 59.5C154.15 59.5 154.4 59.71 154.4 60.14C154.4 60.28 154.38 60.43 154.33 60.6L154.06 61.61C154.27 61.66 154.37 61.82 154.37 62.09C154.37 62.25 154.31 62.37 154.19 62.47C154.14 62.51 154.09 62.53 154.03 62.53L144.39 63.17H144.36C144.35 63.17 144.35 63.17 144.33 63.17C144.24 63.16 144.15 63.1 144.08 62.97C144.03 62.89 144.01 62.8 144.01 62.72C144.01 62.57 144.06 62.45 144.17 62.35C144.22 62.31 144.27 62.29 144.34 62.28L146.73 62.13ZM147.39 53.19L142.62 53.59C142.6 53.59 142.57 53.59 142.51 53.59C142.18 53.59 142.02 53.42 142.02 53.09C142.02 52.83 142.18 52.68 142.51 52.65L147.29 52.24C147.3 52.24 147.33 52.24 147.38 52.24C147.72 52.24 147.89 52.39 147.89 52.68C147.89 52.99 147.73 53.16 147.39 53.19ZM143.74 55.2V57.11C143.74 57.2 143.72 57.28 143.67 57.36C143.57 57.54 143.4 57.62 143.16 57.62C142.96 57.62 142.8 57.55 142.69 57.4C142.63 57.32 142.59 57.22 142.59 57.1V54.66C142.59 54.49 142.65 54.36 142.77 54.26C142.89 54.17 143.02 54.13 143.16 54.13C143.33 54.13 143.47 54.19 143.59 54.3L146.76 53.97C146.81 53.96 146.87 53.96 146.94 53.96C147.42 53.96 147.66 54.26 147.66 54.85V56.77C147.66 56.86 147.64 56.95 147.59 57.02C147.49 57.2 147.32 57.29 147.09 57.29C146.88 57.29 146.72 57.22 146.61 57.07C146.55 56.99 146.51 56.89 146.51 56.76V55.25C146.51 55.03 146.4 54.92 146.19 54.92C146.18 54.92 146.17 54.92 146.15 54.92L143.74 55.2ZM144.58 55.4C144.73 55.4 144.94 55.49 145.2 55.67C145.71 56.02 145.96 56.32 145.96 56.59C145.96 56.73 145.9 56.84 145.78 56.93C145.67 57.01 145.55 57.04 145.44 57.04C145.23 57.04 145.05 56.92 144.91 56.69C144.8 56.51 144.63 56.3 144.4 56.06C144.29 55.95 144.23 55.83 144.23 55.72C144.23 55.64 144.26 55.57 144.33 55.51C144.42 55.44 144.5 55.4 144.58 55.4ZM145.75 65.44L145.66 66.72C146.93 66.59 147.99 66.4 148.82 66.17C148.91 66.14 149 66.13 149.07 66.13C149.32 66.13 149.45 66.28 149.45 66.59C149.45 66.76 149.32 66.9 149.07 67C148.54 67.22 147.61 67.47 146.28 67.77C145.66 67.9 145.3 67.97 145.19 67.97C144.96 67.97 144.77 67.89 144.63 67.72C144.48 67.55 144.41 67.33 144.43 67.07L144.44 66.96L144.63 63.88C144.66 63.48 144.86 63.27 145.24 63.27C145.66 63.27 145.86 63.45 145.86 63.81C145.86 63.82 145.86 63.85 145.86 63.88L145.82 64.47L148.7 64.19C149.09 64.15 149.28 64.31 149.28 64.65C149.28 64.95 149.1 65.12 148.75 65.15L145.75 65.44ZM147.71 59.96L149.98 59.79L150.02 58.69L147.67 58.85L147.71 59.96ZM147.8 62.06L149.92 61.91L149.96 60.73L147.76 60.89L147.8 62.06ZM154.23 52.88L149.15 53.26C149.12 53.26 149.09 53.26 149.05 53.26C148.73 53.24 148.58 53.1 148.58 52.82C148.58 52.5 148.75 52.33 149.08 52.3L154.14 51.92C154.16 51.92 154.19 51.92 154.23 51.92C154.56 51.92 154.73 52.07 154.73 52.36C154.73 52.69 154.56 52.86 154.23 52.88ZM150.2 54.83V56.67C150.2 56.76 150.18 56.84 150.13 56.92C150.03 57.1 149.86 57.19 149.63 57.19C149.42 57.19 149.26 57.12 149.15 56.97C149.09 56.89 149.05 56.79 149.05 56.67V54.3C149.05 54.13 149.11 54 149.23 53.9C149.35 53.81 149.48 53.77 149.62 53.77C149.8 53.77 149.95 53.83 150.07 53.95L153.39 53.66C153.45 53.65 153.5 53.65 153.52 53.65C154.02 53.65 154.27 53.95 154.27 54.54V56.43C154.27 56.52 154.25 56.6 154.2 56.68C154.1 56.86 153.93 56.95 153.69 56.95C153.49 56.95 153.33 56.88 153.22 56.73C153.16 56.65 153.12 56.55 153.12 56.42V54.89C153.12 54.67 153.02 54.57 152.82 54.58C152.81 54.58 152.79 54.58 152.78 54.58L150.2 54.83ZM151.06 64.61C152.01 64.31 152.97 63.92 153.94 63.45C154.1 63.37 154.25 63.34 154.39 63.34C154.74 63.34 154.92 63.53 154.92 63.91C154.92 64.16 154.72 64.37 154.32 64.53C153.32 64.94 152.24 65.27 151.06 65.52V65.99C151.06 66.33 151.17 66.55 151.39 66.64C151.57 66.72 151.99 66.75 152.64 66.75C153.81 66.75 154.5 66.64 154.71 66.42C154.84 66.29 154.94 65.9 154.98 65.27C155 65.02 155.12 64.89 155.35 64.89C155.54 64.89 155.67 65.02 155.74 65.27C155.86 65.7 155.92 66.16 155.92 66.67C155.92 67.14 155.69 67.46 155.23 67.6C154.71 67.76 153.9 67.84 152.8 67.84C151.92 67.84 151.31 67.83 150.98 67.8C150.46 67.75 150.11 67.56 149.94 67.25C149.84 67.05 149.79 66.78 149.79 66.43V63.62C149.79 63.44 149.86 63.29 149.99 63.19C150.11 63.1 150.25 63.05 150.42 63.05C150.64 63.05 150.81 63.12 150.93 63.27C151.01 63.37 151.04 63.49 151.04 63.62V64.61H151.06ZM151.02 55.08C151.15 55.08 151.35 55.16 151.64 55.32C152.28 55.68 152.61 55.99 152.61 56.25C152.61 56.37 152.56 56.48 152.45 56.59C152.36 56.69 152.25 56.74 152.11 56.74C151.94 56.74 151.77 56.65 151.61 56.48C151.28 56.12 151.02 55.86 150.83 55.69C150.75 55.61 150.71 55.52 150.71 55.41C150.7 55.19 150.81 55.08 151.02 55.08ZM152.89 61.71L153.03 60.88C153.03 60.87 153.03 60.84 153.03 60.79C153.03 60.61 152.95 60.52 152.78 60.54C152.77 60.54 152.76 60.54 152.74 60.54L151.07 60.66L150.99 61.85L152.89 61.71Z" fill="black"/>
<path d="M163.4 64.45V67.12C164.58 67 165.66 66.78 166.63 66.45C166.71 66.42 166.79 66.41 166.87 66.41C167.05 66.41 167.18 66.49 167.27 66.64C167.31 66.72 167.33 66.79 167.33 66.86C167.33 67.08 167.04 67.29 166.47 67.48C165.45 67.82 164.4 68.09 163.33 68.28C163.17 68.31 163.05 68.32 162.97 68.32C162.79 68.32 162.63 68.23 162.47 68.06C162.31 67.9 162.23 67.66 162.23 67.36V61.45C162.01 61.38 161.91 61.24 161.92 61.03C161.92 61.02 161.92 61 161.92 60.99C161.21 61.37 160.5 61.69 159.79 61.96C159.46 62.09 159.23 62.15 159.12 62.15C158.94 62.15 158.82 62.08 158.74 61.94C158.7 61.86 158.68 61.78 158.68 61.72C158.68 61.57 158.76 61.44 158.92 61.33C158.96 61.31 159.18 61.21 159.59 61.05C161.37 60.34 163.02 59.38 164.56 58.17C165.2 57.67 165.74 57.17 166.16 56.68C166.35 56.45 166.56 56.33 166.78 56.33C166.91 56.33 167.04 56.38 167.15 56.48C167.29 56.6 167.36 56.75 167.36 56.91C167.36 57.01 167.33 57.11 167.27 57.22C167.54 57.44 167.77 57.61 167.95 57.74C167.97 57.65 168.01 57.58 168.07 57.51C168.1 57.47 168.24 57.37 168.48 57.2C168.81 56.97 169.18 56.66 169.6 56.28C169.54 56.24 169.46 56.2 169.38 56.14C168.93 55.86 168.45 55.6 167.94 55.33C167.73 55.23 167.63 55.09 167.63 54.92C167.63 54.84 167.65 54.76 167.7 54.68C167.78 54.53 167.9 54.46 168.06 54.46C168.23 54.46 168.99 54.81 170.35 55.51C171.17 54.61 171.58 54.03 171.58 53.79C171.58 53.71 171.5 53.67 171.34 53.67C171.3 53.67 171.25 53.67 171.2 53.68L168.03 54.01C168.02 54.01 167.99 54.01 167.94 54.01C167.59 54.01 167.42 53.85 167.42 53.53C167.42 53.2 167.6 53.02 167.96 52.99L172.21 52.59C172.27 52.58 172.34 52.58 172.42 52.58C172.92 52.58 173.18 52.76 173.18 53.12C173.18 53.31 173.11 53.54 172.97 53.81C172.62 54.48 172.06 55.23 171.31 56.06C172.17 56.56 172.84 56.98 173.31 57.33C173.54 57.5 173.65 57.68 173.65 57.88C173.65 58.01 173.6 58.14 173.5 58.26C173.38 58.4 173.25 58.47 173.09 58.47C172.94 58.47 172.7 58.35 172.38 58.12C171.8 57.71 171.18 57.29 170.52 56.86C169.76 57.55 169.15 58 168.68 58.22C170.53 59.4 172.44 60.25 174.42 60.77C174.8 60.87 174.99 61 174.99 61.15C174.99 61.27 174.88 61.37 174.65 61.44C174.08 61.61 173.64 61.69 173.34 61.69C173.16 61.69 172.98 61.64 172.8 61.55C172.2 61.26 171.49 60.88 170.69 60.42C170.84 60.58 170.91 60.8 170.91 61.07C170.91 61.12 170.9 61.2 170.89 61.3L170.56 63.95C170.51 64.33 170.33 64.51 170.02 64.51C169.73 64.51 169.55 64.4 169.47 64.18L163.4 64.45ZM162.02 57.76C161.49 57.3 160.99 56.92 160.53 56.62C159.86 57.16 159.39 57.43 159.13 57.43C159.03 57.43 158.95 57.39 158.88 57.32C158.79 57.23 158.75 57.13 158.75 57.02C158.75 56.89 158.87 56.74 159.12 56.55C159.79 56.07 160.52 55.36 161.29 54.43C161.44 54.25 161.6 54.17 161.76 54.17C161.85 54.17 161.94 54.2 162.02 54.26C162.17 54.35 162.24 54.48 162.24 54.65C162.24 54.74 162.21 54.85 162.15 54.96L162.72 54.92V52.23C162.72 52.06 162.78 51.93 162.9 51.84C163.02 51.75 163.15 51.71 163.29 51.71C163.42 51.71 163.55 51.75 163.66 51.82C163.8 51.92 163.87 52.06 163.87 52.23V52.94L165.88 52.77C165.92 52.76 165.95 52.76 165.97 52.76C166.31 52.76 166.48 52.92 166.48 53.23C166.48 53.54 166.3 53.72 165.94 53.75L163.87 53.91V54.81L165.24 54.7C165.29 54.69 165.35 54.69 165.44 54.69C165.9 54.69 166.13 54.85 166.13 55.16C166.13 55.56 165.62 56.21 164.59 57.1C163.27 58.24 161.77 59.14 160.07 59.81C159.83 59.9 159.66 59.95 159.55 59.95C159.4 59.95 159.29 59.88 159.21 59.75C159.15 59.66 159.12 59.57 159.12 59.48C159.12 59.34 159.18 59.23 159.3 59.15C159.34 59.12 159.52 59.04 159.86 58.91C160.45 58.68 161.16 58.3 162.02 57.76ZM162.84 57.2C163.87 56.48 164.38 56 164.38 55.78C164.38 55.71 164.31 55.67 164.18 55.67C164.1 55.67 164.06 55.67 164.04 55.67L161.34 55.92C161.32 55.94 161.3 55.95 161.29 55.96C161.23 56.02 161.18 56.07 161.14 56.1C162.03 56.52 162.6 56.88 162.84 57.2ZM162.7 60.55L169.84 60.15C169.87 60.15 169.9 60.15 169.94 60.15C170.09 60.15 170.23 60.17 170.36 60.2C169.5 59.7 168.79 59.26 168.24 58.9C168.29 58.99 168.31 59.07 168.31 59.14C168.31 59.3 168.24 59.42 168.09 59.52C168.03 59.56 167.97 59.58 167.9 59.58L165.2 59.72C165.14 59.73 165.09 59.72 165.03 59.69C164.88 59.61 164.8 59.48 164.8 59.28C164.8 59.26 164.8 59.24 164.8 59.21C164.04 59.73 163.34 60.18 162.7 60.55ZM163.4 61.98L169.64 61.67L169.67 61.47C169.67 61.45 169.67 61.42 169.67 61.36C169.67 61.17 169.55 61.08 169.31 61.09L163.4 61.4V61.98ZM163.4 63.55L169.49 63.24L169.55 62.55L163.4 62.84V63.55ZM169.46 66.1C170.92 66.62 172.22 66.96 173.36 67.14C173.74 67.2 173.93 67.3 173.93 67.44C173.93 67.56 173.82 67.66 173.61 67.76C172.96 68.04 172.46 68.18 172.11 68.18C171.51 68.18 170.35 67.78 168.63 66.97C167.44 66.41 166.4 65.85 165.51 65.27C165.32 65.15 165.23 65.01 165.23 64.85C165.23 64.77 165.26 64.69 165.32 64.6C165.4 64.48 165.5 64.42 165.64 64.42C165.75 64.42 166.02 64.53 166.45 64.76C167.04 65.08 167.69 65.39 168.41 65.69C169.46 65.09 170.3 64.52 170.92 63.98C171.11 63.81 171.3 63.73 171.47 63.73C171.6 63.73 171.73 63.78 171.84 63.89C171.95 63.99 172 64.11 172 64.26C172 64.51 171.81 64.77 171.43 65.04C170.99 65.34 170.34 65.7 169.46 66.1ZM165.31 58.85L167.89 58.69H167.92C167.48 58.41 167.06 58.11 166.65 57.79C166.09 58.27 165.64 58.62 165.31 58.85Z" fill="black"/>
<path d="M185.39 53.61L191.66 53.19C192.03 53.19 192.21 53.36 192.21 53.7C192.21 53.93 192.12 54.09 191.94 54.19C191.88 54.23 191.82 54.24 191.75 54.24L179.02 55.08V55.26C178.99 59.49 178.74 62.53 178.28 64.38C178.02 65.41 177.69 66.32 177.3 67.11C177.17 67.37 177 67.5 176.78 67.5C176.69 67.5 176.61 67.48 176.53 67.43C176.35 67.33 176.27 67.18 176.27 66.96C176.27 66.88 176.33 66.72 176.44 66.48C176.94 65.33 177.31 63.77 177.54 61.8C177.71 60.3 177.79 58.07 177.79 55.11C177.56 55.03 177.45 54.86 177.45 54.61C177.45 54.29 177.65 54.11 178.05 54.08L184.15 53.67V52.3C184.15 51.9 184.35 51.69 184.76 51.69C184.99 51.69 185.17 51.77 185.3 51.93C185.38 52.03 185.41 52.15 185.41 52.3V53.61H185.39ZM180.47 63.66L179.48 63.79C179.43 63.8 179.39 63.8 179.36 63.8C179.11 63.8 178.98 63.67 178.98 63.41C178.98 63.16 179.13 63.02 179.43 62.98L182.15 62.62C182.19 62.61 182.22 62.61 182.26 62.61C182.52 62.61 182.65 62.74 182.65 63.01C182.65 63.25 182.5 63.39 182.2 63.43L181.44 63.53V64.15L181.89 64.09C181.92 64.08 181.96 64.08 182 64.08C182.25 64.08 182.37 64.21 182.37 64.46C182.37 64.7 182.23 64.84 181.94 64.88L181.44 64.95V65.62C181.69 65.57 181.9 65.53 182.08 65.48C182.27 65.43 182.4 65.41 182.46 65.41C182.69 65.41 182.8 65.53 182.8 65.77C182.8 65.95 182.63 66.1 182.28 66.22C181.72 66.42 180.95 66.62 179.97 66.83C179.5 66.93 179.21 66.98 179.11 66.98C178.8 66.98 178.64 66.82 178.64 66.49C178.64 66.23 178.86 66.07 179.3 66.01C179.55 65.98 179.94 65.92 180.46 65.83V65.1L179.74 65.21C179.68 65.22 179.64 65.22 179.63 65.22C179.38 65.22 179.26 65.1 179.26 64.85C179.26 64.6 179.4 64.45 179.69 64.42L180.46 64.31V63.66H180.47ZM183.96 56.6V67.52C183.96 67.88 183.78 68.06 183.43 68.06C183.08 68.06 182.91 67.88 182.91 67.52V61.55C182.01 61.84 181.06 62.1 180.04 62.32C179.81 62.37 179.66 62.4 179.59 62.4C179.26 62.4 179.1 62.23 179.1 61.89C179.1 61.7 179.18 61.56 179.35 61.48C179.41 61.45 179.56 61.42 179.77 61.38C179.88 61.36 179.99 61.34 180.1 61.32V56.98L179.69 57.02C179.66 57.02 179.63 57.02 179.6 57.02C179.31 57 179.17 56.86 179.17 56.61C179.17 56.34 179.33 56.19 179.65 56.16L184.16 55.69C184.17 55.69 184.2 55.69 184.23 55.69C184.54 55.69 184.7 55.83 184.7 56.12C184.7 56.39 184.54 56.54 184.22 56.58L183.96 56.6ZM182.91 56.71L181.13 56.89V57.77L182.91 57.57V56.71ZM182.91 58.39L181.13 58.58V59.31L182.91 59.07V58.39ZM181.13 61.12C182.04 60.93 182.63 60.8 182.91 60.72V59.92L181.13 60.17V61.12ZM185.45 64.61C185.74 64.61 185.88 64.84 185.88 65.3C185.88 66.91 185.62 67.72 185.09 67.72C185.03 67.72 184.97 67.71 184.9 67.68C184.63 67.59 184.5 67.4 184.5 67.13C184.5 67.05 184.54 66.93 184.61 66.75C184.77 66.36 184.91 65.76 185.03 64.97C185.06 64.73 185.2 64.61 185.45 64.61ZM190.13 61.54L185.95 61.87C185.93 62.17 185.77 62.33 185.46 62.33C185.15 62.33 184.98 62.16 184.94 61.81L184.63 58.91C184.62 58.86 184.62 58.83 184.62 58.8C184.61 58.48 184.78 58.32 185.15 58.32C185.4 58.32 185.56 58.44 185.62 58.67L187.38 58.49V57.38L185.48 57.54C185.41 57.55 185.35 57.55 185.3 57.55C184.95 57.55 184.78 57.38 184.78 57.03C184.78 56.74 184.96 56.58 185.31 56.56L187.38 56.38V55.28C187.38 54.9 187.57 54.71 187.94 54.71C188.31 54.71 188.49 54.9 188.49 55.28V56.27L190.34 56.1C190.37 56.1 190.4 56.1 190.43 56.1C190.78 56.1 190.96 56.26 190.96 56.58C190.96 56.91 190.78 57.1 190.42 57.12L188.49 57.28V58.37L190.31 58.19C190.61 58.16 190.87 58.23 191.09 58.41C191.3 58.59 191.4 58.77 191.38 58.96L191.37 59.03L191.16 61.32C191.12 61.71 190.91 61.9 190.54 61.9C190.31 61.9 190.17 61.78 190.13 61.54ZM190.78 63.36L185.5 63.74C185.48 63.74 185.45 63.74 185.39 63.74C185.07 63.74 184.91 63.59 184.91 63.29C184.91 62.96 185.08 62.79 185.41 62.76L190.7 62.38C190.71 62.38 190.74 62.38 190.8 62.38C191.13 62.38 191.3 62.53 191.3 62.84C191.29 63.16 191.12 63.34 190.78 63.36ZM186.68 60.97L186.54 59.43L185.73 59.52L185.88 61.03L186.68 60.97ZM186.65 64.46C186.78 64.46 186.92 64.57 187.07 64.8C187.42 65.34 187.91 65.81 188.56 66.22C189.21 66.64 189.86 66.84 190.5 66.84C190.62 66.84 190.68 66.79 190.68 66.7C190.68 66.53 190.61 66.29 190.48 65.97C190.45 65.9 190.44 65.84 190.44 65.79C190.44 65.59 190.54 65.49 190.74 65.49C190.89 65.49 191.09 65.68 191.35 66.07C191.68 66.59 191.85 66.99 191.85 67.27C191.85 67.72 191.47 67.95 190.7 67.95C189.5 67.95 188.44 67.54 187.53 66.71C187.07 66.28 186.68 65.78 186.38 65.21C186.3 65.06 186.26 64.93 186.26 64.83C186.26 64.73 186.3 64.64 186.38 64.57C186.45 64.49 186.55 64.46 186.65 64.46ZM187.6 60.89L188.47 60.81L188.54 59.23L187.49 59.34L187.6 60.89ZM188.17 63.83C188.28 63.83 188.39 63.89 188.49 64.02C188.77 64.38 188.97 64.56 189.1 64.56C189.19 64.56 189.28 64.51 189.37 64.42C189.45 64.35 189.53 64.31 189.62 64.31C189.84 64.31 189.95 64.42 189.95 64.65C189.95 64.86 189.86 65.11 189.67 65.39C189.53 65.6 189.37 65.7 189.18 65.7C188.82 65.7 188.46 65.42 188.11 64.87C187.95 64.61 187.86 64.37 187.86 64.15C187.86 63.93 187.96 63.83 188.17 63.83ZM189.4 60.74L190.19 60.67L190.28 59.36V59.28C190.27 59.15 190.2 59.08 190.09 59.08H190L189.52 59.13L189.4 60.74ZM190.75 63.9C190.99 63.9 191.41 64.11 192.02 64.53C192.47 64.85 192.7 65.13 192.7 65.39C192.7 65.52 192.66 65.64 192.59 65.75C192.49 65.89 192.35 65.96 192.16 65.96C191.99 65.96 191.83 65.88 191.68 65.71C191.27 65.26 190.91 64.92 190.6 64.68C190.43 64.56 190.35 64.43 190.35 64.31C190.35 64.23 190.38 64.15 190.45 64.06C190.5 63.95 190.61 63.9 190.75 63.9Z" fill="black"/>
<path d="M195.28 53.39C195.54 53.39 195.96 53.69 196.54 54.3C197.3 55.1 197.94 56.09 198.46 57.27C199.16 58.85 199.51 60.42 199.51 62C199.51 63.61 199.15 65.21 198.42 66.83C197.75 68.3 196.91 69.46 195.88 70.32C195.65 70.51 195.44 70.61 195.26 70.61C195.11 70.61 194.98 70.56 194.89 70.45C194.81 70.35 194.77 70.24 194.77 70.11C194.77 69.98 194.83 69.84 194.96 69.71C194.98 69.69 195.13 69.54 195.41 69.28C196 68.72 196.54 67.96 197.02 66.99C197.78 65.48 198.15 63.81 198.15 61.99C198.15 60.05 197.72 58.29 196.86 56.7C196.38 55.81 195.77 55.02 195.02 54.34C194.85 54.19 194.77 54.04 194.77 53.88C194.77 53.77 194.81 53.66 194.88 53.56C194.97 53.45 195.1 53.39 195.28 53.39Z" fill="black"/>
</svg>
